<svg width="1140" height="344" viewBox="0 0 1140 344" fill="none" xmlns="http://www.w3.org/2000/svg">
    <path d="M687.982 316.683C937.382 316.683 1139.56 309.501 1139.56 300.641C1139.56 291.782 937.382 284.6 687.982 284.6C438.582 284.6 236.403 291.782 236.403 300.641C236.403 309.501 438.582 316.683 687.982 316.683Z" fill="#CFCFE5"/>
    <path d="M611.025 183.525C611.025 315.257 537.187 303.941 446.096 303.941C355.005 303.941 281.167 310.52 281.167 183.525C281.167 92.4339 355.005 40.707 446.096 40.707C537.187 40.707 611.025 92.4339 611.025 183.525Z" fill="#1A272E"/>
    <path opacity="0.28" d="M455.898 53.2729C455.898 53.2729 318.684 40.7071 308.037 207.571C308.037 207.571 297.308 306.984 446.068 303.941C446.068 303.941 573.168 308.804 579.402 226.299C585.18 149.896 578.903 61.3705 455.898 53.2729Z" fill="#8D8DB1"/>
    <path d="M531.211 258.839C578.237 211.813 578.237 135.57 531.211 88.5441C484.185 41.5185 407.942 41.5185 360.916 88.5441C313.891 135.57 313.891 211.813 360.916 258.839C407.942 305.864 484.185 305.864 531.211 258.839Z" fill="#8D8DB1"/>
    <path d="M524.485 252.113C567.796 208.802 567.796 138.581 524.485 95.2701C481.174 51.9592 410.953 51.9592 367.643 95.2701C324.332 138.581 324.332 208.802 367.643 252.113C410.953 295.424 481.174 295.424 524.485 252.113Z" fill="#BDBDD8"/>
    <path d="M445.932 78.4043H465.74C466.42 78.405 467.089 78.5712 467.69 78.8884C468.291 79.2056 468.806 79.6644 469.191 80.2252C469.575 80.7859 469.817 81.4318 469.896 82.107C469.975 82.7821 469.888 83.4664 469.643 84.1006L458.903 111.869L449.841 135.235C449.536 136.024 448.999 136.701 448.302 137.179C447.605 137.657 446.78 137.912 445.934 137.912C445.089 137.912 444.264 137.657 443.567 137.179C442.87 136.701 442.333 136.024 442.028 135.235L432.993 111.869L422.253 84.1006C422.007 83.4664 421.919 82.7818 421.998 82.1061C422.076 81.4303 422.318 80.7839 422.702 80.2228C423.087 79.6617 423.602 79.2028 424.204 78.8859C424.806 78.569 425.476 78.4037 426.157 78.4043H445.932Z" fill="#1A272E"/>
    <path d="M445.931 268.141H426.156C425.476 268.141 424.806 267.975 424.204 267.657C423.602 267.34 423.086 266.88 422.702 266.319C422.318 265.757 422.076 265.111 421.998 264.435C421.919 263.759 422.007 263.074 422.253 262.44L432.993 234.671L442.028 211.305C442.333 210.517 442.869 209.839 443.566 209.361C444.263 208.884 445.089 208.628 445.934 208.628C446.779 208.628 447.605 208.884 448.302 209.361C448.999 209.839 449.535 210.517 449.84 211.305L458.875 234.671L469.615 262.44C469.861 263.074 469.949 263.759 469.87 264.435C469.792 265.111 469.55 265.757 469.166 266.319C468.782 266.88 468.266 267.34 467.664 267.657C467.062 267.975 466.392 268.141 465.712 268.141H445.931Z" fill="#1A272E"/>
    <path d="M513.015 106.19L527.001 120.175C527.481 120.657 527.836 121.247 528.037 121.897C528.238 122.546 528.278 123.234 528.153 123.902C528.028 124.57 527.743 125.198 527.322 125.731C526.9 126.265 526.355 126.687 525.734 126.963L498.503 139.024L475.608 149.139C474.835 149.48 473.977 149.579 473.146 149.424C472.316 149.268 471.552 148.865 470.955 148.267C470.358 147.669 469.955 146.905 469.8 146.074C469.646 145.244 469.746 144.386 470.087 143.613L480.224 120.702L492.286 93.4705C492.561 92.8492 492.984 92.3044 493.517 91.883C494.05 91.4615 494.678 91.1762 495.346 91.0515C496.014 90.9269 496.703 90.9667 497.352 91.1674C498.001 91.3682 498.592 91.724 499.073 92.204L513.015 106.19Z" fill="#1A272E"/>
    <path d="M378.854 240.35L364.868 226.37C364.387 225.889 364.03 225.298 363.828 224.648C363.627 223.998 363.587 223.309 363.712 222.64C363.836 221.971 364.122 221.342 364.544 220.809C364.966 220.275 365.512 219.852 366.134 219.577L393.366 207.516L416.277 197.379C417.05 197.038 417.908 196.939 418.739 197.094C419.569 197.25 420.333 197.653 420.93 198.251C421.527 198.848 421.93 199.613 422.085 200.443C422.239 201.274 422.139 202.132 421.798 202.905L411.666 225.816L399.605 253.047C399.33 253.67 398.907 254.215 398.373 254.638C397.839 255.06 397.211 255.345 396.542 255.47C395.873 255.595 395.184 255.555 394.534 255.353C393.884 255.152 393.293 254.795 392.812 254.314L378.854 240.35Z" fill="#1A272E"/>
    <path d="M540.8 173.273V193.048C540.8 193.728 540.635 194.398 540.318 195C540.001 195.602 539.543 196.118 538.981 196.502C538.42 196.887 537.774 197.128 537.098 197.207C536.422 197.285 535.738 197.197 535.104 196.951L507.335 186.211L483.969 177.176C483.181 176.871 482.503 176.335 482.025 175.638C481.548 174.94 481.292 174.115 481.292 173.27C481.292 172.425 481.548 171.599 482.025 170.902C482.503 170.205 483.181 169.669 483.969 169.364L507.335 160.329L535.104 149.588C535.738 149.344 536.422 149.257 537.097 149.336C537.772 149.415 538.418 149.657 538.979 150.041C539.54 150.425 539.998 150.94 540.316 151.541C540.633 152.143 540.799 152.812 540.8 153.492V173.273Z" fill="#1A272E"/>
    <path d="M351.063 173.273V153.492C351.064 152.812 351.23 152.143 351.547 151.541C351.864 150.94 352.323 150.425 352.884 150.041C353.445 149.657 354.09 149.415 354.766 149.336C355.441 149.257 356.125 149.344 356.759 149.588L384.528 160.329L407.9 169.364C408.688 169.669 409.365 170.205 409.843 170.902C410.321 171.599 410.576 172.425 410.576 173.27C410.576 174.115 410.321 174.94 409.843 175.638C409.365 176.335 408.688 176.871 407.9 177.176L384.528 186.211L356.759 196.951C356.125 197.196 355.441 197.283 354.766 197.204C354.09 197.125 353.445 196.883 352.884 196.499C352.323 196.114 351.864 195.599 351.547 194.998C351.23 194.397 351.064 193.728 351.063 193.048V173.273Z" fill="#1A272E"/>
    <path d="M513.015 240.35L499.029 254.336C498.548 254.817 497.958 255.174 497.308 255.376C496.659 255.577 495.97 255.618 495.301 255.493C494.633 255.368 494.005 255.082 493.472 254.66C492.938 254.238 492.516 253.692 492.242 253.07L480.18 225.838L470.043 202.927C469.702 202.155 469.602 201.296 469.756 200.466C469.911 199.635 470.314 198.871 470.911 198.273C471.508 197.675 472.272 197.272 473.102 197.117C473.933 196.961 474.791 197.06 475.564 197.401L498.481 207.538L525.712 219.599C526.333 219.876 526.878 220.299 527.3 220.833C527.721 221.366 528.006 221.994 528.131 222.663C528.255 223.331 528.216 224.02 528.015 224.67C527.814 225.319 527.458 225.911 526.978 226.392L513.015 240.35Z" fill="#1A272E"/>
    <path d="M378.854 106.19L392.834 92.2038C393.316 91.7238 393.907 91.3681 394.557 91.1674C395.206 90.9667 395.895 90.9269 396.563 91.0515C397.232 91.1761 397.86 91.4614 398.394 91.8828C398.927 92.3041 399.351 92.849 399.627 93.4703L411.688 120.702L421.82 143.613C422.161 144.385 422.261 145.243 422.107 146.074C421.952 146.905 421.549 147.669 420.952 148.267C420.355 148.865 419.591 149.268 418.761 149.423C417.93 149.579 417.072 149.48 416.299 149.139L393.371 139.002L366.14 126.941C365.518 126.666 364.972 126.244 364.55 125.711C364.128 125.178 363.842 124.55 363.717 123.881C363.592 123.212 363.632 122.524 363.834 121.874C364.035 121.224 364.392 120.634 364.874 120.153L378.854 106.19Z" fill="#1A272E"/>
    <path d="M469.189 179.128C472.208 166.339 464.287 153.524 451.498 150.505C438.708 147.486 425.893 155.407 422.874 168.197C419.856 180.986 427.777 193.802 440.566 196.82C453.356 199.839 466.171 191.918 469.189 179.128Z" fill="#1A272E"/>
    <path d="M446.063 183.525C451.492 183.525 455.893 179.124 455.893 173.695C455.893 168.266 451.492 163.865 446.063 163.865C440.634 163.865 436.233 168.266 436.233 173.695C436.233 179.124 440.634 183.525 446.063 183.525Z" fill="white"/>
    <path opacity="0.28" d="M354.994 74.6934C354.994 74.6934 285.252 128.668 297.911 203.635C297.889 203.635 270.877 127.188 354.994 74.6934Z" fill="#8D8DB1"/>
    <path opacity="0.28" d="M570.827 102.297C570.827 102.297 596.682 144.934 594.868 219.331C594.868 219.331 607.571 141.305 570.827 102.297Z" fill="#8D8DB1"/>
    <path d="M767.444 242.363H638.343V177.259L771.868 0H835.876V175.954H880.114V242.363H835.876V304.183H767.444V242.363ZM767.444 107.401L717.006 175.932H767.444V107.401Z" fill="black"/>
    <path d="M129.117 242.363H0L9.05153 177.259L142.599 0H197.533V175.954H241.771V242.363H197.533V304.183H129.117V242.363ZM129.117 107.401L78.6786 175.932H129.117V107.401Z" fill="black"/>
    <path d="M949.248 54.6602H941.545V131.749H949.248V54.6602Z" fill="#BDBDD8"/>
    <path d="M985.69 47.6533H903.985V54.6599H985.69V47.6533Z" fill="#1A272E"/>
    <path d="M905.821 45.707H904.045C903.461 45.707 902.987 46.1808 902.987 46.7651V55.5535C902.987 56.1379 903.461 56.6116 904.045 56.6116H905.821C906.406 56.6116 906.879 56.1379 906.879 55.5535V46.7651C906.879 46.1808 906.406 45.707 905.821 45.707Z" fill="#1A272E"/>
    <path d="M986.578 45.707H984.802C984.217 45.707 983.744 46.1808 983.744 46.7651V55.5535C983.744 56.1379 984.217 56.6116 984.802 56.6116H986.578C987.162 56.6116 987.636 56.1379 987.636 55.5535V46.7651C987.636 46.1808 987.162 45.707 986.578 45.707Z" fill="#1A272E"/>
    <path d="M954.346 46.4248H936.183V55.893H954.346V46.4248Z" fill="#BDBDD8"/>
    <path opacity="0.33" d="M941.545 55.8936H949.248L941.545 60.1808V55.8936Z" fill="#1A272E"/>
    <path d="M940.355 120.614H950.437C953.475 120.614 956.388 121.821 958.536 123.969C960.684 126.117 961.89 129.03 961.89 132.067V289.6H928.902V132.045C928.908 129.011 930.117 126.104 932.265 123.961C934.412 121.818 937.322 120.614 940.355 120.614Z" fill="#2D9A3F"/>
    <path d="M967.96 115.713H945.262V295.965H967.96V115.713Z" fill="#2D9A3F"/>
    <path d="M973.848 303.054H917.581C917.581 299.293 919.075 295.687 921.734 293.029C924.392 290.37 927.999 288.876 931.759 288.876H959.67C963.43 288.876 967.036 290.37 969.695 293.029C972.354 295.687 973.848 299.293 973.848 303.054Z" fill="#2D9A3F"/>
    <path d="M976.863 302.242H914.401C913.832 302.242 913.371 302.704 913.371 303.273V305.17C913.371 305.739 913.832 306.201 914.401 306.201H976.863C977.432 306.201 977.894 305.739 977.894 305.17V303.273C977.894 302.704 977.432 302.242 976.863 302.242Z" fill="#2D9A3F"/>
    <path d="M953.168 115.712H937.625C936.165 115.712 934.982 116.895 934.982 118.354V119.835C934.982 121.294 936.165 122.477 937.625 122.477H953.168C954.627 122.477 955.81 121.294 955.81 119.835V118.354C955.81 116.895 954.627 115.712 953.168 115.712Z" fill="#2D9A3F"/>
    <path opacity="0.32" d="M936.825 214.171C935.952 214.171 935.115 213.825 934.499 213.208C933.882 212.591 933.535 211.754 933.535 210.882V188.59C933.535 187.718 933.882 186.881 934.499 186.264C935.115 185.647 935.952 185.301 936.825 185.301C937.697 185.301 938.534 185.647 939.151 186.264C939.768 186.881 940.114 187.718 940.114 188.59V210.887C940.113 211.759 939.765 212.594 939.149 213.21C938.532 213.826 937.696 214.171 936.825 214.171Z" fill="white"/>
    <path opacity="0.32" d="M936.825 224.884C935.952 224.884 935.115 224.538 934.499 223.921C933.882 223.304 933.535 222.467 933.535 221.595V219.32C933.535 218.447 933.882 217.611 934.499 216.994C935.115 216.377 935.952 216.03 936.825 216.03C937.697 216.03 938.534 216.377 939.151 216.994C939.768 217.611 940.114 218.447 940.114 219.32V221.595C940.114 222.467 939.768 223.304 939.151 223.921C938.534 224.538 937.697 224.884 936.825 224.884Z" fill="white"/>
    <path d="M973.049 161.332C975.523 146.09 965.172 131.727 949.929 129.253C934.687 126.779 920.324 137.13 917.85 152.372C915.376 167.615 925.727 181.977 940.969 184.452C956.212 186.926 970.574 176.575 973.049 161.332Z" fill="#1A272E"/>
    <path d="M954.777 179.471C967.287 174.289 973.228 159.947 968.046 147.437C962.864 134.927 948.522 128.987 936.012 134.168C923.502 139.35 917.561 153.692 922.743 166.202C927.925 178.712 942.267 184.653 954.777 179.471Z" fill="white"/>
    <path d="M960.454 135.537C960.454 135.537 961.353 168.52 930.816 178.437C930.816 178.437 952.746 192.489 969.911 173.657C987.077 154.824 960.454 135.537 960.454 135.537Z" fill="#BDBDD8"/>
    <path d="M945.629 160.679C947.761 160.679 949.489 158.951 949.489 156.82C949.489 154.688 947.761 152.96 945.629 152.96C943.498 152.96 941.77 154.688 941.77 156.82C941.77 158.951 943.498 160.679 945.629 160.679Z" fill="#1A272E"/>
    <path d="M946.326 135.537H944.938V142.171H946.326V135.537Z" fill="#1A272E"/>
    <path d="M946.326 171.804H944.938V178.437H946.326V171.804Z" fill="#1A272E"/>
    <path d="M967.077 157.681V156.294H960.443V157.681H967.077Z" fill="#1A272E"/>
    <path d="M930.81 157.675V156.288H924.176V157.675H930.81Z" fill="#1A272E"/>
    <path d="M961.29 142.313L960.309 141.332L955.618 146.023L956.599 147.004L961.29 142.313Z" fill="#1A272E"/>
    <path d="M935.643 167.951L934.662 166.97L929.971 171.66L930.952 172.641L935.643 167.951Z" fill="#1A272E"/>
    <path d="M960.311 172.644L961.292 171.663L956.601 166.972L955.62 167.953L960.311 172.644Z" fill="#1A272E"/>
    <path d="M934.664 146.999L935.645 146.019L930.954 141.328L929.973 142.309L934.664 146.999Z" fill="#1A272E"/>
    <path d="M954.582 148.037L946.216 154.616L945.629 156.99L948.003 156.403L954.582 148.037Z" fill="#F1BF46"/>
    <path d="M451.392 273.946H440.74V284.599H451.392V273.946Z" fill="#2D9A3F"/>
    <path d="M778.617 290.098C757 290.098 736.572 284.111 716.178 271.787C698.135 260.888 682.345 246.688 665.635 231.655C633.354 202.598 599.972 172.598 549.632 169.029C522.417 167.099 500.153 173.963 483.453 189.353C450.652 219.627 449.774 273.437 449.769 273.974L442.368 273.914C442.368 273.327 442.538 259.391 447.006 241.332C451.151 224.556 459.966 200.981 478.404 183.947C496.666 167.072 520.805 159.572 550.158 161.65C603.031 165.4 637.373 196.282 670.58 226.151C702.927 255.208 733.453 282.702 778.617 282.702C831.112 282.702 854.697 271.957 873.65 263.316C888.206 256.683 900.777 250.953 921.232 252.554L920.657 259.934C902.098 258.481 890.898 263.585 876.715 270.049C857.115 278.985 832.718 290.098 778.617 290.098Z" fill="#2D9A3F"/>
    <path d="M928.776 248.409H913.102V264.083H928.776V248.409Z" fill="#2D9A3F"/>
</svg>
