<svg width="12" height="13" viewBox="0 0 12 13" fill="none" xmlns="http://www.w3.org/2000/svg">
<path d="M6.75 0.806641C6.75 0.607728 6.67098 0.416963 6.53033 0.27631C6.38968 0.135658 6.19891 0.0566406 6 0.0566406C5.80109 0.0566406 5.61032 0.135658 5.46967 0.27631C5.32902 0.416963 5.25 0.607728 5.25 0.806641V5.30664H0.75C0.551088 5.30664 0.360322 5.38566 0.21967 5.52631C0.0790175 5.66696 0 5.85773 0 6.05664C0 6.25555 0.0790175 6.44632 0.21967 6.58697C0.360322 6.72762 0.551088 6.80664 0.75 6.80664H5.25V11.3066C5.25 11.5056 5.32902 11.6963 5.46967 11.837C5.61032 11.9776 5.80109 12.0566 6 12.0566C6.19891 12.0566 6.38968 11.9776 6.53033 11.837C6.67098 11.6963 6.75 11.5056 6.75 11.3066V6.80664H11.25C11.4489 6.80664 11.6397 6.72762 11.7803 6.58697C11.921 6.44632 12 6.25555 12 6.05664C12 5.85773 11.921 5.66696 11.7803 5.52631C11.6397 5.38566 11.4489 5.30664 11.25 5.30664H6.75V0.806641Z" fill="#4848ED"/>
</svg>
