<svg width="736" height="230" viewBox="0 0 736 230" fill="none" xmlns="http://www.w3.org/2000/svg">
<g clip-path="url(#clip0_95_29020)">
<path d="M131.386 240.06L208.459 483.606H159.624L114.29 251.035H104.975H104.032H94.7176L49.3827 483.606H0.548584L77.6134 240.06L66.9346 63.6941L95.4505 78.8561V128.617H100.607H108.397H113.546V78.8561L142.07 63.6941L131.386 240.06ZM114.29 237.726V212.253H104.975H104.032H94.7176V237.726H104.032H104.975H114.29ZM114.29 200.851V175.377H104.975H104.032H94.7176V200.851H104.032H104.975H114.29ZM114.29 163.972V140.397H106.5H102.505H94.7149V163.972H104.029H104.973H114.29Z" fill="#E6E7E9"/>
<path d="M102.505 140.402H94.7153V163.974H104.03" stroke="#201E1E" stroke-width="0.44666" stroke-miterlimit="10"/>
<path d="M104.03 175.378H94.7153V200.852H104.03" stroke="#201E1E" stroke-width="0.44666" stroke-miterlimit="10"/>
<path d="M104.03 212.251H94.7153V237.724H104.03" stroke="#201E1E" stroke-width="0.44666" stroke-miterlimit="10"/>
<path d="M104.029 251.035H94.7149L49.3827 483.606H0.548584L77.6107 240.06L66.9346 63.6941L95.4505 78.8561V128.617H100.607" stroke="#201E1E" stroke-width="0.44666" stroke-miterlimit="10"/>
<path d="M102.506 140.402H106.501H114.291V163.974H104.976H104.03" stroke="#201E1E" stroke-width="0.44666" stroke-miterlimit="10"/>
<path d="M104.029 175.378H104.975H114.289V200.852H104.975H104.029" stroke="#201E1E" stroke-width="0.44666" stroke-miterlimit="10"/>
<path d="M104.029 212.251H104.975H114.289V237.724H104.975H104.029" stroke="#201E1E" stroke-width="0.44666" stroke-miterlimit="10"/>
<path d="M104.028 251.035H104.974H114.289L159.624 483.606H208.455L131.385 240.06L142.069 63.6941L113.545 78.8561V128.617H108.396H100.606" stroke="#201E1E" stroke-width="0.44666" stroke-miterlimit="10"/>
</g>
<g clip-path="url(#clip1_95_29020)">
<path d="M329.838 244.795L330.96 254.443L329.229 259.505L326.364 264.009C326.364 220.851 279.099 185.862 216.509 185.862C153.921 185.862 106.654 220.851 106.654 264.009L104.618 262.551L101.524 253.584L105.527 236.252L116.084 219.647L124.549 210.903L138.475 201.065L152.945 193.324L167.457 187.585L189.348 182.304L212.826 180.209L237.338 181.395L251.418 184.216L269.713 188.771L295.015 200.974L307.756 210.906L317.675 220.742L325.465 233.04L329.838 244.795Z" fill="#E2C7C7"/>
<path d="M250.681 268.897C250.058 271.109 245.695 272.82 240.407 272.82C235.107 272.82 230.737 271.099 230.13 268.879L230.058 268.897H226.88C224.645 270.309 220.888 271.234 216.627 271.234C212.284 271.234 208.46 270.271 206.243 268.813L206.188 268.897H202.884C202.261 271.109 197.9 272.82 192.612 272.82C187.449 272.82 183.172 271.188 182.389 269.053L178.411 268.897C177.789 271.109 173.425 272.82 168.137 272.82C163.202 272.82 159.078 271.329 158.04 269.334H155.349C154.311 271.329 150.184 272.82 145.249 272.82C140.433 272.82 136.383 271.399 135.231 269.474H133.576C133.576 271.32 130.11 272.82 125.833 272.82C122.624 272.82 119.871 271.976 118.695 270.776L118.588 270.853H117.447C117.447 271.941 115.407 272.82 112.894 272.82C111.525 272.82 110.296 272.557 109.462 272.146L106.653 264.009C106.653 220.852 153.92 185.863 216.508 185.863C279.098 185.863 326.364 220.852 326.364 264.009L323.708 272.067C322.874 272.525 321.577 272.82 320.123 272.82C317.923 272.82 316.089 272.146 315.662 271.25H313.745C312.377 272.194 309.946 272.82 307.181 272.82C303.164 272.82 299.86 271.499 299.477 269.806H299.475H297.556C296.159 271.562 292.305 272.82 287.767 272.82C282.67 272.82 278.429 271.227 277.574 269.132H275.07C274.217 271.227 269.979 272.82 264.882 272.82C259.582 272.82 255.209 271.099 254.603 268.879L254.531 268.897H250.681Z" fill="#201E1E"/>
<path d="M106.657 264.009C106.657 220.852 153.924 185.863 216.512 185.863C279.102 185.863 326.367 220.852 326.367 264.009" stroke="#201E1E" stroke-width="0.389006" stroke-miterlimit="10"/>
<path d="M323.713 272.066L322.163 276.759L110.64 275.542L109.464 272.147L106.655 264.009L104.62 262.553L101.528 253.587L105.531 236.252L116.088 219.647L124.553 210.906L138.477 201.067L152.947 193.324L167.459 187.587L189.352 182.304L212.83 180.209L237.342 181.393L251.42 184.216L269.712 188.771L295.014 200.974L307.756 210.906L317.676 220.739L325.465 233.038L329.84 244.795L330.964 254.443L329.233 259.505L326.368 264.009L323.713 272.066Z" stroke="#201E1E" stroke-width="0.389006" stroke-miterlimit="10"/>
<path d="M325.461 215.257L299.764 275.476H292.58L321.342 215.257H325.461Z" fill="#FFE5E4"/>
<path d="M307.299 196.987L278.735 275.475H270.754L302.721 196.987H307.299Z" fill="#FFE5E4"/>
<path d="M283.892 178.738L255.235 275.476H247.226L279.303 178.738H283.892Z" fill="#FFE5E4"/>
<path d="M255.541 168.339L232.834 275.478H226.486L251.902 168.339H255.541Z" fill="#FFE5E4"/>
<path d="M181.114 168.339L206.532 275.478H200.184L177.478 168.339H181.114Z" fill="#FFE5E4"/>
<path d="M153.715 178.738L185.792 275.476H177.783L149.124 178.738H153.715Z" fill="#FFE5E4"/>
<path d="M130.295 196.987L162.262 275.475H154.281L125.718 196.987H130.295Z" fill="#FFE5E4"/>
<path d="M111.675 215.257L140.437 275.476H133.255L107.561 215.257H111.675Z" fill="#FFE5E4"/>
<path d="M140.437 275.476L111.675 215.257H107.561L133.255 275.476H140.437Z" stroke="#201E1E" stroke-width="0.389006" stroke-miterlimit="10"/>
<path d="M162.262 275.475L130.295 196.987H125.718L154.281 275.475H162.262Z" stroke="#201E1E" stroke-width="0.389006" stroke-miterlimit="10"/>
<path d="M185.792 275.476L153.715 178.738H149.124L177.783 275.476H185.792Z" stroke="#201E1E" stroke-width="0.389006" stroke-miterlimit="10"/>
<path d="M206.532 275.478L181.114 168.339H177.478L200.184 275.478H206.532Z" stroke="#201E1E" stroke-width="0.389006" stroke-miterlimit="10"/>
<path d="M292.58 275.476L321.342 215.257H325.461L299.764 275.476H292.58Z" stroke="#201E1E" stroke-width="0.389006" stroke-miterlimit="10"/>
<path d="M270.754 275.475L302.721 196.987H307.299L278.735 275.475H270.754Z" stroke="#201E1E" stroke-width="0.389006" stroke-miterlimit="10"/>
<path d="M247.226 275.476L279.303 178.738H283.892L255.235 275.476H247.226Z" stroke="#201E1E" stroke-width="0.389006" stroke-miterlimit="10"/>
<path d="M226.486 275.478L251.902 168.339H255.541L232.834 275.478H226.486Z" stroke="#201E1E" stroke-width="0.389006" stroke-miterlimit="10"/>
<path d="M329.832 256.13C329.705 215.121 279.015 181.906 216.506 181.906C153.999 181.906 103.307 215.121 103.179 256.13L111.748 275.519H109.065L100.496 256.128C100.626 213.37 152.515 178.735 216.506 178.735C280.497 178.735 332.388 213.368 332.516 256.128L323.947 275.519H321.264L329.832 256.13Z" fill="#FFE5E4"/>
<path d="M332.517 256.291C332.517 256.237 332.517 256.184 332.514 256.128C332.387 213.37 280.498 178.735 216.504 178.735C152.511 178.735 100.624 213.37 100.494 256.128C100.492 256.181 100.492 256.235 100.492 256.291" stroke="#201E1E" stroke-width="0.389006" stroke-miterlimit="10"/>
<path d="M103.177 256.288C103.177 256.234 103.177 256.183 103.18 256.13C103.307 215.12 153.999 181.906 216.506 181.906C279.015 181.906 329.705 215.12 329.833 256.13C329.835 256.183 329.835 256.234 329.835 256.288" stroke="#201E1E" stroke-width="0.389006" stroke-miterlimit="10"/>
</g>
<g clip-path="url(#clip2_95_29020)">
<path d="M451.512 160.462V623.532H290.496V160.462H299.21H442.792H451.512ZM447.373 606.356V594.928H435.924V606.356H447.373ZM447.373 591.039V579.608H435.924V591.039H447.373ZM447.373 575.72V564.292H435.924V575.72H447.373ZM447.373 560.4V548.972H435.924V560.4H447.373ZM447.373 545.08V533.649H435.924V545.08H447.373ZM447.373 529.76V518.333H435.924V529.76H447.373ZM447.373 514.444V503.016H435.924V514.444H447.373ZM447.373 499.124V487.693H435.924V499.124H447.373ZM447.373 483.804V472.377H435.924V483.804H447.373ZM447.373 468.484V457.057H435.924V468.484H447.373ZM447.373 453.168V441.737H435.924V453.168H447.373ZM447.373 437.845V426.417H435.924V437.845H447.373ZM447.373 422.528V411.101H435.924V422.528H447.373ZM447.373 407.209V395.778H435.924V407.209H447.373ZM447.373 391.889V380.461H435.924V391.889H447.373ZM447.373 376.572V365.145H435.924V376.572H447.373ZM447.373 361.253V349.825H435.924V361.253H447.373ZM447.373 345.933V334.505H435.924V345.933H447.373ZM447.373 330.613V319.185H435.924V330.613H447.373ZM447.373 315.297V303.869H435.924V315.297H447.373ZM447.373 299.974V288.546H435.924V299.974H447.373ZM447.373 284.657V273.229H435.924V284.657H447.373ZM447.373 269.337V257.91H435.924V269.337H447.373ZM447.373 254.018V242.59H435.924V254.018H447.373ZM447.373 238.701V227.273H435.924V238.701H447.373ZM447.373 223.381V211.954H435.924V223.381H447.373ZM447.373 208.061V196.634H435.924V208.061H447.373ZM447.373 192.742V181.314H435.924V192.742H447.373ZM433.245 606.356V594.928H421.795V606.356H433.245ZM433.245 591.039V579.608H421.795V591.039H433.245ZM433.245 575.72V564.292H421.795V575.72H433.245ZM433.245 560.4V548.972H421.795V560.4H433.245ZM433.245 545.08V533.649H421.795V545.08H433.245ZM433.245 529.76V518.333H421.795V529.76H433.245ZM433.245 514.444V503.016H421.795V514.444H433.245ZM433.245 499.124V487.693H421.795V499.124H433.245ZM433.245 483.804V472.377H421.795V483.804H433.245ZM433.245 468.484V457.057H421.795V468.484H433.245ZM433.245 453.168V441.737H421.795V453.168H433.245ZM433.245 437.845V426.417H421.795V437.845H433.245ZM433.245 422.528V411.101H421.795V422.528H433.245ZM433.245 407.209V395.778H421.795V407.209H433.245ZM433.245 391.889V380.461H421.795V391.889H433.245ZM433.245 376.572V365.145H421.795V376.572H433.245ZM433.245 361.253V349.825H421.795V361.253H433.245ZM433.245 345.933V334.505H421.795V345.933H433.245ZM433.245 330.613V319.185H421.795V330.613H433.245ZM433.245 315.297V303.869H421.795V315.297H433.245ZM433.245 299.974V288.546H421.795V299.974H433.245ZM433.245 284.657V273.229H421.795V284.657H433.245ZM433.245 269.337V257.91H421.795V269.337H433.245ZM433.245 254.018V242.59H421.795V254.018H433.245ZM433.245 238.701V227.273H421.795V238.701H433.245ZM433.245 223.381V211.954H421.795V223.381H433.245ZM433.245 208.061V196.634H421.795V208.061H433.245ZM433.245 192.742V181.314H421.795V192.742H433.245ZM419.116 606.356V594.928H407.666V606.356H419.116ZM419.116 591.039V579.608H407.666V591.039H419.116ZM419.116 575.72V564.292H407.666V575.72H419.116ZM419.116 560.4V548.972H407.666V560.4H419.116ZM419.116 545.08V533.649H407.666V545.08H419.116ZM419.116 529.76V518.333H407.666V529.76H419.116ZM419.116 514.444V503.016H407.666V514.444H419.116ZM419.116 499.124V487.693H407.666V499.124H419.116ZM419.116 483.804V472.377H407.666V483.804H419.116ZM419.116 468.484V457.057H407.666V468.484H419.116ZM419.116 453.168V441.737H407.666V453.168H419.116ZM419.116 437.845V426.417H407.666V437.845H419.116ZM419.116 422.528V411.101H407.666V422.528H419.116ZM419.116 407.209V395.778H407.666V407.209H419.116ZM419.116 391.889V380.461H407.666V391.889H419.116ZM419.116 376.572V365.145H407.666V376.572H419.116ZM419.116 361.253V349.825H407.666V361.253H419.116ZM419.116 345.933V334.505H407.666V345.933H419.116ZM419.116 330.613V319.185H407.666V330.613H419.116ZM419.116 315.297V303.869H407.666V315.297H419.116ZM419.116 299.974V288.546H407.666V299.974H419.116ZM419.116 284.657V273.229H407.666V284.657H419.116ZM419.116 269.337V257.91H407.666V269.337H419.116ZM419.116 254.018V242.59H407.666V254.018H419.116ZM419.116 238.701V227.273H407.666V238.701H419.116ZM419.116 223.381V211.954H407.666V223.381H419.116ZM419.116 208.061V196.634H407.666V208.061H419.116ZM419.116 192.742V181.314H407.666V192.742H419.116ZM404.987 606.356V594.928H393.537V606.356H404.987ZM404.987 591.039V579.608H393.537V591.039H404.987ZM404.987 575.72V564.292H393.537V575.72H404.987ZM404.987 560.4V548.972H393.537V560.4H404.987ZM404.987 545.08V533.649H393.537V545.08H404.987ZM404.987 529.76V518.333H393.537V529.76H404.987ZM404.987 514.444V503.016H393.537V514.444H404.987ZM404.987 499.124V487.693H393.537V499.124H404.987ZM404.987 483.804V472.377H393.537V483.804H404.987ZM404.987 468.484V457.057H393.537V468.484H404.987ZM404.987 453.168V441.737H393.537V453.168H404.987ZM404.987 437.845V426.417H393.537V437.845H404.987ZM404.987 422.528V411.101H393.537V422.528H404.987ZM404.987 407.209V395.778H393.537V407.209H404.987ZM404.987 391.889V380.461H393.537V391.889H404.987ZM404.987 376.572V365.145H393.537V376.572H404.987ZM404.987 361.253V349.825H393.537V361.253H404.987ZM404.987 345.933V334.505H393.537V345.933H404.987ZM404.987 330.613V319.185H393.537V330.613H404.987ZM404.987 315.297V303.869H393.537V315.297H404.987ZM404.987 299.974V288.546H393.537V299.974H404.987ZM404.987 284.657V273.229H393.537V284.657H404.987ZM404.987 269.337V257.91H393.537V269.337H404.987ZM404.987 254.018V242.59H393.537V254.018H404.987ZM404.987 238.701V227.273H393.537V238.701H404.987ZM404.987 223.381V211.954H393.537V223.381H404.987ZM404.987 208.061V196.634H393.537V208.061H404.987ZM404.987 192.742V181.314H393.537V192.742H404.987ZM390.858 606.356V594.928H379.409V606.356H390.858ZM390.858 591.039V579.608H379.409V591.039H390.858ZM390.858 575.72V564.292H379.409V575.72H390.858ZM390.858 560.4V548.972H379.409V560.4H390.858ZM390.858 545.08V533.649H379.409V545.08H390.858ZM390.858 529.76V518.333H379.409V529.76H390.858ZM390.858 514.444V503.016H379.409V514.444H390.858ZM390.858 499.124V487.693H379.409V499.124H390.858ZM390.858 483.804V472.377H379.409V483.804H390.858ZM390.858 468.484V457.057H379.409V468.484H390.858ZM390.858 453.168V441.737H379.409V453.168H390.858ZM390.858 437.845V426.417H379.409V437.845H390.858ZM390.858 422.528V411.101H379.409V422.528H390.858ZM390.858 407.209V395.778H379.409V407.209H390.858ZM390.858 391.889V380.461H379.409V391.889H390.858ZM390.858 376.572V365.145H379.409V376.572H390.858ZM390.858 361.253V349.825H379.409V361.253H390.858ZM390.858 345.933V334.505H379.409V345.933H390.858ZM390.858 330.613V319.185H379.409V330.613H390.858ZM390.858 315.297V303.869H379.409V315.297H390.858ZM390.858 299.974V288.546H379.409V299.974H390.858ZM390.858 284.657V273.229H379.409V284.657H390.858ZM390.858 269.337V257.91H379.409V269.337H390.858ZM390.858 254.018V242.59H379.409V254.018H390.858ZM390.858 238.701V227.273H379.409V238.701H390.858ZM390.858 223.381V211.954H379.409V223.381H390.858ZM390.858 208.061V196.634H379.409V208.061H390.858ZM390.858 192.742V181.314H379.409V192.742H390.858ZM376.729 606.356V594.928H365.28V606.356H376.729ZM376.729 591.039V579.608H365.28V591.039H376.729ZM376.729 575.72V564.292H365.28V575.72H376.729ZM376.729 560.4V548.972H365.28V560.4H376.729ZM376.729 545.08V533.649H365.28V545.08H376.729ZM376.729 529.76V518.333H365.28V529.76H376.729ZM376.729 514.444V503.016H365.28V514.444H376.729ZM376.729 499.124V487.693H365.28V499.124H376.729ZM376.729 483.804V472.377H365.28V483.804H376.729ZM376.729 468.484V457.057H365.28V468.484H376.729ZM376.729 453.168V441.737H365.28V453.168H376.729ZM376.729 437.845V426.417H365.28V437.845H376.729ZM376.729 422.528V411.101H365.28V422.528H376.729ZM376.729 407.209V395.778H365.28V407.209H376.729ZM376.729 391.889V380.461H365.28V391.889H376.729ZM376.729 376.572V365.145H365.28V376.572H376.729ZM376.729 361.253V349.825H365.28V361.253H376.729ZM376.729 345.933V334.505H365.28V345.933H376.729ZM376.729 330.613V319.185H365.28V330.613H376.729ZM376.729 315.297V303.869H365.28V315.297H376.729ZM376.729 299.974V288.546H365.28V299.974H376.729ZM376.729 284.657V273.229H365.28V284.657H376.729ZM376.729 269.337V257.91H365.28V269.337H376.729ZM376.729 254.018V242.59H365.28V254.018H376.729ZM376.729 238.701V227.273H365.28V238.701H376.729ZM376.729 223.381V211.954H365.28V223.381H376.729ZM376.729 208.061V196.634H365.28V208.061H376.729ZM376.729 192.742V181.314H365.28V192.742H376.729ZM362.6 606.356V594.928H351.151V606.356H362.6ZM362.6 591.039V579.608H351.151V591.039H362.6ZM362.6 575.72V564.292H351.151V575.72H362.6ZM362.6 560.4V548.972H351.151V560.4H362.6ZM362.6 545.08V533.649H351.151V545.08H362.6ZM362.6 529.76V518.333H351.151V529.76H362.6ZM362.6 514.444V503.016H351.151V514.444H362.6ZM362.6 499.124V487.693H351.151V499.124H362.6ZM362.6 483.804V472.377H351.151V483.804H362.6ZM362.6 468.484V457.057H351.151V468.484H362.6ZM362.6 453.168V441.737H351.151V453.168H362.6ZM362.6 437.845V426.417H351.151V437.845H362.6ZM362.6 422.528V411.101H351.151V422.528H362.6ZM362.6 407.209V395.778H351.151V407.209H362.6ZM362.6 391.889V380.461H351.151V391.889H362.6ZM362.6 376.572V365.145H351.151V376.572H362.6ZM362.6 361.253V349.825H351.151V361.253H362.6ZM362.6 345.933V334.505H351.151V345.933H362.6ZM362.6 330.613V319.185H351.151V330.613H362.6ZM362.6 315.297V303.869H351.151V315.297H362.6ZM362.6 299.974V288.546H351.151V299.974H362.6ZM362.6 284.657V273.229H351.151V284.657H362.6ZM362.6 269.337V257.91H351.151V269.337H362.6ZM362.6 254.018V242.59H351.151V254.018H362.6ZM362.6 238.701V227.273H351.151V238.701H362.6ZM362.6 223.381V211.954H351.151V223.381H362.6ZM362.6 208.061V196.634H351.151V208.061H362.6ZM362.6 192.742V181.314H351.151V192.742H362.6ZM348.471 606.356V594.928H337.022V606.356H348.471ZM348.471 591.039V579.608H337.022V591.039H348.471ZM348.471 575.72V564.292H337.022V575.72H348.471ZM348.471 560.4V548.972H337.022V560.4H348.471ZM348.471 545.08V533.649H337.022V545.08H348.471ZM348.471 529.76V518.333H337.022V529.76H348.471ZM348.471 514.444V503.016H337.022V514.444H348.471ZM348.471 499.124V487.693H337.022V499.124H348.471ZM348.471 483.804V472.377H337.022V483.804H348.471ZM348.471 468.484V457.057H337.022V468.484H348.471ZM348.471 453.168V441.737H337.022V453.168H348.471ZM348.471 437.845V426.417H337.022V437.845H348.471ZM348.471 422.528V411.101H337.022V422.528H348.471ZM348.471 407.209V395.778H337.022V407.209H348.471ZM348.471 391.889V380.461H337.022V391.889H348.471ZM348.471 376.572V365.145H337.022V376.572H348.471ZM348.471 361.253V349.825H337.022V361.253H348.471ZM348.471 345.933V334.505H337.022V345.933H348.471ZM348.471 330.613V319.185H337.022V330.613H348.471ZM348.471 315.297V303.869H337.022V315.297H348.471ZM348.471 299.974V288.546H337.022V299.974H348.471ZM348.471 284.657V273.229H337.022V284.657H348.471ZM348.471 269.337V257.91H337.022V269.337H348.471ZM348.471 254.018V242.59H337.022V254.018H348.471ZM348.471 238.701V227.273H337.022V238.701H348.471ZM348.471 223.381V211.954H337.022V223.381H348.471ZM348.471 208.061V196.634H337.022V208.061H348.471ZM348.471 192.742V181.314H337.022V192.742H348.471ZM334.342 606.356V594.928H322.893V606.356H334.342ZM334.342 591.039V579.608H322.893V591.039H334.342ZM334.342 575.72V564.292H322.893V575.72H334.342ZM334.342 560.4V548.972H322.893V560.4H334.342ZM334.342 545.08V533.649H322.893V545.08H334.342ZM334.342 529.76V518.333H322.893V529.76H334.342ZM334.342 514.444V503.016H322.893V514.444H334.342ZM334.342 499.124V487.693H322.893V499.124H334.342ZM334.342 483.804V472.377H322.893V483.804H334.342ZM334.342 468.484V457.057H322.893V468.484H334.342ZM334.342 453.168V441.737H322.893V453.168H334.342ZM334.342 437.845V426.417H322.893V437.845H334.342ZM334.342 422.528V411.101H322.893V422.528H334.342ZM334.342 407.209V395.778H322.893V407.209H334.342ZM334.342 391.889V380.461H322.893V391.889H334.342ZM334.342 376.572V365.145H322.893V376.572H334.342ZM334.342 361.253V349.825H322.893V361.253H334.342ZM334.342 345.933V334.505H322.893V345.933H334.342ZM334.342 330.613V319.185H322.893V330.613H334.342ZM334.342 315.297V303.869H322.893V315.297H334.342ZM334.342 299.974V288.546H322.893V299.974H334.342ZM334.342 284.657V273.229H322.893V284.657H334.342ZM334.342 269.337V257.91H322.893V269.337H334.342ZM334.342 254.018V242.59H322.893V254.018H334.342ZM334.342 238.701V227.273H322.893V238.701H334.342ZM334.342 223.381V211.954H322.893V223.381H334.342ZM334.342 208.061V196.634H322.893V208.061H334.342ZM334.342 192.742V181.314H322.893V192.742H334.342ZM320.21 606.356V594.928H308.761V606.356H320.21ZM320.21 591.039V579.608H308.761V591.039H320.21ZM320.21 575.72V564.292H308.761V575.72H320.21ZM320.21 560.4V548.972H308.761V560.4H320.21ZM320.21 545.08V533.649H308.761V545.08H320.21ZM320.21 529.76V518.333H308.761V529.76H320.21ZM320.21 514.444V503.016H308.761V514.444H320.21ZM320.21 499.124V487.693H308.761V499.124H320.21ZM320.21 483.804V472.377H308.761V483.804H320.21ZM320.21 468.484V457.057H308.761V468.484H320.21ZM320.21 453.168V441.737H308.761V453.168H320.21ZM320.21 437.845V426.417H308.761V437.845H320.21ZM320.21 422.528V411.101H308.761V422.528H320.21ZM320.21 407.209V395.778H308.761V407.209H320.21ZM320.21 391.889V380.461H308.761V391.889H320.21ZM320.21 376.572V365.145H308.761V376.572H320.21ZM320.21 361.253V349.825H308.761V361.253H320.21ZM320.21 345.933V334.505H308.761V345.933H320.21ZM320.21 330.613V319.185H308.761V330.613H320.21ZM320.21 315.297V303.869H308.761V315.297H320.21ZM320.21 299.974V288.546H308.761V299.974H320.21ZM320.21 284.657V273.229H308.761V284.657H320.21ZM320.21 269.337V257.91H308.761V269.337H320.21ZM320.21 254.018V242.59H308.761V254.018H320.21ZM320.21 238.701V227.273H308.761V238.701H320.21ZM320.21 223.381V211.954H308.761V223.381H320.21ZM320.21 208.061V196.634H308.761V208.061H320.21ZM320.21 192.742V181.314H308.761V192.742H320.21ZM306.085 606.356V594.928H294.635V606.356H306.085ZM306.085 591.039V579.608H294.635V591.039H306.085ZM306.085 575.72V564.292H294.635V575.72H306.085ZM306.085 560.4V548.972H294.635V560.4H306.085ZM306.085 545.08V533.649H294.635V545.08H306.085ZM306.085 529.76V518.333H294.635V529.76H306.085ZM306.085 514.444V503.016H294.635V514.444H306.085ZM306.085 499.124V487.693H294.635V499.124H306.085ZM306.085 483.804V472.377H294.635V483.804H306.085ZM306.085 468.484V457.057H294.635V468.484H306.085ZM306.085 453.168V441.737H294.635V453.168H306.085ZM306.085 437.845V426.417H294.635V437.845H306.085ZM306.085 422.528V411.101H294.635V422.528H306.085ZM306.085 407.209V395.778H294.635V407.209H306.085ZM306.085 391.889V380.461H294.635V391.889H306.085ZM306.085 376.572V365.145H294.635V376.572H306.085ZM306.085 361.253V349.825H294.635V361.253H306.085ZM306.085 345.933V334.505H294.635V345.933H306.085ZM306.085 330.613V319.185H294.635V330.613H306.085ZM306.085 315.297V303.869H294.635V315.297H306.085ZM306.085 299.974V288.546H294.635V299.974H306.085ZM306.085 284.657V273.229H294.635V284.657H306.085ZM306.085 269.337V257.91H294.635V269.337H306.085ZM306.085 254.018V242.59H294.635V254.018H306.085ZM306.085 238.701V227.273H294.635V238.701H306.085ZM306.085 223.381V211.954H294.635V223.381H306.085ZM306.085 208.061V196.634H294.635V208.061H306.085ZM306.085 192.742V181.314H294.635V192.742H306.085Z" fill="#20E682"/>
<path d="M447.375 227.266H435.926V238.694H447.375V227.266Z" fill="#201E1E"/>
<path d="M447.375 211.946H435.926V223.373H447.375V211.946Z" fill="#201E1E"/>
<path d="M447.375 196.625H435.926V208.053H447.375V196.625Z" fill="#201E1E"/>
<path d="M447.375 181.305H435.926V192.733H447.375V181.305Z" fill="#201E1E"/>
<path d="M442.79 140.508H299.208V160.456H442.79V140.508Z" fill="#20E682"/>
<path d="M433.243 227.266H421.794V238.694H433.243V227.266Z" fill="#201E1E"/>
<path d="M433.243 211.946H421.794V223.373H433.243V211.946Z" fill="#201E1E"/>
<path d="M433.243 196.625H421.794V208.053H433.243V196.625Z" fill="#201E1E"/>
<path d="M433.243 181.305H421.794V192.733H433.243V181.305Z" fill="#201E1E"/>
<path d="M419.115 227.266H407.666V238.694H419.115V227.266Z" fill="#201E1E"/>
<path d="M419.115 211.946H407.666V223.373H419.115V211.946Z" fill="#201E1E"/>
<path d="M419.115 196.625H407.666V208.053H419.115V196.625Z" fill="#201E1E"/>
<path d="M419.115 181.305H407.666V192.733H419.115V181.305Z" fill="#201E1E"/>
<path d="M404.987 227.266H393.538V238.694H404.987V227.266Z" fill="#201E1E"/>
<path d="M404.987 211.946H393.538V223.373H404.987V211.946Z" fill="#201E1E"/>
<path d="M404.987 196.625H393.538V208.053H404.987V196.625Z" fill="#201E1E"/>
<path d="M404.987 181.305H393.538V192.733H404.987V181.305Z" fill="#201E1E"/>
<path d="M390.86 227.266H379.41V238.694H390.86V227.266Z" fill="#201E1E"/>
<path d="M390.86 211.946H379.41V223.373H390.86V211.946Z" fill="#201E1E"/>
<path d="M390.86 196.625H379.41V208.053H390.86V196.625Z" fill="#201E1E"/>
<path d="M390.86 181.305H379.41V192.733H390.86V181.305Z" fill="#201E1E"/>
<path d="M376.724 227.266H365.275V238.694H376.724V227.266Z" fill="#201E1E"/>
<path d="M376.724 211.946H365.275V223.373H376.724V211.946Z" fill="#201E1E"/>
<path d="M376.724 196.625H365.275V208.053H376.724V196.625Z" fill="#201E1E"/>
<path d="M376.724 181.305H365.275V192.733H376.724V181.305Z" fill="#201E1E"/>
<path d="M362.6 227.266H351.151V238.694H362.6V227.266Z" fill="#201E1E"/>
<path d="M362.6 211.946H351.151V223.373H362.6V211.946Z" fill="#201E1E"/>
<path d="M362.6 196.625H351.151V208.053H362.6V196.625Z" fill="#201E1E"/>
<path d="M362.6 181.305H351.151V192.733H362.6V181.305Z" fill="#201E1E"/>
<path d="M348.465 227.266H337.015V238.694H348.465V227.266Z" fill="#201E1E"/>
<path d="M348.465 211.946H337.015V223.373H348.465V211.946Z" fill="#201E1E"/>
<path d="M348.465 196.625H337.015V208.053H348.465V196.625Z" fill="#201E1E"/>
<path d="M348.465 181.305H337.015V192.733H348.465V181.305Z" fill="#201E1E"/>
<path d="M334.34 227.266H322.891V238.694H334.34V227.266Z" fill="#201E1E"/>
<path d="M334.34 211.946H322.891V223.373H334.34V211.946Z" fill="#201E1E"/>
<path d="M334.34 196.625H322.891V208.053H334.34V196.625Z" fill="#201E1E"/>
<path d="M334.34 181.305H322.891V192.733H334.34V181.305Z" fill="#201E1E"/>
<path d="M320.213 227.266H308.763V238.694H320.213V227.266Z" fill="#201E1E"/>
<path d="M320.213 211.946H308.763V223.373H320.213V211.946Z" fill="#201E1E"/>
<path d="M320.213 196.625H308.763V208.053H320.213V196.625Z" fill="#201E1E"/>
<path d="M320.213 181.305H308.763V192.733H320.213V181.305Z" fill="#201E1E"/>
<path d="M306.081 227.266H294.632V238.694H306.081V227.266Z" fill="#201E1E"/>
<path d="M306.081 211.946H294.632V223.373H306.081V211.946Z" fill="#201E1E"/>
<path d="M306.081 196.625H294.632V208.053H306.081V196.625Z" fill="#201E1E"/>
<path d="M306.081 181.305H294.632V192.733H306.081V181.305Z" fill="#201E1E"/>
<path d="M442.795 160.462H451.512V623.532H290.496V160.462H299.21" stroke="#201E1E" stroke-width="0.546614" stroke-miterlimit="10"/>
<path d="M442.79 140.508H299.208V160.456H442.79V140.508Z" stroke="#201E1E" stroke-width="0.546614" stroke-miterlimit="10"/>
<path d="M306.081 181.305H294.632V192.733H306.081V181.305Z" stroke="#201E1E" stroke-width="0.546614" stroke-miterlimit="10"/>
<path d="M320.213 181.305H308.763V192.733H320.213V181.305Z" stroke="#201E1E" stroke-width="0.546614" stroke-miterlimit="10"/>
<path d="M334.34 181.305H322.891V192.733H334.34V181.305Z" stroke="#201E1E" stroke-width="0.546614" stroke-miterlimit="10"/>
<path d="M348.465 181.305H337.015V192.733H348.465V181.305Z" stroke="#201E1E" stroke-width="0.546614" stroke-miterlimit="10"/>
<path d="M362.6 181.305H351.151V192.733H362.6V181.305Z" stroke="#201E1E" stroke-width="0.546614" stroke-miterlimit="10"/>
<path d="M376.724 181.305H365.275V192.733H376.724V181.305Z" stroke="#201E1E" stroke-width="0.546614" stroke-miterlimit="10"/>
<path d="M390.86 181.305H379.41V192.733H390.86V181.305Z" stroke="#201E1E" stroke-width="0.546614" stroke-miterlimit="10"/>
<path d="M404.987 181.305H393.538V192.733H404.987V181.305Z" stroke="#201E1E" stroke-width="0.546614" stroke-miterlimit="10"/>
<path d="M419.115 181.305H407.666V192.733H419.115V181.305Z" stroke="#201E1E" stroke-width="0.546614" stroke-miterlimit="10"/>
<path d="M433.243 181.305H421.794V192.733H433.243V181.305Z" stroke="#201E1E" stroke-width="0.546614" stroke-miterlimit="10"/>
<path d="M447.375 181.305H435.926V192.733H447.375V181.305Z" stroke="#201E1E" stroke-width="0.546614" stroke-miterlimit="10"/>
<path d="M306.081 196.625H294.632V208.053H306.081V196.625Z" stroke="#201E1E" stroke-width="0.546614" stroke-miterlimit="10"/>
<path d="M320.213 196.625H308.763V208.053H320.213V196.625Z" stroke="#201E1E" stroke-width="0.546614" stroke-miterlimit="10"/>
<path d="M334.34 196.625H322.891V208.053H334.34V196.625Z" stroke="#201E1E" stroke-width="0.546614" stroke-miterlimit="10"/>
<path d="M348.465 196.625H337.015V208.053H348.465V196.625Z" stroke="#201E1E" stroke-width="0.546614" stroke-miterlimit="10"/>
<path d="M362.6 196.625H351.151V208.053H362.6V196.625Z" stroke="#201E1E" stroke-width="0.546614" stroke-miterlimit="10"/>
<path d="M376.724 196.625H365.275V208.053H376.724V196.625Z" stroke="#201E1E" stroke-width="0.546614" stroke-miterlimit="10"/>
<path d="M390.86 196.625H379.41V208.053H390.86V196.625Z" stroke="#201E1E" stroke-width="0.546614" stroke-miterlimit="10"/>
<path d="M404.987 196.625H393.538V208.053H404.987V196.625Z" stroke="#201E1E" stroke-width="0.546614" stroke-miterlimit="10"/>
<path d="M419.115 196.625H407.666V208.053H419.115V196.625Z" stroke="#201E1E" stroke-width="0.546614" stroke-miterlimit="10"/>
<path d="M433.243 196.625H421.794V208.053H433.243V196.625Z" stroke="#201E1E" stroke-width="0.546614" stroke-miterlimit="10"/>
<path d="M447.375 196.625H435.926V208.053H447.375V196.625Z" stroke="#201E1E" stroke-width="0.546614" stroke-miterlimit="10"/>
<path d="M306.081 211.946H294.632V223.373H306.081V211.946Z" stroke="#201E1E" stroke-width="0.546614" stroke-miterlimit="10"/>
<path d="M320.213 211.946H308.763V223.373H320.213V211.946Z" stroke="#201E1E" stroke-width="0.546614" stroke-miterlimit="10"/>
<path d="M334.34 211.946H322.891V223.373H334.34V211.946Z" stroke="#201E1E" stroke-width="0.546614" stroke-miterlimit="10"/>
<path d="M348.465 211.946H337.015V223.373H348.465V211.946Z" stroke="#201E1E" stroke-width="0.546614" stroke-miterlimit="10"/>
<path d="M362.6 211.946H351.151V223.373H362.6V211.946Z" stroke="#201E1E" stroke-width="0.546614" stroke-miterlimit="10"/>
<path d="M376.724 211.946H365.275V223.373H376.724V211.946Z" stroke="#201E1E" stroke-width="0.546614" stroke-miterlimit="10"/>
<path d="M390.86 211.946H379.41V223.373H390.86V211.946Z" stroke="#201E1E" stroke-width="0.546614" stroke-miterlimit="10"/>
<path d="M404.987 211.946H393.538V223.373H404.987V211.946Z" stroke="#201E1E" stroke-width="0.546614" stroke-miterlimit="10"/>
<path d="M419.115 211.946H407.666V223.373H419.115V211.946Z" stroke="#201E1E" stroke-width="0.546614" stroke-miterlimit="10"/>
<path d="M433.243 211.946H421.794V223.373H433.243V211.946Z" stroke="#201E1E" stroke-width="0.546614" stroke-miterlimit="10"/>
<path d="M447.375 211.946H435.926V223.373H447.375V211.946Z" stroke="#201E1E" stroke-width="0.546614" stroke-miterlimit="10"/>
<path d="M306.081 227.266H294.632V238.694H306.081V227.266Z" stroke="#201E1E" stroke-width="0.546614" stroke-miterlimit="10"/>
<path d="M320.213 227.266H308.763V238.694H320.213V227.266Z" stroke="#201E1E" stroke-width="0.546614" stroke-miterlimit="10"/>
<path d="M334.34 227.266H322.891V238.694H334.34V227.266Z" stroke="#201E1E" stroke-width="0.546614" stroke-miterlimit="10"/>
<path d="M348.465 227.266H337.015V238.694H348.465V227.266Z" stroke="#201E1E" stroke-width="0.546614" stroke-miterlimit="10"/>
<path d="M362.6 227.266H351.151V238.694H362.6V227.266Z" stroke="#201E1E" stroke-width="0.546614" stroke-miterlimit="10"/>
<path d="M376.724 227.266H365.275V238.694H376.724V227.266Z" stroke="#201E1E" stroke-width="0.546614" stroke-miterlimit="10"/>
<path d="M390.86 227.266H379.41V238.694H390.86V227.266Z" stroke="#201E1E" stroke-width="0.546614" stroke-miterlimit="10"/>
<path d="M404.987 227.266H393.538V238.694H404.987V227.266Z" stroke="#201E1E" stroke-width="0.546614" stroke-miterlimit="10"/>
<path d="M419.115 227.266H407.666V238.694H419.115V227.266Z" stroke="#201E1E" stroke-width="0.546614" stroke-miterlimit="10"/>
<path d="M433.243 227.266H421.794V238.694H433.243V227.266Z" stroke="#201E1E" stroke-width="0.546614" stroke-miterlimit="10"/>
<path d="M447.375 227.266H435.926V238.694H447.375V227.266Z" stroke="#201E1E" stroke-width="0.546614" stroke-miterlimit="10"/>
</g>
<g clip-path="url(#clip3_95_29020)">
<path d="M601.703 187.286V409.697H430.291V187.286H601.703ZM594.948 405.727V402.658H570.646V405.727H594.948ZM594.948 399.681V396.612H570.646V399.681H594.948ZM594.948 393.634V390.565H570.646V393.634H594.948ZM594.948 387.584V384.519H570.646V387.584H594.948ZM594.948 381.537V378.472H570.646V381.537H594.948ZM594.948 375.491V372.426H570.646V375.491H594.948ZM594.948 369.444V366.378H570.646V369.444H594.948ZM594.948 363.396V360.327H570.646V363.396H594.948ZM594.948 357.35V354.281H570.646V357.35H594.948ZM594.948 351.303V348.234H570.646V351.303H594.948ZM594.948 345.255V342.186H570.646V345.255H594.948ZM594.948 339.209V336.14H570.646V339.209H594.948ZM594.948 333.16V330.095H570.646V333.16H594.948ZM594.948 327.112V324.047H570.646V327.112H594.948ZM594.948 321.065V318H570.646V321.065H594.948ZM594.948 315.019V311.954H570.646V315.019H594.948ZM594.948 308.972V305.903H570.646V308.972H594.948ZM594.948 302.924V299.855H570.646V302.924H594.948ZM594.948 296.878V293.809H570.646V296.878H594.948ZM594.948 290.831V287.762H570.646V290.831H594.948ZM594.948 284.783V281.716H570.646V284.785H594.948V284.783ZM594.948 278.734V275.668H570.646V278.734H594.948ZM594.948 272.688V269.623H570.646V272.688H594.948ZM594.948 266.64V263.575H570.646V266.64H594.948ZM594.948 260.593V257.528H570.646V260.593H594.948ZM594.948 254.547V251.478H570.646V254.547H594.948ZM594.948 248.5V245.431H570.646V248.5H594.948ZM594.948 242.452V239.383H570.646V242.452H594.948ZM594.948 236.406V233.337H570.646V236.406H594.948ZM594.948 230.359V227.29H570.646V230.359H594.948ZM594.948 224.309V221.244H570.646V224.309H594.948ZM594.948 218.262V215.197H570.646V218.262H594.948ZM594.948 212.216V209.149H570.646V212.214H594.948V212.216ZM594.948 206.168V203.103H570.646V206.168H594.948ZM594.948 200.121V197.054H570.646V200.123H594.948V200.121ZM565.457 405.727V402.658H466.208V405.727H565.457ZM565.457 399.681V396.612H466.208V399.681H565.457ZM565.457 393.634V390.565H466.208V393.634H565.457ZM565.457 387.584V384.519H466.208V387.584H565.457ZM565.457 381.537V378.472H466.208V381.537H565.457ZM565.457 375.491V372.426H466.208V375.491H565.457ZM565.457 369.444V366.378H466.208V369.444H565.457ZM565.457 363.396V360.327H466.208V363.396H565.457ZM565.457 357.35V354.281H466.208V357.35H565.457ZM565.457 351.303V348.234H466.208V351.303H565.457ZM565.457 345.255V342.186H466.208V345.255H565.457ZM565.457 339.209V336.14H466.208V339.209H565.457ZM565.457 333.16V330.095H466.208V333.16H565.457ZM565.457 327.112V324.047H466.208V327.112H565.457ZM565.457 321.065V318H466.208V321.065H565.457ZM565.457 315.019V311.954H466.208V315.019H565.457ZM565.457 308.972V305.903H466.208V308.972H565.457ZM565.457 302.924V299.855H466.208V302.924H565.457ZM565.457 296.878V293.809H466.208V296.878H565.457ZM565.457 290.831V287.762H466.208V290.831H565.457ZM565.457 284.783V281.716H466.208V284.785H565.457V284.783ZM565.457 278.734V275.668H466.208V278.734H565.457ZM565.457 272.688V269.623H466.208V272.688H565.457ZM565.457 266.64V263.575H466.208V266.64H565.457ZM565.457 260.593V257.528H466.208V260.593H565.457ZM565.457 254.547V251.478H466.208V254.547H565.457ZM565.457 248.5V245.431H466.208V248.5H565.457ZM565.457 242.452V239.383H466.208V242.452H565.457ZM565.457 236.406V233.337H466.208V236.406H565.457ZM565.457 230.359V227.29H466.208V230.359H565.457ZM565.457 224.309V221.244H466.208V224.309H565.457ZM565.457 218.262V215.197H466.208V218.262H565.457ZM565.457 212.216V209.149H466.208V212.214H565.457V212.216ZM565.457 206.168V203.103H466.208V206.168H565.457ZM565.457 200.121V197.054H466.208V200.123H565.457V200.121ZM461.348 405.727V402.658H437.047V405.727H461.348ZM461.348 399.681V396.612H437.047V399.681H461.348ZM461.348 393.634V390.565H437.047V393.634H461.348ZM461.348 387.584V384.519H437.047V387.584H461.348ZM461.348 381.537V378.472H437.047V381.537H461.348ZM461.348 375.491V372.426H437.047V375.491H461.348ZM461.348 369.444V366.378H437.047V369.444H461.348ZM461.348 363.396V360.327H437.047V363.396H461.348ZM461.348 357.35V354.281H437.047V357.35H461.348ZM461.348 351.303V348.234H437.047V351.303H461.348ZM461.348 345.255V342.186H437.047V345.255H461.348ZM461.348 339.209V336.14H437.047V339.209H461.348ZM461.348 333.16V330.095H437.047V333.16H461.348ZM461.348 327.112V324.047H437.047V327.112H461.348ZM461.348 321.065V318H437.047V321.065H461.348ZM461.348 315.019V311.954H437.047V315.019H461.348ZM461.348 308.972V305.903H437.047V308.972H461.348ZM461.348 302.924V299.855H437.047V302.924H461.348ZM461.348 296.878V293.809H437.047V296.878H461.348ZM461.348 290.831V287.762H437.047V290.831H461.348ZM461.348 284.783V281.716H437.047V284.785H461.348V284.783ZM461.348 278.734V275.668H437.047V278.734H461.348ZM461.348 272.688V269.623H437.047V272.688H461.348ZM461.348 266.64V263.575H437.047V266.64H461.348ZM461.348 260.593V257.528H437.047V260.593H461.348ZM461.348 254.547V251.478H437.047V254.547H461.348ZM461.348 248.5V245.431H437.047V248.5H461.348ZM461.348 242.452V239.383H437.047V242.452H461.348ZM461.348 236.406V233.337H437.047V236.406H461.348ZM461.348 230.359V227.29H437.047V230.359H461.348ZM461.348 224.309V221.244H437.047V224.309H461.348ZM461.348 218.262V215.197H437.047V218.262H461.348ZM461.348 212.216V209.149H437.047V212.214H461.348V212.216ZM461.348 206.168V203.103H437.047V206.168H461.348ZM461.348 200.121V197.054H437.047V200.123H461.348V200.121Z" fill="#E6E7E9"/>
<path d="M594.946 227.288H570.645V230.357H594.946V227.288Z" fill="#201E1E"/>
<path d="M594.946 221.243H570.645V224.308H594.946V221.243Z" fill="#201E1E"/>
<path d="M594.946 215.198H570.645V218.263H594.946V215.198Z" fill="#201E1E"/>
<path d="M594.946 209.152H570.645V212.217H594.946V209.152Z" fill="#201E1E"/>
<path d="M594.946 203.107H570.645V206.172H594.946V203.107Z" fill="#201E1E"/>
<path d="M594.946 197.056H570.645V200.125H594.946V197.056Z" fill="#201E1E"/>
<path d="M565.457 227.288H466.208V230.357H565.457V227.288Z" fill="#201E1E"/>
<path d="M565.457 221.243H466.208V224.308H565.457V221.243Z" fill="#201E1E"/>
<path d="M565.457 215.198H466.208V218.263H565.457V215.198Z" fill="#201E1E"/>
<path d="M565.457 209.152H466.208V212.217H565.457V209.152Z" fill="#201E1E"/>
<path d="M565.457 203.107H466.208V206.172H565.457V203.107Z" fill="#201E1E"/>
<path d="M565.457 197.056H466.208V200.125H565.457V197.056Z" fill="#201E1E"/>
<path d="M461.348 227.288H437.047V230.357H461.348V227.288Z" fill="#201E1E"/>
<path d="M461.348 221.243H437.047V224.308H461.348V221.243Z" fill="#201E1E"/>
<path d="M461.348 215.198H437.047V218.263H461.348V215.198Z" fill="#201E1E"/>
<path d="M461.348 209.152H437.047V212.217H461.348V209.152Z" fill="#201E1E"/>
<path d="M461.348 203.107H437.047V206.172H461.348V203.107Z" fill="#201E1E"/>
<path d="M461.348 197.056H437.047V200.125H461.348V197.056Z" fill="#201E1E"/>
<path d="M601.703 187.286H430.291V409.697H601.703V187.286Z" stroke="#201E1E" stroke-width="0.327638" stroke-miterlimit="10"/>
<path d="M461.348 197.056H437.047V200.125H461.348V197.056Z" stroke="#201E1E" stroke-width="0.327638" stroke-miterlimit="10"/>
<path d="M594.946 197.056H570.645V200.125H594.946V197.056Z" stroke="#201E1E" stroke-width="0.327638" stroke-miterlimit="10"/>
<path d="M565.457 197.056H466.208V200.125H565.457V197.056Z" stroke="#201E1E" stroke-width="0.327638" stroke-miterlimit="10"/>
<path d="M461.348 203.107H437.047V206.172H461.348V203.107Z" stroke="#201E1E" stroke-width="0.327638" stroke-miterlimit="10"/>
<path d="M594.946 203.107H570.645V206.172H594.946V203.107Z" stroke="#201E1E" stroke-width="0.327638" stroke-miterlimit="10"/>
<path d="M565.457 203.107H466.208V206.172H565.457V203.107Z" stroke="#201E1E" stroke-width="0.327638" stroke-miterlimit="10"/>
<path d="M461.348 209.152H437.047V212.217H461.348V209.152Z" stroke="#201E1E" stroke-width="0.327638" stroke-miterlimit="10"/>
<path d="M594.946 209.152H570.645V212.217H594.946V209.152Z" stroke="#201E1E" stroke-width="0.327638" stroke-miterlimit="10"/>
<path d="M565.457 209.152H466.208V212.217H565.457V209.152Z" stroke="#201E1E" stroke-width="0.327638" stroke-miterlimit="10"/>
<path d="M461.348 215.198H437.047V218.263H461.348V215.198Z" stroke="#201E1E" stroke-width="0.327638" stroke-miterlimit="10"/>
<path d="M594.946 215.198H570.645V218.263H594.946V215.198Z" stroke="#201E1E" stroke-width="0.327638" stroke-miterlimit="10"/>
<path d="M565.457 215.198H466.208V218.263H565.457V215.198Z" stroke="#201E1E" stroke-width="0.327638" stroke-miterlimit="10"/>
<path d="M461.348 221.243H437.047V224.308H461.348V221.243Z" stroke="#201E1E" stroke-width="0.327638" stroke-miterlimit="10"/>
<path d="M594.946 221.243H570.645V224.308H594.946V221.243Z" stroke="#201E1E" stroke-width="0.327638" stroke-miterlimit="10"/>
<path d="M565.457 221.243H466.208V224.308H565.457V221.243Z" stroke="#201E1E" stroke-width="0.327638" stroke-miterlimit="10"/>
<path d="M461.348 227.288H437.047V230.357H461.348V227.288Z" stroke="#201E1E" stroke-width="0.327638" stroke-miterlimit="10"/>
<path d="M594.946 227.288H570.645V230.357H594.946V227.288Z" stroke="#201E1E" stroke-width="0.327638" stroke-miterlimit="10"/>
<path d="M565.457 227.288H466.208V230.357H565.457V227.288Z" stroke="#201E1E" stroke-width="0.327638" stroke-miterlimit="10"/>
</g>
<g clip-path="url(#clip4_95_29020)">
<path d="M735.569 200.034V566.171H689.285V200.034H714.558H735.569ZM729.323 557.089V545.232H721.885V557.089H729.323ZM729.323 540.762V528.905H721.885V540.762H729.323ZM729.323 524.433V512.579H721.885V524.433H729.323ZM729.323 508.109V496.252H721.885V508.109H729.323ZM729.323 491.78V479.923H721.885V491.78H729.323ZM729.323 475.456V463.599H721.885V475.456H729.323ZM729.323 459.127V447.27H721.885V459.127H729.323ZM729.323 442.803V430.946H721.885V442.803H729.323ZM729.323 426.474V414.617H721.885V426.474H729.323ZM729.323 410.144V398.29H721.885V410.144H729.323ZM729.323 393.821V381.964H721.885V393.821H729.323ZM729.323 377.491V365.634H721.885V377.491H729.323ZM729.323 361.167V349.311H721.885V361.167H729.323ZM729.323 344.838V332.981H721.885V344.838H729.323ZM729.323 328.514V316.658H721.885V328.514H729.323ZM729.323 312.185V300.328H721.885V312.185H729.323ZM729.323 295.859V284.005H721.885V295.859H729.323ZM729.323 279.532V267.675H721.885V279.532H729.323ZM729.323 263.203V251.346H721.885V263.203H729.323ZM729.323 246.879V235.022H721.885V246.879H729.323ZM729.323 230.55V218.693H721.885V230.55H729.323ZM718.455 557.089V545.232H696.285V557.089H718.455ZM718.455 540.762V528.905H696.285V540.762H718.455ZM718.455 524.433V512.579H696.285V524.433H718.455ZM718.455 508.109V496.252H696.285V508.109H718.455ZM718.455 491.78V479.923H696.285V491.78H718.455ZM718.455 475.456V463.599H696.285V475.456H718.455ZM718.455 459.127V447.27H696.285V459.127H718.455ZM718.455 442.803V430.946H696.285V442.803H718.455ZM718.455 426.474V414.617H696.285V426.474H718.455ZM718.455 410.144V398.29H696.285V410.144H718.455ZM718.455 393.821V381.964H696.285V393.821H718.455ZM718.455 377.491V365.634H696.285V377.491H718.455ZM718.455 361.167V349.311H696.285V361.167H718.455ZM718.455 344.838V332.981H696.285V344.838H718.455ZM718.455 328.514V316.658H696.285V328.514H718.455ZM718.455 312.185V300.328H696.285V312.185H718.455ZM718.455 295.859V284.005H696.285V295.859H718.455ZM718.455 279.532V267.675H696.285V279.532H718.455ZM718.455 263.203V251.346H696.285V263.203H718.455ZM718.455 246.879V235.022H696.285V246.879H718.455ZM718.455 230.55V218.693H696.285V230.55H718.455Z" fill="#FFE5E4"/>
<path d="M729.32 218.696H721.882V230.553H729.32V218.696Z" fill="#201E1E"/>
<path d="M719.347 168.058H684.494V180.143H719.347V168.058Z" fill="#FFE5E4"/>
<path d="M718.451 218.696H696.281V230.553H718.451V218.696Z" fill="#201E1E"/>
<path d="M714.558 180.16H689.285V200.037H714.558V180.16Z" fill="#FFE5E4"/>
<path d="M714.558 128.166V167.921H689.285V128.166H693.375V128.183H710.465V128.166H714.558Z" fill="#FFE5E4"/>
<path d="M710.464 20.8391H693.375V128.163H710.464V20.8391Z" fill="#FFE5E4"/>
<path d="M689.28 200.034H569.662V566.171H689.28V200.034Z" fill="#DDCACA"/>
<path d="M707.299 0.411133H696.539V20.7365H707.299V0.411133Z" stroke="#201E1E" stroke-width="0.476601" stroke-miterlimit="10"/>
<path d="M710.464 128.157V128.174H693.375V128.157V20.8325H710.464V128.157Z" stroke="#201E1E" stroke-width="0.476601" stroke-miterlimit="10"/>
<path d="M710.465 128.16H714.558V167.914H689.285V128.16H693.375H710.465Z" stroke="#201E1E" stroke-width="0.476601" stroke-miterlimit="10"/>
<path d="M689.285 200.031V180.153H714.558V200.031" stroke="#201E1E" stroke-width="0.476601" stroke-miterlimit="10"/>
<path d="M719.347 168.059H684.494V180.144H719.347V168.059Z" stroke="#201E1E" stroke-width="0.476601" stroke-miterlimit="10"/>
<path d="M689.285 200.036H714.558H735.569V566.172H689.285" stroke="#201E1E" stroke-width="0.476601" stroke-miterlimit="10"/>
<path d="M689.28 200.036H569.662V566.172H689.28V200.036Z" stroke="#201E1E" stroke-width="0.476601" stroke-miterlimit="10"/>
<path d="M729.32 218.69H721.882V230.546H729.32V218.69Z" stroke="#201E1E" stroke-width="0.476601" stroke-miterlimit="10"/>
<path d="M718.451 218.69H696.281V230.546H718.451V218.69Z" stroke="#201E1E" stroke-width="0.476601" stroke-miterlimit="10"/>
<path d="M667.852 209.955V209.892V184.714H678.012V566.11H667.852H575.599H565.439V184.714H575.599V209.855V209.958H577.007H624.978L626.556 209.952V184.714H636.717V209.952C636.717 209.952 637.414 209.958 637.516 209.958H667.527H667.852V209.955ZM668.75 557.102V545.248H661.312V557.102H668.75ZM668.75 540.775V528.921H661.312V540.775H668.75ZM668.75 524.449V512.595H661.312V524.449H668.75ZM668.75 508.122V496.268H661.312V508.122H668.75ZM668.75 491.796V479.942H661.312V491.796H668.75ZM668.75 475.466V463.612H661.312V475.466H668.75ZM668.75 459.14V447.286H661.312V459.14H668.75ZM668.75 442.816V430.962H661.312V442.816H668.75ZM668.75 426.487V414.633H661.312V426.487H668.75ZM668.75 410.16V398.306H661.312V410.16H668.75ZM668.75 393.831V381.977H661.312V393.831H668.75ZM668.75 377.504V365.65H661.312V377.504H668.75ZM668.75 361.181V349.327H661.312V361.181H668.75ZM668.75 344.851V332.997H661.312V344.851H668.75ZM668.75 328.525V316.671H661.312V328.525H668.75ZM668.75 312.198V300.344H661.312V312.198H668.75ZM668.75 295.872V284.018H661.312V295.872H668.75ZM668.75 279.545V267.691H661.312V279.545H668.75ZM668.75 263.219V251.365H661.312V263.219H668.75ZM668.75 246.889V235.035H661.312V246.889H668.75ZM668.75 230.563V218.709H661.312V230.563H668.75ZM658.041 557.102V545.248H650.603V557.102H658.041ZM658.041 540.775V528.921H650.603V540.775H658.041ZM658.041 524.449V512.595H650.603V524.449H658.041ZM658.041 508.122V496.268H650.603V508.122H658.041ZM658.041 491.796V479.942H650.603V491.796H658.041ZM658.041 475.466V463.612H650.603V475.466H658.041ZM658.041 459.14V447.286H650.603V459.14H658.041ZM658.041 442.816V430.962H650.603V442.816H658.041ZM658.041 426.487V414.633H650.603V426.487H658.041ZM658.041 410.16V398.306H650.603V410.16H658.041ZM658.041 393.831V381.977H650.603V393.831H658.041ZM658.041 377.504V365.65H650.603V377.504H658.041ZM658.041 361.181V349.327H650.603V361.181H658.041ZM658.041 344.851V332.997H650.603V344.851H658.041ZM658.041 328.525V316.671H650.603V328.525H658.041ZM658.041 312.198V300.344H650.603V312.198H658.041ZM658.041 295.872V284.018H650.603V295.872H658.041ZM658.041 279.545V267.691H650.603V279.545H658.041ZM658.041 263.219V251.365H650.603V263.219H658.041ZM658.041 246.889V235.035H650.603V246.889H658.041ZM658.041 230.563V218.709H650.603V230.563H658.041ZM647.329 557.102V545.248H639.891V557.102H647.329ZM647.329 540.775V528.921H639.891V540.775H647.329ZM647.329 524.449V512.595H639.891V524.449H647.329ZM647.329 508.122V496.268H639.891V508.122H647.329ZM647.329 491.796V479.942H639.891V491.796H647.329ZM647.329 475.466V463.612H639.891V475.466H647.329ZM647.329 459.14V447.286H639.891V459.14H647.329ZM647.329 442.816V430.962H639.891V442.816H647.329ZM647.329 426.487V414.633H639.891V426.487H647.329ZM647.329 410.16V398.306H639.891V410.16H647.329ZM647.329 393.831V381.977H639.891V393.831H647.329ZM647.329 377.504V365.65H639.891V377.504H647.329ZM647.329 361.181V349.327H639.891V361.181H647.329ZM647.329 344.851V332.997H639.891V344.851H647.329ZM647.329 328.525V316.671H639.891V328.525H647.329ZM647.329 312.198V300.344H639.891V312.198H647.329ZM647.329 295.872V284.018H639.891V295.872H647.329ZM647.329 279.545V267.691H639.891V279.545H647.329ZM647.329 263.219V251.365H639.891V263.219H647.329ZM647.329 246.889V235.035H639.891V246.889H647.329ZM647.329 230.563V218.709H639.891V230.563H647.329ZM625.911 557.102V545.248H618.473V557.102H625.911ZM625.911 540.775V528.921H618.473V540.775H625.911ZM625.911 524.449V512.595H618.473V524.449H625.911ZM625.911 508.122V496.268H618.473V508.122H625.911ZM625.911 491.796V479.942H618.473V491.796H625.911ZM625.911 475.466V463.612H618.473V475.466H625.911ZM625.911 459.14V447.286H618.473V459.14H625.911ZM625.911 442.816V430.962H618.473V442.816H625.911ZM625.911 426.487V414.633H618.473V426.487H625.911ZM625.911 410.16V398.306H618.473V410.16H625.911ZM625.911 393.831V381.977H618.473V393.831H625.911ZM625.911 377.504V365.65H618.473V377.504H625.911ZM625.911 361.181V349.327H618.473V361.181H625.911ZM625.911 344.851V332.997H618.473V344.851H625.911ZM625.911 328.525V316.671H618.473V328.525H625.911ZM625.911 312.198V300.344H618.473V312.198H625.911ZM625.911 295.872V284.018H618.473V295.872H625.911ZM625.911 279.545V267.691H618.473V279.545H625.911ZM625.911 263.219V251.365H618.473V263.219H625.911ZM625.911 246.889V235.035H618.473V246.889H625.911ZM625.911 230.563V218.709H618.473V230.563H625.911ZM615.202 557.102V545.248H607.763V557.102H615.202ZM615.202 540.775V528.921H607.763V540.775H615.202ZM615.202 524.449V512.595H607.763V524.449H615.202ZM615.202 508.122V496.268H607.763V508.122H615.202ZM615.202 491.796V479.942H607.763V491.796H615.202ZM615.202 475.466V463.612H607.763V475.466H615.202ZM615.202 459.14V447.286H607.763V459.14H615.202ZM615.202 442.816V430.962H607.763V442.816H615.202ZM615.202 426.487V414.633H607.763V426.487H615.202ZM615.202 410.16V398.306H607.763V410.16H615.202ZM615.202 393.831V381.977H607.763V393.831H615.202ZM615.202 377.504V365.65H607.763V377.504H615.202ZM615.202 361.181V349.327H607.763V361.181H615.202ZM615.202 344.851V332.997H607.763V344.851H615.202ZM615.202 328.525V316.671H607.763V328.525H615.202ZM615.202 312.198V300.344H607.763V312.198H615.202ZM615.202 295.872V284.018H607.763V295.872H615.202ZM615.202 279.545V267.691H607.763V279.545H615.202ZM615.202 263.219V251.365H607.763V263.219H615.202ZM615.202 246.889V235.035H607.763V246.889H615.202ZM615.202 230.563V218.709H607.763V230.563H615.202ZM604.49 557.102V545.248H597.054V557.102H604.49ZM604.49 540.775V528.921H597.054V540.775H604.49ZM604.49 524.449V512.595H597.054V524.449H604.49ZM604.49 508.122V496.268H597.054V508.122H604.49ZM604.49 491.796V479.942H597.054V491.796H604.49ZM604.49 475.466V463.612H597.054V475.466H604.49ZM604.49 459.14V447.286H597.054V459.14H604.49ZM604.49 442.816V430.962H597.054V442.816H604.49ZM604.49 426.487V414.633H597.054V426.487H604.49ZM604.49 410.16V398.306H597.054V410.16H604.49ZM604.49 393.831V381.977H597.054V393.831H604.49ZM604.49 377.504V365.65H597.054V377.504H604.49ZM604.49 361.181V349.327H597.054V361.181H604.49ZM604.49 344.851V332.997H597.054V344.851H604.49ZM604.49 328.525V316.671H597.054V328.525H604.49ZM604.49 312.198V300.344H597.054V312.198H604.49ZM604.49 295.872V284.018H597.054V295.872H604.49ZM604.49 279.545V267.691H597.054V279.545H604.49ZM604.49 263.219V251.365H597.054V263.219H604.49ZM604.49 246.889V235.035H597.054V246.889H604.49ZM604.49 230.563V218.709H597.054V230.563H604.49ZM593.78 557.102V545.248H586.342V557.102H593.78ZM593.78 540.775V528.921H586.342V540.775H593.78ZM593.78 524.449V512.595H586.342V524.449H593.78ZM593.78 508.122V496.268H586.342V508.122H593.78ZM593.78 491.796V479.942H586.342V491.796H593.78ZM593.78 475.466V463.612H586.342V475.466H593.78ZM593.78 459.14V447.286H586.342V459.14H593.78ZM593.78 442.816V430.962H586.342V442.816H593.78ZM593.78 426.487V414.633H586.342V426.487H593.78ZM593.78 410.16V398.306H586.342V410.16H593.78ZM593.78 393.831V381.977H586.342V393.831H593.78ZM593.78 377.504V365.65H586.342V377.504H593.78ZM593.78 361.181V349.327H586.342V361.181H593.78ZM593.78 344.851V332.997H586.342V344.851H593.78ZM593.78 328.525V316.671H586.342V328.525H593.78ZM593.78 312.198V300.344H586.342V312.198H593.78ZM593.78 295.872V284.018H586.342V295.872H593.78ZM593.78 279.545V267.691H586.342V279.545H593.78ZM593.78 263.219V251.365H586.342V263.219H593.78ZM593.78 246.889V235.035H586.342V246.889H593.78ZM593.78 230.563V218.709H586.342V230.563H593.78ZM583.071 557.102V545.248H575.633V557.102H583.071ZM583.071 540.775V528.921H575.633V540.775H583.071ZM583.071 524.449V512.595H575.633V524.449H583.071ZM583.071 508.122V496.268H575.633V508.122H583.071ZM583.071 491.796V479.942H575.633V491.796H583.071ZM583.071 475.466V463.612H575.633V475.466H583.071ZM583.071 459.14V447.286H575.633V459.14H583.071ZM583.071 442.816V430.962H575.633V442.816H583.071ZM583.071 426.487V414.633H575.633V426.487H583.071ZM583.071 410.16V398.306H575.633V410.16H583.071ZM583.071 393.831V381.977H575.633V393.831H583.071ZM583.071 377.504V365.65H575.633V377.504H583.071ZM583.071 361.181V349.327H575.633V361.181H583.071ZM583.071 344.851V332.997H575.633V344.851H583.071ZM583.071 328.525V316.671H575.633V328.525H583.071ZM583.071 312.198V300.344H575.633V312.198H583.071ZM583.071 295.872V284.018H575.633V295.872H583.071ZM583.071 279.545V267.691H575.633V279.545H583.071ZM583.071 263.219V251.365H575.633V263.219H583.071ZM583.071 246.889V235.035H575.633V246.889H583.071ZM583.071 230.563V218.709H575.633V230.563H583.071Z" fill="#FFE5E4"/>
<path d="M668.75 218.705H661.312V230.559H668.75V218.705Z" fill="#201E1E"/>
<path d="M658.041 218.705H650.603V230.559H658.041V218.705Z" fill="#201E1E"/>
<path d="M647.329 218.705H639.89V230.559H647.329V218.705Z" fill="#201E1E"/>
<path d="M625.911 218.705H618.472V230.559H625.911V218.705Z" fill="#201E1E"/>
<path d="M615.202 218.705H607.763V230.559H615.202V218.705Z" fill="#201E1E"/>
<path d="M604.49 218.705H597.054V230.559H604.49V218.705Z" fill="#201E1E"/>
<path d="M593.78 218.705H586.342V230.559H593.78V218.705Z" fill="#201E1E"/>
<path d="M583.071 218.705H575.633V230.559H583.071V218.705Z" fill="#201E1E"/>
<path d="M575.599 209.862V184.722H565.439V566.117H575.599" stroke="#201E1E" stroke-width="0.476601" stroke-miterlimit="10"/>
<path d="M667.853 209.9V184.722H678.013V566.117H667.853" stroke="#201E1E" stroke-width="0.476601" stroke-miterlimit="10"/>
<path d="M575.349 209.958H575.599H577.007H624.978L626.557 209.952V184.714H636.717V209.952C636.717 209.952 637.414 209.958 637.516 209.958H667.528H667.852H668.094" stroke="#201E1E" stroke-width="0.476601" stroke-miterlimit="10"/>
<path d="M583.071 218.713H575.633V230.567H583.071V218.713Z" stroke="#201E1E" stroke-width="0.476601" stroke-miterlimit="10"/>
<path d="M593.78 218.713H586.342V230.567H593.78V218.713Z" stroke="#201E1E" stroke-width="0.476601" stroke-miterlimit="10"/>
<path d="M604.49 218.713H597.054V230.567H604.49V218.713Z" stroke="#201E1E" stroke-width="0.476601" stroke-miterlimit="10"/>
<path d="M615.202 218.713H607.763V230.567H615.202V218.713Z" stroke="#201E1E" stroke-width="0.476601" stroke-miterlimit="10"/>
<path d="M625.911 218.713H618.472V230.567H625.911V218.713Z" stroke="#201E1E" stroke-width="0.476601" stroke-miterlimit="10"/>
<path d="M647.329 218.713H639.89V230.567H647.329V218.713Z" stroke="#201E1E" stroke-width="0.476601" stroke-miterlimit="10"/>
<path d="M658.041 218.713H650.603V230.567H658.041V218.713Z" stroke="#201E1E" stroke-width="0.476601" stroke-miterlimit="10"/>
<path d="M668.75 218.713H661.312V230.567H668.75V218.713Z" stroke="#201E1E" stroke-width="0.476601" stroke-miterlimit="10"/>
<path d="M719.519 143.383H684.499V148.881H719.519V143.383Z" fill="#FFE5E4"/>
<path d="M719.519 143.383H684.499V148.881H719.519V143.383Z" stroke="#201E1E" stroke-width="0.476601" stroke-miterlimit="10"/>
</g>
<defs>
<clipPath id="clip0_95_29020">
<rect width="209" height="421" fill="white" transform="translate(0 63)"/>
</clipPath>
<clipPath id="clip1_95_29020">
<rect width="251" height="121" fill="white" transform="translate(91 168)"/>
</clipPath>
<clipPath id="clip2_95_29020">
<rect width="162" height="484" fill="white" transform="translate(290 140)"/>
</clipPath>
<clipPath id="clip3_95_29020">
<rect width="172" height="223" fill="white" transform="translate(430 187)"/>
</clipPath>
<clipPath id="clip4_95_29020">
<rect width="171" height="574" fill="white" transform="translate(565)"/>
</clipPath>
</defs>
</svg>
