<svg width="36" height="36" viewBox="0 0 36 36" fill="none" xmlns="http://www.w3.org/2000/svg">
<path d="M10.5 13.0003H12.1667M12.1667 13.0003H25.5M12.1667 13.0003V24.667C12.1667 25.109 12.3423 25.5329 12.6548 25.8455C12.9674 26.1581 13.3913 26.3337 13.8333 26.3337H22.1667C22.6087 26.3337 23.0326 26.1581 23.3452 25.8455C23.6577 25.5329 23.8333 25.109 23.8333 24.667V13.0003H12.1667ZM14.6667 13.0003V11.3337C14.6667 10.8916 14.8423 10.4677 15.1548 10.1551C15.4674 9.84259 15.8913 9.66699 16.3333 9.66699H19.6667C20.1087 9.66699 20.5326 9.84259 20.8452 10.1551C21.1577 10.4677 21.3333 10.8916 21.3333 11.3337V13.0003M16.3333 17.167V22.167M19.6667 17.167V22.167" stroke="#667085" stroke-width="1.66667" stroke-linecap="round" stroke-linejoin="round"/>
</svg>
