<svg width="163" height="30" viewBox="0 0 163 30" fill="none" xmlns="http://www.w3.org/2000/svg">
<g clip-path="url(#clip0_95_12562)">
<path d="M62.3073 8.2438C60.1132 8.2438 58.8428 8.76727 57.5614 9.97665V5.16077H52.5782V24.8395H57.5614V16.0633C57.5614 13.7817 58.8245 12.7528 60.6535 12.7528C62.2489 12.7528 63.5485 13.6878 63.5485 15.677V24.8395H68.5317V14.973C68.5354 10.6337 65.6623 8.2438 62.3073 8.2438Z" fill="#000005"/>
<path d="M86.6418 8.41595V24.8383H81.5455V23.2932C80.6291 24.5098 78.9279 25.2968 76.6864 25.2968C73.2547 25.2968 70.3342 22.9322 70.3342 18.499V8.41595H75.4305V17.777C75.4305 19.8131 76.7557 20.7661 78.3876 20.7661C80.2568 20.7661 81.5455 19.7156 81.5455 17.3835V8.41595H86.6418Z" fill="#000005"/>
<path d="M95.878 18.9631V13.1472H98.627V8.418H95.878V5.64905H90.7853V7.49742C90.7853 8.00645 90.3691 8.418 89.8543 8.418H88.0655V13.1472H90.7853V18.9631C90.7853 23.5588 92.7201 25.4974 99.379 24.844V20.3747C97.1375 20.5046 95.878 20.3747 95.878 18.9631Z" fill="#000005"/>
<path d="M111.132 13.1472V8.418H107.635V5.64905H102.538V7.49742C102.538 8.00645 102.122 8.418 101.607 8.418H99.8222V13.1472H102.538V18.9631C102.538 23.5588 104.477 25.4974 111.132 24.844V20.3747C108.891 20.5046 107.635 20.3747 107.635 18.9631V13.1472H111.132Z" fill="#000005"/>
<path d="M113.067 5.65228V24.8436H118.16V5.65228H113.067Z" fill="#000005"/>
<path d="M128.903 20.629C130.236 20.629 131.375 20.1272 132.024 19.4341L135.927 21.6037C134.335 23.7409 131.929 24.842 128.841 24.842C123.281 24.842 119.835 21.2283 119.835 16.546C119.835 11.8637 123.347 8.24994 128.483 8.24994C133.229 8.24994 136.741 11.8023 136.741 16.546C136.741 17.2066 136.675 17.8348 136.548 18.4304H125C125.621 20.0622 127.114 20.629 128.903 20.629ZM131.893 14.907C131.371 13.0839 129.911 12.4232 128.447 12.4232C126.592 12.4232 125.358 13.3041 124.902 14.907H131.893Z" fill="#000005"/>
<path d="M148.594 8.28604V13.12C146.499 12.7915 143.52 13.972 143.52 17.2102L143.516 24.8961H138.442L138.445 8.24994H143.52V10.7012C144.195 8.50626 146.462 8.28243 148.594 8.28604Z" fill="#000005"/>
<path d="M38.6539 23.4397C38.0589 23.0353 37.5733 22.5913 37.1608 22.0389C36.3029 21.0426 35.967 20.0823 35.8903 19.1978L40.6691 18.2014C40.7421 18.8657 41.0415 19.4577 41.5635 19.9342C42.1221 20.4505 42.7938 20.7104 43.6517 20.7104C45.0682 20.7104 45.8166 19.8981 45.8166 19.122C45.8166 18.3458 45.2179 17.7935 44.0241 17.5335L41.673 17.0173C38.1282 16.2411 36.3357 14.3241 36.3357 11.6671C36.3357 10.0064 37.0075 8.56602 38.3509 7.42161C39.7309 6.24111 41.4102 5.64905 43.4254 5.64905C46.3751 5.64905 48.4268 6.79345 49.544 8.15807C50.3654 9.11836 50.7377 10.0389 50.8509 10.927L46.1488 11.9234C45.886 10.5949 44.955 9.74652 43.4619 9.74652C42.2316 9.74652 41.4102 10.4469 41.4102 11.2953C41.4102 11.9956 41.8957 12.4397 42.8668 12.6238L45.4406 13.1761C49.0986 13.8765 51.0772 15.9812 51.0772 18.7501C51.0772 20.2989 50.442 21.7754 49.2848 22.9198C48.091 24.0642 46.1123 24.8404 43.7247 24.8404C41.6365 24.844 39.771 24.2519 38.6539 23.4397Z" fill="#000005"/>
<path d="M151.79 23.8506C151.253 23.486 150.815 23.0852 150.443 22.587C149.669 21.6881 149.366 20.8217 149.296 20.0239L153.604 19.1249C153.67 19.7242 153.94 20.2585 154.411 20.6881C154.915 21.1538 155.521 21.3885 156.295 21.3885C157.573 21.3885 158.248 20.6556 158.248 19.9553C158.248 19.2549 157.708 18.7567 156.631 18.5257L154.51 18.06C151.312 17.3596 149.694 15.6304 149.694 13.2332C149.694 11.735 150.3 10.4354 151.512 9.40653C152.757 8.34155 154.272 7.80725 156.09 7.80725C158.748 7.80725 160.603 8.83974 161.61 10.0708C162.351 10.9372 162.687 11.7675 162.789 12.569L158.547 13.4679C158.31 12.2693 157.47 11.504 156.123 11.504C155.013 11.504 154.272 12.1358 154.272 12.9011C154.272 13.5329 154.71 13.9336 155.587 14.0997L157.908 14.5979C161.209 15.2296 162.99 17.1286 162.99 19.6231C162.99 21.0202 162.417 22.3524 161.373 23.3849C160.296 24.4174 158.511 25.1141 156.357 25.1141C154.484 25.1141 152.801 24.5834 151.79 23.8506Z" fill="#000005"/>
<path d="M24.4709 26.8472C17.8559 31.9267 8.32755 30.7425 3.18736 24.201C-1.94917 17.6595 -0.75174 8.23713 5.86697 3.1541C12.482 -1.92532 22.0104 -0.741207 27.1505 5.80031C32.2871 12.3454 31.086 21.7678 24.4709 26.8472Z" fill="#20E682"/>
<path d="M22.8377 12.979C21.6804 11.3472 19.6652 10.6613 17.818 11.1089C17.3397 11.2245 16.8725 11.4158 16.4344 11.6866C16.3614 11.7299 16.2883 11.7768 16.219 11.8274L12.7581 14.2245C12.7581 14.2281 12.7581 14.2317 12.7545 14.2353C12.7034 14.423 12.5902 14.5963 12.4223 14.7227C12.415 14.7299 12.4076 14.7335 12.3967 14.7407C12.0024 15.0151 11.4621 14.9393 11.1591 14.5746C11.1518 14.5638 11.1445 14.5566 11.1372 14.5458C11.1299 14.5349 11.1226 14.5277 11.1153 14.5169C11.108 14.5061 11.1007 14.4988 11.0934 14.488C11.0861 14.4772 11.0824 14.4663 11.0751 14.4555C10.8342 14.0512 10.9437 13.5241 11.3416 13.2497C11.5242 13.1234 11.7396 13.0728 11.944 13.0873L17.7705 9.05118L17.661 4.24612L8.66203 10.4772C7.58873 11.2209 6.92065 12.3255 6.70891 13.5097C6.49717 14.6938 6.74177 15.9573 7.49746 17.0223C8.65473 18.6541 10.6699 19.34 12.5172 18.8923C12.9954 18.7768 13.4627 18.5855 13.9008 18.3147C13.9738 18.2714 14.0468 18.2245 14.1162 18.1739L17.577 15.7768C17.577 15.7732 17.5807 15.7696 17.5807 15.766C17.6318 15.5783 17.745 15.405 17.9129 15.2822C17.9202 15.275 17.9312 15.2678 17.9385 15.2642C18.3327 14.9898 18.873 15.0656 19.176 15.4302C19.1833 15.4411 19.1906 15.4483 19.1979 15.4591C19.2052 15.47 19.2126 15.4772 19.2199 15.488C19.2272 15.4988 19.2345 15.5061 19.2418 15.5169C19.2491 15.5277 19.2527 15.5385 19.26 15.5494C19.501 15.9537 19.3914 16.4808 18.9972 16.7552C18.8146 16.8815 18.6029 16.9357 18.3948 16.9176L12.5646 20.9501L12.6742 25.7552L21.6731 19.5241C22.7464 18.7804 23.4145 17.6757 23.6262 16.4916C23.838 15.3075 23.5934 14.0404 22.8377 12.979Z" fill="#000005"/>
</g>
<defs>
<clipPath id="clip0_95_12562">
<rect width="163" height="30" fill="white"/>
</clipPath>
</defs>
</svg>
