<svg width="24" height="24" viewBox="0 0 24 24" fill="none" xmlns="http://www.w3.org/2000/svg">
<path d="M20.25 8.25H21.75V11.25H20.25V8.25ZM2.25 8.25H3.75V11.25H2.25V8.25ZM15 15H16.5V16.5H15V15ZM7.5 15H9V16.5H7.5V15Z" fill="#444854"/>
<path d="M15.75 3H8.25C7.2558 3.00119 6.30267 3.39666 5.59966 4.09966C4.89666 4.80267 4.50119 5.7558 4.5 6.75V17.25C4.5004 17.6477 4.65856 18.029 4.93978 18.3102C5.221 18.5914 5.6023 18.7496 6 18.75V21H7.5V18.75H16.5V21H18V18.75C18.3976 18.7494 18.7788 18.5912 19.06 18.31C19.3412 18.0288 19.4994 17.6476 19.5 17.25V6.75C19.4988 5.7558 19.1033 4.80267 18.4003 4.09966C17.6973 3.39666 16.7442 3.00119 15.75 3ZM18 7.5V12H6V7.5H18ZM8.25 4.5H15.75C16.2138 4.50138 16.6659 4.64631 17.044 4.91488C17.4222 5.18346 17.7079 5.56252 17.862 6H6.138C6.29209 5.56252 6.57783 5.18346 6.95599 4.91488C7.33415 4.64631 7.78617 4.50138 8.25 4.5ZM6 17.25V13.5H18.0007L18.0015 17.25H6Z" fill="#444854"/>
</svg>
