<svg width="16" height="16" viewBox="0 0 16 16" fill="none" xmlns="http://www.w3.org/2000/svg">
<g clip-path="url(#clip0_709_58685)">
<path d="M12.6133 4.00732C12.545 3.81067 12.4171 3.64018 12.2475 3.51952C12.0779 3.39886 11.8748 3.33401 11.6667 3.33398H4.33333C3.89667 3.33398 3.52333 3.61398 3.38667 4.00732L2 8.00065V13.334C2 13.7007 2.3 14.0007 2.66667 14.0007H3.33333C3.51014 14.0007 3.67971 13.9304 3.80474 13.8054C3.92976 13.6804 4 13.5108 4 13.334V12.6673H12V13.334C12 13.7007 12.3 14.0007 12.6667 14.0007H13.3333C13.5101 14.0007 13.6797 13.9304 13.8047 13.8054C13.9298 13.6804 14 13.5108 14 13.334V8.00065L12.6133 4.00732ZM4.33333 10.6673C3.78 10.6673 3.33333 10.2207 3.33333 9.66732C3.33333 9.11398 3.78 8.66732 4.33333 8.66732C4.88667 8.66732 5.33333 9.11398 5.33333 9.66732C5.33333 10.2207 4.88667 10.6673 4.33333 10.6673ZM11.6667 10.6673C11.1133 10.6673 10.6667 10.2207 10.6667 9.66732C10.6667 9.11398 11.1133 8.66732 11.6667 8.66732C12.22 8.66732 12.6667 9.11398 12.6667 9.66732C12.6667 10.2207 12.22 10.6673 11.6667 10.6673ZM3.33333 7.33398L4.33333 4.33398H11.6667L12.6667 7.33398H3.33333Z" fill="#6E717C"/>
</g>
<defs>
<clipPath id="clip0_709_58685">
<rect width="16" height="16" fill="white"/>
</clipPath>
</defs>
</svg>
