<svg width="16" height="17" viewBox="0 0 16 17" fill="none" xmlns="http://www.w3.org/2000/svg">
<path d="M8.58252 2.27754C8.58252 2.11841 8.51931 1.9658 8.40679 1.85327C8.29427 1.74075 8.14165 1.67754 7.98252 1.67754C7.82339 1.67754 7.67078 1.74075 7.55826 1.85327C7.44574 1.9658 7.38252 2.11841 7.38252 2.27754L7.38252 9.16874L5.01852 6.66554C4.90835 6.55377 4.75878 6.48961 4.60186 6.48683C4.44495 6.48404 4.29319 6.54285 4.17912 6.65063C4.06505 6.75842 3.99776 6.90661 3.99166 7.06344C3.98557 7.22026 4.04116 7.37322 4.14652 7.48954L7.54652 11.0895C7.6026 11.1489 7.67019 11.1961 7.74516 11.2284C7.82013 11.2607 7.9009 11.2773 7.98252 11.2773C8.06415 11.2773 8.14492 11.2607 8.21989 11.2284C8.29486 11.1961 8.36245 11.1489 8.41852 11.0895L11.8185 7.48954C11.8746 7.43266 11.9187 7.36517 11.9484 7.29102C11.978 7.21686 11.9925 7.13754 11.9911 7.05769C11.9897 6.97785 11.9724 6.89909 11.9401 6.82603C11.9079 6.75298 11.8613 6.6871 11.8033 6.63225C11.7453 6.5774 11.6769 6.53469 11.6021 6.50662C11.5273 6.47856 11.4477 6.4657 11.3679 6.4688C11.2881 6.4719 11.2097 6.4909 11.1374 6.52468C11.065 6.55846 11.0001 6.60635 10.9465 6.66554L8.58252 9.16874L8.58252 2.27754Z" fill="#444854"/>
<path d="M2.79961 10.2777C2.79961 10.1186 2.7364 9.96599 2.62387 9.85347C2.51135 9.74095 2.35874 9.67773 2.19961 9.67773C2.04048 9.67773 1.88787 9.74095 1.77535 9.85347C1.66282 9.96599 1.59961 10.1186 1.59961 10.2777V12.2777C1.59961 12.8612 1.83139 13.4208 2.24397 13.8334C2.65655 14.2459 3.21613 14.4777 3.79961 14.4777H12.1996C12.7831 14.4777 13.3427 14.2459 13.7552 13.8334C14.1678 13.4208 14.3996 12.8612 14.3996 12.2777V10.2777C14.3996 10.1186 14.3364 9.96599 14.2239 9.85347C14.1114 9.74095 13.9587 9.67773 13.7996 9.67773C13.6405 9.67773 13.4879 9.74095 13.3753 9.85347C13.2628 9.96599 13.1996 10.1186 13.1996 10.2777V12.2777C13.1996 12.8297 12.7516 13.2777 12.1996 13.2777H3.79961C3.24761 13.2777 2.79961 12.8297 2.79961 12.2777V10.2777Z" fill="#444854"/>
</svg>
