<svg width="36" height="37" viewBox="0 0 36 37" fill="none" xmlns="http://www.w3.org/2000/svg">
<circle cx="18" cy="18.0566" r="18" fill="#20E682" fill-opacity="0.1"/>
<path d="M18 16.0566C18.7956 16.0566 19.5587 15.7406 20.1213 15.178C20.6839 14.6154 21 13.8523 21 13.0566C21 12.261 20.6839 11.4979 20.1213 10.9353C19.5587 10.3727 18.7956 10.0566 18 10.0566C17.2043 10.0566 16.4412 10.3727 15.8786 10.9353C15.316 11.4979 15 12.261 15 13.0566C15 13.8523 15.316 14.6154 15.8786 15.178C16.4412 15.7406 17.2043 16.0566 18 16.0566ZM11.465 22.5496C11.3721 22.7978 11.3619 23.0692 11.4358 23.3236C11.5096 23.5781 11.6637 23.8018 11.875 23.9616C13.6263 25.3227 15.7819 26.06 18 26.0566C20.31 26.0566 22.438 25.2726 24.131 23.9566C24.561 23.6236 24.735 23.0536 24.539 22.5466C24.0312 21.2247 23.1345 20.0877 21.9673 19.2859C20.8 18.484 19.4171 18.0549 18.0009 18.0553C16.5848 18.0556 15.202 18.4853 14.0351 19.2877C12.8683 20.0901 11.9721 21.2274 11.465 22.5496Z" fill="#20E682"/>
</svg>
