<svg width="16" height="16" viewBox="0 0 16 16" fill="none" xmlns="http://www.w3.org/2000/svg">
<path d="M9 13.334C9 13.8863 8.5523 14.334 8 14.334C7.4477 14.334 7 13.8863 7 13.334C7 12.7817 7.4477 12.334 8 12.334C8.5523 12.334 9 12.7817 9 13.334Z" fill="#595E5C"/>
<path fill-rule="evenodd" clip-rule="evenodd" d="M10.2062 12.3672C10.0633 11.8337 10.3798 11.2854 10.9133 11.1424L11.5573 10.9699C12.0907 10.8269 12.6391 11.1435 12.782 11.677L13.1271 12.9649C13.27 13.4984 12.9534 14.0467 12.42 14.1896L11.776 14.3622C11.2426 14.5051 10.6942 14.1885 10.5513 13.6551L10.2062 12.3672ZM11.0858 11.7864C10.908 11.834 10.8025 12.0168 10.8501 12.1946L11.1952 13.4825C11.2429 13.6603 11.4257 13.7659 11.6035 13.7182L12.2474 13.5457C12.4253 13.498 12.5308 13.3153 12.4831 13.1374L12.138 11.8495C12.0904 11.6717 11.9076 11.5662 11.7298 11.6138L11.0858 11.7864Z" fill="#595E5C"/>
<path fill-rule="evenodd" clip-rule="evenodd" d="M3.22316 11.677C3.36611 11.1435 3.91444 10.8269 4.44791 10.9699L5.09184 11.1424C5.62531 11.2854 5.94191 11.8337 5.79898 12.3672L5.45388 13.6551C5.31094 14.1885 4.76261 14.5051 4.22914 14.3622L3.58518 14.1896C3.05171 14.0467 2.73513 13.4983 2.87807 12.9649L3.22316 11.677ZM4.27538 11.6138C4.09754 11.5662 3.91478 11.6717 3.86711 11.8495L3.52201 13.1374C3.47438 13.3152 3.57991 13.498 3.75771 13.5457L4.40168 13.7182C4.57951 13.7659 4.76228 13.6603 4.80991 13.4825L5.15501 12.1946C5.20268 12.0168 5.09714 11.834 4.91931 11.7864L4.27538 11.6138Z" fill="#595E5C"/>
<path fill-rule="evenodd" clip-rule="evenodd" d="M5.28032 12.9993H7.66772V10.351C6.71115 10.4567 5.89012 11.0122 5.42078 11.8013C5.33755 11.6409 5.18978 11.5147 5.00145 11.4642L4.86715 11.4282C5.51062 10.3716 6.67345 9.66602 8.00105 9.66602C9.32878 9.66602 10.4917 10.3717 11.1351 11.4285L11.0006 11.4645C10.8124 11.5149 10.6647 11.6411 10.5814 11.8015C10.1121 11.0123 9.29102 10.4567 8.33438 10.351V12.9993H10.7218L10.8744 13.5689C10.8834 13.6026 10.8949 13.635 10.9085 13.666H8.00105H5.09348C5.10722 13.6349 5.11872 13.6024 5.12778 13.5686L5.28032 12.9993ZM5.03325 13.774C4.89532 13.9745 4.65445 14.0877 4.40625 14.0583C4.48578 14.4543 4.62912 14.8274 4.82512 15.1662L5.40218 14.8324C5.21708 14.5124 5.08935 14.155 5.03325 13.774ZM10.5999 14.8324C10.785 14.5125 10.9127 14.1552 10.9688 13.7742C11.1068 13.9747 11.3476 14.0879 11.5958 14.0586C11.5163 14.4544 11.373 14.8275 11.177 15.1662L10.5999 14.8324Z" fill="#595E5C"/>
<path fill-rule="evenodd" clip-rule="evenodd" d="M5 5.66602V4.66602H5.66667V5.66602C5.66667 6.95468 6.71133 7.99935 8 7.99935C9.28867 7.99935 10.3333 6.95468 10.3333 5.66602V4.66602H11V5.66602C11 7.32288 9.65687 8.66602 8 8.66602C6.34313 8.66602 5 7.32288 5 5.66602Z" fill="#595E5C"/>
<path fill-rule="evenodd" clip-rule="evenodd" d="M5.19442 2.08384C5.02492 2.22134 4.99479 2.31817 4.99479 2.36494C4.99479 2.84494 5.07226 3.22139 5.14756 3.47402C5.16999 3.54918 5.19219 3.61338 5.21209 3.66602H10.7775C10.7974 3.61338 10.8196 3.54922 10.842 3.47405C10.9173 3.22145 10.9948 2.84499 10.9948 2.36494C10.9948 2.31817 10.9647 2.22134 10.7952 2.08384C10.6314 1.95103 10.3835 1.81984 10.0728 1.70423C9.45309 1.47368 8.65916 1.33268 7.99479 1.33268C7.33043 1.33268 6.53649 1.47368 5.91683 1.70423C5.60609 1.81984 5.35819 1.95103 5.19442 2.08384ZM10.562 4.33268H5.42763C5.44996 4.36268 5.47726 4.39412 5.51063 4.42638C5.76216 4.66962 6.40426 4.99935 7.99479 4.99935C9.58532 4.99935 10.2274 4.66962 10.479 4.42638C10.5123 4.39412 10.5396 4.36268 10.562 4.33268ZM4.65739 4.06798C4.65092 4.05385 4.64396 4.03815 4.63656 4.02095C4.60059 3.93742 4.55436 3.81768 4.50869 3.66445C4.41733 3.35795 4.32812 2.9172 4.32812 2.36494C4.32812 2.02462 4.53882 1.7572 4.77449 1.56607C5.01592 1.37025 5.33759 1.20843 5.68436 1.07941C6.37966 0.820719 7.25239 0.666016 7.99479 0.666016C8.73719 0.666016 9.60992 0.820719 10.3052 1.07941C10.652 1.20843 10.9737 1.37025 11.2151 1.56607C11.4508 1.7572 11.6615 2.02462 11.6615 2.36494C11.6615 2.91725 11.5723 3.35802 11.4809 3.66452C11.4352 3.81772 11.389 3.93745 11.353 4.02098C11.3456 4.03818 11.3387 4.05385 11.3322 4.06798C11.3318 4.12455 11.3259 4.19708 11.3073 4.28038C11.2662 4.46442 11.1648 4.69055 10.9424 4.90565C10.5045 5.32908 9.64663 5.66602 7.99479 5.66602C6.34296 5.66602 5.48509 5.32908 5.04719 4.90565C4.82476 4.69055 4.72343 4.46442 4.68229 4.28038C4.66366 4.19708 4.65782 4.12455 4.65739 4.06798Z" fill="#595E5C"/>
<path d="M6.67188 2.66732C6.67188 2.48322 6.82111 2.33398 7.00521 2.33398H9.00521C9.18931 2.33398 9.33854 2.48322 9.33854 2.66732C9.33854 2.85141 9.18931 3.00065 9.00521 3.00065H7.00521C6.82111 3.00065 6.67188 2.85141 6.67188 2.66732Z" fill="#595E5C"/>
</svg>
