<svg width="16" height="9" viewBox="0 0 16 9" fill="none" xmlns="http://www.w3.org/2000/svg">
<path fill-rule="evenodd" clip-rule="evenodd" d="M0 4.05671C0 3.8578 0.0790175 3.66703 0.21967 3.52638C0.360322 3.38573 0.551088 3.30671 0.75 3.30671H13.34L11.24 1.35671C11.1678 1.28973 11.1094 1.20919 11.0683 1.11967C11.0272 1.03016 11.0042 0.933421 11.0005 0.834991C10.9968 0.736561 11.0125 0.638364 11.0467 0.546005C11.0809 0.453646 11.133 0.368934 11.2 0.296707C11.3353 0.150838 11.5229 0.0646756 11.7217 0.0571741C11.8201 0.0534598 11.9183 0.069169 12.0107 0.103405C12.1031 0.137641 12.1878 0.189733 12.26 0.256707L15.76 3.50671C15.8357 3.57691 15.8961 3.662 15.9375 3.75665C15.9788 3.85129 16.0001 3.95344 16.0001 4.05671C16.0001 4.15997 15.9788 4.26213 15.9375 4.35677C15.8961 4.45141 15.8357 4.5365 15.76 4.60671L12.26 7.85671C12.1141 7.99197 11.9205 8.06374 11.7217 8.05624C11.5229 8.04874 11.3353 7.96258 11.2 7.81671C11.0647 7.67084 10.993 7.47721 11.0005 7.27842C11.008 7.07963 11.0941 6.89197 11.24 6.75671L13.34 4.80671H0.75C0.551088 4.80671 0.360322 4.72769 0.21967 4.58704C0.0790175 4.44638 0 4.25562 0 4.05671Z" fill="#D3DCE6"/>
</svg>
