<svg width="36" height="37" viewBox="0 0 36 37" fill="none" xmlns="http://www.w3.org/2000/svg">
<circle cx="18" cy="18.0566" r="18" fill="#20E682" fill-opacity="0.1"/>
<path fill-rule="evenodd" clip-rule="evenodd" d="M9 12.0566C9 11.7914 9.10536 11.5371 9.29289 11.3495C9.48043 11.162 9.73478 11.0566 10 11.0566H26C26.2652 11.0566 26.5196 11.162 26.7071 11.3495C26.8946 11.5371 27 11.7914 27 12.0566V20.0566C27 20.3219 26.8946 20.5762 26.7071 20.7637C26.5196 20.9513 26.2652 21.0566 26 21.0566H10C9.73478 21.0566 9.48043 20.9513 9.29289 20.7637C9.10536 20.5762 9 20.3219 9 20.0566V12.0566ZM21 16.0566C21 16.8523 20.6839 17.6154 20.1213 18.178C19.5587 18.7406 18.7956 19.0566 18 19.0566C17.2044 19.0566 16.4413 18.7406 15.8787 18.178C15.3161 17.6154 15 16.8523 15 16.0566C15 15.261 15.3161 14.4979 15.8787 13.9353C16.4413 13.3727 17.2044 13.0566 18 13.0566C18.7956 13.0566 19.5587 13.3727 20.1213 13.9353C20.6839 14.4979 21 15.261 21 16.0566ZM12 17.0566C12.2652 17.0566 12.5196 16.9513 12.7071 16.7637C12.8946 16.5762 13 16.3219 13 16.0566C13 15.7914 12.8946 15.5371 12.7071 15.3495C12.5196 15.162 12.2652 15.0566 12 15.0566C11.7348 15.0566 11.4804 15.162 11.2929 15.3495C11.1054 15.5371 11 15.7914 11 16.0566C11 16.3219 11.1054 16.5762 11.2929 16.7637C11.4804 16.9513 11.7348 17.0566 12 17.0566ZM25 16.0566C25 16.3219 24.8946 16.5762 24.7071 16.7637C24.5196 16.9513 24.2652 17.0566 24 17.0566C23.7348 17.0566 23.4804 16.9513 23.2929 16.7637C23.1054 16.5762 23 16.3219 23 16.0566C23 15.7914 23.1054 15.5371 23.2929 15.3495C23.4804 15.162 23.7348 15.0566 24 15.0566C24.2652 15.0566 24.5196 15.162 24.7071 15.3495C24.8946 15.5371 25 15.7914 25 16.0566ZM9.75 22.5566C9.55109 22.5566 9.36032 22.6357 9.21967 22.7763C9.07902 22.917 9 23.1077 9 23.3066C9 23.5056 9.07902 23.6963 9.21967 23.837C9.36032 23.9776 9.55109 24.0566 9.75 24.0566C14.167 24.0566 18.443 24.6596 22.499 25.7866C23.61 26.0956 24.75 25.2746 24.75 24.0906V23.3066C24.75 23.1077 24.671 22.917 24.5303 22.7763C24.3897 22.6357 24.1989 22.5566 24 22.5566C23.8011 22.5566 23.6103 22.6357 23.4697 22.7763C23.329 22.917 23.25 23.1077 23.25 23.3066V24.0906C23.2484 24.1321 23.2373 24.1727 23.2176 24.2092C23.1979 24.2458 23.1701 24.2773 23.1363 24.3015C23.1025 24.3256 23.0637 24.3417 23.0227 24.3485C22.9817 24.3553 22.9398 24.3526 22.9 24.3406C18.6177 23.1529 14.1939 22.5528 9.75 22.5566Z" fill="#20E682"/>
</svg>
