<svg xmlns="http://www.w3.org/2000/svg" width="227" height="169" viewBox="0 0 227 169">
    <g fill="none" fill-rule="evenodd" transform="translate(-43 -73)">
        <circle cx="150" cy="150" r="150" fill="#FFF" fill-opacity="0"/>
        <g>
            <g fill="#F3F7F5" fill-rule="nonzero">
                <path d="M82.79 4.81c3.513 3.456 9.047 1.665 4.236-3.088C84.328-.94 78.817.907 82.79 4.811zM103.904 4.707c1.837.804 3.559-4.179 1.262-4.592-2.514-.46-3.834 3.467-1.262 4.592zM96.43 15.086c.39-.011.711-.046.883-.092 1.436-.413 1.998-2.09.08-2.17-.86-.034-2.984.012-3.398 1.045-.401 1.01 1.275 1.24 2.434 1.217zM85.81 42.204c6.854 2.205 16.739-1.205 20.022-7.91 2.94-6.005-1.297-3.64-4.466-2.09-3.697 1.814-7.75 3.02-11.883 3.112-4.156.092-8.323-.965-11.745-3.387-1.48-1.056-3.524-4.673-5.419-2.537-2.927 3.329 10.264 11.768 13.49 12.812zM33.938 61.504c8.829 1.745 17.302-2.491 23.031-9.07 2.158-2.48 12.755-17.36 7.99-20.069-.803-.46-12.835 5.063-20.527 11.148-1.745 1.378-13.915 17.314-10.494 17.991zM46.9 70.563c-3.352 2.238 1.125 15.878 4.891 13.375 3.663-2.434-.792-16.108-4.89-13.375zM48.29 106.912c-.781-6.223-8.106 3.237-9.599 4.58-3.306 2.986-10.907 9.656-8.76 14.949 2.32 5.729 7.095.069 8.863-2.71 2.813-4.397 10.207-11.228 9.495-16.82z" transform="translate(43 74) translate(0 31.803)"/>
                <path d="M57.095 83.341c.23-1.665 3.146-14.26.241-14.225-2.548.034-2.675 11.871-2.927 13.674-1.504 10.723-3.399 21.4-5.672 31.986-.62 2.882-4.156 11.894-2.239 13.743 2.33 2.239 3.973-8.795 4.34-10.46 2.537-11.492 4.627-23.076 6.257-34.718zM70.413 124.305c-3.41-.964-14.948-5.028-17.221-1.01-2.388 4.214 5.27 8.45 8.048 9.908 3.467 1.814 8.439 3.215 12.112.988 5.684-3.422 1.86-8.542-2.939-9.886zM102.262 101.963c-4.329 0-8.737.827-12.974 1.217-3.65.333-7.589.678-10.999 2.124-1.664.712-3.524 2.055-2.33 4.03 1.86 3.054 10.424 2.767 13.513 3.043 5.982.516 17.635 1.802 22.72-2.388 4.823-3.973-1.262-6.89-5.016-7.6-1.63-.31-3.261-.426-4.914-.426zM139.059 113.972c-12.595-6.785-7.876-21.297-7.406-32.847.138-3.41.046-14.58-4.26-15.993-4.42-1.458-1.113 10.505-1.055 12.572.206 6.705-.965 13.364-1.826 19.977-.666 5.155-2.64 12.882.264 17.68 2.33 3.847 10.884 7.67 15.35 8.026 8.06.666 2.71-7.37-1.067-9.415zM149.013 87.084c-4.1-5.901-9.736 9.483-8.496 13.008 2.824 7.98 12.009-7.957 8.496-13.008zM186.12 76.165c-5.684-4.833-10.93-10.195-15.603-16.016-1.745-2.17-5.132-9.288-7.44-10.425-2.526-1.24-2.388.276-1.745 2.377 1.756 5.74 8.932 12.262 12.95 16.579 2.492 2.663 5.064 5.465 7.922 7.726.574.448 2.021 2.32 2.951 2.101.861-.206 2.067-1.4.964-2.342zM200.218 31.332c-3.1-2.847-6.59-7.474-11.194-4.65-2.457 1.504-8.094 9.346-7.451 12.32 1.343 6.176 6.854-.736 9.736-1.757 2.009-.724 14.89-.402 8.91-5.913zM217.956 20.482c-.895-3.33-7.623-6.314-10.62-4.673-4.615 2.515 1.01 5.557 1.987 8.359.734 2.124-1.768 9.655 2.491 9.15 2.618-.31 6.774-10.47 6.142-12.836zM.23 90.47c-.219 0-.219.345 0 .345.23 0 .23-.344 0-.344zM130.172 42.514c-2.02-2.422-11.492-12.434-15.155-10.746-1.113-.207-1.332.689-1.045 2.101.115 3.387 4.076 9.449 5.316 11.022 3.709 4.707 8.99 10.941 14.845 9.552 5.477-1.286-3.169-10.976-3.96-11.929z" transform="translate(43 74) translate(0 31.803)"/>
            </g>
            <g fill="#DAFADD" fill-rule="nonzero">
                <path d="M115.35 25.82c-1.079.242-1.274-1.469-.195-1.71 2.721-.608 5.465-1.113 8.209-1.561 9.575-1.585 28.634-5.718 28.668-5.764-1.71-.195-42.147-7.026-45.97-7.566 1.068 1.665 6.452 8.933 4.776 11.734-1.297 3.513-2.02 5.419-2.95 8.209-1.114 3.34 7.014.057 9.402.654h.023c1.94 3.066 3.915 6.097 6.27 8.875.378.436 1.055.333 1.457 0 7.91-6.544 26.395-19.024 28.083-20.069-.218.035-28.048 5.029-37.773 7.199zM11.366 20.321c8.037-2.525 32.836-.459 26.234-14.27-.998-2.102-7.244-7.51-8.794-5.65.103-.114.367 2.274.276 2.596-.919 2.939-2.917 3.834-5.913 4.385-5.626 1.045-11.975-.585-16.854 3.192-2.63 2.032-7.968 11.4-5.74 15.247 1.09 1.883 3.49-.172 4.764.643 1.676 1.08.7 2.422 1.607 3.34 1.114 1.137 1.286 2.079 2.204-.275 2.021-5.19-.046-8.496 2.216-9.208z" transform="translate(43 74) translate(69.805 .689)"/>
            </g>
            <g stroke="#131615" stroke-linecap="round" stroke-linejoin="round">
                <path d="M63.697 9.633c-1.619-1.022-3.846-.942-5.396.183-1.539 1.125-2.296 3.226-1.814 5.075.333 1.286 1.194 2.388 2.25 3.192 1.16.872 2.572 1.412 4.018 1.527M59.587 12.859c.757.425 1.527.85 2.284 1.274M77.623 12.147c-.068.735-.023 1.481.138 2.204.333-.723.322-1.607-.034-2.319M74.03 8.335c1.837-.895 3.88-1.366 5.924-1.377M90.103 5.614c-1.596-.046-3.203.39-4.546 1.24-.195.115-.379.253-.494.448-.138.241-.15.528-.16.804-.024.918-.047 1.848.137 2.744.356 1.848 1.516 3.455 2.02 5.27.081.298.15.63.035.918-.092.252-.31.436-.516.608l-2.044 1.768" transform="translate(43 74) translate(12.514 18.255)"/>
                <path d="M88.485 11.412c-.046.643-.023 1.298.091 1.929.207-.7.207-1.47-.011-2.17M80.344 22.606c1.86.574 3.881.678 5.787.276" transform="translate(43 74) translate(12.514 18.255)"/>
                <path d="M92.675.023c.23 5.637.47 11.274.7 16.912.115 2.8.23 5.648-.367 8.392-.597 2.744-1.986 5.43-4.317 7.004-2.514 1.699-5.82 1.883-8.76 1.125-2.939-.758-5.591-2.354-8.117-4.03M90.367 31.297c-.206 3.961-.046 7.945.494 11.872M62.411 20.918c.7 7.015.976 14.076.827 21.126" transform="translate(43 74) translate(12.514 18.255)"/>
                <path fill="#131615" fill-rule="nonzero" d="M72.411 30.184c1.424 2.33 3.146 4.558 5.476 5.993 2.32 1.435 5.34 1.963 7.82.815.814-.379 1.549-.919 2.272-1.47.632-.47 1.263-.976 1.677-1.641.413-.666.562-1.562.172-2.24-2.17 2.205-5.5 3.032-8.565 2.607-3.066-.413-5.89-1.929-8.347-3.823" transform="translate(43 74) translate(12.514 18.255)"/>
                <path d="M61.653 42.135c-6.43 2.986-13.49 4.983-20.149 8.416-9.093 4.696-16.062 12.836-20.896 21.86-4.833 9.024-7.715 18.944-10.252 28.863-3.904 15.19-7.095 30.551-10.299 45.902M35.006 85.614c1.79 3.192 3.169 6.613 4.098 10.161M43.64 84.546c-3.422 18.738-6.947 37.452-10.552 56.154M32.997 121.033c-3.364 7.004-11.367 11.194-13.858 18.565M26.2 133.318c-1.125 1.814-2.044 3.754-2.733 5.775M63.25 43.766c4.144 2.503 8.76 4.386 13.593 4.799 4.833.413 9.896-.746 13.685-3.754M67.486 48.519c4.661 3.812 11.308 5.063 17.026 3.192M113.708 78.955c2.813 22.469-4.294 44.834-7.175 67.29M66.28 120.712c9.656-2.296 19.633-3.203 29.54-2.687M74.156 123.651c3.88-.78 7.945-.62 11.757.46M42.583 137.199c6.556.31 13.353.688 19.162 3.742.207.104.436.253.448.483.023.275-.253.459-.494.585-3.582 1.849-7.658 2.469-11.653 3.054 1.871.999 3.858 1.745 5.924 2.227M92.79 43.307c11.607.723 22.032 8.208 28.588 17.807 6.544 9.61 9.667 21.136 11.504 32.617M123.18 112.17c8.99-13.961 17.98-27.91 26.98-41.871M151.022 63.192c6.578 8.829 13.708 17.244 21.355 25.166M149.082 68.106c5.464 8.783 12.112 16.82 19.712 23.846M165.695 90.413c-4.983 12.159-10 24.386-16.946 35.546-2.457 3.95-5.34 7.922-9.53 9.954-4.408 2.135-9.701 1.79-14.317.138-4.615-1.642-8.702-4.478-12.72-7.268M132.147 102.17c-2.423 3.777-3.743 8.243-3.766 12.732M40.023 53.56c-1.55.93-2.95 2.123-4.122 3.5M154.753 64.845c1.688-1.998 3.467-3.915 5.327-5.74M160.804 59.242c-2.721-6.349-1.08-14.317 3.938-19.058 1.24-1.171 2.64-2.147 4.041-3.112 2.985-2.078 5.97-4.144 8.955-6.222.747-.517 1.814-1.034 2.492-.425.333.298.436.792.436 1.24 0 1.067-.482 2.066-.999 2.996-1.814 3.226-4.294 6.085-7.233 8.336M171.573 46.51c.608-1.148.999-2.411 1.137-3.709M177.566 39.53c5.603-3.79 11.55-7.085 17.738-9.817.69-.31 1.412-.609 2.17-.643.758-.034 1.573.253 1.963.907.563.919.058 2.124-.608 2.974-1.102 1.4-2.63 2.4-4.133 3.375l-9.748 6.338M203.387 31.561c.77-.137 1.527.437 1.791 1.171.264.735.08 1.562-.299 2.24-.367.677-.918 1.24-1.458 1.802-.149.15-.298.333-.287.55.012.173.15.31.264.449.517.654.529 1.619.219 2.388-.31.78-.896 1.412-1.504 1.986M201.297 37.497c-4.236 3.387-8.61 6.613-13.088 9.667M190.333 49.943c2.801-1.895 5.649-3.697 8.542-5.43M200.941 44.788c.242 1.16-.447 2.307-1.251 3.191-2.02 2.228-4.822 3.57-7.267 5.328-3.17 2.261-5.764 5.223-8.646 7.853-2.881 2.617-6.222 4.97-10.069 5.602M177.084 68.106c-2.457 5.19-5.098 10.275-7.945 15.258M171.4 54.971c2.699-2.307 6.12-3.754 9.656-4.098M183.134 41.378c2.767 2.847 5.167 6.062 7.119 9.529M31.94 41.504c-.16.207.012.574.276.586.264.023.47-.31.344-.54M99.552 38.071c-.183.115-.092.47.127.47.218 0 .31-.355.126-.47M140.356 53.054c-.299-.184-.735.16-.643.494.103.333.654.367.804.057M118.22 141.573c-.321.069.138.597.368.356.23-.241.08-.632-.07-.93M183.536 80.689c-.344.138.333.62.356.252M112.859 75.396c-.092.333-.012.7.218.965M86.51 51.217l.723-.482M98.002 118.014h.483M33.846 83.731v-.264M8.61 125.075c-.263.723-.516 1.435-.78 2.158" transform="translate(43 74) translate(12.514 18.255)"/>
            </g>
            <g stroke="#00B60F" stroke-linecap="round" stroke-linejoin="round">
                <path d="M7.36 29.414c-.012.873.137 1.734.424 2.56.035.093.08.207.172.23.127.046.253-.069.345-.183.872-1.148 1.102-2.664 1.217-4.1.183-2.169.183-4.35.023-6.52M.367 26.774C-.207 22.859.161 18.76 1.78 15.155 3.398 11.55 6.326 8.462 10 7.003c2.48-.987 5.2-1.217 7.865-1.16 3.708.081 7.807.586 10.757-1.664" transform="translate(43 74) translate(69.575)"/>
                <path d="M11.561 21.045c5.064-1.86 10.609-1.608 15.96-2.285 2.376-.298 4.764-.804 6.83-2.02 2.067-1.206 3.766-3.227 4.1-5.592.366-2.56-.92-5.132-2.756-6.957C33.858 2.365 31.504 1.17 29.208 0M28.932.08c.517.609.712 1.47.517 2.24" transform="translate(43 74) translate(69.575)"/>
                <path d="M25.465 8.025c-.276 1.504-1.297 2.767-2.457 3.766-3.812 3.284-9.059 4.168-13.915 5.488M29.506 7.084c.138.746-.275 1.47-.712 2.09-2.009 2.847-4.89 5.063-8.163 6.268M32.285 8.726c-.69 1.492-1.803 2.79-3.169 3.708M6.51 21.366c.448 1.068.55 2.273.275 3.399M68.955 47.451c5.017.574 10.138.299 15.075-.826 5.063-1.149 10.172-3.376 13.226-7.578.54-.746 1.033-1.642.861-2.549-.287-1.527-2.181-2.112-3.743-2.1-1.136.01-2.307.183-3.26.791-.953.609-1.642 1.746-1.458 2.87.275 1.642 2.158 2.492 3.823 2.641 4.282.39 8.392-1.894 11.642-4.718M80.126 49.024c-5.27 2.01-10.941 2.95-16.567 2.733M114.524 24.776L156.889 16.739 123.594 40.161 117.543 29.897 114.524 24.776 107.75 31.55 117.509 29.943" transform="translate(43 74) translate(69.575)"/>
                <path d="M107.75 31.55L111.768 19.265 156.889 16.739 104.65 7.21 111.768 19.265" transform="translate(43 74) translate(69.575)"/>
            </g>
        </g>
    </g>
</svg>
