<svg width="16" height="16" viewBox="0 0 16 16" fill="none" xmlns="http://www.w3.org/2000/svg">
<path d="M2.39687 3.2002C1.97253 3.2002 1.56556 3.36877 1.2655 3.66882C0.965446 3.96888 0.796875 4.37585 0.796875 4.8002V5.729L7.54967 9.1058C7.68853 9.17522 7.84163 9.21136 7.99687 9.21136C8.15211 9.21136 8.30522 9.17522 8.44407 9.1058L15.1969 5.7298V4.8002C15.1969 4.37585 15.0283 3.96888 14.7282 3.66882C14.4282 3.36877 14.0212 3.2002 13.5969 3.2002H2.39687Z" fill="#6E717C"/>
<path d="M15.1969 7.07129L8.98087 10.1793C8.67536 10.3321 8.33846 10.4116 7.99687 10.4116C7.65529 10.4116 7.31839 10.3321 7.01288 10.1793L0.796875 7.07129V11.2001C0.796875 11.6244 0.965446 12.0314 1.2655 12.3315C1.56556 12.6315 1.97253 12.8001 2.39687 12.8001H13.5969C14.0212 12.8001 14.4282 12.6315 14.7282 12.3315C15.0283 12.0314 15.1969 11.6244 15.1969 11.2001V7.07129Z" fill="#6E717C"/>
</svg>
