<svg width="20" height="20" viewBox="0 0 20 20" fill="none" xmlns="http://www.w3.org/2000/svg">
<path d="M3 4C2.46957 4 1.96086 4.21071 1.58579 4.58579C1.21071 4.96086 1 5.46957 1 6V7.161L9.441 11.382C9.61456 11.4688 9.80595 11.514 10 11.514C10.194 11.514 10.3854 11.4688 10.559 11.382L19 7.162V6C19 5.46957 18.7893 4.96086 18.4142 4.58579C18.0391 4.21071 17.5304 4 17 4H3Z" fill="#4848ED"/>
<path d="M19 8.83899L11.23 12.724C10.8481 12.915 10.427 13.0144 10 13.0144C9.57301 13.0144 9.1519 12.915 8.77 12.724L1 8.83899V14C1 14.5304 1.21071 15.0391 1.58579 15.4142C1.96086 15.7893 2.46957 16 3 16H17C17.5304 16 18.0391 15.7893 18.4142 15.4142C18.7893 15.0391 19 14.5304 19 14V8.83899Z" fill="#4848ED"/>
</svg>
