<svg width="56" height="56" viewBox="0 0 56 56" fill="none" xmlns="http://www.w3.org/2000/svg">
<rect x="4" y="4" width="48" height="48" rx="24" fill="#F7CACC"/>
<path fill-rule="evenodd" clip-rule="evenodd" d="M21.4693 21.47C21.61 21.3296 21.8006 21.2507 21.9993 21.2507C22.1981 21.2507 22.3887 21.3296 22.5293 21.47L27.9993 26.94L33.4693 21.47C33.538 21.3963 33.6208 21.3372 33.7128 21.2963C33.8048 21.2553 33.9041 21.2332 34.0048 21.2314C34.1055 21.2297 34.2055 21.2482 34.2989 21.2859C34.3923 21.3236 34.4772 21.3798 34.5484 21.451C34.6196 21.5222 34.6757 21.607 34.7135 21.7004C34.7512 21.7938 34.7697 21.8939 34.7679 21.9946C34.7662 22.0953 34.7441 22.1946 34.7031 22.2866C34.6621 22.3786 34.603 22.4614 34.5293 22.53L29.0593 28L34.5293 33.47C34.603 33.5387 34.6621 33.6215 34.7031 33.7135C34.7441 33.8055 34.7662 33.9048 34.7679 34.0055C34.7697 34.1062 34.7512 34.2062 34.7135 34.2996C34.6757 34.393 34.6196 34.4779 34.5484 34.5491C34.4772 34.6203 34.3923 34.6764 34.2989 34.7142C34.2055 34.7519 34.1055 34.7704 34.0048 34.7686C33.9041 34.7668 33.8048 34.7448 33.7128 34.7038C33.6208 34.6628 33.538 34.6037 33.4693 34.53L27.9993 29.06L22.5293 34.53C22.3872 34.6625 22.1991 34.7346 22.0048 34.7312C21.8105 34.7278 21.6251 34.6491 21.4877 34.5117C21.3503 34.3742 21.2716 34.1889 21.2682 33.9946C21.2647 33.8003 21.3369 33.6122 21.4693 33.47L26.9393 28L21.4693 22.53C21.3289 22.3894 21.25 22.1988 21.25 22C21.25 21.8013 21.3289 21.6107 21.4693 21.47Z" fill="#E13D45"/>
<rect x="4" y="4" width="48" height="48" rx="24" stroke="#FCEDEE" stroke-width="8"/>
</svg>
