<svg width="48" height="48" viewBox="0 0 48 48" fill="none" xmlns="http://www.w3.org/2000/svg">
<rect width="48" height="48" rx="10" fill="#E5E5FE"/>
<path d="M31.5 26.25V23.625C31.5 22.7299 31.1444 21.8715 30.5115 21.2385C29.8786 20.6056 29.0201 20.25 28.125 20.25H26.625C26.3266 20.25 26.0405 20.1315 25.8295 19.9205C25.6185 19.7095 25.5 19.4234 25.5 19.125V17.625C25.5 16.7299 25.1444 15.8714 24.5115 15.2385C23.8785 14.6056 23.0201 14.25 22.125 14.25H20.25M27 26.25L24 23.25M24 23.25L21 26.25M24 23.25V29.25M22.5 14.25H17.625C17.004 14.25 16.5 14.754 16.5 15.375V32.625C16.5 33.246 17.004 33.75 17.625 33.75H30.375C30.996 33.75 31.5 33.246 31.5 32.625V23.25C31.5 20.8631 30.5518 18.5739 28.864 16.886C27.1761 15.1982 24.8869 14.25 22.5 14.25V14.25Z" stroke="black" stroke-width="1.5" stroke-linecap="round" stroke-linejoin="round"/>
</svg>
