<svg width="20" height="20" viewBox="0 0 20 20" fill="none" xmlns="http://www.w3.org/2000/svg">
<path d="M9.5584 3.2C9.67559 3.08296 9.83444 3.01722 10.0001 3.01722C10.1657 3.01722 10.3245 3.08296 10.4417 3.2L17.6834 10.4417C17.7406 10.5031 17.8096 10.5523 17.8863 10.5865C17.9629 10.6206 18.0457 10.639 18.1296 10.6405C18.2136 10.642 18.2969 10.6265 18.3747 10.5951C18.4526 10.5637 18.5232 10.5169 18.5826 10.4575C18.6419 10.3982 18.6887 10.3275 18.7202 10.2497C18.7516 10.1718 18.767 10.0885 18.7656 10.0046C18.7641 9.92065 18.7457 9.83789 18.7115 9.76122C18.6774 9.68456 18.6281 9.61556 18.5667 9.55834L11.3259 2.31667C11.1518 2.14256 10.9451 2.00444 10.7176 1.91021C10.4901 1.81599 10.2463 1.76749 10.0001 1.76749C9.75384 1.76749 9.51002 1.81599 9.28253 1.91021C9.05504 2.00444 8.84834 2.14256 8.67423 2.31667L1.43257 9.55834C1.31877 9.67627 1.25585 9.83417 1.25735 9.99805C1.25885 10.1619 1.32466 10.3186 1.44059 10.4345C1.55653 10.5503 1.71332 10.616 1.87719 10.6173C2.04106 10.6186 2.19891 10.5556 2.31673 10.4417L9.5584 3.2Z" fill="white"/>
<path d="M10 4.52666L16.7992 11.3258C16.8242 11.3508 16.8492 11.3742 16.875 11.3975V16.5625C16.875 17.425 16.175 18.125 15.3125 18.125H12.5C12.3342 18.125 12.1753 18.0591 12.0581 17.9419C11.9408 17.8247 11.875 17.6658 11.875 17.5V13.75C11.875 13.5842 11.8092 13.4253 11.6919 13.3081C11.5747 13.1908 11.4158 13.125 11.25 13.125H8.75C8.58424 13.125 8.42527 13.1908 8.30806 13.3081C8.19085 13.4253 8.125 13.5842 8.125 13.75V17.5C8.125 17.6658 8.05915 17.8247 7.94194 17.9419C7.82473 18.0591 7.66576 18.125 7.5 18.125H4.6875C4.2731 18.125 3.87567 17.9604 3.58265 17.6673C3.28962 17.3743 3.125 16.9769 3.125 16.5625V11.3975C3.15093 11.3743 3.17621 11.3504 3.20083 11.3258L10 4.52499V4.52666Z" fill="white"/>
</svg>
