<svg width="66" height="66" viewBox="0 0 66 66" fill="none" xmlns="http://www.w3.org/2000/svg">
<rect x="2" y="2" width="62" height="62" rx="28" fill="#F9FBFA"/>
<path fill-rule="evenodd" clip-rule="evenodd" d="M22.2002 27.3001C22.2002 26.584 22.4847 25.8973 22.991 25.3909C23.4974 24.8846 24.1841 24.6001 24.9002 24.6001H41.1002C41.4548 24.6001 41.8059 24.6699 42.1334 24.8056C42.461 24.9413 42.7587 25.1402 43.0094 25.3909C43.2601 25.6416 43.459 25.9393 43.5947 26.2669C43.7304 26.5944 43.8002 26.9455 43.8002 27.3001V38.7001C43.8002 39.0547 43.7304 39.4058 43.5947 39.7333C43.459 40.0609 43.2601 40.3586 43.0094 40.6093C42.7587 40.86 42.461 41.0589 42.1334 41.1946C41.8059 41.3303 41.4548 41.4001 41.1002 41.4001H24.9002C24.1841 41.4001 23.4974 41.1156 22.991 40.6093C22.4847 40.1029 22.2002 39.4162 22.2002 38.7001V27.3001ZM24.0002 34.2721V38.7001C24.0002 39.1969 24.4034 39.6001 24.9002 39.6001H41.1002C41.3389 39.6001 41.5678 39.5053 41.7366 39.3365C41.9054 39.1677 42.0002 38.9388 42.0002 38.7001V35.4721L39.3362 32.8093C39.1674 32.6408 38.9387 32.5461 38.7002 32.5461C38.4617 32.5461 38.2329 32.6408 38.0642 32.8093L35.7722 35.1001L36.3362 35.6641C36.4246 35.7465 36.4955 35.8459 36.5447 35.9563C36.5939 36.0667 36.6204 36.1858 36.6225 36.3067C36.6246 36.4275 36.6024 36.5475 36.5571 36.6596C36.5119 36.7717 36.4445 36.8735 36.359 36.9589C36.2736 37.0444 36.1718 37.1118 36.0597 37.157C35.9476 37.2023 35.8276 37.2245 35.7068 37.2224C35.5859 37.2203 35.4667 37.1938 35.3563 37.1446C35.246 37.0954 35.1466 37.0245 35.0642 36.9361L28.8362 30.7093C28.6674 30.5408 28.4387 30.4461 28.2002 30.4461C27.9617 30.4461 27.7329 30.5408 27.5642 30.7093L24.0002 34.2733V34.2721ZM35.4002 29.4001C35.4002 29.7184 35.2738 30.0236 35.0487 30.2486C34.8237 30.4737 34.5185 30.6001 34.2002 30.6001C33.8819 30.6001 33.5767 30.4737 33.3517 30.2486C33.1266 30.0236 33.0002 29.7184 33.0002 29.4001C33.0002 29.0818 33.1266 28.7766 33.3517 28.5516C33.5767 28.3265 33.8819 28.2001 34.2002 28.2001C34.5185 28.2001 34.8237 28.3265 35.0487 28.5516C35.2738 28.7766 35.4002 29.0818 35.4002 29.4001Z" fill="#09090F"/>
<rect x="2" y="2" width="62" height="62" rx="28" stroke="#F9FBFA" stroke-width="4"/>
</svg>
