<svg width="67" height="707" viewBox="0 0 67 707" fill="none" xmlns="http://www.w3.org/2000/svg">
<line x1="33.1587" y1="27" x2="33.1587" y2="291" stroke="#ACAFAE" stroke-width="2" stroke-linecap="round" stroke-dasharray="6 6"/>
<line x1="33.1587" y1="295" x2="33.1587" y2="543" stroke="#ACAFAE" stroke-width="2" stroke-linecap="round" stroke-dasharray="6 6"/>
<line x1="33.1587" y1="554" x2="33.1587" y2="781" stroke="#ACAFAE" stroke-width="2" stroke-linecap="round" stroke-dasharray="6 6"/>
<g clip-path="url(#clip0_1007_52320)" filter="url(#filter0_d_1007_52320)">
<path d="M33.1624 32C38.1518 32 42.1965 27.9706 42.1965 23C42.1965 18.0294 38.1518 14 33.1624 14C28.1731 14 24.1284 18.0294 24.1284 23C24.1284 27.9706 28.1731 32 33.1624 32Z" fill="black" fill-opacity="0.15"/>
<path d="M33.1625 29.2311C36.6167 29.2311 39.4169 26.4415 39.4169 23.0003C39.4169 19.5591 36.6167 16.7695 33.1625 16.7695C29.7084 16.7695 26.9082 19.5591 26.9082 23.0003C26.9082 26.4415 29.7084 29.2311 33.1625 29.2311Z" fill="white"/>
<path d="M33.162 25.7689C34.6972 25.7689 35.9417 24.5291 35.9417 22.9997C35.9417 21.4703 34.6972 20.2305 33.162 20.2305C31.6268 20.2305 30.3823 21.4703 30.3823 22.9997C30.3823 24.5291 31.6268 25.7689 33.162 25.7689Z" fill="#20E682"/>
</g>
<g clip-path="url(#clip1_1007_52320)" filter="url(#filter1_d_1007_52320)">
<path d="M33.1624 301C38.1518 301 42.1965 296.971 42.1965 292C42.1965 287.029 38.1518 283 33.1624 283C28.1731 283 24.1284 287.029 24.1284 292C24.1284 296.971 28.1731 301 33.1624 301Z" fill="black" fill-opacity="0.15"/>
<path d="M33.1625 298.231C36.6167 298.231 39.4169 295.441 39.4169 292C39.4169 288.559 36.6167 285.77 33.1625 285.77C29.7084 285.77 26.9082 288.559 26.9082 292C26.9082 295.441 29.7084 298.231 33.1625 298.231Z" fill="white"/>
<path d="M33.162 294.769C34.6972 294.769 35.9417 293.529 35.9417 292C35.9417 290.47 34.6972 289.23 33.162 289.23C31.6268 289.23 30.3823 290.47 30.3823 292C30.3823 293.529 31.6268 294.769 33.162 294.769Z" fill="#20E682"/>
</g>
<g clip-path="url(#clip2_1007_52320)" filter="url(#filter2_d_1007_52320)">
<path d="M33.1624 559C38.1518 559 42.1965 554.971 42.1965 550C42.1965 545.029 38.1518 541 33.1624 541C28.1731 541 24.1284 545.029 24.1284 550C24.1284 554.971 28.1731 559 33.1624 559Z" fill="black" fill-opacity="0.15"/>
<path d="M33.1625 556.231C36.6167 556.231 39.4169 553.441 39.4169 550C39.4169 546.559 36.6167 543.77 33.1625 543.77C29.7084 543.77 26.9082 546.559 26.9082 550C26.9082 553.441 29.7084 556.231 33.1625 556.231Z" fill="white"/>
<path d="M33.162 552.769C34.6972 552.769 35.9417 551.529 35.9417 550C35.9417 548.47 34.6972 547.23 33.162 547.23C31.6268 547.23 30.3823 548.47 30.3823 550C30.3823 551.529 31.6268 552.769 33.162 552.769Z" fill="#20E682"/>
</g>
<defs>
<filter id="filter0_d_1007_52320" x="0.128418" y="0" width="66.0679" height="66" filterUnits="userSpaceOnUse" color-interpolation-filters="sRGB">
<feFlood flood-opacity="0" result="BackgroundImageFix"/>
<feColorMatrix in="SourceAlpha" type="matrix" values="0 0 0 0 0 0 0 0 0 0 0 0 0 0 0 0 0 0 127 0" result="hardAlpha"/>
<feOffset dy="10"/>
<feGaussianBlur stdDeviation="12"/>
<feColorMatrix type="matrix" values="0 0 0 0 0.129412 0 0 0 0 0.137255 0 0 0 0 0.145098 0 0 0 0.08 0"/>
<feBlend mode="normal" in2="BackgroundImageFix" result="effect1_dropShadow_1007_52320"/>
<feBlend mode="normal" in="SourceGraphic" in2="effect1_dropShadow_1007_52320" result="shape"/>
</filter>
<filter id="filter1_d_1007_52320" x="0.128418" y="269" width="66.0679" height="66" filterUnits="userSpaceOnUse" color-interpolation-filters="sRGB">
<feFlood flood-opacity="0" result="BackgroundImageFix"/>
<feColorMatrix in="SourceAlpha" type="matrix" values="0 0 0 0 0 0 0 0 0 0 0 0 0 0 0 0 0 0 127 0" result="hardAlpha"/>
<feOffset dy="10"/>
<feGaussianBlur stdDeviation="12"/>
<feColorMatrix type="matrix" values="0 0 0 0 0.129412 0 0 0 0 0.137255 0 0 0 0 0.145098 0 0 0 0.08 0"/>
<feBlend mode="normal" in2="BackgroundImageFix" result="effect1_dropShadow_1007_52320"/>
<feBlend mode="normal" in="SourceGraphic" in2="effect1_dropShadow_1007_52320" result="shape"/>
</filter>
<filter id="filter2_d_1007_52320" x="0.128418" y="527" width="66.0679" height="66" filterUnits="userSpaceOnUse" color-interpolation-filters="sRGB">
<feFlood flood-opacity="0" result="BackgroundImageFix"/>
<feColorMatrix in="SourceAlpha" type="matrix" values="0 0 0 0 0 0 0 0 0 0 0 0 0 0 0 0 0 0 127 0" result="hardAlpha"/>
<feOffset dy="10"/>
<feGaussianBlur stdDeviation="12"/>
<feColorMatrix type="matrix" values="0 0 0 0 0.129412 0 0 0 0 0.137255 0 0 0 0 0.145098 0 0 0 0.08 0"/>
<feBlend mode="normal" in2="BackgroundImageFix" result="effect1_dropShadow_1007_52320"/>
<feBlend mode="normal" in="SourceGraphic" in2="effect1_dropShadow_1007_52320" result="shape"/>
</filter>
<clipPath id="clip0_1007_52320">
<rect width="18.0681" height="18" fill="white" transform="translate(24.1284 14)"/>
</clipPath>
<clipPath id="clip1_1007_52320">
<rect width="18.0681" height="18" fill="white" transform="translate(24.1284 283)"/>
</clipPath>
<clipPath id="clip2_1007_52320">
<rect width="18.0681" height="18" fill="white" transform="translate(24.1284 541)"/>
</clipPath>
</defs>
</svg>
