<svg width="16" height="60" viewBox="0 0 16 60" fill="none" xmlns="http://www.w3.org/2000/svg">
<circle cx="8" cy="7.5" r="7" fill="#0DAC5C"/>
<circle cx="8" cy="7.5" r="3" fill="white"/>
<circle cx="8.5" cy="49.5" r="5" fill="white"/>
<g clip-path="url(#clip0_1683_98567)">
<path d="M8.28674 59.4985C8.27614 59.4985 8.26553 59.4985 8.25493 59.4985C8.2324 59.4282 8.16745 59.3964 8.11842 59.35C6.99847 58.3083 5.95274 57.195 4.99847 55.9995C4.07865 54.8504 3.25029 53.6416 2.65519 52.2857C2.15818 51.1539 1.93286 49.9862 2.1383 48.7496C2.63399 45.7556 5.23571 43.5502 8.28806 43.5488C8.28806 44.3348 8.28806 45.1207 8.28806 45.9067C8.10384 45.9146 7.91961 45.9186 7.73538 45.9438C5.19728 46.2884 3.67441 49.028 4.7599 51.3553C5.45042 52.8344 6.65519 53.5833 8.28806 53.635C8.28806 55.5806 8.28806 57.525 8.28806 59.4706C8.28541 59.4799 8.28541 59.4892 8.28674 59.4985Z" fill="#4848ED"/>
<path d="M8.28906 45.9049C8.28906 45.119 8.28906 44.333 8.28906 43.5471C9.1214 43.5405 9.92591 43.6929 10.684 44.0322C12.749 44.956 13.9988 46.5318 14.415 48.7638C14.4494 48.9467 14.4375 49.1362 14.5038 49.3125C14.5038 49.3867 14.5038 49.4609 14.5038 49.5352C14.4508 49.6836 14.4521 49.8307 14.5038 49.9792C14.5038 50.0428 14.5038 50.1064 14.5038 50.17C14.4706 50.1793 14.4733 50.2071 14.472 50.2336C14.4547 50.4656 14.411 50.6922 14.358 50.9175C14.1035 52.0123 13.6078 53.001 13.0207 53.9473C12.0107 55.5749 10.7715 57.0196 9.43552 58.3821C9.06706 58.7585 8.69861 59.1375 8.28906 59.4702C8.28906 57.5246 8.28906 55.5802 8.28906 53.6346C8.5051 53.6253 8.71981 53.608 8.9332 53.5709C10.9716 53.2184 12.3673 51.3324 12.0982 49.2794C11.9431 48.0958 11.352 47.1786 10.362 46.5226C9.73638 46.1077 9.0379 45.9182 8.28906 45.9049Z" fill="#4848ED"/>
<path d="M14.5002 49.9801C14.4485 49.8317 14.4472 49.6846 14.5002 49.5361C14.5002 49.6833 14.5002 49.8317 14.5002 49.9801Z" fill="#47484F"/>
</g>
<line x1="8" y1="17.5" x2="8" y2="40.5" stroke="#ACAFAE" stroke-width="2" stroke-linecap="round" stroke-dasharray="6 6"/>
<defs>
<clipPath id="clip0_1683_98567">
<rect width="12.501" height="16" fill="white" transform="translate(2 43.5)"/>
</clipPath>
</defs>
</svg>
