<?xml version="1.0" encoding="UTF-8"?>
<svg width="128px" height="35px" viewBox="0 0 128 35" version="1.1" xmlns="http://www.w3.org/2000/svg" xmlns:xlink="http://www.w3.org/1999/xlink">
    <title>Group 3</title>
    <g id="ðŸ -Dashboard" stroke="none" stroke-width="1" fill="none" fill-rule="evenodd">
        <g id="1.000-Dashboard" transform="translate(-24.000000, -829.000000)" fill-rule="nonzero">
            <g id="Group-14" transform="translate(0.000000, 56.000000)">
                <g id="Group-7" transform="translate(0.000000, 669.000000)">
                    <g id="Group-3" transform="translate(24.000000, 104.000000)">
                        <g id="Group-2">
                            <g id="Group_5" transform="translate(27.903240, 3.952007)" fill="#FFFFFF">
                                <path d="M20.8605714,2.57142857 C19.1422857,2.57142857 18.1494286,2.98685714 17.1462857,3.94285714 L17.1462857,0.131428571 L13.2462857,0.131428571 L13.2462857,15.7068571 L17.1474286,15.7068571 L17.1474286,8.76057143 C17.1474286,6.95571429 18.1371429,6.13942857 19.5671429,6.13942857 C20.8151429,6.13942857 21.832,6.87857143 21.832,8.45371429 L21.832,15.7057143 L25.7334286,15.7057143 L25.7334286,7.89685714 C25.7334286,4.46228571 23.4857143,2.57142857 20.8605714,2.57142857 Z" id="Path_21"></path>
                                <path d="M39.9057143,2.70771429 L39.9057143,15.7054286 L35.9177143,15.7054286 L35.9177143,14.4837143 C35.2,15.4454286 33.8705714,16.0694286 32.1157143,16.0694286 C29.43,16.0694286 27.1442857,14.1977143 27.1442857,10.6882857 L27.1442857,2.70771429 L31.1322857,2.70771429 L31.1322857,10.1162857 C31.1322857,11.728 32.1691429,12.482 33.4465714,12.482 C34.9088571,12.482 35.9191429,11.6502857 35.9191429,9.80457143 L35.9191429,2.70771429 L39.9057143,2.70771429 Z" id="Path_22"></path>
                                <path d="M47.1337143,11.0534286 L47.1337143,6.45171429 L49.2837143,6.45171429 L49.2837143,2.70885714 L47.1337143,2.70885714 L47.1337143,0.518571429 L43.1471429,0.518571429 L43.1471429,1.98171429 C43.1469852,2.38323887 42.8215246,2.70869947 42.42,2.70885714 L41.02,2.70885714 L41.02,6.45171429 L43.1485714,6.45171429 L43.1485714,11.0534286 C43.1485714,14.6905714 44.6628571,16.2248571 49.8748571,15.7068571 L49.8748571,12.1697143 C48.1202857,12.2728571 47.1337143,12.1697143 47.1337143,11.0534286 Z" id="Path_23"></path>
                                <path d="M59.0722857,6.45171429 L59.0722857,2.70885714 L56.3357143,2.70885714 L56.3357143,0.518571429 L52.346,0.518571429 L52.346,1.98171429 C52.346,2.3833042 52.0204471,2.70885714 51.6188571,2.70885714 L50.2208571,2.70885714 L50.2208571,6.45171429 L52.346,6.45171429 L52.346,11.0534286 C52.346,14.6905714 53.8631429,16.2248571 59.0722857,15.7068571 L59.0722857,12.1697143 C57.3194286,12.2728571 56.3357143,12.1697143 56.3357143,11.0534286 L56.3357143,6.45171429 L59.0722857,6.45171429 Z" id="Path_24"></path>
                                <polygon id="Path_25" points="60.5862857 0.518285714 60.5862857 15.7068571 64.5731429 15.7068571 64.5731429 0.518285714"></polygon>
                                <path d="M72.9791429,12.3737143 C73.8875603,12.4019432 74.7686655,12.0609633 75.4214286,11.4285714 L78.4745714,13.1451429 C77.2277143,14.8365714 75.3451429,15.7071429 72.9282857,15.7071429 C68.5777143,15.7071429 65.8811429,12.8465714 65.8811429,9.14028571 C65.8811429,5.434 68.6288571,2.57342857 72.6482857,2.57342857 C76.3625714,2.57342857 79.11064,5.384 79.11064,9.14028571 C79.1127816,9.64173227 79.0615398,10.1419863 78.9577143,10.6325714 L69.9262857,10.6325714 C70.4097143,11.9257143 71.58,12.3737143 72.9791429,12.3737143 Z M75.3197143,7.84657143 C74.9125714,6.40371429 73.7677143,5.88114286 72.6228571,5.88114286 C71.1728571,5.88114286 70.206,6.57771429 69.8497143,7.84657143 L75.3197143,7.84657143 Z" id="Path_26"></path>
                                <path d="M88.3902857,2.60428571 L88.3888571,6.42914286 C86.748,6.16971429 84.4174286,7.10371429 84.4174286,9.66628571 L84.4154286,15.7482857 L80.444,15.7482857 L80.4482857,2.57428571 L84.4197143,2.57428571 L84.4197143,4.51428571 C84.9485714,2.78028571 86.7225714,2.60371429 88.3902857,2.60428571 Z" id="Path_27"></path>
                                <path d="M2.34714286,14.5968571 C1.89672772,14.2968594 1.50149348,13.9213433 1.17885714,13.4868571 C0.61355417,12.864214 0.265120228,12.0752256 0.185714286,11.238 L3.92428571,10.4494286 C3.98153008,10.9771995 4.2311262,11.4654071 4.62542857,11.8208571 C5.06699029,12.2352174 5.65570763,12.4561407 6.26085714,12.4345714 C7.37085714,12.4345714 7.95514286,11.792 7.95514286,11.1774286 C7.95514286,10.5628571 7.48771429,10.126 6.55314286,9.92171429 L4.71428571,9.51428571 C1.93942857,8.90114286 0.537428571,7.38228571 0.537428571,5.27914286 C0.526479106,3.97818412 1.10660845,2.74257168 2.11457143,1.92 C3.21813285,0.975335083 4.63395489,0.475519345 6.086,0.518 C8.39342857,0.518 10.0002857,1.42371429 10.876,2.50428571 C11.4276153,3.11617402 11.7836308,3.8790502 11.8982857,4.69485714 L8.21828571,5.48371429 C8.07704274,4.44698605 7.1594007,3.69514538 6.11514286,3.76057143 C5.15142857,3.76057143 4.50885714,4.31542857 4.50885714,4.98714286 C4.50885714,5.54219048 4.88847619,5.89266667 5.64771429,6.03857143 L7.66342857,6.47685714 C10.5257143,7.03171429 12.074,8.69657143 12.074,10.8871429 C12.0667899,12.1306533 11.5616231,13.3194264 10.6714286,14.1877143 C9.73714286,15.0934286 8.18914286,15.7065716 6.31971429,15.7065716 C4.68371429,15.7068571 3.22314286,15.2394286 2.34714286,14.5968571 Z" id="Path_28"></path>
                                <path d="M90.8922857,14.922 C90.4861781,14.6517129 90.1297177,14.3134235 89.8385714,13.922 C89.3286332,13.3603685 89.0143723,12.6486454 88.9428571,11.8934286 L92.3142857,11.182 C92.3656821,11.6585099 92.59089,12.0993641 92.9468571,12.4202857 C93.3450808,12.7939342 93.8759878,12.9931528 94.4217143,12.9737143 C95.4217143,12.9737143 95.95,12.394 95.95,11.8405714 C95.95,11.2871429 95.5282857,10.8922857 94.6854286,10.708 L93.0257143,10.3388571 C90.5228571,9.78571429 89.2582857,8.416 89.2582857,6.51914286 C89.2487905,5.34615313 89.772029,4.23220907 90.6808571,3.49057143 C91.6764725,2.63841033 92.9537704,2.18758734 94.2637143,2.226 C96.3451429,2.226 97.794,3.04285714 98.5842857,4.01742857 C99.0818314,4.56942167 99.4030092,5.25754614 99.5065714,5.99342857 L96.1871429,6.70485714 C96.0601657,5.76956433 95.2322895,5.09120211 94.2902857,5.15057143 C93.4208571,5.15057143 92.8414286,5.65114286 92.8414286,6.25714286 C92.8414286,6.75771429 93.1838095,7.07380952 93.8685714,7.20542857 L95.6865714,7.60057143 C98.2682857,8.10114286 99.6648571,9.60285714 99.6648571,11.5788571 C99.6582465,12.7003535 99.2027051,13.7724759 98.4,14.5557143 C97.5571429,15.3725714 96.1605714,15.9257143 94.4745714,15.9257143 C93,15.9231429 91.6825714,15.5014286 90.8922857,14.922 Z" id="Path_29"></path>
                            </g>
                            <g id="Group">
                                <path d="M4.59038225,2.49555119 C9.71673478,-1.48529975 17.076693,-0.605820588 21.1248398,4.436284 L21.2466667,4.59057413 C25.2273424,9.716701 24.3478632,17.0766592 19.3057586,21.124806 L19.1514685,21.2466329 C14.0253416,25.2273086 6.66538346,24.3478294 2.61723666,19.3057249 L2.49540973,19.1514347 C-1.52547481,13.9735288 -0.587523667,6.51643574 4.59038225,2.49555119 Z" id="Rectangle_1" fill="#FFFFFF"></path>
                                <path d="M17.8746685,10.271721 C16.7428083,8.65088592 14.5397025,8.20064453 12.8626685,9.24743526 C12.8055257,9.28257812 12.7483828,9.31943526 12.6940971,9.35829241 L9.9843828,11.255721 C9.98395964,11.2587506 9.98319279,11.2617221 9.98209709,11.2645781 C9.94060792,11.4186423 9.84853411,11.5542877 9.72066852,11.649721 C9.71466852,11.6545781 9.70781137,11.6594353 9.70095423,11.6642924 C9.39308224,11.8796358 8.97140197,11.8221678 8.7323828,11.5322924 L8.71466852,11.5102924 C8.70866852,11.5025781 8.70323994,11.4951496 8.69781137,11.4874353 C8.6923828,11.479721 8.68695423,11.4720067 8.68209709,11.463721 L8.66752566,11.4394353 C8.53100057,11.2077025 8.53507734,10.9191826 8.67809536,10.6913998 C8.82111338,10.463617 9.07920483,10.3345853 9.34723994,10.3568638 L13.9072399,7.16372098 L13.8215257,3.35972098 L6.7803828,8.29057812 C5.12868106,9.44574484 4.69775126,11.7063877 5.80866585,13.3881717 C6.91958044,15.0699558 9.16798747,15.5607433 10.8786685,14.4948638 C10.9358114,14.4594353 10.9929542,14.4225781 11.0469542,14.383721 L13.7566685,12.4862924 L13.7592399,12.477721 C13.8008276,12.32401 13.8927813,12.1886952 14.0203828,12.0934353 C14.0267392,12.0880783 14.0334184,12.0831166 14.0403828,12.0785781 C14.3479338,11.8629519 14.7696263,11.920331 15.0083828,12.2102924 C15.0148358,12.2171669 15.0207576,12.2245213 15.0260971,12.2322924 C15.0320971,12.239721 15.0372399,12.2471496 15.0429542,12.2551496 C15.0486685,12.2631496 15.0535257,12.2705781 15.0586685,12.2788638 L15.0732399,12.3031496 C15.2094087,12.5346385 15.2053596,12.8226868 15.0627379,13.0502568 C14.9201161,13.2778269 14.6626512,13.4070554 14.3949542,13.3854353 L9.83381137,16.5805781 L9.91952566,20.383721 L16.9612399,15.4528638 C18.6438432,14.2747363 19.0531375,11.955828 17.8755257,10.2728638 L17.8746685,10.271721 Z" id="Path_30" fill="#20E682"></path>
                            </g>
                        </g>
                        <path d="M29.8813434,34 L29.8813434,31.8398438 L31.8813434,31.8398438 L31.8813434,31.1210938 L29.8813434,31.1210938 L29.8813434,29.6796875 L32.3227496,29.6796875 L32.3227496,28.9609375 L29.1235309,28.9609375 L29.1235309,34 L29.8813434,34 Z M36.1787073,34.0390625 C36.4990198,34.0390625 36.8043583,33.9739583 37.0947229,33.84375 C37.3850875,33.7135417 37.6396448,33.5325521 37.8583948,33.3007812 C38.0771448,33.0690104 38.2516239,32.7981771 38.3818323,32.4882812 C38.5120406,32.1783854 38.5771448,31.8424479 38.5771448,31.4804688 C38.5771448,31.1236979 38.5120406,30.7890625 38.3818323,30.4765625 C38.2516239,30.1640625 38.0771448,29.8919271 37.8583948,29.6601562 C37.6396448,29.4283854 37.3850875,29.2473958 37.0947229,29.1171875 C36.8043583,28.9869792 36.4990198,28.921875 36.1787073,28.921875 C35.8583948,28.921875 35.5530562,28.9869792 35.2626916,29.1171875 C34.9723271,29.2473958 34.7177698,29.4283854 34.4990198,29.6601562 C34.2802698,29.8919271 34.1057906,30.1640625 33.9755823,30.4765625 C33.8453739,30.7890625 33.7802698,31.1236979 33.7802698,31.4804688 C33.7802698,31.8424479 33.8453739,32.1783854 33.9755823,32.4882812 C34.1057906,32.7981771 34.2802698,33.0690104 34.4990198,33.3007812 C34.7177698,33.5325521 34.9723271,33.7135417 35.2626916,33.84375 C35.5530562,33.9739583 35.8583948,34.0390625 36.1787073,34.0390625 Z M36.1787073,33.359375 C35.9703739,33.359375 35.7679,33.3125 35.5712854,33.21875 C35.3746708,33.125 35.2001916,32.9941406 35.0478479,32.8261719 C34.8955041,32.6582031 34.7724573,32.4596354 34.6787073,32.2304688 C34.5849573,32.0013021 34.5380823,31.7513021 34.5380823,31.4804688 C34.5380823,31.2070312 34.5849573,30.9557292 34.6787073,30.7265625 C34.7724573,30.4973958 34.8955041,30.2988281 35.0478479,30.1308594 C35.2001916,29.9628906 35.3746708,29.8326823 35.5712854,29.7402344 C35.7679,29.6477865 35.9703739,29.6015625 36.1787073,29.6015625 C36.3870406,29.6015625 36.5901656,29.6477865 36.7880823,29.7402344 C36.9859989,29.8326823 37.1604781,29.9628906 37.3115198,30.1308594 C37.4625614,30.2988281 37.5849573,30.4980469 37.6787073,30.7285156 C37.7724573,30.9589844 37.8193323,31.2096354 37.8193323,31.4804688 C37.8193323,31.7513021 37.7724573,32.0013021 37.6787073,32.2304688 C37.5849573,32.4596354 37.4625614,32.6582031 37.3115198,32.8261719 C37.1604781,32.9941406 36.9859989,33.125 36.7880823,33.21875 C36.5901656,33.3125 36.3870406,33.359375 36.1787073,33.359375 Z M41.3159149,34 L41.3159149,32 L42.1948212,32 L43.3549774,34 L44.1948212,34 L42.9565399,31.921875 C43.1648732,31.8567708 43.3510712,31.7604167 43.5151337,31.6328125 C43.6557587,31.5260417 43.7846649,31.3808594 43.9018524,31.1972656 C44.0190399,31.0136719 44.0776337,30.7747396 44.0776337,30.4804688 C44.0776337,30.2721354 44.0372691,30.0748698 43.9565399,29.8886719 C43.8758107,29.702474 43.7677378,29.5410156 43.6323212,29.4042969 C43.4969045,29.2675781 43.3360972,29.1595052 43.1498993,29.0800781 C42.9637014,29.000651 42.7664357,28.9609375 42.5581024,28.9609375 L42.5581024,28.9609375 L40.5581024,28.9609375 L40.5581024,34 L41.3159149,34 Z M42.5581024,31.28125 L41.3159149,31.28125 L41.3159149,29.6796875 L42.5581024,29.6796875 C42.6596649,29.6796875 42.755368,29.7011719 42.8452118,29.7441406 C42.9350555,29.7871094 43.0144826,29.844401 43.083493,29.9160156 C43.1525035,29.9876302 43.208493,30.0716146 43.2514618,30.1679688 C43.2944305,30.2643229 43.3159149,30.3684896 43.3159149,30.4804688 C43.3159149,30.5924479 43.2944305,30.6966146 43.2514618,30.7929688 C43.208493,30.8893229 43.1525035,30.9733073 43.083493,31.0449219 C43.0144826,31.1165365 42.9350555,31.1738281 42.8452118,31.2167969 C42.755368,31.2597656 42.6596649,31.28125 42.5581024,31.28125 L42.5581024,31.28125 Z M51.0278302,34 C51.2569969,34 51.4685854,33.9602865 51.6625958,33.8808594 C51.8566062,33.8014323 52.0258771,33.6959635 52.1704083,33.5644531 C52.3149396,33.4329427 52.4269187,33.280599 52.5063458,33.1074219 C52.5857729,32.9342448 52.6254864,32.7513021 52.6254864,32.5585938 C52.6254864,32.3346354 52.5883771,32.1458333 52.5141583,31.9921875 C52.4399396,31.8385417 52.3572573,31.7109375 52.2661114,31.609375 C52.1593406,31.4921875 52.0395489,31.3958333 51.9067364,31.3203125 C52.0030906,31.2552083 52.0890281,31.1744792 52.1645489,31.078125 C52.2270489,31 52.2862937,30.9003906 52.3422833,30.7792969 C52.3982729,30.6582031 52.4262677,30.5182292 52.4262677,30.359375 C52.4262677,30.1666667 52.3891583,29.9863281 52.3149396,29.8183594 C52.2407208,29.6503906 52.1385073,29.5026042 52.0082989,29.375 C51.8780906,29.2473958 51.7250958,29.1464844 51.5493146,29.0722656 C51.3735333,28.9980469 51.1866844,28.9609375 50.9887677,28.9609375 L50.9887677,28.9609375 L48.9887677,28.9609375 L48.9887677,34 L51.0278302,34 Z M50.9887677,31.0390625 L49.7465802,31.0390625 L49.7465802,29.6796875 L50.9887677,29.6796875 C51.1892885,29.6796875 51.3592104,29.7473958 51.4985333,29.8828125 C51.6378562,30.0182292 51.7075177,30.1770833 51.7075177,30.359375 C51.7075177,30.5416667 51.6385073,30.7005208 51.5004864,30.8359375 C51.3624656,30.9713542 51.1918927,31.0390625 50.9887677,31.0390625 L50.9887677,31.0390625 Z M51.0278302,33.28125 L49.7465802,33.28125 L49.7465802,31.6796875 L51.0278302,31.6796875 C51.1450177,31.6796875 51.2556948,31.7011719 51.3598614,31.7441406 C51.4640281,31.7871094 51.5532208,31.844401 51.6274396,31.9160156 C51.7016583,31.9876302 51.7602521,32.0716146 51.8032208,32.1679688 C51.8461896,32.2643229 51.8676739,32.3684896 51.8676739,32.4804688 C51.8676739,32.5924479 51.8461896,32.6966146 51.8032208,32.7929688 C51.7602521,32.8893229 51.7016583,32.9733073 51.6274396,33.0449219 C51.5532208,33.1165365 51.4640281,33.1738281 51.3598614,33.2167969 C51.2556948,33.2597656 51.1450177,33.28125 51.0278302,33.28125 L51.0278302,33.28125 Z M56.4033191,34.0390625 C56.6767566,34.0390625 56.9280587,33.9928385 57.1572253,33.9003906 C57.386392,33.8079427 57.5849597,33.6777344 57.7529285,33.5097656 C57.9208972,33.3417969 58.0517566,33.1425781 58.1455066,32.9121094 C58.2392566,32.6816406 58.2861316,32.4309896 58.2861316,32.1601562 L58.2861316,32.1601562 L58.2861316,28.9609375 L57.5244128,28.9609375 L57.5244128,32.1601562 C57.5244128,32.3424479 57.496418,32.5065104 57.4404285,32.6523438 C57.3844389,32.7981771 57.3056628,32.9231771 57.2041003,33.0273438 C57.1025378,33.1315104 56.9833972,33.2128906 56.8466785,33.2714844 C56.7099597,33.3300781 56.5621733,33.359375 56.4033191,33.359375 C56.2444649,33.359375 56.0973295,33.3300781 55.9619128,33.2714844 C55.8264962,33.2128906 55.7080066,33.1315104 55.6064441,33.0273438 C55.5048816,32.9231771 55.4261055,32.7981771 55.370116,32.6523438 C55.3141264,32.5065104 55.2861316,32.3424479 55.2861316,32.1601562 L55.2861316,32.1601562 L55.2861316,28.9609375 L54.5244128,28.9609375 L54.5244128,32.1601562 C54.5244128,32.4309896 54.5712878,32.6816406 54.6650378,32.9121094 C54.7587878,33.1425781 54.8896472,33.3417969 55.057616,33.5097656 C55.2255847,33.6777344 55.4241524,33.8079427 55.6533191,33.9003906 C55.8824858,33.9928385 56.1324858,34.0390625 56.4033191,34.0390625 Z M61.8999017,34.0390625 C62.1707351,34.0390625 62.4142246,34.000651 62.6303705,33.9238281 C62.8465163,33.8470052 63.0307611,33.7428385 63.1831049,33.6113281 C63.3354486,33.4798177 63.4532871,33.3307292 63.5366205,33.1640625 C63.6199538,32.9973958 63.6616205,32.8229167 63.6616205,32.640625 C63.6616205,32.3359375 63.5945632,32.0904948 63.4604486,31.9042969 C63.326334,31.718099 63.1609694,31.5677083 62.9643549,31.453125 C62.7677403,31.3385417 62.5528965,31.2473958 62.3198236,31.1796875 C62.0867507,31.1119792 61.8719069,31.0436198 61.6752924,30.9746094 C61.4786778,30.905599 61.3133132,30.8235677 61.1791986,30.7285156 C61.045084,30.6334635 60.9780267,30.4973958 60.9780267,30.3203125 C60.9780267,30.2291667 60.9995111,30.141276 61.0424799,30.0566406 C61.0854486,29.9720052 61.1472976,29.8945312 61.2280267,29.8242188 C61.3087559,29.7539062 61.4064121,29.6992188 61.5209955,29.6601562 C61.6355788,29.6210938 61.7618809,29.6015625 61.8999017,29.6015625 C62.1603184,29.6015625 62.3719069,29.6829427 62.5346674,29.8457031 C62.6974278,30.0084635 62.778808,30.2200521 62.778808,30.4804688 L62.778808,30.4804688 L63.5405267,30.4804688 C63.5405267,30.2617188 63.5001621,30.0579427 63.419433,29.8691406 C63.3387038,29.6803385 63.2254226,29.514974 63.0795892,29.3730469 C62.9337559,29.2311198 62.7605788,29.1204427 62.560058,29.0410156 C62.3595371,28.9615885 62.1394851,28.921875 61.8999017,28.921875 C61.6499017,28.921875 61.4220371,28.9602865 61.216308,29.0371094 C61.0105788,29.1139323 60.8328444,29.2174479 60.6831049,29.3476562 C60.5333653,29.4778646 60.4187819,29.6269531 60.3393549,29.7949219 C60.2599278,29.9628906 60.2202142,30.1380208 60.2202142,30.3203125 C60.2202142,30.6145833 60.2866205,30.8496094 60.419433,31.0253906 C60.5522455,31.2011719 60.7176101,31.34375 60.9155267,31.453125 C61.1134434,31.5625 61.3282871,31.6516927 61.560058,31.7207031 C61.7918288,31.7897135 62.0066726,31.860026 62.2045892,31.9316406 C62.4025059,32.0032552 62.5678705,32.0924479 62.700683,32.1992188 C62.8334955,32.3059896 62.8999017,32.453125 62.8999017,32.640625 C62.8999017,32.84375 62.8185215,33.0143229 62.6557611,33.1523438 C62.4930007,33.2903646 62.2410476,33.359375 61.8999017,33.359375 C61.5795892,33.359375 61.3393549,33.2838542 61.1791986,33.1328125 C61.0190424,32.9817708 60.9389642,32.7643229 60.9389642,32.4804688 L60.9389642,32.4804688 L60.1811517,32.4804688 C60.1811517,32.7096354 60.2195632,32.9199219 60.2963861,33.1113281 C60.373209,33.3027344 60.4864903,33.4667969 60.6362299,33.6035156 C60.7859694,33.7402344 60.966308,33.8470052 61.1772455,33.9238281 C61.388183,34.000651 61.6290684,34.0390625 61.8999017,34.0390625 Z M66.3574219,34 L66.3574219,28.9609375 L65.5996094,28.9609375 L65.5996094,34 L66.3574219,34 Z M69.4125983,34 L69.4125983,30.3984375 L71.8540045,34 L72.4946295,34 L72.4946295,28.9609375 L71.7329108,28.9609375 L71.7329108,32.5585938 L69.2915045,28.9609375 L68.6547858,28.9609375 L68.6547858,34 L69.4125983,34 Z M78.1904309,34 L78.1904309,33.28125 L75.5498059,33.28125 L75.5498059,31.7617188 L77.9091809,31.7617188 L77.9091809,31.0390625 L75.5498059,31.0390625 L75.5498059,29.6796875 L78.1123059,29.6796875 L78.1123059,28.9609375 L74.7919934,28.9609375 L74.7919934,34 L78.1904309,34 Z M81.6870136,34.0390625 C81.9578469,34.0390625 82.2013365,34.000651 82.4174823,33.9238281 C82.6336281,33.8470052 82.8178729,33.7428385 82.9702167,33.6113281 C83.1225604,33.4798177 83.240399,33.3307292 83.3237323,33.1640625 C83.4070656,32.9973958 83.4487323,32.8229167 83.4487323,32.640625 C83.4487323,32.3359375 83.381675,32.0904948 83.2475604,31.9042969 C83.1134458,31.718099 82.9480813,31.5677083 82.7514667,31.453125 C82.5548521,31.3385417 82.3400083,31.2473958 82.1069354,31.1796875 C81.8738625,31.1119792 81.6590188,31.0436198 81.4624042,30.9746094 C81.2657896,30.905599 81.100425,30.8235677 80.9663104,30.7285156 C80.8321958,30.6334635 80.7651386,30.4973958 80.7651386,30.3203125 C80.7651386,30.2291667 80.7866229,30.141276 80.8295917,30.0566406 C80.8725604,29.9720052 80.9344094,29.8945312 81.0151386,29.8242188 C81.0958677,29.7539062 81.193524,29.6992188 81.3081073,29.6601562 C81.4226906,29.6210938 81.5489927,29.6015625 81.6870136,29.6015625 C81.9474302,29.6015625 82.1590188,29.6829427 82.3217792,29.8457031 C82.4845396,30.0084635 82.5659198,30.2200521 82.5659198,30.4804688 L82.5659198,30.4804688 L83.3276386,30.4804688 C83.3276386,30.2617188 83.287274,30.0579427 83.2065448,29.8691406 C83.1258156,29.6803385 83.0125344,29.514974 82.8667011,29.3730469 C82.7208677,29.2311198 82.5476906,29.1204427 82.3471698,29.0410156 C82.146649,28.9615885 81.9265969,28.921875 81.6870136,28.921875 C81.4370136,28.921875 81.209149,28.9602865 81.0034198,29.0371094 C80.7976906,29.1139323 80.6199563,29.2174479 80.4702167,29.3476562 C80.3204771,29.4778646 80.2058938,29.6269531 80.1264667,29.7949219 C80.0470396,29.9628906 80.0073261,30.1380208 80.0073261,30.3203125 C80.0073261,30.6145833 80.0737323,30.8496094 80.2065448,31.0253906 C80.3393573,31.2011719 80.5047219,31.34375 80.7026386,31.453125 C80.9005552,31.5625 81.115399,31.6516927 81.3471698,31.7207031 C81.5789406,31.7897135 81.7937844,31.860026 81.9917011,31.9316406 C82.1896177,32.0032552 82.3549823,32.0924479 82.4877948,32.1992188 C82.6206073,32.3059896 82.6870136,32.453125 82.6870136,32.640625 C82.6870136,32.84375 82.6056333,33.0143229 82.4428729,33.1523438 C82.2801125,33.2903646 82.0281594,33.359375 81.6870136,33.359375 C81.3667011,33.359375 81.1264667,33.2838542 80.9663104,33.1328125 C80.8061542,32.9817708 80.7260761,32.7643229 80.7260761,32.4804688 L80.7260761,32.4804688 L79.9682636,32.4804688 C79.9682636,32.7096354 80.006675,32.9199219 80.0834979,33.1113281 C80.1603208,33.3027344 80.2736021,33.4667969 80.4233417,33.6035156 C80.5730813,33.7402344 80.7534198,33.8470052 80.9643573,33.9238281 C81.1752948,34.000651 81.4161802,34.0390625 81.6870136,34.0390625 Z M86.7851587,34.0390625 C87.055992,34.0390625 87.2994816,34.000651 87.5156274,33.9238281 C87.7317733,33.8470052 87.9160181,33.7428385 88.0683618,33.6113281 C88.2207056,33.4798177 88.3385441,33.3307292 88.4218774,33.1640625 C88.5052108,32.9973958 88.5468774,32.8229167 88.5468774,32.640625 C88.5468774,32.3359375 88.4798202,32.0904948 88.3457056,31.9042969 C88.211591,31.718099 88.0462264,31.5677083 87.8496118,31.453125 C87.6529972,31.3385417 87.4381535,31.2473958 87.2050806,31.1796875 C86.9720077,31.1119792 86.7571639,31.0436198 86.5605493,30.9746094 C86.3639347,30.905599 86.1985702,30.8235677 86.0644556,30.7285156 C85.930341,30.6334635 85.8632837,30.4973958 85.8632837,30.3203125 C85.8632837,30.2291667 85.8847681,30.141276 85.9277368,30.0566406 C85.9707056,29.9720052 86.0325545,29.8945312 86.1132837,29.8242188 C86.1940129,29.7539062 86.2916691,29.6992188 86.4062524,29.6601562 C86.5208358,29.6210938 86.6471379,29.6015625 86.7851587,29.6015625 C87.0455754,29.6015625 87.2571639,29.6829427 87.4199243,29.8457031 C87.5826847,30.0084635 87.6640649,30.2200521 87.6640649,30.4804688 L87.6640649,30.4804688 L88.4257837,30.4804688 C88.4257837,30.2617188 88.3854191,30.0579427 88.3046899,29.8691406 C88.2239608,29.6803385 88.1106795,29.514974 87.9648462,29.3730469 C87.8190129,29.2311198 87.6458358,29.1204427 87.4453149,29.0410156 C87.2447941,28.9615885 87.024742,28.921875 86.7851587,28.921875 C86.5351587,28.921875 86.3072941,28.9602865 86.1015649,29.0371094 C85.8958358,29.1139323 85.7181014,29.2174479 85.5683618,29.3476562 C85.4186222,29.4778646 85.3040389,29.6269531 85.2246118,29.7949219 C85.1451847,29.9628906 85.1054712,30.1380208 85.1054712,30.3203125 C85.1054712,30.6145833 85.1718774,30.8496094 85.3046899,31.0253906 C85.4375024,31.2011719 85.602867,31.34375 85.8007837,31.453125 C85.9987004,31.5625 86.2135441,31.6516927 86.4453149,31.7207031 C86.6770858,31.7897135 86.8919295,31.860026 87.0898462,31.9316406 C87.2877629,32.0032552 87.4531274,32.0924479 87.5859399,32.1992188 C87.7187524,32.3059896 87.7851587,32.453125 87.7851587,32.640625 C87.7851587,32.84375 87.7037785,33.0143229 87.5410181,33.1523438 C87.3782577,33.2903646 87.1263045,33.359375 86.7851587,33.359375 C86.4648462,33.359375 86.2246118,33.2838542 86.0644556,33.1328125 C85.9042993,32.9817708 85.8242212,32.7643229 85.8242212,32.4804688 L85.8242212,32.4804688 L85.0664087,32.4804688 C85.0664087,32.7096354 85.1048202,32.9199219 85.1816431,33.1113281 C85.258466,33.3027344 85.3717472,33.4667969 85.5214868,33.6035156 C85.6712264,33.7402344 85.8515649,33.8470052 86.0625024,33.9238281 C86.2734399,34.000651 86.5143254,34.0390625 86.7851587,34.0390625 Z M93.8833038,34 L93.8833038,33.28125 L91.2426788,33.28125 L91.2426788,31.7617188 L93.6020538,31.7617188 L93.6020538,31.0390625 L91.2426788,31.0390625 L91.2426788,29.6796875 L93.8051788,29.6796875 L93.8051788,28.9609375 L90.4848663,28.9609375 L90.4848663,34 L93.8833038,34 Z M97.3798865,34.0390625 C97.6507198,34.0390625 97.8942094,34.000651 98.1103552,33.9238281 C98.3265011,33.8470052 98.5107459,33.7428385 98.6630896,33.6113281 C98.8154334,33.4798177 98.9332719,33.3307292 99.0166052,33.1640625 C99.0999386,32.9973958 99.1416052,32.8229167 99.1416052,32.640625 C99.1416052,32.3359375 99.0745479,32.0904948 98.9404334,31.9042969 C98.8063188,31.718099 98.6409542,31.5677083 98.4443396,31.453125 C98.247725,31.3385417 98.0328813,31.2473958 97.7998084,31.1796875 C97.5667354,31.1119792 97.3518917,31.0436198 97.1552771,30.9746094 C96.9586625,30.905599 96.7932979,30.8235677 96.6591834,30.7285156 C96.5250688,30.6334635 96.4580115,30.4973958 96.4580115,30.3203125 C96.4580115,30.2291667 96.4794959,30.141276 96.5224646,30.0566406 C96.5654334,29.9720052 96.6272823,29.8945312 96.7080115,29.8242188 C96.7887406,29.7539062 96.8863969,29.6992188 97.0009802,29.6601562 C97.1155636,29.6210938 97.2418656,29.6015625 97.3798865,29.6015625 C97.6403031,29.6015625 97.8518917,29.6829427 98.0146521,29.8457031 C98.1774125,30.0084635 98.2587927,30.2200521 98.2587927,30.4804688 L98.2587927,30.4804688 L99.0205115,30.4804688 C99.0205115,30.2617188 98.9801469,30.0579427 98.8994177,29.8691406 C98.8186886,29.6803385 98.7054073,29.514974 98.559574,29.3730469 C98.4137406,29.2311198 98.2405636,29.1204427 98.0400427,29.0410156 C97.8395219,28.9615885 97.6194698,28.921875 97.3798865,28.921875 C97.1298865,28.921875 96.9020219,28.9602865 96.6962927,29.0371094 C96.4905636,29.1139323 96.3128292,29.2174479 96.1630896,29.3476562 C96.01335,29.4778646 95.8987667,29.6269531 95.8193396,29.7949219 C95.7399125,29.9628906 95.700199,30.1380208 95.700199,30.3203125 C95.700199,30.6145833 95.7666052,30.8496094 95.8994177,31.0253906 C96.0322302,31.2011719 96.1975948,31.34375 96.3955115,31.453125 C96.5934281,31.5625 96.8082719,31.6516927 97.0400427,31.7207031 C97.2718136,31.7897135 97.4866573,31.860026 97.684574,31.9316406 C97.8824906,32.0032552 98.0478552,32.0924479 98.1806677,32.1992188 C98.3134802,32.3059896 98.3798865,32.453125 98.3798865,32.640625 C98.3798865,32.84375 98.2985063,33.0143229 98.1357459,33.1523438 C97.9729854,33.2903646 97.7210323,33.359375 97.3798865,33.359375 C97.059574,33.359375 96.8193396,33.2838542 96.6591834,33.1328125 C96.4990271,32.9817708 96.418949,32.7643229 96.418949,32.4804688 L96.418949,32.4804688 L95.6611365,32.4804688 C95.6611365,32.7096354 95.6995479,32.9199219 95.7763709,33.1113281 C95.8531938,33.3027344 95.966475,33.4667969 96.1162146,33.6035156 C96.2659542,33.7402344 96.4462927,33.8470052 96.6572302,33.9238281 C96.8681677,34.000651 97.1090531,34.0390625 97.3798865,34.0390625 Z" id="FORBUSINESSES" fill="#FFFFFF"></path>
                    </g>
                </g>
            </g>
        </g>
    </g>
</svg>