<svg width="26" height="22" viewBox="0 0 26 22" fill="none" xmlns="http://www.w3.org/2000/svg">
<g filter="url(#filter0_d_895_1628165)">
<rect x="3" y="1.5" width="20" height="15" rx="1.5" fill="black" fill-opacity="0.01"/>
</g>
<mask id="mask0_895_1628165" style="mask-type:alpha" maskUnits="userSpaceOnUse" x="3" y="1" width="20" height="16">
<rect x="3" y="1.5" width="20" height="15" rx="1.5" fill="white"/>
</mask>
<g mask="url(#mask0_895_1628165)">
<mask id="mask1_895_1628165" style="mask-type:alpha" maskUnits="userSpaceOnUse" x="3" y="1" width="20" height="16">
<rect x="3" y="1.5" width="20" height="15" fill="white"/>
</mask>
<g mask="url(#mask1_895_1628165)">
<path fill-rule="evenodd" clip-rule="evenodd" d="M3 1.5H23V16.5H3V1.5Z" fill="#F7FCFF"/>
<path fill-rule="evenodd" clip-rule="evenodd" d="M17 1.5H23V16.5H17V1.5Z" fill="#009933"/>
<path fill-rule="evenodd" clip-rule="evenodd" d="M3 1.5H9V16.5H3V1.5Z" fill="#009933"/>
</g>
<rect x="3" y="1.5" width="20" height="15" rx="1.5" fill="url(#paint0_linear_895_1628165)" style="mix-blend-mode:overlay"/>
<rect x="3.5" y="2" width="19" height="14" rx="1" stroke="black" stroke-opacity="0.1" style="mix-blend-mode:multiply"/>
</g>
<defs>
<filter id="filter0_d_895_1628165" x="0" y="0.5" width="26" height="21" filterUnits="userSpaceOnUse" color-interpolation-filters="sRGB">
<feFlood flood-opacity="0" result="BackgroundImageFix"/>
<feColorMatrix in="SourceAlpha" type="matrix" values="0 0 0 0 0 0 0 0 0 0 0 0 0 0 0 0 0 0 127 0" result="hardAlpha"/>
<feOffset dy="2"/>
<feGaussianBlur stdDeviation="1.5"/>
<feColorMatrix type="matrix" values="0 0 0 0 0 0 0 0 0 0 0 0 0 0 0 0 0 0 0.1 0"/>
<feBlend mode="normal" in2="BackgroundImageFix" result="effect1_dropShadow_895_1628165"/>
<feBlend mode="normal" in="SourceGraphic" in2="effect1_dropShadow_895_1628165" result="shape"/>
</filter>
<linearGradient id="paint0_linear_895_1628165" x1="23" y1="16.5" x2="23" y2="1.5" gradientUnits="userSpaceOnUse">
<stop offset="0.0242052" stop-opacity="0.3"/>
<stop offset="1" stop-color="white" stop-opacity="0.7"/>
</linearGradient>
</defs>
</svg>
