<svg xmlns="http://www.w3.org/2000/svg" width="230" height="169" viewBox="0 0 230 169">
    <g fill="none" fill-rule="evenodd" transform="translate(-42 -73)">
        <circle cx="150" cy="150" r="150" fill="#FFF" fill-opacity="0"/>
        <g>
            <path fill="#DAFADD" fill-rule="nonzero" d="M224.99 20.248c-1.829-5.823-1.541-12.284.763-17.931-.238.037-.463.087-.701.125 0 0-.4.087-.413.087-.113.025-.213.05-.326.076-3.055.763-5.973 1.978-8.903 3.117-10.68 4.183-22.276 6.637-33.758 6.624-5.134 0-10.43-.313-15.465-1.352-1.765-.363-3.506-.864-5.146-1.553l1.064 34.322c3.494-2.103 9.066-2.642 12.998-1.552 3.932 1.089 7.588 2.992 11.47 4.207 6.9 2.166 14.487 2.078 21.324-.25 4.182-1.416 8.077-3.632 12.271-5.01 2.142-.7 4.846-1.039 6.349.64 1.052-4.32 2.116-8.79 1.29-13.161-.564-2.892-1.929-5.572-2.818-8.39z" transform="translate(43 74)"/>
            <g>
                <path stroke="#00B60F" stroke-linecap="round" stroke-linejoin="round" d="M.063 7.275C15.89 12.46 33.22 9.178 49.085 4.132 54.595 2.38 60.129.401 65.902.075 62.683 6.211 62.02 13.65 64.098 20.26c.89 2.817 2.254 5.51 2.805 8.415.827 4.37-.225 8.84-1.29 13.16-1.515-1.678-4.207-1.34-6.348-.639-4.207 1.365-8.089 3.581-12.271 5.009-6.85 2.316-14.425 2.417-21.325.25-3.894-1.214-7.538-3.118-11.47-4.207-3.931-1.09-8.364-1.265-11.857.839" transform="translate(43 74) translate(160.903)"/>
                <path fill="#00B60F" fill-rule="nonzero" d="M43.075 17.768c-.1-.1-.263-.112-.376-.012L28.524 30.177l-7.8-6.173c-.113-.088-.276-.075-.376.025-.1.1-.113.263-.025.376l7.124 9.003 1.077 1.365 1.202-1.365L43.1 18.144c.087-.1.075-.276-.025-.376z" transform="translate(43 74) translate(160.903)"/>
            </g>
            <g fill="#F3F7F5" fill-rule="nonzero">
                <path d="M9.116 59.954c1.49 2.441-1.553 7.688 3.243 7.513 2.617-.1 6.461-6.449 8.352-7.927 6.85-5.321 14.888-5.509 20.11-13.398 5.71-8.615 3.305-18.995 6.185-28.449 1.24-4.082 3.243-7.976 6.236-11.044 1.44-1.478 6.674-3.807 3.82-5.935-4.37-3.243-14.35 7.513-16.342 10.28-4.795 6.724-6.31 16.529-13.874 20.936-7.688 4.483-16.39 3.77-22.4 11.433C2.002 46.493-.94 51.79.337 55.909c.501 1.59 1.415 2.78 2.905 3.531 1.528.777 5.109-.726 5.873.514z" transform="translate(43 74) translate(7.137 4.383)"/>
                <path d="M53.392 10.318c-2.279 3.105-4.144 8.903.551 10.906 4.596 1.954 10.068-3.368 12.322-6.736 2.241-3.331 4.608-9.33-.539-11.157-4.483-1.59-9.98 3.781-12.334 6.987zM71.649 5.121c1.027 2.968 7.688 13.874 9.09 5.572.389-2.341-1.364-5.246-2.98-6.736-1.327-1.202-7.775-3.644-6.11 1.164zM61.857 30.966c3.731 2.742 5.46-2.68 2.229-4.908-4.433-3.056-5.985 2.166-2.229 4.908zM80.051 25.043c-2.467 1.866-2.392 6.324 1.277 4.057 2.38-1.465 1.453-6.11-1.277-4.057zM72.225 40.032c2.166.5 5.797-2.116 2.116-3.256-1.978-.613-4.833 2.63-2.116 3.256zM85.636 113.046c2.917-3.143-.464-5.723-3.607-5.785-3.067-.063-7.187 1.515-10.505 1.94-6.336.814-19.484.864-22.59 7.714-4.207 9.303 7.777 8.064 12.66 5.998 7.012-2.98 18.758-4.17 24.042-9.867zM32.13 115.9c-4.845-1.79-9.34-3.881-13.698-6.61-2.417-1.516-8.978-8.453-10.856-7.05-3.106 2.316 10.505 10.693 12.371 11.695 2.742 1.465 6.26 3.543 9.366 4.207 1.09.238 2.667 1.565 3.519.138.513-.864.526-1.929-.701-2.38zM38.93 59.991c-7.964 3.394-15.239 6.086-19.058 14.35-1.728 3.719-9.98 17.33-1.49 15.064 6.21-1.653 12.384-7.864 16.065-12.86 1.04-1.415 9.742-18.795 4.483-16.554zM102.84 77.86c8.114 3.38 8.578-.464 4.946-6.887-3.092-5.472-7.663-9.016-13.51-11.345-6.762-2.705-5.848 1.603-3.281 6.674 2.554 5.059 6.574 9.354 11.845 11.558zM137.65 122.024c-9.416 3.681-11.47 15.927-23.24 8.038-8.44-5.66-11.044-15.276-11.582-24.905-.288-5.109 1.966-26.283-4.959-28.8-4.67-1.69-1.052 3.343-.526 4.733.614 1.64.614 3.97.877 5.673 1.002 6.473-.025 9.766-.664 16.365-.976 10.23-4.445 17.418 3.419 25.595 5.196 5.409 15.439 15.714 23.853 13.31 4.859-1.39 7.764-6.21 10.268-10.192.226-.364 6.875-11.508 2.555-9.817zM15.79 134.595c-1.14 1.428-8.966 12.935-2.742 9.755.6-.3 4.858-6.875 4.933-7.563.075-.814-.35-4.52-2.191-2.192zM42.348 135.86c-1.64-3.155-2.266 1.603-2.14 2.63.162 1.277 3.104 9.403 3.918 10.017 5.886 4.52-.738-10.644-1.778-12.647zM45.14 133.882c-2.404-2.505-1.84 2.016-1.414 3.017.513 1.19 5.396 7.576 6.398 7.99 6.875 2.804-3.43-9.392-4.983-11.007zM144.775 71.812c-4.42 1.214-5.597 16.616-.55 16.165 5.522-.488 3.23-16.904.55-16.165zM163.783 78.11c-.889-.889-1.966-.2-2.654.426.626-.664 3.218-2.717 3.08-3.907-.125-1.102-1.427-2.078-2.454-1.227.864-1.064.776-2.742-.864-2.918-1.89-.2-5.898 6.324-6.824 7.45-1.566 1.917-3.732 3.407-1.916 5.41.488.539 3.756.714 4.407.013-.025 4.107 9.68-2.805 7.225-5.247zM152.163 69.545c.1 2.855 2.43.89 3.093 0 .927-1.252-.275-7.237-.325-8.652l-.752-20.185-.638-17.292c-.15-3.87-.288-7.751-.439-11.62-.075-1.904.714-7.589-.325-8.79-3.957-4.584-2.918 4.607-2.818 7.212.238 6.248.464 12.496.702 18.732l1.502 40.595z" transform="translate(43 74) translate(7.137 4.383)"/>
                <path d="M154.104 84.033c-3.18 0-1.052 23.503.827 23.127 3.017-.6 1.527-23.127-.827-23.127zM61.87 62.12c-2.355-.438-.69 1.916-.339 2.367.025.037 6.374 4.07 6.524 4.12 3.118 1.013 1.628-1.503.614-2.943-1.378-1.929-4.583-3.13-6.8-3.544zM91.721 151.111c1.64-2.203-.826-9.892-.977-13.235-3.706-2.229-5.484 8.966-6.01 11.558-.739 3.618-2.053 15.05 5.535 13.01 6.398-1.728-3.519-4.621 1.452-11.333z" transform="translate(43 74) translate(7.137 4.383)"/>
            </g>
            <g stroke-linecap="round" stroke-linejoin="round">
                <path stroke="#131615" d="M75.293 24.08c.012.462.012.938.025 1.402.213-.464.225-1.002.062-1.478M84.784 23.165c-.025.438-.062.89-.087 1.327.15-.388.212-.801.175-1.214M72.425 21.512c1.403-.726 3.068-.926 4.596-.526" transform="translate(43 74) translate(0 4.257)"/>
                <path stroke="#131615" d="M87.076 19.308c-.94.025-1.891.05-2.793.288-.901.25-1.778.74-2.291 1.528-.664 1.014-.651 2.342-.3 3.506.35 1.152 1.014 2.191 1.565 3.268.1.2.212.426.175.651-.025.188-.15.351-.263.489-.413.513-.89.964-1.415 1.365M77.284 32.444c.688.663 1.628 1.039 2.592 1.114.964.075 1.915-.138 2.792-.526M64.574 23.503c-.5-.375-1.127-.563-1.74-.588-1.528-.063-3.03.864-3.732 2.228-.701 1.365-.588 3.08.213 4.383.801 1.302 2.241 2.179 3.757 2.367M61.62 26.17c.876.401 1.627 1.102 2.078 1.954M62.333 32.682c.676 6.749.839 13.535.5 20.31" transform="translate(43 74) translate(0 4.257)"/>
                <path stroke="#131615" d="M89.63 19.434c.376 6.085-.55 12.246-2.692 17.943-1.002 2.667-2.504 5.46-5.184 6.436-2.016.74-4.27.25-6.273-.526-2.743-1.064-5.297-2.717-7.088-5.046M85.06 41.109c0 3.63.137 7.95.363 11.895M78.21 9.83c-1.79 5.91-6.574 10.83-12.434 12.784M76.019 9.416c-2.041 4.646-6.16 8.014-10.318 10.932" transform="translate(43 74) translate(0 4.257)"/>
                <path stroke="#131615" d="M59.64 34.16c-1.314-1.065-2.416-2.38-3.217-3.87-1.353-2.492-1.866-5.36-1.904-8.19-.075-5.596 1.728-11.319 5.472-15.476C63.735 2.467 69.533.038 75.067.877c.551.087 1.102.2 1.666.212.626.013 1.24-.112 1.865-.137 1.929-.088 3.795.738 5.372 1.84 4.62 3.243 7.175 9.216 6.311 14.813M77.66 2.63c.989 6.198 5.108 11.807 10.705 14.625M81.579 6.073c1.44 3.218 3.844 6.01 6.799 7.939" transform="translate(43 74) translate(0 4.257)"/>
                <path stroke="#131615" d="M60.48 10.28c-.74.451-1.177 1.252-1.553 2.029-.714 1.527-1.29 3.105-1.716 4.733M60.38 35.937c-.752 2.767-1.941 5.422-3.482 7.826M60.88 38.492c-.513 2.103-.914 4.232-1.202 6.373M77.522 52.503c.1 1.015.037 2.041-.176 3.043" transform="translate(43 74) translate(0 4.257)"/>
                <path fill="#131615" fill-rule="nonzero" stroke="#131615" d="M68.393 38.241c1.428 2.88 3.218 5.823 6.023 7.513 2.805 1.69 6.424 2.292 9.504 1.115.226-.088.463-.188.614-.376.175-.238.188-.539.2-.839.013-1.052.038-2.104.05-3.168-1.703 2.041-4.87 2.304-7.525 1.74-2.968-.613-5.698-2.591-7.876-4.62" transform="translate(43 74) translate(0 4.257)"/>
                <path stroke="#131615" d="M61.03 54.707c-7.738 2.68-15.389 5.56-22.977 8.653-3.105 1.264-6.298 2.63-8.514 5.133-1.991 2.242-3.006 5.16-3.945 8.002-8.001 24.117-14.3 48.797-18.832 73.803M28.913 155.795L44.94 98.333c.238-.877-1.014-1.303-1.365-.464-.225.551-.363 1.177-.425 1.753-1.202 11.846 4.02 23.754 2.178 35.512-1.402 8.94-6.786 17.042-7.212 26.082M104.155 77.409c4.72 10.643 2.304 22.99-.826 34.21-3.13 11.218-6.937 22.826-4.733 34.27.4 2.08.989 4.283.212 6.25-.35.888-.951 1.665-1.24 2.566-.513 1.59.139 3.494 1.516 4.445" transform="translate(43 74) translate(0 4.257)"/>
                <path stroke="#131615" d="M86.85 54.77c3.757 1.415 7.526 2.83 11.282 4.245 3.92 1.477 7.926 2.992 11.17 5.66 4.52 3.706 7.1 9.215 9.34 14.6 4.458 10.73 8.177 21.775 11.095 33.032.626 2.404.876 5.61-1.34 6.724-1.966-2.817-.012-6.624 1.991-9.404 5.397-7.513 11.345-14.625 17.768-21.274" transform="translate(43 74) translate(0 4.257)"/>
                <path stroke="#131615" d="M102.653 120.621c4.382 5.71 9.266 11.032 14.575 15.89 4.232 3.87 9.717 7.688 15.251 6.16 4.796-1.326 7.613-6.135 9.93-10.542 5.071-9.63 12.91-24.192 17.981-33.821M105.082 114.26c7.475-6.298 15.289-12.196 23.403-17.643M105.407 118.818c7.701-6.85 16.329-12.66 25.582-17.205M152.276 94.927c-.927 1.828-1.866 3.656-2.792 5.484M60.955 115.049c5.347 1.79 11.07-.576 16.479-2.154 4.408-1.29 8.978-2.078 13.56-2.341M84.471 113.334c-5.096 1.64-9.98 3.944-14.487 6.824M107.749 83.42c-.038-1.353.426-2.705 1.265-3.757M13.223 105.182c6.711 5.334 14.375 9.454 22.526 12.133M12.321 99.635c7.563 5.635 15.615 10.618 24.042 14.876M48.897 137.35c2.154 3.03 3.844 6.399 4.971 9.942M50.663 135.56c2.254 2.704 4.708 5.246 7.337 7.6M19.797 142.434c1.152-1.678 2.304-3.368 3.456-5.046M62.696 54.882c5.422 3.406 10.894 6.725 16.403 9.968 2.23-3.281 4.458-6.562 6.687-9.855M70.009 62.871c2.291 1.303 4.482 2.78 6.548 4.395M150.26 88.754c-2.554-3.895-2.091-9.116-.3-13.424 1.227-2.942 3.017-5.672 3.793-8.765.376-1.515.501-3.08.364-4.633-.076-.789-.2-1.615.05-2.366.25-.752 1.052-1.403 1.803-1.165.538.163.864.701 1.114 1.202 1.828 3.694 2.204 8.077 1.052 12.033M160.79 71.461c1.466-1.715 2.993-3.48 5.06-4.37.726-.313 1.765-.4 2.128.3.188.364.113.814-.012 1.215-.514 1.74-1.578 3.243-2.68 4.683-.864 1.14-1.766 2.254-2.692 3.344-1.19 1.39-2.454 2.767-4.082 3.606-.326.163-.727.3-1.04.125-.225-.125-.338-.388-.388-.639-.213-.914.163-1.853.601-2.692.614-1.19 1.365-2.329 2.217-3.356" transform="translate(43 74) translate(0 4.257)"/>
                <path stroke="#131615" d="M158.336 80.652c-.6.614-.951 1.453-.976 2.317-.013.262.025.55.175.763.25.363.764.451 1.177.326.413-.125.764-.413 1.102-.689 3.343-2.83 6.737-5.735 9.003-9.479.476-.789.914-1.653.914-2.58 0-.926-.563-1.902-1.452-2.103" transform="translate(43 74) translate(0 4.257)"/>
                <path stroke="#131615" d="M160.728 83.131c.138.589.826.914 1.428.864.6-.062 1.139-.4 1.627-.751 2.743-1.903 5.222-4.245 6.987-7.062.401-.639.777-1.365.677-2.104-.1-.751-.914-1.415-1.603-1.102" transform="translate(43 74) translate(0 4.257)"/>
                <path stroke="#131615" d="M163.646 83.92c.037.476.538.827 1.039.864.5.05.99-.138 1.452-.338 1.666-.739 3.193-1.778 4.433-3.068.877-.901 1.653-1.978 1.778-3.193.038-.388.013-.789-.175-1.14-.188-.35-.551-.625-.964-.638M157.923 84.671c-.35.94-.776 1.854-1.264 2.743M165.524 90.306c1.828-2.241 3.38-4.708 4.62-7.312M119.607 37.527c7.576-7.237 16.579-12.972 26.345-16.766M121.585 42.599c4.458-5.31 9.805-9.88 15.728-13.474M159.801 83.369L160.728 107.073M156.671 2.492L159.426 73.702M163.808 83.77L164.71 107.073M160.653 2.492L163.232 68.844M156.671 2.492c1.102-1.102 2.88-1.102 3.982 0M160.728 107.073c1.114 1.077 2.868 1.077 3.982 0M29.213 74.504c.852-2.555 2.48-4.846 4.608-6.486" transform="translate(43 74) translate(0 4.257)"/>
                <g stroke="#131615">
                    <path d="M62.245 1.14C57.85-.89 52.441.287 48.546 3.167c-3.894 2.88-6.46 7.225-8.276 11.72-1.803 4.445-3.08 9.316-6.474 12.697-3.155 3.143-7.663 4.483-12.058 5.26-4.395.776-8.903 1.139-13.035 2.804C4.57 37.315.763 40.645.025 45.04M10.506 41.071c-6.299 5.096-9.454 13.786-7.901 21.75.626-1.04 1.24-2.066 1.865-3.105-1.027 3.48.125 7.488 2.818 9.904 1.465-2.917 3.831-5.371 6.699-6.937-1.678 2.73-2.254 6.098-1.603 9.229M14.488 72.325c1.327-2.867 3.218-5.472 5.534-7.626M21.425 63.547c3.693-3.155 8.59-4.42 13.01-6.423 8.076-3.657 15.2-10.53 16.879-19.246" transform="translate(43 74) translate(0 4.257) translate(4.132)"/>
                    <path d="M54.607 3.907c-4.758 2.116-8.803 5.822-11.332 10.38-3.368 6.086-4.245 13.774-9.391 18.457-2.968 2.692-6.95 3.97-10.87 4.758-2.19.451-4.482.802-6.348 2.029M29.238 38.604c-5.372 1.728-10.017 5.61-12.684 10.594M48.935 31.792c-1.879 5.848-5.936 10.982-11.207 14.15M35.411 46.981l-.939.413M31.079 7.914c.012.075.012.15.025.225" transform="translate(43 74) translate(0 4.257) translate(4.132)"/>
                </g>
                <path stroke="#003188" d="M105.808 52.053c-.238-.088-.488.212-.376.425.163.013.351-.012.401-.162.05-.15-.288-.188-.213-.05M.488 111.167c-.238.1-.413.35-.438.614.113.163.413.113.476-.075s-.138-.401-.326-.35c-.112-.063-.137.187-.012.2.125.012.213-.113.263-.226M103.717 137.901c-.213.175-.1.589.175.639.238-.063.038-.526-.163-.389M175.704 91.245c-.2-.137-.413.313-.188.389.113.112.363-.026.313-.188-.037-.163-.325-.163-.363-.013" transform="translate(43 74) translate(0 4.257)"/>
            </g>
        </g>
    </g>
</svg>
