<svg width="66" height="66" viewBox="0 0 66 66" fill="none" xmlns="http://www.w3.org/2000/svg">
<rect x="2" y="2" width="62" height="62" rx="28" fill="#F9FBFA"/>
<path fill-rule="evenodd" clip-rule="evenodd" d="M42 27.75V42C42 42.7956 41.6839 43.5587 41.1213 44.1213C40.5587 44.6839 39.7956 45 39 45H37.5V43.5H39C39.3978 43.5 39.7794 43.342 40.0607 43.0607C40.342 42.7794 40.5 42.3978 40.5 42V27.75H37.5C36.9033 27.75 36.331 27.5129 35.909 27.091C35.4871 26.669 35.25 26.0967 35.25 25.5V22.5H27C26.6022 22.5 26.2206 22.658 25.9393 22.9393C25.658 23.2206 25.5 23.6022 25.5 24V37.5H24V24C24 23.2044 24.3161 22.4413 24.8787 21.8787C25.4413 21.3161 26.2044 21 27 21H35.25L42 27.75ZM23.4 38.775H21V44.7735H22.1865V42.7605H23.391C23.8215 42.7605 24.1875 42.675 24.489 42.501C24.7935 42.3255 25.026 42.0885 25.1835 41.79C25.347 41.4768 25.43 41.1278 25.425 40.7745C25.425 40.3995 25.3455 40.0605 25.188 39.759C25.0313 39.4593 24.7918 39.2109 24.498 39.0435C24.198 38.8635 23.8335 38.775 23.4 38.775ZM24.2175 40.7745C24.2229 40.9721 24.1791 41.168 24.09 41.3445C24.0101 41.4982 23.8857 41.6242 23.733 41.706C23.5584 41.7924 23.3652 41.8346 23.1705 41.829H22.182V39.72H23.172C23.499 39.72 23.7555 39.81 23.94 39.9915C24.1245 40.1745 24.2175 40.4355 24.2175 40.7745ZM26.043 38.775V44.7735H28.233C28.8345 44.7735 29.334 44.6535 29.73 44.418C30.1307 44.1782 30.4437 43.8159 30.6225 43.3845C30.8175 42.9345 30.9165 42.3915 30.9165 41.7585C30.9165 41.1285 30.819 40.5915 30.6225 40.146C30.4458 39.7196 30.1358 39.3618 29.739 39.126C29.343 38.892 28.8405 38.775 28.2315 38.775H26.043ZM27.2295 39.7425H28.074C28.446 39.7425 28.749 39.8175 28.9875 39.9705C29.2351 40.1324 29.4218 40.3719 29.5185 40.6515C29.637 40.953 29.6955 41.3295 29.6955 41.781C29.7002 42.0802 29.6659 42.3787 29.5935 42.669C29.5401 42.898 29.44 43.1135 29.2995 43.302C29.169 43.4702 28.9961 43.6007 28.7985 43.68C28.567 43.7666 28.3211 43.8084 28.074 43.803H27.2295V39.7425ZM32.844 42.387V44.7735H31.659V38.775H35.481V39.7545H32.844V41.43H35.253V42.387H32.844Z" fill="#09090F"/>
<rect x="2" y="2" width="62" height="62" rx="28" stroke="#F9FBFA" stroke-width="4"/>
</svg>
