<svg width="16" height="16" viewBox="0 0 16 16" fill="none" xmlns="http://www.w3.org/2000/svg">
<path fill-rule="evenodd" clip-rule="evenodd" d="M1.60156 2.8001C1.60156 2.48184 1.72799 2.17661 1.95304 1.95157C2.17808 1.72653 2.4833 1.6001 2.80156 1.6001H3.71996C3.99314 1.59998 4.25817 1.69308 4.47127 1.86399C4.68437 2.03491 4.83278 2.27341 4.89196 2.5401L5.46476 5.1185C5.53097 5.41699 5.48074 5.7295 5.32433 5.99222C5.16792 6.25493 4.91713 6.44803 4.62316 6.5321L3.87676 6.7457C3.54876 6.8393 3.36236 7.1897 3.49276 7.5057C3.95683 8.62763 4.6376 9.64703 5.49612 10.5055C6.35463 11.3641 7.37403 12.0448 8.49596 12.5089C8.81196 12.6393 9.16236 12.4529 9.25596 12.1249L9.46956 11.3785C9.55363 11.0845 9.74673 10.8337 10.0094 10.6773C10.2722 10.5209 10.5847 10.4707 10.8832 10.5369L13.4616 11.1097C13.7282 11.1689 13.9668 11.3173 14.1377 11.5304C14.3086 11.7435 14.4017 12.0085 14.4016 12.2817V13.2001C14.4016 13.5184 14.2751 13.8236 14.0501 14.0486C13.825 14.2737 13.5198 14.4001 13.2016 14.4001H12.0016C11.0824 14.4001 10.1912 14.2801 9.34076 14.0561C7.56561 13.5847 5.94663 12.6525 4.64791 11.3538C3.34919 10.055 2.41691 8.43605 1.94556 6.6609C1.71666 5.7925 1.60104 4.89815 1.60156 4.0001V2.8001Z" fill="#6E717C"/>
</svg>
