<svg width="21" height="20" viewBox="0 0 21 20" fill="none" xmlns="http://www.w3.org/2000/svg">
<path d="M10.0669 2.91569C10.1021 2.82971 10.1621 2.75617 10.2393 2.7044C10.3165 2.65264 10.4073 2.625 10.5002 2.625C10.5931 2.625 10.6839 2.65264 10.7611 2.7044C10.8383 2.75617 10.8983 2.82971 10.9335 2.91569L12.7044 7.17485C12.7375 7.25455 12.792 7.32356 12.8619 7.37428C12.9317 7.425 13.0142 7.45548 13.1002 7.46235L17.6985 7.83069C18.1144 7.86402 18.2827 8.38319 17.966 8.65402L14.4627 11.6557C14.3973 11.7117 14.3485 11.7846 14.3217 11.8665C14.295 11.9484 14.2913 12.036 14.311 12.1199L15.3819 16.6074C15.4034 16.6974 15.3978 16.7918 15.3657 16.8786C15.3336 16.9654 15.2765 17.0408 15.2016 17.0952C15.1267 17.1496 15.0373 17.1806 14.9448 17.1842C14.8523 17.1879 14.7608 17.164 14.6819 17.1157L10.7444 14.7115C10.6708 14.6667 10.5863 14.643 10.5002 14.643C10.4141 14.643 10.3296 14.6667 10.256 14.7115L6.31854 17.1165C6.23959 17.1648 6.14808 17.1887 6.05559 17.185C5.96309 17.1814 5.87375 17.1504 5.79885 17.096C5.72394 17.0416 5.66684 16.9663 5.63475 16.8794C5.60266 16.7926 5.59702 16.6982 5.61854 16.6082L6.68937 12.1199C6.70923 12.036 6.70558 11.9483 6.67882 11.8664C6.65207 11.7845 6.60324 11.7116 6.53771 11.6557L3.03437 8.65402C2.96422 8.5937 2.91347 8.51397 2.8885 8.42488C2.86353 8.33579 2.86546 8.24131 2.89405 8.15331C2.92264 8.06531 2.97661 7.98773 3.04918 7.93033C3.12174 7.87292 3.20966 7.83826 3.30187 7.83069L7.90021 7.46235C7.98625 7.45548 8.06873 7.425 8.13856 7.37428C8.2084 7.32356 8.26289 7.25455 8.29604 7.17485L10.0669 2.91652V2.91569Z" stroke="#B9BCC8" stroke-width="1.5" stroke-linecap="round" stroke-linejoin="round"/>
</svg>
