<svg width="163" height="30" viewBox="0 0 163 30" fill="none" xmlns="http://www.w3.org/2000/svg">
<g clip-path="url(#clip0_814_194736)">
<path d="M62.3072 8.24368C60.1132 8.24368 58.8427 8.76714 57.5613 9.97653V5.16064H52.5781V24.8393H57.5613V16.0632C57.5613 13.7816 58.8245 12.7527 60.6535 12.7527C62.2488 12.7527 63.5485 13.6877 63.5485 15.6769V24.8393H68.5317V14.9729C68.5353 10.6336 65.6622 8.24368 62.3072 8.24368Z" fill="white"/>
<path d="M86.6426 8.41602V24.8384H81.5463V23.2933C80.6299 24.5099 78.9287 25.2969 76.6872 25.2969C73.2555 25.2969 70.335 22.9323 70.335 18.499V8.41602H75.4313V17.777C75.4313 19.8131 76.7565 20.7662 78.3884 20.7662C80.2576 20.7662 81.5463 19.7157 81.5463 17.3835V8.41602H86.6426Z" fill="white"/>
<path d="M95.8789 18.963V13.1471H98.6279V8.41788H95.8789V5.64893H90.7862V7.4973C90.7862 8.00633 90.37 8.41788 89.8553 8.41788H88.0664V13.1471H90.7862V18.963C90.7862 23.5587 92.721 25.4973 99.3799 24.8439V20.3746C97.1384 20.5045 95.8789 20.3746 95.8789 18.963Z" fill="white"/>
<path d="M111.132 13.1471V8.41788H107.635V5.64893H102.538V7.4973C102.538 8.00633 102.122 8.41788 101.607 8.41788H99.8223V13.1471H102.538V18.963C102.538 23.5587 104.477 25.4973 111.132 24.8439V20.3746C108.891 20.5045 107.635 20.3746 107.635 18.963V13.1471H111.132Z" fill="white"/>
<path d="M113.067 5.65234V24.8437H118.16V5.65234H113.067Z" fill="white"/>
<path d="M128.903 20.6291C130.236 20.6291 131.375 20.1273 132.025 19.4341L135.927 21.6038C134.336 23.741 131.93 24.8421 128.841 24.8421C123.281 24.8421 119.835 21.2283 119.835 16.546C119.835 11.8637 123.347 8.25 128.483 8.25C133.229 8.25 136.741 11.8023 136.741 16.546C136.741 17.2067 136.676 17.8348 136.548 18.4305H125.001C125.621 20.0623 127.114 20.6291 128.903 20.6291ZM131.893 14.907C131.371 13.0839 129.911 12.4233 128.447 12.4233C126.592 12.4233 125.358 13.3042 124.902 14.907H131.893Z" fill="white"/>
<path d="M148.595 8.2861V13.12C146.499 12.7915 143.521 13.972 143.521 17.2103L143.517 24.8962H138.442L138.446 8.25H143.521V10.7013C144.196 8.50632 146.463 8.28249 148.595 8.2861Z" fill="white"/>
<path d="M38.6542 23.4395C38.0591 23.0352 37.5736 22.5912 37.1611 22.0388C36.3032 21.0424 35.9673 20.0821 35.8906 19.1977L40.6694 18.2013C40.7424 18.8655 41.0418 19.4576 41.5638 19.9341C42.1224 20.4504 42.7941 20.7103 43.652 20.7103C45.0685 20.7103 45.8169 19.898 45.8169 19.1219C45.8169 18.3457 45.2182 17.7933 44.0244 17.5334L41.6733 17.0172C38.1285 16.241 36.336 14.324 36.336 11.667C36.336 10.0063 37.0077 8.56589 38.3512 7.42149C39.7312 6.24098 41.4105 5.64893 43.4257 5.64893C46.3754 5.64893 48.4271 6.79333 49.5442 8.15795C50.3656 9.11824 50.738 10.0388 50.8512 10.9269L46.1491 11.9233C45.8862 10.5948 44.9553 9.7464 43.4622 9.7464C42.2319 9.7464 41.4105 10.4468 41.4105 11.2951C41.4105 11.9955 41.896 12.4395 42.8671 12.6237L45.4409 13.176C49.0988 13.8764 51.0775 15.9811 51.0775 18.75C51.0775 20.2987 50.4423 21.7753 49.285 22.9197C48.0913 24.0641 46.1126 24.8403 43.725 24.8403C41.6368 24.8439 39.7713 24.2518 38.6542 23.4395Z" fill="white"/>
<path d="M151.79 23.8505C151.254 23.4858 150.816 23.0851 150.443 22.5869C149.669 21.688 149.366 20.8216 149.297 20.0237L153.605 19.1248C153.67 19.7241 153.941 20.2584 154.411 20.688C154.915 21.1537 155.521 21.3884 156.295 21.3884C157.573 21.3884 158.248 20.6555 158.248 19.9551C158.248 19.2548 157.708 18.7566 156.631 18.5255L154.51 18.0598C151.312 17.3595 149.695 15.6302 149.695 13.2331C149.695 11.7349 150.301 10.4353 151.513 9.40641C152.758 8.34142 154.273 7.80713 156.091 7.80713C158.749 7.80713 160.603 8.83962 161.611 10.0707C162.352 10.9371 162.688 11.7674 162.79 12.5689L158.548 13.4678C158.31 12.2692 157.471 11.5039 156.124 11.5039C155.014 11.5039 154.273 12.1356 154.273 12.901C154.273 13.5328 154.711 13.9335 155.587 14.0995L157.909 14.5977C161.209 15.2295 162.991 17.1284 162.991 19.623C162.991 21.0201 162.417 22.3523 161.373 23.3847C160.296 24.4172 158.511 25.114 156.357 25.114C154.485 25.114 152.802 24.5833 151.79 23.8505Z" fill="white"/>
<path d="M24.4713 26.8472C17.8563 31.9266 8.32796 30.7425 3.18778 24.201C-1.94875 17.6595 -0.75132 8.2371 5.86739 3.15407C12.4825 -1.92535 22.0108 -0.741238 27.151 5.80028C32.2875 12.3454 31.0864 21.7678 24.4713 26.8472Z" fill="white"/>
<path d="M22.8375 12.9789C21.6803 11.3472 19.6651 10.6613 17.8178 11.1089C17.3396 11.2244 16.8723 11.4158 16.4342 11.6865C16.3612 11.7298 16.2882 11.7768 16.2188 11.8273L12.758 14.2244C12.758 14.228 12.758 14.2317 12.7543 14.2353C12.7032 14.423 12.59 14.5963 12.4221 14.7226C12.4148 14.7299 12.4075 14.7335 12.3965 14.7407C12.0023 15.0151 11.462 14.9392 11.159 14.5746C11.1517 14.5638 11.1444 14.5566 11.1371 14.5457C11.1298 14.5349 11.1225 14.5277 11.1152 14.5169C11.1078 14.506 11.1005 14.4988 11.0932 14.488C11.0859 14.4771 11.0823 14.4663 11.075 14.4555C10.834 14.0512 10.9436 13.5241 11.3415 13.2497C11.524 13.1234 11.7394 13.0728 11.9439 13.0873L17.7704 9.05115L17.6609 4.24609L8.66188 10.4771C7.58858 11.2208 6.9205 12.3255 6.70876 13.5096C6.49702 14.6937 6.74161 15.9573 7.49731 17.0223C8.65458 18.654 10.6698 19.34 12.517 18.8923C12.9953 18.7768 13.4626 18.5854 13.9006 18.3147C13.9736 18.2714 14.0467 18.2244 14.116 18.1739L17.5769 15.7768C17.5769 15.7732 17.5805 15.7696 17.5805 15.766C17.6316 15.5782 17.7448 15.4049 17.9128 15.2822C17.9201 15.275 17.931 15.2678 17.9383 15.2641C18.3326 14.9898 18.8729 15.0656 19.1759 15.4302C19.1832 15.441 19.1905 15.4483 19.1978 15.4591C19.2051 15.4699 19.2124 15.4771 19.2197 15.488C19.227 15.4988 19.2343 15.506 19.2416 15.5169C19.2489 15.5277 19.2526 15.5385 19.2599 15.5493C19.5008 15.9537 19.3913 16.4808 18.997 16.7551C18.8145 16.8815 18.6027 16.9356 18.3946 16.9176L12.5645 20.9501L12.674 25.7551L21.673 19.5241C22.7463 18.7804 23.4144 17.6757 23.6261 16.4916C23.8378 15.3075 23.5932 14.0403 22.8375 12.9789Z" fill="#000005"/>
</g>
<defs>
<clipPath id="clip0_814_194736">
<rect width="163" height="30" fill="white"/>
</clipPath>
</defs>
</svg>
