<svg width="164" height="30" viewBox="0 0 164 30" fill="none" xmlns="http://www.w3.org/2000/svg">
<rect width="164" height="30" fill="#1E1E1E"/>
<g clip-path="url(#clip0_1_7)">
<rect width="1440" height="1024" transform="translate(-638 -233)" fill="white"/>
<g clip-path="url(#clip1_1_7)">
<path d="M62.8073 8.24368C60.6132 8.24368 59.3428 8.76714 58.0614 9.97653V5.16064H53.0782V24.8393H58.0614V16.0632C58.0614 13.7816 59.3245 12.7527 61.1535 12.7527C62.7489 12.7527 64.0485 13.6877 64.0485 15.6769V24.8393H69.0317V14.9729C69.0354 10.6336 66.1623 8.24368 62.8073 8.24368Z" fill="#000005"/>
<path d="M87.1418 8.41602V24.8384H82.0455V23.2933C81.1291 24.5099 79.4279 25.2969 77.1864 25.2969C73.7547 25.2969 70.8342 22.9323 70.8342 18.499V8.41602H75.9305V17.777C75.9305 19.8131 77.2557 20.7662 78.8876 20.7662C80.7568 20.7662 82.0455 19.7157 82.0455 17.3835V8.41602H87.1418Z" fill="#000005"/>
<path d="M96.378 18.963V13.1471H99.127V8.41788H96.378V5.64893H91.2853V7.4973C91.2853 8.00633 90.8691 8.41788 90.3543 8.41788H88.5655V13.1471H91.2853V18.963C91.2853 23.5587 93.2201 25.4973 99.879 24.8439V20.3746C97.6375 20.5045 96.378 20.3746 96.378 18.963Z" fill="#000005"/>
<path d="M111.632 13.1471V8.41788H108.135V5.64893H103.038V7.4973C103.038 8.00633 102.622 8.41788 102.107 8.41788H100.322V13.1471H103.038V18.963C103.038 23.5587 104.977 25.4973 111.632 24.8439V20.3746C109.391 20.5045 108.135 20.3746 108.135 18.963V13.1471H111.632Z" fill="#000005"/>
<path d="M113.567 5.65234V24.8437H118.659V5.65234H113.567Z" fill="#000005"/>
<path d="M129.403 20.6291C130.736 20.6291 131.875 20.1273 132.524 19.4341L136.427 21.6038C134.835 23.741 132.429 24.8421 129.341 24.8421C123.781 24.8421 120.335 21.2283 120.335 16.546C120.335 11.8637 123.847 8.25 128.983 8.25C133.729 8.25 137.241 11.8023 137.241 16.546C137.241 17.2067 137.175 17.8348 137.048 18.4305H125.5C126.121 20.0623 127.614 20.6291 129.403 20.6291ZM132.393 14.907C131.871 13.0839 130.411 12.4233 128.947 12.4233C127.092 12.4233 125.858 13.3042 125.402 14.907H132.393Z" fill="#000005"/>
<path d="M149.094 8.2861V13.12C146.999 12.7915 144.02 13.972 144.02 17.2103L144.016 24.8962H138.942L138.945 8.25H144.02V10.7013C144.695 8.50632 146.962 8.28249 149.094 8.2861Z" fill="#000005"/>
<path d="M39.1539 23.4395C38.5589 23.0352 38.0733 22.5912 37.6608 22.0388C36.8029 21.0424 36.467 20.0821 36.3903 19.1977L41.1691 18.2013C41.2421 18.8655 41.5415 19.4576 42.0635 19.9341C42.6221 20.4504 43.2938 20.7103 44.1517 20.7103C45.5682 20.7103 46.3166 19.898 46.3166 19.1219C46.3166 18.3457 45.7179 17.7933 44.5241 17.5334L42.173 17.0172C38.6282 16.241 36.8357 14.324 36.8357 11.667C36.8357 10.0063 37.5075 8.56589 38.8509 7.42149C40.2309 6.24098 41.9102 5.64893 43.9254 5.64893C46.8751 5.64893 48.9268 6.79333 50.044 8.15795C50.8654 9.11824 51.2377 10.0388 51.3509 10.9269L46.6488 11.9233C46.386 10.5948 45.455 9.7464 43.9619 9.7464C42.7316 9.7464 41.9102 10.4468 41.9102 11.2951C41.9102 11.9955 42.3957 12.4395 43.3668 12.6237L45.9406 13.176C49.5986 13.8764 51.5772 15.9811 51.5772 18.75C51.5772 20.2987 50.942 21.7753 49.7848 22.9197C48.591 24.0641 46.6123 24.8403 44.2247 24.8403C42.1365 24.8439 40.271 24.2518 39.1539 23.4395Z" fill="#000005"/>
<path d="M152.29 23.8505C151.753 23.4858 151.315 23.0851 150.943 22.5869C150.169 21.688 149.866 20.8216 149.796 20.0237L154.104 19.1248C154.17 19.7241 154.44 20.2584 154.911 20.688C155.415 21.1537 156.021 21.3884 156.795 21.3884C158.073 21.3884 158.748 20.6555 158.748 19.9551C158.748 19.2548 158.208 18.7566 157.131 18.5255L155.01 18.0598C151.812 17.3595 150.194 15.6302 150.194 13.2331C150.194 11.7349 150.8 10.4353 152.012 9.40641C153.257 8.34142 154.772 7.80713 156.59 7.80713C159.248 7.80713 161.103 8.83962 162.11 10.0707C162.851 10.9371 163.187 11.7674 163.289 12.5689L159.047 13.4678C158.81 12.2692 157.97 11.5039 156.623 11.5039C155.513 11.5039 154.772 12.1356 154.772 12.901C154.772 13.5328 155.21 13.9335 156.087 14.0995L158.408 14.5977C161.709 15.2295 163.49 17.1284 163.49 19.623C163.49 21.0201 162.917 22.3523 161.873 23.3847C160.796 24.4172 159.011 25.114 156.857 25.114C154.984 25.114 153.301 24.5833 152.29 23.8505Z" fill="#000005"/>
<path d="M24.9709 26.8472C18.3559 31.9266 8.82754 30.7425 3.68736 24.201C-1.44917 17.6595 -0.25174 8.2371 6.36697 3.15407C12.982 -1.92535 22.5104 -0.741238 27.6505 5.80028C32.7871 12.3454 31.586 21.7678 24.9709 26.8472Z" fill="#20E682"/>
<path d="M23.3377 12.9789C22.1804 11.3472 20.1652 10.6613 18.318 11.1089C17.8397 11.2244 17.3725 11.4158 16.9344 11.6865C16.8614 11.7299 16.7883 11.7768 16.719 11.8273L13.2581 14.2244C13.2581 14.228 13.2581 14.2317 13.2545 14.2353C13.2034 14.423 13.0902 14.5963 12.9223 14.7226C12.915 14.7299 12.9077 14.7335 12.8967 14.7407C12.5024 15.0151 11.9621 14.9392 11.6591 14.5746C11.6518 14.5638 11.6445 14.5566 11.6372 14.5457C11.6299 14.5349 11.6226 14.5277 11.6153 14.5169C11.608 14.506 11.6007 14.4988 11.5934 14.488C11.5861 14.4771 11.5824 14.4663 11.5751 14.4555C11.3342 14.0512 11.4437 13.5241 11.8416 13.2497C12.0242 13.1234 12.2396 13.0728 12.444 13.0873L18.2705 9.05115L18.161 4.24609L9.16203 10.4771C8.08873 11.2208 7.42065 12.3255 7.20891 13.5096C6.99717 14.6937 7.24177 15.9573 7.99746 17.0223C9.15473 18.654 11.1699 19.34 13.0172 18.8923C13.4954 18.7768 13.9627 18.5854 14.4008 18.3147C14.4738 18.2714 14.5468 18.2244 14.6162 18.1739L18.077 15.7768C18.077 15.7732 18.0807 15.7696 18.0807 15.766C18.1318 15.5782 18.245 15.4049 18.4129 15.2822C18.4202 15.275 18.4312 15.2678 18.4385 15.2641C18.8327 14.9898 19.373 15.0656 19.676 15.4302C19.6833 15.441 19.6906 15.4483 19.6979 15.4591C19.7053 15.4699 19.7126 15.4771 19.7199 15.488C19.7272 15.4988 19.7345 15.506 19.7418 15.5169C19.7491 15.5277 19.7527 15.5385 19.76 15.5493C20.001 15.9537 19.8914 16.4808 19.4972 16.7551C19.3146 16.8815 19.1029 16.9356 18.8948 16.9176L13.0646 20.9501L13.1742 25.7551L22.1731 19.5241C23.2464 18.7804 23.9145 17.6757 24.1262 16.4916C24.338 15.3075 24.0934 14.0403 23.3377 12.9789Z" fill="#000005"/>
</g>
</g>
<defs>
<clipPath id="clip0_1_7">
<rect width="1440" height="1024" fill="white" transform="translate(-638 -233)"/>
</clipPath>
<clipPath id="clip1_1_7">
<rect width="163" height="30" fill="white" transform="translate(0.5)"/>
</clipPath>
</defs>
</svg>
