<svg width="40" height="40" viewBox="0 0 40 40" fill="none" xmlns="http://www.w3.org/2000/svg">
<circle cx="20" cy="20" r="20" fill="#0DAC5C" fill-opacity="0.09"/>
<path d="M13.6667 19.3338V17.3337C13.8507 17.3337 14.0001 17.1844 14.0001 17.0003C14.0001 16.8163 13.8507 16.667 13.6667 16.667C12.7474 16.667 12 17.415 12 18.3337V19.0004C12 19.5518 12.4487 20.0004 13 20.0004H13.6667C13.8507 20.0004 14.0001 19.8511 14.0001 19.6671C14.0001 19.4831 13.8507 19.3338 13.6667 19.3338Z" fill="#0DAC5C"/>
<path d="M26.3338 16.667C26.1498 16.667 26.0005 16.8163 26.0005 17.0003C26.0005 17.1844 26.1498 17.3337 26.3338 17.3337V19.3338C26.1498 19.3338 26.0005 19.4831 26.0005 19.6671C26.0005 19.8511 26.1498 20.0004 26.3338 20.0004H27.0005C27.5519 20.0004 28.0006 19.5518 28.0006 19.0004V18.3337C28.0006 17.415 27.2532 16.667 26.3338 16.667Z" fill="#0DAC5C"/>
<path d="M17.6668 26C17.4828 26 17.3334 26.1493 17.3334 26.3334H15.3333C15.3333 26.1493 15.184 26 15 26C14.816 26 14.6666 26.1493 14.6666 26.3334V27C14.6666 27.5514 15.1153 28.0001 15.6667 28.0001H17.0001C17.5514 28.0001 18.0001 27.5514 18.0001 27V26.3334C18.0001 26.1493 17.8508 26 17.6668 26Z" fill="#0DAC5C"/>
<path d="M25.0006 26C24.8166 26 24.6673 26.1493 24.6673 26.3334H22.6672C22.6672 26.1493 22.5178 26 22.3338 26C22.1498 26 22.0005 26.1493 22.0005 26.3334V27C22.0005 27.5514 22.4492 28.0001 23.0005 28.0001H24.3339C24.8853 28.0001 25.334 27.5514 25.334 27V26.3334C25.334 26.1493 25.1846 26 25.0006 26Z" fill="#0DAC5C"/>
<path fill-rule="evenodd" clip-rule="evenodd" d="M25.0004 12H15.0001C14.0807 12 13.3334 12.748 13.3334 13.6667V25.0004C13.3334 25.9191 14.0807 26.6671 15.0001 26.6671H25.0004C25.9198 26.6671 26.6671 25.9191 26.6671 25.0004V13.6667C26.6671 12.748 25.9198 12 25.0004 12ZM16.3334 13.333H23.667C24.2184 13.333 24.667 13.7817 24.667 14.333C24.667 14.8844 24.2184 15.3331 23.667 15.3331H16.3334C15.782 15.3331 15.3334 14.8844 15.3334 14.333C15.3334 13.7817 15.782 13.333 16.3334 13.333ZM15.3334 23.667C15.3334 24.2184 15.782 24.667 16.3334 24.667C16.8847 24.667 17.3334 24.2184 17.3334 23.667C17.3334 23.1157 16.8847 22.667 16.3334 22.667C15.782 22.667 15.3334 23.1157 15.3334 23.667ZM23.6669 24.667C23.1155 24.667 22.6669 24.2184 22.6669 23.667C22.6669 23.1157 23.1155 22.667 23.6669 22.667C24.2182 22.667 24.6669 23.1157 24.6669 23.667C24.6669 24.2184 24.2182 24.667 23.6669 24.667ZM24.3339 21.3345C24.8853 21.3345 25.3339 20.8858 25.3339 20.3345H25.3339V17.001C25.3339 16.4496 24.8852 16.001 24.3339 16.001H15.6669C15.1155 16.001 14.6669 16.4496 14.6669 17.001V20.3345C14.6669 20.8858 15.1155 21.3345 15.6669 21.3345H24.3339Z" fill="#0DAC5C"/>
</svg>
