<svg width="24" height="24" viewBox="0 0 24 24" fill="none" xmlns="http://www.w3.org/2000/svg">
<g clip-path="url(#clip0_4593_116417)">
<path d="M19.3594 21.4766C14.1262 25.5401 6.5883 24.5928 2.52187 19.3596C-1.54167 14.1264 -0.594373 6.58851 4.64173 2.52208C9.87494 -1.54145 17.4128 -0.594162 21.4793 4.63905C25.5428 9.87515 24.5926 17.4131 19.3594 21.4766Z" fill="#20E682"/>
<path d="M18.0673 10.3847C17.1518 9.0793 15.5576 8.53057 14.0962 8.88869C13.7179 8.98111 13.3482 9.13418 13.0016 9.35078C12.9439 9.38544 12.8861 9.42299 12.8312 9.46342L10.0933 11.3811C10.0933 11.384 10.0933 11.3869 10.0904 11.3898C10.05 11.54 9.96047 11.6786 9.82762 11.7797C9.82184 11.7854 9.81607 11.7883 9.8074 11.7941C9.49549 12.0136 9.06805 11.9529 8.82834 11.6613C8.82256 11.6526 8.81679 11.6468 8.81101 11.6381C8.80524 11.6295 8.79946 11.6237 8.79368 11.615C8.78791 11.6064 8.78213 11.6006 8.77635 11.5919C8.77058 11.5833 8.76769 11.5746 8.76191 11.5659C8.5713 11.2425 8.65794 10.8208 8.97274 10.6013C9.11715 10.5002 9.28755 10.4598 9.44928 10.4714L14.0587 7.24248L13.972 3.39844L6.85289 8.38327C6.00379 8.97822 5.47527 9.86197 5.30776 10.8093C5.14025 11.7566 5.33376 12.7674 5.93159 13.6194C6.84711 14.9248 8.44134 15.4735 9.90271 15.1154C10.281 15.023 10.6507 14.8699 10.9973 14.6533C11.0551 14.6187 11.1128 14.5811 11.1677 14.5407L13.9056 12.623C13.9056 12.6201 13.9085 12.6172 13.9085 12.6143C13.9489 12.4641 14.0384 12.3255 14.1713 12.2273C14.1771 12.2215 14.1857 12.2158 14.1915 12.2129C14.5034 11.9934 14.9309 12.054 15.1706 12.3457C15.1764 12.3544 15.1821 12.3602 15.1879 12.3688C15.1937 12.3775 15.1995 12.3833 15.2052 12.3919C15.211 12.4006 15.2168 12.4064 15.2226 12.415C15.2283 12.4237 15.2312 12.4324 15.237 12.441C15.4276 12.7645 15.341 13.1862 15.0291 13.4057C14.8847 13.5067 14.7171 13.5501 14.5525 13.5356L9.94025 16.7616L10.0269 20.6057L17.146 15.6208C17.9951 15.0259 18.5236 14.1421 18.6912 13.1948C18.8587 12.2475 18.6652 11.2338 18.0673 10.3847Z" fill="#141615"/>
</g>
<defs>
<clipPath id="clip0_4593_116417">
<rect width="24" height="24" fill="white"/>
</clipPath>
</defs>
</svg>
