<svg width="11" height="7" viewBox="0 0 11 7" fill="none" xmlns="http://www.w3.org/2000/svg">
<path fill-rule="evenodd" clip-rule="evenodd" d="M0.229529 1.21048C0.372788 1.07265 0.564907 0.997336 0.763669 1.00109C0.96243 1.00484 1.15157 1.08735 1.28953 1.23048L4.99953 5.16848L8.70953 1.23048C8.77697 1.15614 8.85864 1.09608 8.94971 1.05388C9.04078 1.01168 9.1394 0.988192 9.23971 0.984803C9.34003 0.981413 9.44001 0.998194 9.53372 1.03415C9.62743 1.07011 9.71297 1.12451 9.78527 1.19413C9.85757 1.26376 9.91516 1.34719 9.95463 1.43947C9.9941 1.53176 10.0146 1.63103 10.015 1.73141C10.0154 1.83178 9.99568 1.93121 9.95694 2.02381C9.91821 2.11641 9.86128 2.20029 9.78953 2.27048L5.53953 6.77048C5.46957 6.84307 5.38569 6.9008 5.29291 6.94024C5.20012 6.97968 5.10034 7 4.99953 7C4.89871 7 4.79893 6.97968 4.70615 6.94024C4.61337 6.9008 4.52949 6.84307 4.45953 6.77048L0.209529 2.27048C0.0716989 2.12722 -0.00361659 1.9351 0.000133631 1.73634C0.00388385 1.53758 0.0863929 1.34844 0.229529 1.21048Z" fill="#6E717C"/>
</svg>
