<svg width="11" height="14" viewBox="0 0 11 14" fill="none" xmlns="http://www.w3.org/2000/svg">
<path d="M8.8947 12.334H3.33203C2.4127 12.334 1.66536 11.5867 1.66536 10.6673C1.66536 9.74799 2.4127 9.00065 3.33203 9.00065H7.9987C9.28537 9.00065 10.332 7.95399 10.332 6.66732C10.332 5.38065 9.28537 4.33399 7.9987 4.33399H4.75803C4.5132 4.81391 4.21001 5.26174 3.85536 5.66732H7.9987C8.55003 5.66732 8.9987 6.11599 8.9987 6.66732C8.9987 7.21865 8.55003 7.66732 7.9987 7.66732H3.33203C1.67803 7.66732 0.332031 9.01332 0.332031 10.6673C0.332031 12.3213 1.67803 13.6673 3.33203 13.6673H9.72737C9.40023 13.2558 9.12089 12.8085 8.8947 12.334ZM2.33203 0.333984C1.22936 0.333984 0.332031 1.23132 0.332031 2.33398C0.332031 4.45932 2.33203 5.66732 2.33203 5.66732C2.33203 5.66732 4.33203 4.45865 4.33203 2.33398C4.33203 1.23132 3.4347 0.333984 2.33203 0.333984ZM2.33203 3.33399C2.20067 3.33394 2.0706 3.30802 1.94925 3.25771C1.8279 3.2074 1.71765 3.13368 1.62479 3.04076C1.53193 2.94784 1.45828 2.83754 1.40805 2.71615C1.35782 2.59477 1.33199 2.46468 1.33203 2.33332C1.33208 2.20195 1.35799 2.07188 1.4083 1.95053C1.45862 1.82918 1.53234 1.71893 1.62526 1.62607C1.71818 1.53321 1.82848 1.45957 1.94986 1.40934C2.07124 1.35911 2.20133 1.33327 2.3327 1.33332C2.598 1.33341 2.85241 1.43888 3.03994 1.62654C3.22748 1.81421 3.33279 2.06868 3.3327 2.33398C3.33261 2.59929 3.22713 2.85369 3.03947 3.04123C2.85181 3.22877 2.59734 3.33407 2.33203 3.33399Z" fill="#6E717C"/>
</svg>
