<svg width="36" height="37" viewBox="0 0 36 37" fill="none" xmlns="http://www.w3.org/2000/svg">
<circle cx="18" cy="18.0566" r="18" fill="#20E682" fill-opacity="0.1"/>
<g clip-path="url(#clip0_347_378105)">
<path d="M11.3333 20.5566V15.1399C11.3333 14.1453 11.7283 13.1915 12.4316 12.4882C13.1349 11.785 14.0887 11.3899 15.0833 11.3899C16.0778 11.3899 17.0316 11.785 17.7349 12.4882C18.4382 13.1915 18.8333 14.1453 18.8333 15.1399V20.9732C18.8333 21.5258 19.0527 22.0557 19.4434 22.4464C19.8341 22.8371 20.3641 23.0566 20.9166 23.0566C21.4691 23.0566 21.999 22.8371 22.3897 22.4464C22.7804 22.0557 22.9999 21.5258 22.9999 20.9732V15.4149C22.4437 15.2183 21.9748 14.8314 21.6763 14.3226C21.3777 13.8137 21.2687 13.2157 21.3684 12.6342C21.4681 12.0528 21.7702 11.5253 22.2213 11.145C22.6723 10.7647 23.2433 10.5562 23.8333 10.5562C24.4232 10.5562 24.9942 10.7647 25.4452 11.145C25.8963 11.5253 26.1984 12.0528 26.2981 12.6342C26.3978 13.2157 26.2888 13.8137 25.9902 14.3226C25.6917 14.8314 25.2228 15.2183 24.6666 15.4149V20.9732C24.6666 21.9678 24.2715 22.9216 23.5682 23.6249C22.865 24.3281 21.9111 24.7232 20.9166 24.7232C19.922 24.7232 18.9682 24.3281 18.2649 23.6249C17.5617 22.9216 17.1666 21.9678 17.1666 20.9732V15.1399C17.1666 14.5874 16.9471 14.0575 16.5564 13.6668C16.1657 13.2761 15.6358 13.0566 15.0833 13.0566C14.5307 13.0566 14.0008 13.2761 13.6101 13.6668C13.2194 14.0575 12.9999 14.5874 12.9999 15.1399V20.5566H15.4999L12.1666 24.7232L8.83325 20.5566H11.3333ZM23.8333 13.8899C24.0543 13.8899 24.2662 13.8021 24.4225 13.6458C24.5788 13.4895 24.6666 13.2776 24.6666 13.0566C24.6666 12.8355 24.5788 12.6236 24.4225 12.4673C24.2662 12.311 24.0543 12.2232 23.8333 12.2232C23.6122 12.2232 23.4003 12.311 23.244 12.4673C23.0877 12.6236 22.9999 12.8355 22.9999 13.0566C22.9999 13.2776 23.0877 13.4895 23.244 13.6458C23.4003 13.8021 23.6122 13.8899 23.8333 13.8899Z" fill="#20E682"/>
</g>
<defs>
<clipPath id="clip0_347_378105">
<rect width="20" height="20" fill="white" transform="translate(8 8.05664)"/>
</clipPath>
</defs>
</svg>
