<svg width="46" height="46" viewBox="0 0 46 46" fill="none" xmlns="http://www.w3.org/2000/svg">
<rect x="3" y="3" width="40" height="40" rx="20" fill="#006633" fill-opacity="0.1"/>
<path d="M25.8376 26.8282C26.111 27.1016 26.5542 27.1016 26.8275 26.8282C27.1009 26.5548 27.1009 26.1116 26.8275 25.8383L25.8376 26.8282ZM22.9992 22.9999L23.4942 22.5049C23.2208 22.2316 22.7776 22.2316 22.5043 22.5049L22.9992 22.9999ZM19.1709 25.8383C18.8976 26.1116 18.8976 26.5548 19.1709 26.8282C19.4443 27.1016 19.8875 27.1016 20.1609 26.8282L19.1709 25.8383ZM22.2992 30.4999C22.2992 30.8865 22.6126 31.1999 22.9992 31.1999C23.3858 31.1999 23.6992 30.8865 23.6992 30.4999H22.2992ZM29.6558 27.7103C29.3164 27.8954 29.1912 28.3205 29.3763 28.66C29.5613 28.9994 29.9865 29.1246 30.326 28.9395L29.6558 27.7103ZM27.9992 20.4999L27.9997 19.7999H27.9992V20.4999ZM26.9492 20.4999L26.2715 20.6751C26.3514 20.9841 26.6301 21.1999 26.9492 21.1999V20.4999ZM14.9747 27.0468C15.2307 27.3365 15.6731 27.3638 15.9628 27.1078C16.2525 26.8518 16.2798 26.4094 16.0238 26.1197L14.9747 27.0468ZM26.8275 25.8383L23.4942 22.5049L22.5043 23.4949L25.8376 26.8282L26.8275 25.8383ZM22.5043 22.5049L19.1709 25.8383L20.1609 26.8282L23.4942 23.4949L22.5043 22.5049ZM22.2992 22.9999V30.4999H23.6992V22.9999H22.2992ZM30.326 28.9395C31.2753 28.422 32.0252 27.603 32.4574 26.6119L31.1742 26.0523C30.8663 26.7583 30.3321 27.3416 29.6558 27.7103L30.326 28.9395ZM32.4574 26.6119C32.8896 25.6208 32.9795 24.514 32.7128 23.4662L31.356 23.8115C31.546 24.5579 31.482 25.3463 31.1742 26.0523L32.4574 26.6119ZM32.7128 23.4662C32.4461 22.4183 31.838 21.4891 30.9846 20.8253L30.125 21.9303C30.7329 22.4032 31.1661 23.0651 31.356 23.8115L32.7128 23.4662ZM30.9846 20.8253C30.1312 20.1614 29.0809 19.8006 27.9997 19.7999L27.9988 21.1999C28.769 21.2004 29.5171 21.4574 30.125 21.9303L30.9846 20.8253ZM27.9992 19.7999H26.9492V21.1999H27.9992V19.7999ZM27.627 20.3247C27.3482 19.2466 26.8287 18.2458 26.1075 17.3974L25.0409 18.3041C25.625 18.9913 26.0458 19.8019 26.2715 20.6751L27.627 20.3247ZM26.1075 17.3974C25.3863 16.549 24.4822 15.8751 23.463 15.4264L22.8989 16.7077C23.7244 17.0711 24.4567 17.6169 25.0409 18.3041L26.1075 17.3974ZM23.463 15.4264C22.4439 14.9777 21.3363 14.7659 20.2236 14.8069L20.2751 16.206C21.1764 16.1728 22.0735 16.3443 22.8989 16.7077L23.463 15.4264ZM20.2236 14.8069C19.1108 14.8479 18.0218 15.1407 17.0385 15.6631L17.6953 16.8995C18.4918 16.4763 19.3738 16.2392 20.2751 16.206L20.2236 14.8069ZM17.0385 15.6631C16.0551 16.1856 15.203 16.9241 14.5462 17.8233L15.6767 18.6491C16.2087 17.9208 16.8988 17.3226 17.6953 16.8995L17.0385 15.6631ZM14.5462 17.8233C13.8893 18.7225 13.4449 19.7589 13.2463 20.8545L14.6238 21.1043C14.7847 20.2168 15.1447 19.3774 15.6767 18.6491L14.5462 17.8233ZM13.2463 20.8545C13.0476 21.9502 13.1 23.0766 13.3994 24.1491L14.7478 23.7728C14.5053 22.9041 14.4629 21.9917 14.6238 21.1043L13.2463 20.8545ZM13.3994 24.1491C13.6987 25.2217 14.2373 26.2124 14.9747 27.0468L16.0238 26.1197C15.4265 25.4439 14.9903 24.6415 14.7478 23.7728L13.3994 24.1491Z" fill="#09090F"/>
<rect x="3" y="3" width="40" height="40" rx="20" stroke="#006633" stroke-opacity="0.1" stroke-width="6"/>
</svg>
