<svg width="16" height="16" viewBox="0 0 16 16" fill="none" xmlns="http://www.w3.org/2000/svg">
<path d="M2.07019 0.351139C1.84356 0.139962 1.5438 0.024995 1.23408 0.0304597C0.924356 0.0359244 0.628846 0.161394 0.409805 0.380435C0.190763 0.599476 0.0652939 0.894987 0.0598292 1.20471C0.0543645 1.51443 0.169331 1.81419 0.380509 2.04082L6.31032 7.97063L0.380509 13.9004C0.26305 14.0099 0.168839 14.1419 0.103496 14.2885C0.0381533 14.4352 0.00301832 14.5935 0.00018606 14.754C-0.0026462 14.9145 0.0268824 15.074 0.087011 15.2229C0.14714 15.3717 0.236636 15.5069 0.350161 15.6205C0.463687 15.734 0.598915 15.8235 0.747779 15.8836C0.896643 15.9437 1.05609 15.9733 1.21662 15.9704C1.37714 15.9676 1.53545 15.9325 1.6821 15.8671C1.82875 15.8018 1.96074 15.7076 2.07019 15.5901L8 9.66031L13.9298 15.5901C14.0393 15.7076 14.1712 15.8018 14.3179 15.8671C14.4645 15.9325 14.6229 15.9676 14.7834 15.9704C14.9439 15.9733 15.1034 15.9437 15.2522 15.8836C15.4011 15.8235 15.5363 15.734 15.6498 15.6205C15.7634 15.5069 15.8529 15.3717 15.913 15.2229C15.9731 15.074 16.0026 14.9145 15.9998 14.754C15.997 14.5935 15.9618 14.4352 15.8965 14.2885C15.8312 14.1419 15.7369 14.0099 15.6195 13.9004L9.68968 7.97063L15.6195 2.04082C15.8307 1.81419 15.9456 1.51443 15.9402 1.20471C15.9347 0.894987 15.8092 0.599476 15.5902 0.380435C15.3712 0.161394 15.0756 0.0359244 14.7659 0.0304597C14.4562 0.024995 14.1564 0.139962 13.9298 0.351139L8 6.28095L2.07019 0.351139Z" fill="black"/>
</svg>
