<svg width="12" height="11" viewBox="0 0 12 11" fill="none" xmlns="http://www.w3.org/2000/svg">
<path d="M10.6133 1.00732C10.545 0.810673 10.4171 0.640183 10.2475 0.519521C10.0779 0.398859 9.87485 0.334012 9.66667 0.333984H2.33333C1.89667 0.333984 1.52333 0.613985 1.38667 1.00732L0 5.00065V10.334C0 10.7007 0.3 11.0007 0.666667 11.0007H1.33333C1.51014 11.0007 1.67971 10.9304 1.80474 10.8054C1.92976 10.6804 2 10.5108 2 10.334V9.66732H10V10.334C10 10.7007 10.3 11.0007 10.6667 11.0007H11.3333C11.5101 11.0007 11.6797 10.9304 11.8047 10.8054C11.9298 10.6804 12 10.5108 12 10.334V5.00065L10.6133 1.00732ZM2.33333 7.66732C1.78 7.66732 1.33333 7.22065 1.33333 6.66732C1.33333 6.11398 1.78 5.66732 2.33333 5.66732C2.88667 5.66732 3.33333 6.11398 3.33333 6.66732C3.33333 7.22065 2.88667 7.66732 2.33333 7.66732ZM9.66667 7.66732C9.11333 7.66732 8.66667 7.22065 8.66667 6.66732C8.66667 6.11398 9.11333 5.66732 9.66667 5.66732C10.22 5.66732 10.6667 6.11398 10.6667 6.66732C10.6667 7.22065 10.22 7.66732 9.66667 7.66732ZM1.33333 4.33398L2.33333 1.33398H9.66667L10.6667 4.33398H1.33333Z" fill="#6E717C"/>
</svg>
