<svg width="36" height="37" viewBox="0 0 36 37" fill="none" xmlns="http://www.w3.org/2000/svg">
<circle cx="18" cy="18.0566" r="18" fill="#20E682" fill-opacity="0.1"/>
<g clip-path="url(#clip0_347_378074)">
<path d="M23.7667 13.0651C23.6813 12.8192 23.5214 12.6061 23.3094 12.4553C23.0973 12.3045 22.8436 12.2234 22.5833 12.2234H13.4167C12.8708 12.2234 12.4042 12.5734 12.2333 13.0651L10.5 18.0567V24.7234C10.5 25.1817 10.875 25.5567 11.3333 25.5567H12.1667C12.3877 25.5567 12.5996 25.4689 12.7559 25.3126C12.9122 25.1564 13 24.9444 13 24.7234V23.8901H23V24.7234C23 25.1817 23.375 25.5567 23.8333 25.5567H24.6667C24.8877 25.5567 25.0996 25.4689 25.2559 25.3126C25.4122 25.1564 25.5 24.9444 25.5 24.7234V18.0567L23.7667 13.0651ZM13.4167 21.3901C12.725 21.3901 12.1667 20.8317 12.1667 20.1401C12.1667 19.4484 12.725 18.8901 13.4167 18.8901C14.1083 18.8901 14.6667 19.4484 14.6667 20.1401C14.6667 20.8317 14.1083 21.3901 13.4167 21.3901ZM22.5833 21.3901C21.8917 21.3901 21.3333 20.8317 21.3333 20.1401C21.3333 19.4484 21.8917 18.8901 22.5833 18.8901C23.275 18.8901 23.8333 19.4484 23.8333 20.1401C23.8333 20.8317 23.275 21.3901 22.5833 21.3901ZM12.1667 17.2234L13.4167 13.4734H22.5833L23.8333 17.2234H12.1667Z" fill="#20E682"/>
</g>
<defs>
<clipPath id="clip0_347_378074">
<rect width="20" height="20" fill="white" transform="translate(8 8.05664)"/>
</clipPath>
</defs>
</svg>
