<svg width="20" height="21" viewBox="0 0 20 21" fill="none" xmlns="http://www.w3.org/2000/svg">
<path fill-rule="evenodd" clip-rule="evenodd" d="M2 10.0548C2 9.85584 2.07902 9.66508 2.21967 9.52442C2.36032 9.38377 2.55109 9.30475 2.75 9.30475H15.34L13.24 7.35475C13.1678 7.28778 13.1094 7.20724 13.0683 7.11772C13.0272 7.0282 13.0042 6.93147 13.0005 6.83304C12.9968 6.73461 13.0125 6.63641 13.0467 6.54405C13.0809 6.45169 13.133 6.36698 13.2 6.29475C13.3353 6.14888 13.5229 6.06272 13.7217 6.05522C13.8201 6.05151 13.9183 6.06722 14.0107 6.10145C14.1031 6.13569 14.1878 6.18778 14.26 6.25475L17.76 9.50475C17.8357 9.57496 17.8961 9.66005 17.9375 9.75469C17.9788 9.84933 18.0001 9.95149 18.0001 10.0548C18.0001 10.158 17.9788 10.2602 17.9375 10.3548C17.8961 10.4495 17.8357 10.5345 17.76 10.6048L14.26 13.8548C14.1141 13.99 13.9205 14.0618 13.7217 14.0543C13.5229 14.0468 13.3353 13.9606 13.2 13.8148C13.0647 13.6689 12.993 13.4753 13.0005 13.2765C13.008 13.0777 13.0941 12.89 13.24 12.7548L15.34 10.8048H2.75C2.55109 10.8048 2.36032 10.7257 2.21967 10.5851C2.07902 10.4444 2 10.2537 2 10.0548Z" fill="#4848ED"/>
</svg>
