<svg width="20" height="21" viewBox="0 0 20 21" fill="none" xmlns="http://www.w3.org/2000/svg">
<path fill-rule="evenodd" clip-rule="evenodd" d="M5.22953 7.71048C5.37279 7.57265 5.56491 7.49734 5.76367 7.50109C5.96243 7.50484 6.15157 7.58735 6.28953 7.73048L9.99953 11.6685L13.7095 7.73048C13.777 7.65614 13.8586 7.59608 13.9497 7.55388C14.0408 7.51168 14.1394 7.48819 14.2397 7.4848C14.34 7.48141 14.44 7.49819 14.5337 7.53415C14.6274 7.57011 14.713 7.62451 14.7853 7.69413C14.8576 7.76376 14.9152 7.84719 14.9546 7.93947C14.9941 8.03176 15.0146 8.13103 15.015 8.23141C15.0154 8.33178 14.9957 8.43121 14.9569 8.52381C14.9182 8.61641 14.8613 8.70029 14.7895 8.77048L10.5395 13.2705C10.4696 13.3431 10.3857 13.4008 10.2929 13.4402C10.2001 13.4797 10.1003 13.5 9.99953 13.5C9.89871 13.5 9.79893 13.4797 9.70615 13.4402C9.61337 13.4008 9.52949 13.3431 9.45953 13.2705L5.20953 8.77048C5.0717 8.62722 4.99638 8.4351 5.00013 8.23634C5.00388 8.03758 5.08639 7.84844 5.22953 7.71048Z" fill="#444854"/>
</svg>
