<svg width="20" height="21" viewBox="0 0 20 21" fill="none" xmlns="http://www.w3.org/2000/svg">
<path fill-rule="evenodd" clip-rule="evenodd" d="M5.23002 13.2895C5.37328 13.4273 5.5654 13.5027 5.76416 13.4989C5.96292 13.4952 6.15206 13.4127 6.29002 13.2695L10 9.33152L13.71 13.2695C13.7775 13.3439 13.8591 13.4039 13.9502 13.4461C14.0413 13.4883 14.1399 13.5118 14.2402 13.5152C14.3405 13.5186 14.4405 13.5018 14.5342 13.4658C14.6279 13.4299 14.7135 13.3755 14.7858 13.3059C14.8581 13.2362 14.9157 13.1528 14.9551 13.0605C14.9946 12.9682 15.0151 12.869 15.0155 12.7686C15.0159 12.6682 14.9962 12.5688 14.9574 12.4762C14.9187 12.3836 14.8618 12.2997 14.79 12.2295L10.54 7.72952C10.4701 7.65693 10.3862 7.5992 10.2934 7.55976C10.2006 7.52032 10.1008 7.5 10 7.5C9.8992 7.5 9.79942 7.52032 9.70664 7.55976C9.61386 7.5992 9.52998 7.65693 9.46002 7.72952L5.21002 12.2295C5.07219 12.3728 4.99687 12.5649 5.00062 12.7637C5.00437 12.9624 5.08688 13.1516 5.23002 13.2895Z" fill="#444854"/>
</svg>
