<svg width="36" height="37" viewBox="0 0 36 37" fill="none" xmlns="http://www.w3.org/2000/svg">
<circle cx="18" cy="18.0547" r="18" fill="#20E682" fill-opacity="0.1"/>
<path fill-rule="evenodd" clip-rule="evenodd" d="M17.674 10.0746C17.7757 10.0255 17.8871 10 18 10C18.1129 10 18.2243 10.0255 18.326 10.0746L25.576 13.5746C25.7475 13.6586 25.8805 13.805 25.9478 13.9837C26.0152 14.1625 26.0117 14.3602 25.9382 14.5366C25.8647 14.7129 25.7267 14.8545 25.5524 14.9326C25.378 15.0106 25.1805 15.0192 25 14.9566V24.4996H25.25C25.4489 24.4996 25.6397 24.5786 25.7803 24.7192C25.921 24.8599 26 25.0506 26 25.2496C26 25.4485 25.921 25.6392 25.7803 25.7799C25.6397 25.9205 25.4489 25.9996 25.25 25.9996H10.75C10.5511 25.9996 10.3603 25.9205 10.2197 25.7799C10.079 25.6392 10 25.4485 10 25.2496C10 25.0506 10.079 24.8599 10.2197 24.7192C10.3603 24.5786 10.5511 24.4996 10.75 24.4996H11V14.9566C10.8195 15.0192 10.622 15.0106 10.4476 14.9326C10.2733 14.8545 10.1353 14.7129 10.0618 14.5366C9.98828 14.3602 9.98484 14.1625 10.0522 13.9837C10.1195 13.805 10.2525 13.6586 10.424 13.5746L17.674 10.0746ZM19 13.9996C19 14.2648 18.8946 14.5191 18.7071 14.7067C18.5196 14.8942 18.2652 14.9996 18 14.9996C17.7348 14.9996 17.4804 14.8942 17.2929 14.7067C17.1054 14.5191 17 14.2648 17 13.9996C17 13.7343 17.1054 13.48 17.2929 13.2924C17.4804 13.1049 17.7348 12.9996 18 12.9996C18.2652 12.9996 18.5196 13.1049 18.7071 13.2924C18.8946 13.48 19 13.7343 19 13.9996ZM15.5 17.7496C15.5 17.5506 15.421 17.3599 15.2803 17.2192C15.1397 17.0786 14.9489 16.9996 14.75 16.9996C14.5511 16.9996 14.3603 17.0786 14.2197 17.2192C14.079 17.3599 14 17.5506 14 17.7496V23.2496C14 23.4485 14.079 23.6392 14.2197 23.7799C14.3603 23.9205 14.5511 23.9996 14.75 23.9996C14.9489 23.9996 15.1397 23.9205 15.2803 23.7799C15.421 23.6392 15.5 23.4485 15.5 23.2496V17.7496ZM18.75 17.7496C18.75 17.5506 18.671 17.3599 18.5303 17.2192C18.3897 17.0786 18.1989 16.9996 18 16.9996C17.8011 16.9996 17.6103 17.0786 17.4697 17.2192C17.329 17.3599 17.25 17.5506 17.25 17.7496V23.2496C17.25 23.4485 17.329 23.6392 17.4697 23.7799C17.6103 23.9205 17.8011 23.9996 18 23.9996C18.1989 23.9996 18.3897 23.9205 18.5303 23.7799C18.671 23.6392 18.75 23.4485 18.75 23.2496V17.7496ZM22 17.7496C22 17.5506 21.921 17.3599 21.7803 17.2192C21.6397 17.0786 21.4489 16.9996 21.25 16.9996C21.0511 16.9996 20.8603 17.0786 20.7197 17.2192C20.579 17.3599 20.5 17.5506 20.5 17.7496V23.2496C20.5 23.4485 20.579 23.6392 20.7197 23.7799C20.8603 23.9205 21.0511 23.9996 21.25 23.9996C21.4489 23.9996 21.6397 23.9205 21.7803 23.7799C21.921 23.6392 22 23.4485 22 23.2496V17.7496Z" fill="#20E682"/>
</svg>
