<svg width="16" height="16" viewBox="0 0 16 16" fill="none" xmlns="http://www.w3.org/2000/svg">
<path d="M9 13.334C9 13.8863 8.5523 14.334 8 14.334C7.4477 14.334 7 13.8863 7 13.334C7 12.7817 7.4477 12.334 8 12.334C8.5523 12.334 9 12.7817 9 13.334Z" fill="#595E5C"/>
<path fill-rule="evenodd" clip-rule="evenodd" d="M10.2062 12.3672C10.0633 11.8337 10.3798 11.2854 10.9133 11.1424L11.5573 10.9699C12.0907 10.8269 12.6391 11.1435 12.782 11.677L13.1271 12.9649C13.27 13.4984 12.9534 14.0467 12.42 14.1896L11.776 14.3622C11.2426 14.5051 10.6942 14.1885 10.5513 13.6551L10.2062 12.3672ZM11.0858 11.7864C10.908 11.834 10.8025 12.0168 10.8501 12.1946L11.1952 13.4825C11.2429 13.6603 11.4257 13.7659 11.6035 13.7182L12.2474 13.5457C12.4253 13.498 12.5308 13.3153 12.4831 13.1374L12.138 11.8495C12.0904 11.6717 11.9076 11.5662 11.7298 11.6138L11.0858 11.7864Z" fill="#595E5C"/>
<path fill-rule="evenodd" clip-rule="evenodd" d="M3.21926 11.677C3.3622 11.1435 3.91054 10.8269 4.444 10.9699L5.08794 11.1424C5.6214 11.2854 5.938 11.8337 5.79507 12.3672L5.44997 13.6551C5.30704 14.1885 4.7587 14.5051 4.22524 14.3622L3.58127 14.1896C3.04781 14.0467 2.73122 13.4983 2.87417 12.9649L3.21926 11.677ZM4.27147 11.6138C4.09364 11.5662 3.91087 11.6717 3.8632 11.8495L3.5181 13.1374C3.47047 13.3152 3.576 13.498 3.7538 13.5457L4.39777 13.7182C4.5756 13.7659 4.75837 13.6603 4.806 13.4825L5.1511 12.1946C5.19877 12.0168 5.09324 11.834 4.9154 11.7864L4.27147 11.6138Z" fill="#595E5C"/>
<path fill-rule="evenodd" clip-rule="evenodd" d="M5.28032 12.9993H7.66772V10.351C6.71115 10.4567 5.89012 11.0122 5.42078 11.8013C5.33755 11.6409 5.18978 11.5147 5.00145 11.4642L4.86715 11.4282C5.51062 10.3716 6.67345 9.66602 8.00105 9.66602C9.32878 9.66602 10.4917 10.3717 11.1351 11.4285L11.0006 11.4645C10.8124 11.5149 10.6647 11.6411 10.5814 11.8015C10.1121 11.0123 9.29102 10.4567 8.33438 10.351V12.9993H10.7218L10.8744 13.5689C10.8834 13.6026 10.8949 13.635 10.9085 13.666H8.00105H5.09348C5.10722 13.6349 5.11872 13.6024 5.12778 13.5686L5.28032 12.9993ZM5.03325 13.774C4.89532 13.9745 4.65445 14.0877 4.40625 14.0583C4.48578 14.4543 4.62912 14.8274 4.82512 15.1662L5.40218 14.8324C5.21708 14.5124 5.08935 14.155 5.03325 13.774ZM10.5999 14.8324C10.785 14.5125 10.9127 14.1552 10.9688 13.7742C11.1068 13.9747 11.3476 14.0879 11.5958 14.0586C11.5163 14.4544 11.373 14.8275 11.177 15.1662L10.5999 14.8324Z" fill="#595E5C"/>
<path fill-rule="evenodd" clip-rule="evenodd" d="M5 5.66602V4.66602H5.66667V5.66602C5.66667 6.95468 6.71133 7.99935 8 7.99935C9.28867 7.99935 10.3333 6.95468 10.3333 5.66602V4.66602H11V5.66602C11 7.32288 9.65687 8.66602 8 8.66602C6.34313 8.66602 5 7.32288 5 5.66602Z" fill="#595E5C"/>
<path fill-rule="evenodd" clip-rule="evenodd" d="M5.19833 2.08384C5.02883 2.22134 4.9987 2.31817 4.9987 2.36494C4.9987 2.84494 5.07616 3.22139 5.15146 3.47402C5.1739 3.54918 5.1961 3.61338 5.216 3.66602H10.7814C10.8013 3.61338 10.8235 3.54922 10.8459 3.47405C10.9212 3.22145 10.9987 2.84499 10.9987 2.36494C10.9987 2.31817 10.9686 2.22134 10.7991 2.08384C10.6353 1.95103 10.3874 1.81984 10.0767 1.70423C9.457 1.47368 8.66306 1.33268 7.9987 1.33268C7.33433 1.33268 6.5404 1.47368 5.92073 1.70423C5.61 1.81984 5.3621 1.95103 5.19833 2.08384ZM10.5659 4.33268H5.43153C5.45386 4.36268 5.48116 4.39412 5.51453 4.42638C5.76606 4.66962 6.40816 4.99935 7.9987 4.99935C9.58923 4.99935 10.2313 4.66962 10.4829 4.42638C10.5162 4.39412 10.5435 4.36268 10.5659 4.33268ZM4.6613 4.06798C4.65483 4.05385 4.64786 4.03815 4.64046 4.02095C4.6045 3.93742 4.55826 3.81768 4.5126 3.66445C4.42123 3.35795 4.33203 2.9172 4.33203 2.36494C4.33203 2.02462 4.54273 1.7572 4.7784 1.56607C5.01983 1.37025 5.3415 1.20843 5.68826 1.07941C6.38356 0.820719 7.2563 0.666016 7.9987 0.666016C8.7411 0.666016 9.61383 0.820719 10.3091 1.07941C10.6559 1.20843 10.9776 1.37025 11.219 1.56607C11.4547 1.7572 11.6654 2.02462 11.6654 2.36494C11.6654 2.91725 11.5762 3.35802 11.4848 3.66452C11.4391 3.81772 11.3929 3.93745 11.3569 4.02098C11.3495 4.03818 11.3426 4.05385 11.3361 4.06798C11.3357 4.12455 11.3298 4.19708 11.3112 4.28038C11.2701 4.46442 11.1687 4.69055 10.9463 4.90565C10.5084 5.32908 9.65053 5.66602 7.9987 5.66602C6.34686 5.66602 5.489 5.32908 5.0511 4.90565C4.82866 4.69055 4.72733 4.46442 4.6862 4.28038C4.66756 4.19708 4.66173 4.12455 4.6613 4.06798Z" fill="#595E5C"/>
<path d="M6.66797 2.66732C6.66797 2.48322 6.8172 2.33398 7.0013 2.33398H9.0013C9.1854 2.33398 9.33464 2.48322 9.33464 2.66732C9.33464 2.85141 9.1854 3.00065 9.0013 3.00065H7.0013C6.8172 3.00065 6.66797 2.85141 6.66797 2.66732Z" fill="#595E5C"/>
</svg>
