<svg width="36" height="37" viewBox="0 0 36 37" fill="none" xmlns="http://www.w3.org/2000/svg">
<circle cx="18" cy="18.0547" r="18" fill="#20E682" fill-opacity="0.1"/>
<path fill-rule="evenodd" clip-rule="evenodd" d="M9 12.0547C9 11.7895 9.10536 11.5351 9.29289 11.3476C9.48043 11.16 9.73478 11.0547 10 11.0547H26C26.2652 11.0547 26.5196 11.16 26.7071 11.3476C26.8946 11.5351 27 11.7895 27 12.0547V20.0547C27 20.3199 26.8946 20.5743 26.7071 20.7618C26.5196 20.9493 26.2652 21.0547 26 21.0547H10C9.73478 21.0547 9.48043 20.9493 9.29289 20.7618C9.10536 20.5743 9 20.3199 9 20.0547V12.0547ZM21 16.0547C21 16.8503 20.6839 17.6134 20.1213 18.176C19.5587 18.7386 18.7956 19.0547 18 19.0547C17.2044 19.0547 16.4413 18.7386 15.8787 18.176C15.3161 17.6134 15 16.8503 15 16.0547C15 15.259 15.3161 14.496 15.8787 13.9334C16.4413 13.3708 17.2044 13.0547 18 13.0547C18.7956 13.0547 19.5587 13.3708 20.1213 13.9334C20.6839 14.496 21 15.259 21 16.0547ZM12 17.0547C12.2652 17.0547 12.5196 16.9493 12.7071 16.7618C12.8946 16.5743 13 16.3199 13 16.0547C13 15.7895 12.8946 15.5351 12.7071 15.3476C12.5196 15.16 12.2652 15.0547 12 15.0547C11.7348 15.0547 11.4804 15.16 11.2929 15.3476C11.1054 15.5351 11 15.7895 11 16.0547C11 16.3199 11.1054 16.5743 11.2929 16.7618C11.4804 16.9493 11.7348 17.0547 12 17.0547ZM25 16.0547C25 16.3199 24.8946 16.5743 24.7071 16.7618C24.5196 16.9493 24.2652 17.0547 24 17.0547C23.7348 17.0547 23.4804 16.9493 23.2929 16.7618C23.1054 16.5743 23 16.3199 23 16.0547C23 15.7895 23.1054 15.5351 23.2929 15.3476C23.4804 15.16 23.7348 15.0547 24 15.0547C24.2652 15.0547 24.5196 15.16 24.7071 15.3476C24.8946 15.5351 25 15.7895 25 16.0547ZM9.75 22.5547C9.55109 22.5547 9.36032 22.6337 9.21967 22.7744C9.07902 22.915 9 23.1058 9 23.3047C9 23.5036 9.07902 23.6944 9.21967 23.835C9.36032 23.9757 9.55109 24.0547 9.75 24.0547C14.167 24.0547 18.443 24.6577 22.499 25.7847C23.61 26.0937 24.75 25.2727 24.75 24.0887V23.3047C24.75 23.1058 24.671 22.915 24.5303 22.7744C24.3897 22.6337 24.1989 22.5547 24 22.5547C23.8011 22.5547 23.6103 22.6337 23.4697 22.7744C23.329 22.915 23.25 23.1058 23.25 23.3047V24.0887C23.2484 24.1302 23.2373 24.1707 23.2176 24.2073C23.1979 24.2438 23.1701 24.2754 23.1363 24.2995C23.1025 24.3236 23.0637 24.3397 23.0227 24.3465C22.9817 24.3533 22.9398 24.3506 22.9 24.3387C18.6177 23.151 14.1939 22.5508 9.75 22.5547Z" fill="#20E682"/>
</svg>
