<svg width="16" height="16" viewBox="0 0 16 16" fill="none" xmlns="http://www.w3.org/2000/svg">
<path d="M7.3999 2.20039C7.3999 2.04126 7.46311 1.88865 7.57563 1.77613C7.68816 1.6636 7.84077 1.60039 7.9999 1.60039C8.15903 1.60039 8.31164 1.6636 8.42416 1.77613C8.53668 1.88865 8.5999 2.04126 8.5999 2.20039V9.09159L10.9639 6.58839C11.0741 6.47662 11.2236 6.41246 11.3806 6.40968C11.5375 6.40689 11.6892 6.4657 11.8033 6.57349C11.9174 6.68128 11.9847 6.82947 11.9908 6.98629C11.9969 7.14311 11.9413 7.29607 11.8359 7.41239L8.4359 11.0124C8.37982 11.0717 8.31223 11.119 8.23726 11.1512C8.16229 11.1835 8.08153 11.2002 7.9999 11.2002C7.91827 11.2002 7.8375 11.1835 7.76253 11.1512C7.68757 11.119 7.61998 11.0717 7.5639 11.0124L4.1639 7.41239C4.10784 7.35552 4.0637 7.28802 4.03406 7.21387C4.00442 7.13971 3.98989 7.06039 3.99131 6.98055C3.99272 6.9007 4.01007 6.82194 4.04232 6.74889C4.07457 6.67583 4.12108 6.60995 4.17912 6.5551C4.23716 6.50025 4.30557 6.45754 4.38033 6.42947C4.4551 6.40141 4.53471 6.38855 4.61451 6.39165C4.6943 6.39475 4.77268 6.41375 4.84504 6.44753C4.9174 6.48132 4.98229 6.5292 5.0359 6.58839L7.3999 9.09159V2.20039Z" fill="#000005"/>
<path d="M3.00049 10.1996C3.00049 10.0405 2.93283 9.88787 2.8203 9.77535C2.70778 9.66282 2.35923 9.59961 2.2001 9.59961C2.04097 9.59961 1.88836 9.66282 1.77583 9.77535C1.66331 9.88787 1.6001 10.0405 1.6001 10.1996V12.1996C1.6001 12.7831 1.83188 13.3427 2.24446 13.7552C2.65704 14.1678 3.21662 14.3996 3.8001 14.3996H12.2001C12.7836 14.3996 13.3432 14.1678 13.7557 13.7552C14.1683 13.3427 14.4001 12.7831 14.4001 12.1996V10.1996C14.4001 10.0405 14.3369 9.88787 14.2244 9.77535C14.1118 9.66282 13.9592 9.59961 13.8001 9.59961C13.641 9.59961 13.3382 9.66282 13.2256 9.77535C13.1131 9.88787 13.0005 10.0405 13.0005 10.1996V12.1996C13.0005 12.7516 12.7521 12.9995 12.2001 12.9995H8.00049H3.8001C3.2481 12.9995 3.00049 12.7516 3.00049 12.1996V10.9995V10.1996Z" fill="#000005"/>
</svg>
