<svg width="16" height="17" viewBox="0 0 16 17" fill="none" xmlns="http://www.w3.org/2000/svg">
<path fill-rule="evenodd" clip-rule="evenodd" d="M14.4001 8.49961C14.4001 10.197 13.7258 11.8249 12.5256 13.0251C11.3253 14.2253 9.69748 14.8996 8.0001 14.8996C6.30271 14.8996 4.67485 14.2253 3.47461 13.0251C2.27438 11.8249 1.6001 10.197 1.6001 8.49961C1.6001 6.80222 2.27438 5.17436 3.47461 3.97413C4.67485 2.77389 6.30271 2.09961 8.0001 2.09961C9.69748 2.09961 11.3253 2.77389 12.5256 3.97413C13.7258 5.17436 14.4001 6.80222 14.4001 8.49961ZM8.8001 5.29961C8.8001 5.51178 8.71581 5.71527 8.56578 5.86529C8.41575 6.01532 8.21227 6.09961 8.0001 6.09961C7.78792 6.09961 7.58444 6.01532 7.43441 5.86529C7.28438 5.71527 7.2001 5.51178 7.2001 5.29961C7.2001 5.08744 7.28438 4.88395 7.43441 4.73392C7.58444 4.58389 7.78792 4.49961 8.0001 4.49961C8.21227 4.49961 8.41575 4.58389 8.56578 4.73392C8.71581 4.88395 8.8001 5.08744 8.8001 5.29961ZM7.2001 7.69961C7.04097 7.69961 6.88836 7.76282 6.77583 7.87535C6.66331 7.98787 6.6001 8.14048 6.6001 8.29961C6.6001 8.45874 6.66331 8.61135 6.77583 8.72387C6.88836 8.8364 7.04097 8.89961 7.2001 8.89961H7.4025C7.43242 8.89962 7.46197 8.90635 7.48895 8.9193C7.51593 8.93224 7.53966 8.95108 7.55839 8.97442C7.57713 8.99776 7.59038 9.025 7.59718 9.05415C7.60399 9.08329 7.60416 9.11359 7.5977 9.14281L7.2305 10.7956C7.18496 11.0003 7.18599 11.2127 7.23353 11.4169C7.28106 11.6212 7.37388 11.8122 7.50513 11.9757C7.63637 12.1393 7.8027 12.2713 7.9918 12.362C8.18091 12.4527 8.38798 12.4997 8.5977 12.4996H8.8001C8.95923 12.4996 9.11184 12.4364 9.22436 12.3239C9.33688 12.2114 9.4001 12.0587 9.4001 11.8996C9.4001 11.7405 9.33688 11.5879 9.22436 11.4753C9.11184 11.3628 8.95923 11.2996 8.8001 11.2996H8.5977C8.56777 11.2996 8.53823 11.2929 8.51125 11.2799C8.48427 11.267 8.46054 11.2481 8.4418 11.2248C8.42307 11.2015 8.40981 11.1742 8.40301 11.1451C8.39621 11.1159 8.39603 11.0856 8.4025 11.0564L8.7697 9.40361C8.81524 9.19889 8.8142 8.98656 8.76667 8.78229C8.71913 8.57803 8.62631 8.38705 8.49507 8.22347C8.36382 8.0599 8.1975 7.92789 8.00839 7.83722C7.81928 7.74655 7.61222 7.69952 7.4025 7.69961H7.2001Z" fill="#6E717C"/>
</svg>
