<svg width="144" height="186" viewBox="0 0 144 186" fill="none" xmlns="http://www.w3.org/2000/svg">
<circle cx="72" cy="72.458" r="71.5" fill="#F1F1F1"/>
<rect x="43.9505" y="71.0007" width="70" height="98" rx="7" transform="rotate(2.5 43.9505 71.0007)" fill="#EEEEEE" stroke="#999999" stroke-width="2"/>
<rect x="2.33604" y="65.1391" width="74" height="102" rx="9" transform="rotate(-7.5 2.33604 65.1391)" fill="#FAFAFA" stroke="#999999" stroke-width="2"/>
<path d="M4.50222 73.9316C3.92552 69.5511 7.00909 65.5325 11.3896 64.9558L66.9105 57.6463C71.291 57.0696 75.3095 60.1532 75.8862 64.5337L77.8441 79.4053L6.46011 88.8032L4.50222 73.9316Z" fill="#EEEEEE"/>
<rect x="90.3662" y="59.6006" width="3" height="10" rx="1.5" transform="rotate(82.5 90.3662 59.6006)" fill="#999999"/>
<rect x="62.9697" y="43.0352" width="3" height="10" rx="1.5" transform="rotate(-7.5 62.9697 43.0352)" fill="#999999"/>
<rect x="80.5469" y="45.7646" width="3" height="10" rx="1.5" transform="rotate(37.5 80.5469 45.7646)" fill="#999999"/>
<rect x="13.9219" y="91.8545" width="58" height="4" rx="2" transform="rotate(-7.5 13.9219 91.8545)" fill="#DCDCDC"/>
<rect x="16.5332" y="111.684" width="58" height="4" rx="2" transform="rotate(-7.5 16.5332 111.684)" fill="#DCDCDC"/>
<rect x="19.1436" y="131.513" width="58" height="4" rx="2" transform="rotate(-7.5 19.1436 131.513)" fill="#DCDCDC"/>
<rect x="14.9668" y="99.7861" width="21" height="4" rx="2" transform="rotate(-7.5 14.9668 99.7861)" fill="#EEEEEE"/>
<rect x="17.5771" y="119.615" width="21" height="4" rx="2" transform="rotate(-7.5 17.5771 119.615)" fill="#EEEEEE"/>
<rect x="20.1875" y="139.444" width="21" height="4" rx="2" transform="rotate(-7.5 20.1875 139.444)" fill="#EEEEEE"/>
</svg>
