<svg width="20" height="20" viewBox="0 0 20 20" fill="none" xmlns="http://www.w3.org/2000/svg">
<path fill-rule="evenodd" clip-rule="evenodd" d="M3.28009 2.21985C3.13792 2.08737 2.94987 2.01524 2.75557 2.01867C2.56127 2.0221 2.37588 2.10081 2.23847 2.23822C2.10106 2.37564 2.02234 2.56102 2.01892 2.75532C2.01549 2.94963 2.08761 3.13767 2.22009 3.27985L16.7201 17.7798C16.7888 17.8535 16.8716 17.9126 16.9636 17.9536C17.0556 17.9946 17.1549 18.0167 17.2556 18.0184C17.3563 18.0202 17.4563 18.0017 17.5497 17.964C17.6431 17.9262 17.7279 17.8701 17.7991 17.7989C17.8703 17.7277 17.9265 17.6428 17.9642 17.5494C18.0019 17.4561 18.0205 17.356 18.0187 17.2553C18.0169 17.1546 17.9949 17.0553 17.9539 16.9633C17.9129 16.8713 17.8538 16.7885 17.7801 16.7198L16.0351 14.9748C17.5207 13.8498 18.6634 12.3331 19.3351 10.5948C19.4817 10.2135 19.4817 9.79124 19.3351 9.40985C18.6088 7.52322 17.328 5.90089 15.6614 4.75663C13.9948 3.61237 12.0207 2.99987 9.99909 2.99985C8.34307 2.99711 6.71251 3.40749 5.25509 4.19385L3.28009 2.21985ZM7.75209 6.68985L8.84409 7.78185C9.31586 7.53527 9.85401 7.44571 10.3802 7.52621C10.9064 7.60671 11.3932 7.85308 11.7696 8.22943C12.1461 8.60578 12.3926 9.09247 12.4733 9.61865C12.5539 10.1448 12.4645 10.683 12.2181 11.1548L13.3091 12.2468C13.8327 11.477 14.0713 10.5486 13.9838 9.62165C13.8963 8.69473 13.4883 7.82735 12.8299 7.16901C12.1716 6.51067 11.3042 6.1026 10.3773 6.01513C9.45036 5.92766 8.52196 6.16627 7.75209 6.68985V6.68985Z" fill="#444854"/>
<path d="M10.7479 13.93L13.2709 16.453C12.219 16.8163 11.1137 17.0011 10.0009 17C5.74288 17 2.10688 14.34 0.663883 10.59C0.516987 10.2083 0.516987 9.78571 0.663883 9.40402C1.15235 8.14043 1.8923 6.98917 2.83888 6.02002L6.06988 9.25202C5.94778 9.89284 5.98426 10.5538 6.17614 11.1773C6.36803 11.8008 6.70949 12.3679 7.17076 12.8291C7.63204 13.2904 8.19914 13.6319 8.82262 13.8238C9.44611 14.0156 10.1071 14.0521 10.7479 13.93V13.93Z" fill="#444854"/>
</svg>
