<svg width="16" height="62" viewBox="0 0 16 62" fill="none" xmlns="http://www.w3.org/2000/svg">
<line x1="8" y1="12.0547" x2="8" y2="50.0547" stroke="#ACAFAE" stroke-width="2" stroke-linecap="round" stroke-dasharray="6 6"/>
<circle cx="8" cy="7.49219" r="7" fill="#0DAC5C"/>
<circle cx="8" cy="7.49219" r="3" fill="white"/>
<circle cx="8.5" cy="51.0547" r="5" fill="white"/>
<g clip-path="url(#clip0_1455_57139)">
<path d="M8.28283 61.0532C8.27223 61.0532 8.26163 61.0532 8.25102 61.0532C8.22849 60.9829 8.16355 60.9511 8.11451 60.9047C6.99456 59.863 5.94884 58.7496 4.99456 57.5541C4.07475 56.405 3.24638 55.1963 2.65129 53.8404C2.15427 52.7086 1.92895 51.5409 2.13439 50.3043C2.63008 47.3103 5.2318 45.1048 8.28416 45.1035C8.28416 45.8895 8.28416 46.6754 8.28416 47.4614C8.09993 47.4693 7.9157 47.4733 7.73147 47.4985C5.19337 47.8431 3.67051 50.5826 4.75599 52.91C5.44652 54.3891 6.65129 55.138 8.28416 55.1897C8.28416 57.1353 8.28416 59.0797 8.28416 61.0253C8.28151 61.0346 8.28151 61.0439 8.28283 61.0532Z" fill="#4848ED"/>
<path d="M8.28516 47.4596C8.28516 46.6737 8.28516 45.8877 8.28516 45.1018C9.1175 45.0951 9.922 45.2476 10.6801 45.5869C12.7451 46.5106 13.9949 48.0865 14.4111 50.3185C14.4455 50.5014 14.4336 50.6909 14.4999 50.8672C14.4999 50.9414 14.4999 51.0156 14.4999 51.0898C14.4469 51.2383 14.4482 51.3854 14.4999 51.5338C14.4999 51.5975 14.4999 51.6611 14.4999 51.7247C14.4667 51.734 14.4694 51.7618 14.4681 51.7883C14.4508 52.0203 14.4071 52.2469 14.3541 52.4722C14.0996 53.567 13.6039 54.5557 13.0168 55.502C12.0068 57.1296 10.7676 58.5743 9.43161 59.9368C9.06316 60.3132 8.6947 60.6922 8.28516 61.0249C8.28516 59.0792 8.28516 57.1349 8.28516 55.1892C8.50119 55.18 8.71591 55.1627 8.92929 55.1256C10.9677 54.7731 12.3634 52.8871 12.0943 50.834C11.9392 49.6505 11.3481 48.7333 10.3581 48.0773C9.73247 47.6624 9.034 47.4729 8.28516 47.4596Z" fill="#4848ED"/>
<path d="M14.4983 51.5348C14.4466 51.3864 14.4452 51.2393 14.4983 51.0908C14.4983 51.2379 14.4983 51.3864 14.4983 51.5348Z" fill="#47484F"/>
</g>
<defs>
<clipPath id="clip0_1455_57139">
<rect width="12.501" height="16" fill="white" transform="translate(2 45.0547)"/>
</clipPath>
</defs>
</svg>
