<svg width="16" height="17" viewBox="0 0 16 17" fill="none" xmlns="http://www.w3.org/2000/svg">
<path fill-rule="evenodd" clip-rule="evenodd" d="M6.5 12.0283C9.53757 12.0283 12 9.56589 12 6.52832C12 3.49075 9.53757 1.02832 6.5 1.02832C3.46243 1.02832 1 3.49075 1 6.52832C1 9.56589 3.46243 12.0283 6.5 12.0283ZM13 6.52832C13 10.1182 10.0899 13.0283 6.5 13.0283C2.91015 13.0283 0 10.1182 0 6.52832C0 2.93847 2.91015 0.0283203 6.5 0.0283203C10.0899 0.0283203 13 2.93847 13 6.52832Z" fill="black"/>
<path d="M10.3439 11.7705C10.3734 11.8105 10.4062 11.8488 10.4424 11.885L14.2929 15.7354C14.6834 16.126 15.3166 16.126 15.7071 15.7354C16.0976 15.3449 16.0976 14.7117 15.7071 14.3212L11.8566 10.4708C11.8204 10.4345 11.7822 10.4017 11.7422 10.3722C11.3499 10.9063 10.878 11.3782 10.3439 11.7705Z" fill="black"/>
</svg>
