<svg width="24" height="24" viewBox="0 0 24 24" fill="none" xmlns="http://www.w3.org/2000/svg">
<path d="M16.6324 3.60001C17.3261 3.59987 17.9984 3.84014 18.5349 4.27991C19.0713 4.71968 19.4388 5.33177 19.5748 6.01201L19.8112 7.20001H20.7004C20.9179 7.20002 21.128 7.27878 21.2919 7.42173C21.4558 7.56468 21.5624 7.76214 21.592 7.97761L21.6004 8.10001C21.6004 8.31749 21.5216 8.52762 21.3787 8.69152C21.2357 8.85543 21.0383 8.96203 20.8228 8.99161L20.7004 9.00001H20.1712L20.3056 9.67201C20.6793 9.78127 21.0074 10.0087 21.2409 10.3203C21.4743 10.6319 21.6005 11.0107 21.6004 11.4V17.4C21.6004 17.8774 21.4107 18.3352 21.0732 18.6728C20.7356 19.0104 20.2778 19.2 19.8004 19.2H19.2004V20.4C19.2004 20.7183 19.074 21.0235 18.8489 21.2485C18.6239 21.4736 18.3187 21.6 18.0004 21.6C17.6821 21.6 17.3769 21.4736 17.1519 21.2485C16.9268 21.0235 16.8004 20.7183 16.8004 20.4V19.2H7.20039V20.4C7.20039 20.7183 7.07396 21.0235 6.84892 21.2485C6.62388 21.4736 6.31865 21.6 6.00039 21.6C5.68213 21.6 5.37691 21.4736 5.15186 21.2485C4.92682 21.0235 4.80039 20.7183 4.80039 20.4V19.2H4.20039C3.723 19.2 3.26516 19.0104 2.9276 18.6728C2.59003 18.3352 2.40039 17.8774 2.40039 17.4V11.4C2.40031 11.0107 2.52646 10.6319 2.75991 10.3203C2.99336 10.0087 3.32153 9.78127 3.69519 9.67201L3.82839 9.00001H3.30039C3.0617 9.00001 2.83278 8.90519 2.66399 8.7364C2.49521 8.56762 2.40039 8.3387 2.40039 8.10001C2.40039 7.86131 2.49521 7.63239 2.66399 7.46361C2.83278 7.29483 3.0617 7.20001 3.30039 7.20001H4.18839L4.42599 6.01201C4.56195 5.33177 4.92945 4.71968 5.46593 4.27991C6.0024 3.84014 6.6747 3.59987 7.36839 3.60001H16.6324ZM19.8004 10.8H4.20039C4.04126 10.8 3.88865 10.8632 3.77613 10.9757C3.6636 11.0883 3.60039 11.2409 3.60039 11.4V17.4C3.60039 17.5591 3.6636 17.7117 3.77613 17.8243C3.88865 17.9368 4.04126 18 4.20039 18H19.8004C19.9595 18 20.1121 17.9368 20.2247 17.8243C20.3372 17.7117 20.4004 17.5591 20.4004 17.4V11.4C20.4004 11.2409 20.3372 11.0883 20.2247 10.9757C20.1121 10.8632 19.9595 10.8 19.8004 10.8ZM7.20039 13.2C7.51865 13.2 7.82387 13.3264 8.04892 13.5515C8.27396 13.7765 8.40039 14.0817 8.40039 14.4C8.40039 14.7183 8.27396 15.0235 8.04892 15.2485C7.82387 15.4736 7.51865 15.6 7.20039 15.6C6.88213 15.6 6.57691 15.4736 6.35186 15.2485C6.12682 15.0235 6.00039 14.7183 6.00039 14.4C6.00039 14.0817 6.12682 13.7765 6.35186 13.5515C6.57691 13.3264 6.88213 13.2 7.20039 13.2ZM16.8004 13.2C17.1187 13.2 17.4239 13.3264 17.6489 13.5515C17.874 13.7765 18.0004 14.0817 18.0004 14.4C18.0004 14.7183 17.874 15.0235 17.6489 15.2485C17.4239 15.4736 17.1187 15.6 16.8004 15.6C16.4821 15.6 16.1769 15.4736 15.9519 15.2485C15.7268 15.0235 15.6004 14.7183 15.6004 14.4C15.6004 14.0817 15.7268 13.7765 15.9519 13.5515C16.1769 13.3264 16.4821 13.2 16.8004 13.2ZM16.6324 4.80001H7.36839C6.95222 4.79998 6.54889 4.94416 6.22706 5.20802C5.90522 5.47188 5.68476 5.83911 5.60319 6.24721L4.93119 9.60001H19.0684L18.3976 6.24721C18.3161 5.83931 18.0958 5.47224 17.7742 5.2084C17.4526 4.94457 17.0496 4.80026 16.6336 4.80001H16.6324Z" fill="#444854"/>
</svg>
