<svg width="40" height="40" viewBox="0 0 40 40" fill="none" xmlns="http://www.w3.org/2000/svg">
<circle cx="20" cy="20" r="20" fill="#EDFDF5"/>
<path d="M20 11C17.5659 11 15.5926 12.9572 15.5926 15.3714C15.5926 17.7857 17.5659 19.7429 20 19.7429C22.4341 19.7429 24.4074 17.7857 24.4074 15.3714C24.4074 12.9572 22.4341 11 20 11Z" fill="#109352"/>
<path d="M22.601 21.6877C20.8779 21.4149 19.1221 21.4149 17.399 21.6877L17.2143 21.7169C14.7865 22.1012 13 24.1783 13 26.6168C13 27.933 14.0758 29 15.4028 29H24.5972C25.9242 29 27 27.933 27 26.6168C27 24.1783 25.2135 22.1012 22.7857 21.7169L22.601 21.6877Z" fill="#109352"/>
</svg>
