<svg width="48" height="48" viewBox="0 0 48 48" fill="none" xmlns="http://www.w3.org/2000/svg">
<rect width="48" height="48" rx="10" fill="#E5E5FE"/>
<path fill-rule="evenodd" clip-rule="evenodd" d="M33.5984 23.9999C33.5984 26.546 32.587 28.9878 30.7867 30.7881C28.9863 32.5885 26.5445 33.5999 23.9984 33.5999C21.4524 33.5999 19.0106 32.5885 17.2102 30.7881C15.4099 28.9878 14.3984 26.546 14.3984 23.9999C14.3984 21.4538 15.4099 19.012 17.2102 17.2117C19.0106 15.4113 21.4524 14.3999 23.9984 14.3999C26.5445 14.3999 28.9863 15.4113 30.7867 17.2117C32.587 19.012 33.5984 21.4538 33.5984 23.9999V23.9999ZM25.1984 19.1999C25.1984 19.5182 25.072 19.8234 24.847 20.0484C24.6219 20.2735 24.3167 20.3999 23.9984 20.3999C23.6802 20.3999 23.375 20.2735 23.1499 20.0484C22.9249 19.8234 22.7984 19.5182 22.7984 19.1999C22.7984 18.8816 22.9249 18.5764 23.1499 18.3514C23.375 18.1263 23.6802 17.9999 23.9984 17.9999C24.3167 17.9999 24.6219 18.1263 24.847 18.3514C25.072 18.5764 25.1984 18.8816 25.1984 19.1999ZM22.7984 22.7999C22.5597 22.7999 22.3308 22.8947 22.162 23.0635C21.9933 23.2323 21.8984 23.4612 21.8984 23.6999C21.8984 23.9386 21.9933 24.1675 22.162 24.3363C22.3308 24.5051 22.5597 24.5999 22.7984 24.5999H23.102C23.1469 24.5999 23.1912 24.61 23.2317 24.6294C23.2722 24.6489 23.3078 24.6771 23.3359 24.7121C23.364 24.7471 23.3839 24.788 23.3941 24.8317C23.4043 24.8754 23.4045 24.9209 23.3948 24.9647L22.844 27.4439C22.7757 27.751 22.7773 28.0695 22.8486 28.3759C22.9199 28.6823 23.0591 28.9687 23.256 29.2141C23.4529 29.4595 23.7023 29.6575 23.986 29.7935C24.2697 29.9295 24.5803 30 24.8948 29.9999H25.1984C25.4371 29.9999 25.6661 29.9051 25.8348 29.7363C26.0036 29.5675 26.0984 29.3386 26.0984 29.0999C26.0984 28.8612 26.0036 28.6323 25.8348 28.4635C25.6661 28.2947 25.4371 28.1999 25.1984 28.1999H24.8948C24.8499 28.1999 24.8056 28.1898 24.7652 28.1704C24.7247 28.151 24.6891 28.1227 24.661 28.0877C24.6329 28.0527 24.613 28.0118 24.6028 27.9681C24.5926 27.9244 24.5923 27.8789 24.602 27.8351L25.1528 25.3559C25.2211 25.0488 25.2196 24.7303 25.1483 24.4239C25.077 24.1175 24.9378 23.8311 24.7409 23.5857C24.544 23.3403 24.2945 23.1423 24.0109 23.0063C23.7272 22.8703 23.4166 22.7998 23.102 22.7999H22.7984Z" fill="#000005"/>
</svg>
