<svg width="357" height="274" viewBox="0 0 357 274" fill="none" xmlns="http://www.w3.org/2000/svg">
<path fill-rule="evenodd" clip-rule="evenodd" d="M126.019 263.549C64.8515 244.755 22.7559 188.287 22.007 124.104C21.3382 66.7893 68.9678 24.6836 123.015 6.12347C170.611 -10.2211 219.901 7.37266 254.082 44.4085C299.093 93.1804 348.482 156.777 314.973 214.118C278.573 276.405 194.827 284.69 126.019 263.549Z" fill="#202024"/>
<g clip-path="url(#clip0_490_33697)">
<path d="M257.102 204.411V217.135H0.665039V204.411H16.8475H20.4387H73.6856H77.2768H130.568H134.159H187.451H190.997H221.19H225.003H257.102Z" fill="#20E682"/>
<path d="M223.097 98.0938C231.166 98.0938 237.727 104.611 237.727 112.724C237.727 120.128 232.185 126.291 225.003 127.222V109.798H221.19V127.222C214.008 126.291 208.466 120.173 208.466 112.724C208.466 104.611 215.027 98.0938 223.097 98.0938Z" fill="white"/>
<path d="M225.002 127.178V204.41H221.189V127.178C221.81 127.266 222.431 127.311 223.096 127.311C223.761 127.311 224.382 127.266 225.002 127.178Z" fill="white"/>
<path d="M225.002 109.754V127.178C224.382 127.266 223.761 127.311 223.096 127.311C222.431 127.311 221.81 127.266 221.189 127.178V109.754H225.002Z" fill="white"/>
<path d="M201.549 58.5908V99.5125H190.997V97.2957H197.692V58.5908H201.549Z" fill="white"/>
<path d="M197.692 58.5908V97.2957H190.997V92.9065H187.45V97.2957H137.839V58.6352H158.278V58.5908H197.692Z" fill="#20E682"/>
<path d="M190.997 99.5127V204.411H187.45V191.243H188.337V114.675H187.45V99.5127H190.997Z" fill="white"/>
<path d="M191.041 97.2959H187.45V99.5127H191.041V97.2959Z" fill="white"/>
<path d="M188.337 114.676H187.45V191.243H188.337V114.676Z" fill="white"/>
<path d="M187.45 114.676H134.159V191.243H187.45V114.676Z" fill="#1BC191"/>
<path d="M187.45 97.2963V99.5131H134.159V92.9071H133.849V58.6357H137.839V97.2963H187.45Z" fill="white"/>
<path d="M158.278 55.665V58.5912H137.839H133.849H73.9962H70.006H49.5674V55.665H158.278Z" fill="white"/>
<path d="M137.839 58.5908H133.849V58.6352H137.839V58.5908Z" fill="white"/>
<path d="M134.16 191.243H130.568V204.366H134.16V191.243Z" fill="white"/>
<path d="M134.16 114.676H130.568V191.243H134.16V114.676Z" fill="white"/>
<path d="M134.16 99.5127H130.568V114.72H134.16V99.5127Z" fill="white"/>
<path d="M134.16 92.9072V99.5132H130.568V97.2964H133.849V92.9072H134.16Z" fill="white"/>
<path d="M133.849 58.6357V92.9071H130.568V97.2963H77.2769V92.9071H73.9961V58.6357H133.849Z" fill="#20E682"/>
<path d="M130.568 114.676H77.2764V191.243H130.568V114.676Z" fill="#1BC191"/>
<path d="M130.568 97.2959H77.2764V99.5127H130.568V97.2959Z" fill="white"/>
<path d="M77.2767 191.243H73.6855V204.366H77.2767V191.243Z" fill="white"/>
<path d="M77.2767 114.676H73.6855V191.243H77.2767V114.676Z" fill="white"/>
<path d="M77.2767 99.5127H73.6855V114.72H77.2767V99.5127Z" fill="white"/>
<path d="M77.2767 97.2964V99.5132H73.6855V92.9072H73.9959V97.2964H77.2767Z" fill="white"/>
<path d="M73.9958 58.6357V92.9071H73.6854V99.5131H20.4385V97.2963H70.0056V58.6357H73.9958Z" fill="white"/>
<path d="M73.9961 58.5908H70.0059V58.6352H73.9961V58.5908Z" fill="white"/>
<path d="M73.7298 114.676H20.4385V191.243H73.7298V114.676Z" fill="#1BC191"/>
<path d="M70.0053 58.6352V97.2957H20.4382V92.9065H16.847V97.2957H10.1523V58.5908H49.5666V58.6352H70.0053Z" fill="#20E682"/>
<path d="M20.4388 114.675V191.243V204.411H16.8477V99.5127H20.4388V114.675Z" fill="white"/>
<path d="M20.4388 97.2959H16.8477V99.5127H20.4388V97.2959Z" fill="white"/>
<path d="M16.8477 97.2957V99.5125H6.2959V58.5908H10.1531V97.2957H16.8477Z" fill="white"/>
<path d="M134.159 114.676H187.45" stroke="#201E1E" stroke-width="1.33007" stroke-miterlimit="10"/>
<path d="M77.2764 114.676H130.568" stroke="#201E1E" stroke-width="1.33007" stroke-miterlimit="10"/>
<path d="M20.4385 114.676H73.6854" stroke="#201E1E" stroke-width="1.33007" stroke-miterlimit="10"/>
<path d="M73.6854 191.243H20.4385" stroke="#201E1E" stroke-width="1.33007" stroke-miterlimit="10"/>
<path d="M130.568 191.243H77.2764" stroke="#201E1E" stroke-width="1.33007" stroke-miterlimit="10"/>
<path d="M187.45 191.243H134.159" stroke="#201E1E" stroke-width="1.33007" stroke-miterlimit="10"/>
<path d="M20.4385 99.5127V114.675V191.243V204.411" stroke="#201E1E" stroke-width="1.33007" stroke-miterlimit="10"/>
<path d="M16.8477 204.411V99.5127" stroke="#201E1E" stroke-width="1.33007" stroke-miterlimit="10"/>
<path d="M190.997 99.5127V204.411" stroke="#201E1E" stroke-width="1.33007" stroke-miterlimit="10"/>
<path d="M187.45 204.411V191.243V114.675V99.5127" stroke="#201E1E" stroke-width="1.33007" stroke-miterlimit="10"/>
<path d="M77.2764 99.5127V114.675V191.243V204.411" stroke="#201E1E" stroke-width="1.33007" stroke-miterlimit="10"/>
<path d="M73.6855 204.411V191.243V114.675V99.5127" stroke="#201E1E" stroke-width="1.33007" stroke-miterlimit="10"/>
<path d="M134.159 99.5127V114.675V191.243V204.411" stroke="#201E1E" stroke-width="1.33007" stroke-miterlimit="10"/>
<path d="M130.568 204.411V191.243V114.675V99.5127" stroke="#201E1E" stroke-width="1.33007" stroke-miterlimit="10"/>
<path d="M49.5674 58.5912V55.665H158.278V58.5912" stroke="#201E1E" stroke-width="1.33007" stroke-miterlimit="10"/>
<path d="M133.849 58.5908H137.839" stroke="#201E1E" stroke-width="1.33007" stroke-miterlimit="10"/>
<path d="M70.0059 58.5908H73.9961" stroke="#201E1E" stroke-width="1.33007" stroke-miterlimit="10"/>
<path d="M197.692 58.5908H201.549V99.5125H190.998H187.451H134.16H130.568H77.2771H73.6859H20.4389H16.8477H6.2959V58.5908H10.1531" stroke="#201E1E" stroke-width="1.33007" stroke-miterlimit="10"/>
<path d="M70.0053 58.6352V97.2957H20.4382H16.847H10.1523V58.5908H49.5666H70.0053V58.6352Z" stroke="#201E1E" stroke-width="1.33007" stroke-miterlimit="10"/>
<path d="M133.849 92.9065V97.2957H130.568H77.2769H73.9961V92.9065V58.6352V58.5908H133.849V58.6352V92.9065Z" stroke="#201E1E" stroke-width="1.33007" stroke-miterlimit="10"/>
<path d="M197.692 58.5908V97.2957H190.997H187.45H137.839V58.6352V58.5908H158.278H197.692Z" stroke="#201E1E" stroke-width="1.33007" stroke-miterlimit="10"/>
<path d="M225.003 204.411H257.102V217.135H0.665039V204.411H16.8475H20.4387H73.6856H77.2768H130.568H134.159H187.451H190.997H221.19" stroke="#201E1E" stroke-width="1.33007" stroke-miterlimit="10"/>
<path d="M225.002 127.178V204.41H221.189V127.178" stroke="#201E1E" stroke-width="1.33007" stroke-miterlimit="10"/>
<path d="M221.19 127.178C214.008 126.247 208.466 120.129 208.466 112.681C208.466 104.611 214.983 98.0498 223.097 98.0498C231.166 98.0498 237.727 104.567 237.727 112.681C237.727 120.085 232.185 126.247 225.003 127.178C224.382 127.267 223.762 127.311 223.097 127.311C222.432 127.311 221.811 127.267 221.19 127.178Z" stroke="#201E1E" stroke-width="1.33007" stroke-miterlimit="10"/>
<path d="M42.9167 217.135H36.8428C38.1285 217.135 39.0152 217.047 39.0152 216.958C39.0152 216.559 37.9955 215.85 37.9955 215.85L36.3994 215.362L37.9955 214.298C37.9955 214.298 40.966 214.786 41.8527 215.362C42.7394 215.983 42.9167 217.135 42.9167 217.135Z" fill="black"/>
<path d="M37.9958 215.849C37.9958 215.849 39.0155 216.514 39.0155 216.958C39.0155 217.046 38.1731 217.091 36.843 217.135C32.7198 217.179 24.1631 216.958 24.1631 216.958L33.6066 214.563L36.3997 215.406L37.9958 215.849Z" fill="black"/>
<path d="M35.9116 132.854C37.2417 135.204 38.3944 137.553 38.3057 138.662C38.0397 141.233 36.3993 145.223 36.3993 145.223V146.465H26.1578L26.0248 145.135L26.8228 142.475C26.8228 142.475 31.2564 138.174 30.7687 135.558C30.281 132.943 24.6504 126.78 24.6504 126.78C25.1824 126.248 25.5814 125.938 25.5814 125.938C25.5814 125.938 32.1874 135.425 35.9116 132.854Z" fill="#201E1E"/>
<path d="M37.995 214.342L36.399 215.362L33.6502 214.52L30.6797 211.106L34.2709 192.662L36.5763 159.81V192.219L34.3595 211.416L37.995 214.342Z" fill="#B7745C"/>
<path d="M31.9214 123.41C30.3697 123.011 29.3056 122.302 28.5519 121.637L31.9214 125.316V126.602C31.9214 126.602 34.0939 129.706 35.9116 132.809C32.1874 135.381 25.5814 125.804 25.5814 125.804L25.5371 119.509L35.0249 110.109L37.419 116.76L36.5323 117.336C36.5323 117.336 35.9116 124.385 32.0988 123.499C32.0101 123.454 31.9658 123.454 31.9214 123.41Z" fill="#B7745C"/>
<path d="M36.3993 146.42L36.5766 159.809L34.2712 192.662L30.68 211.105L33.6505 214.519L24.207 216.958L26.6898 210.839L27.6209 188.494L26.2465 170.583L28.0199 171.159L28.9066 171.78L29.9263 171.425L29.8376 169.696L30.5913 167.391L27.8869 163.666L26.1578 146.42H36.3993Z" fill="#B7745C"/>
<path d="M35.0249 110.109L25.5371 119.597L27.1332 116.183C27.1332 116.183 26.8672 115.075 26.5568 113.568C26.2465 112.06 28.5519 113.834 28.5519 113.834C28.5519 113.834 28.7293 112.415 29.9707 111.351C31.2564 110.242 35.0249 110.109 35.0249 110.109Z" fill="#B7745C"/>
<path d="M35.025 110.11C35.025 110.11 31.2565 110.243 30.0151 111.307C28.7737 112.371 28.5964 113.789 28.5964 113.789C28.5964 113.789 26.2909 112.06 26.6013 113.523C26.9116 115.031 27.1777 116.139 27.1777 116.139L25.5816 119.553L25.5372 116.361C25.5372 116.361 22.9215 112.947 25.5816 109.578C26.2023 109.179 26.7343 108.691 27.1333 108.115C31.7886 104.701 35.025 110.11 35.025 110.11Z" fill="#201E1E"/>
<path d="M31.9213 123.41V125.317L28.5518 121.637C29.3055 122.346 30.4138 123.055 31.9213 123.41Z" fill="black"/>
<path d="M26.8232 142.43L26.0251 145.09L26.1581 146.42L27.8429 163.667L30.5474 167.391L29.7937 169.696L29.8823 171.381L28.8626 171.736L27.9759 171.115L26.2025 170.539L24.9167 170.095L24.4291 164.953C24.4291 164.953 20.0842 146.42 19.7295 145.046L20.5719 139.814C20.9266 136.179 21.3699 132.588 21.6803 131.302C22.1236 129.484 23.6754 127.755 24.6507 126.735C24.6507 126.735 30.2813 132.942 30.769 135.514C31.2567 138.085 26.8232 142.43 26.8232 142.43Z" fill="#B7745C"/>
<path d="M28.0644 105.1C28.0644 106.252 27.7097 107.272 27.089 108.159C27.0446 108.203 26.956 108.247 26.9116 108.292C26.3353 108.735 25.8919 109.178 25.5372 109.622C24.7392 110.109 23.7638 110.42 22.7441 110.42C19.8179 110.42 17.4238 108.026 17.4238 105.1C17.4238 102.173 19.8179 99.7793 22.7441 99.7793C25.6702 99.7793 28.0644 102.173 28.0644 105.1Z" fill="#201E1E"/>
<path d="M26.9115 108.292C26.9558 108.248 27.0445 108.204 27.0889 108.159C26.6898 108.736 26.1578 109.268 25.5371 109.622C25.8918 109.179 26.3351 108.691 26.9115 108.292Z" fill="white"/>
<path d="M28.5525 121.637C27.4885 120.662 27.1338 119.73 27.1338 119.73" stroke="#201E1E" stroke-width="1.33007" stroke-miterlimit="10"/>
<path d="M27.0889 108.115C31.7884 104.701 35.0249 110.11 35.0249 110.11L37.419 116.76L36.5323 117.336C36.5323 117.336 35.9116 124.386 32.0988 123.499C32.0544 123.499 32.0101 123.499 31.9658 123.455C30.414 123.056 29.35 122.346 28.5963 121.681" stroke="#201E1E" stroke-width="1.33007" stroke-miterlimit="10"/>
<path d="M28.5966 136.312L26.7788 142.386L25.9808 145.046L26.1138 146.376L27.7986 163.623L30.503 167.347L29.7493 169.652L29.838 171.337L28.8183 171.692L27.9316 171.071L26.1581 170.495L24.8724 170.051L24.4291 164.953C24.4291 164.953 20.0842 146.421 19.7295 145.046L20.5719 139.815C20.9266 136.179 21.3699 132.588 21.6803 131.302C22.1236 129.484 23.6754 127.755 24.6507 126.736C25.1828 126.204 25.5818 125.893 25.5818 125.893L25.5374 119.598L25.4931 116.405C25.4931 116.405 22.8773 112.992 25.5374 109.622" stroke="#201E1E" stroke-width="1.33007" stroke-miterlimit="10"/>
<path d="M31.9214 123.321V123.41V125.316V126.602C31.9214 126.602 34.0939 129.706 35.9116 132.809C37.2417 135.159 38.3944 137.509 38.3057 138.617C38.0397 141.188 36.3993 145.179 36.3993 145.179V146.42L36.5766 159.809L34.2712 192.662L30.68 211.15L33.6505 214.564L36.4436 215.406L38.0397 215.894C38.0397 215.894 39.0594 216.559 39.0594 217.002C39.0594 217.091 38.2171 217.135 36.887 217.18C32.7638 217.224 24.207 217.002 24.207 217.002L26.7342 210.884L27.6209 188.539L26.2465 170.627" stroke="#201E1E" stroke-width="1.33007" stroke-miterlimit="10"/>
<path d="M36.5771 159.81V192.219L34.3604 211.416L37.9959 214.342C37.9959 214.342 40.9663 214.83 41.8531 215.406C42.7398 215.983 42.9171 217.135 42.9171 217.135H36.8431" stroke="#201E1E" stroke-width="1.33007" stroke-miterlimit="10"/>
<path d="M31.9213 125.361L28.5518 121.637" stroke="#201E1E" stroke-width="1.33007" stroke-miterlimit="10"/>
<path d="M35.0255 110.109C35.0255 110.109 31.257 110.242 30.0156 111.306C28.7742 112.37 28.5968 113.789 28.5968 113.789C28.5968 113.789 26.2914 112.06 26.6017 113.523C26.9121 115.031 27.1781 116.139 27.1781 116.139L25.582 119.553" stroke="#201E1E" stroke-width="1.33007" stroke-miterlimit="10"/>
<path d="M25.5372 109.622C24.7392 110.109 23.7638 110.42 22.7441 110.42C19.8179 110.42 17.4238 108.026 17.4238 105.1C17.4238 102.173 19.8179 99.7793 22.7441 99.7793C25.6702 99.7793 28.0644 102.173 28.0644 105.1C28.0644 106.252 27.7097 107.272 27.089 108.159C26.6899 108.735 26.1579 109.223 25.5372 109.622Z" stroke="#201E1E" stroke-width="1.33007" stroke-miterlimit="10"/>
<path d="M25.582 125.849C25.582 125.849 32.188 135.381 35.9122 132.854" stroke="#201E1E" stroke-width="1.33007" stroke-miterlimit="10"/>
<path d="M24.6504 126.735C24.6504 126.735 30.281 132.942 30.7687 135.514C31.2564 138.085 26.8228 142.43 26.8228 142.43" stroke="#201E1E" stroke-width="1.33007" stroke-miterlimit="10"/>
<path d="M36.3997 146.42H26.1582" stroke="#201E1E" stroke-width="1.33007" stroke-miterlimit="10"/>
<path d="M24.207 216.958L33.6505 214.52" stroke="#201E1E" stroke-width="1.33007" stroke-miterlimit="10"/>
<path d="M36.3994 215.362L37.9955 214.342" stroke="#201E1E" stroke-width="1.33007" stroke-miterlimit="10"/>
<path d="M36.488 150.145L38.6604 185.436L37.419 208.667H24.207L24.9164 170.14L28.0199 171.16L28.9066 171.78L29.9263 171.426L29.8376 169.696L30.5913 167.391L27.8869 163.667L26.5125 150.145H36.488Z" fill="#454FE4"/>
<path d="M26.5125 150.145H36.488L38.6604 185.436L37.419 208.667H24.207L24.9164 170.14L28.0199 171.16L28.9066 171.78L29.9263 171.426L29.8376 169.696L30.5913 167.391L27.8869 163.667L26.5125 150.145Z" stroke="#201E1E" stroke-width="1.33007" stroke-miterlimit="10"/>
<path d="M32.6748 208.668L35.0246 182.067L34.3596 157.638" stroke="#201E1E" stroke-width="1.33007" stroke-miterlimit="10"/>
<path d="M74.5722 217.135H67.9218C69.3406 217.091 70.2716 217.046 70.2716 216.958C70.2716 216.514 69.1632 215.761 69.1632 215.761L64.375 214.297L67.5228 212.79L69.1632 214.076C69.1632 214.076 72.3997 214.608 73.3751 215.228C74.3948 215.894 74.5722 217.135 74.5722 217.135Z" fill="black"/>
<path d="M71.8681 97.4727C71.8681 97.4727 73.7745 98.5367 66.5922 101.596L65.9271 99.6894C65.9271 99.6894 65.9271 99.6451 65.8828 99.6008L71.8681 97.4727Z" fill="white"/>
<path d="M69.1637 215.716C69.1637 215.716 70.2721 216.469 70.2721 216.913C70.2721 217.001 69.3411 217.09 67.9223 217.09C63.4001 217.179 54.001 216.913 54.001 216.913L55.198 214.031L59.2769 215.583L63.0454 212.745L64.3755 214.253L69.1637 215.716Z" fill="black"/>
<path d="M67.5677 148.813L69.6515 182.375L66.1934 207.868H65.5283L67.6564 189.779V154.222L67.5677 148.813Z" fill="white"/>
<path d="M58.8332 112.325L62.5573 116.404V117.823C62.5573 117.823 62.8234 118.355 63.178 119.197C58.8332 116.404 55.5523 116.936 55.5523 116.936L55.4637 106.562C55.4637 106.562 54.5326 105.365 54.2666 103.68L65.8382 99.5566C65.8825 99.601 65.8825 99.6453 65.8825 99.6453L66.5475 101.552L68.4983 106.961L67.5229 107.581C67.5229 107.581 66.8579 115.296 62.646 114.32C62.6017 114.32 62.5573 114.276 62.513 114.276C60.8283 113.877 59.6312 113.123 58.8332 112.325Z" fill="#B7745C"/>
<path d="M67.6564 154.223V189.78L65.5283 207.869H63.0898L64.2869 194.435L65.0849 190.267L65.883 178.696L67.6564 154.223Z" fill="white"/>
<path d="M65.6608 178.652L64.2864 194.435L61.6707 207.869H56.8824L57.7691 185.701L56.2617 166.105L57.9908 166.681L58.9218 167.346L59.0992 167.302L59.1879 167.346L60.3406 166.947L60.2519 165.085L61.05 162.558L58.0795 158.479L57.2371 149.967L56.9711 147.307L67.5229 148.105L67.5673 148.814L67.6559 154.223L65.8825 178.696L65.6608 178.652Z" fill="white"/>
<path d="M59.0107 127.134L50.8086 125.139L50.5869 126.823C50.8086 125.094 51.0303 123.676 51.2076 122.966C51.917 119.951 55.5082 116.981 55.5082 116.981C55.5082 116.981 58.789 116.449 63.1339 119.242C64.4639 122.168 67.3901 128.952 67.1684 131.168C66.858 134.006 67.3901 138.218 67.3901 138.218L67.5231 148.814L67.4787 148.104L56.9269 147.351L55.9958 138.085L59.0107 127.134Z" fill="#FAD973"/>
<path d="M63.0451 212.745L61.1387 210.528L61.6707 207.868H63.0894H65.5279L65.2175 210.839L67.5673 212.745L64.3752 214.297L63.0451 212.745Z" fill="#B7745C"/>
<path d="M65.8832 178.696L65.0851 190.267L64.2871 194.435L65.6615 178.651L65.8832 178.696Z" fill="white"/>
<path d="M65.8385 99.6012L54.267 103.724C54.001 101.995 54.3556 99.7343 57.0158 97.6948C61.8927 93.882 65.3508 98.8475 65.8385 99.6012Z" fill="white"/>
<path d="M61.6709 207.868L64.2867 194.435L63.0896 207.868H61.6709Z" fill="white"/>
<path d="M63.0456 212.745L59.2771 215.583L55.1982 214.031L63.0456 212.745Z" fill="#B7745C"/>
<path d="M63.0456 212.745L55.1982 214.031L56.7943 210.218L56.883 207.868H61.6712L61.1392 210.528L63.0456 212.745Z" fill="#B7745C"/>
<path d="M62.5132 114.321V116.449L58.7891 112.37C59.6314 113.124 60.8285 113.878 62.5132 114.321Z" fill="black"/>
<path d="M58.0797 158.479L61.0502 162.557L60.2521 165.085L60.3408 166.947L59.2324 167.346L59.1437 167.301L60.1191 166.947L60.0304 165.085L60.8285 162.557L57.858 158.479L57.0156 149.922C57.1043 149.922 57.193 149.966 57.2816 149.966L58.0797 158.479Z" fill="white"/>
<path d="M57.8136 158.478L60.7841 162.557L59.9861 165.084L60.0747 166.947L59.0993 167.301L58.2126 166.681L56.2619 166.016L54.8431 165.528L54.2668 159.853C54.2668 159.853 53.5131 156.705 52.582 152.759C52.3603 151.873 52.1387 150.897 51.917 149.966C53.2914 149.656 54.9761 149.523 56.9269 149.922L57.8136 158.478Z" fill="#B7745C"/>
<path d="M59.0992 167.301L58.9218 167.346L57.9908 166.681L56.2617 166.104V166.016L58.2125 166.681L59.0992 167.301Z" fill="#B7745C"/>
<path d="M59.0108 127.133L56.0404 138.04L56.9714 147.306H56.7054L56.9714 149.922C55.0206 149.523 53.3359 149.656 51.9615 149.966C50.6758 144.557 49.3457 138.793 49.124 138.04L50.0551 132.276C50.2324 130.325 50.4541 128.419 50.6758 126.778L50.8974 125.094L59.0108 127.133Z" fill="#FAD973"/>
<path d="M56.2619 166.105L57.7693 185.701L56.8826 207.869H55.5969L54.5771 165.528L56.2619 166.105Z" fill="white"/>
<path d="M56.9711 147.307L57.2371 149.967C57.1484 149.967 57.0598 149.922 56.9711 149.922L56.7051 147.307H56.9711Z" fill="white"/>
<path d="M51.6954 150.055L52.5821 152.803C46.2422 153.513 47.9712 151.872 47.9712 151.872C47.9712 151.872 49.3456 150.675 51.6954 150.055Z" fill="#FAD973"/>
<path d="M49.0801 138.04C49.3017 138.794 50.6318 144.557 51.9175 149.966C51.8289 149.966 51.7402 150.011 51.6959 150.011C49.3461 150.631 47.9717 151.828 47.9717 151.828L49.0801 138.04Z" fill="#FAD973"/>
<path d="M49.0801 138.041L50.5875 126.779C50.3658 128.42 50.1885 130.326 49.9668 132.277L49.0801 138.041Z" fill="white"/>
<path d="M50.6309 126.824C50.8525 125.095 51.0742 123.676 51.2516 122.967C51.9609 119.952 55.5521 116.981 55.5521 116.981L55.4634 106.607C55.4634 106.607 54.5324 105.41 54.2664 103.725C54.0004 101.996 54.355 99.7347 57.0152 97.6953C61.8921 93.9268 65.3502 98.848 65.8379 99.646C65.8823 99.6904 65.8823 99.7347 65.8823 99.7347L66.5473 101.641L68.4981 107.05L67.5227 107.671C67.5227 107.671 66.8577 115.385 62.6458 114.41C62.6014 114.41 62.5571 114.365 62.5128 114.365C60.828 113.922 59.631 113.168 58.7886 112.415C57.6359 111.351 57.2369 110.331 57.2369 110.331" stroke="#201E1E" stroke-width="1.33007" stroke-miterlimit="10"/>
<path d="M59.0993 167.302L58.2126 166.681L56.2619 166.016L54.8431 165.529L54.2668 159.854C54.2668 159.854 53.5131 156.706 52.582 152.76C52.3603 151.873 52.1387 150.898 51.917 149.967" stroke="#201E1E" stroke-width="1.33007" stroke-miterlimit="10"/>
<path d="M59.3654 125.937L59.0107 127.134" stroke="#201E1E" stroke-width="1.33007" stroke-miterlimit="10"/>
<path d="M56.2617 166.105V166.017" stroke="#201E1E" stroke-width="1.33007" stroke-miterlimit="10"/>
<path d="M61.671 207.869L61.139 210.574L63.0454 212.79L64.3755 214.298L69.1637 215.761C69.1637 215.761 70.2721 216.515 70.2721 216.958C70.2721 217.047 69.3411 217.135 67.9223 217.135C63.4001 217.224 54.001 216.958 54.001 216.958L55.198 214.076L56.7941 210.219L56.8828 207.869" stroke="#201E1E" stroke-width="1.33007" stroke-miterlimit="10"/>
<path d="M62.5127 114.188V114.276V116.404V117.823C62.5127 117.823 62.7787 118.355 63.1334 119.197C64.4635 122.124 67.3896 128.907 67.1679 131.124C66.8576 133.961 67.3896 138.173 67.3896 138.173L67.5226 148.769" stroke="#201E1E" stroke-width="1.33007" stroke-miterlimit="10"/>
<path d="M65.5275 207.869L65.1729 210.884L67.5226 212.79L69.163 214.076C69.163 214.076 72.3995 214.608 73.3749 215.229C74.3503 215.894 74.572 217.135 74.572 217.135H67.9217" stroke="#201E1E" stroke-width="1.33007" stroke-miterlimit="10"/>
<path d="M62.5129 116.405L58.833 112.326" stroke="#201E1E" stroke-width="1.33007" stroke-miterlimit="10"/>
<path d="M54.2666 103.725L65.8382 99.6017L71.8678 97.4736C71.8678 97.4736 73.7742 98.5377 66.5919 101.597" stroke="#201E1E" stroke-width="1.33007" stroke-miterlimit="10"/>
<path d="M55.1973 214.032L59.2761 215.584L63.0446 212.746" stroke="#201E1E" stroke-width="1.33007" stroke-miterlimit="10"/>
<path d="M67.5672 212.746L64.375 214.298" stroke="#201E1E" stroke-width="1.33007" stroke-miterlimit="10"/>
<path d="M56.9713 147.307L67.5231 148.105L67.5674 148.814L69.6512 182.376L66.1931 207.869H65.528H63.0896H61.6708H56.8826H55.5969L54.5771 165.529L56.2619 166.105L57.991 166.681L58.922 167.346L59.0994 167.302L60.0748 166.947L59.9861 165.085L60.7841 162.558L57.8136 158.479L56.9713 149.922" stroke="#201E1E" stroke-width="1.33007" stroke-miterlimit="10"/>
<path d="M63.0898 207.869L64.2869 194.435L65.6613 178.652L64.9519 151.873" stroke="#201E1E" stroke-width="1.33007" stroke-miterlimit="10"/>
<path d="M55.5527 116.981C55.5527 116.981 58.8336 116.449 63.1784 119.242" stroke="#201E1E" stroke-width="1.33007" stroke-miterlimit="10"/>
<path d="M57.2374 149.967C57.1487 149.967 57.0601 149.923 56.9714 149.923C55.0206 149.524 53.3359 149.657 51.9615 149.967C51.8728 149.967 51.7841 150.011 51.7398 150.011C49.39 150.632 48.0156 151.829 48.0156 151.829L49.124 138.041L50.6314 126.779L50.8531 125.095L59.0552 127.09L56.0847 137.996L57.0157 147.262L57.2374 149.967Z" stroke="#201E1E" stroke-width="1.33007" stroke-miterlimit="10"/>
<path d="M47.9712 151.873C47.9712 151.873 46.2422 153.514 52.5821 152.804L51.6954 150.056" stroke="#201E1E" stroke-width="1.33007" stroke-miterlimit="10"/>
<path d="M111.637 217.134H105.252C106.627 217.134 107.513 217.046 107.513 216.957C107.513 216.514 106.449 215.804 106.449 215.804L101.883 214.43L98.7793 210.839L99.267 208.4L100.641 210.75L102.991 208.4L102.681 211.149L106.494 214.208C106.494 214.208 109.597 214.696 110.528 215.317C111.459 215.937 111.637 217.134 111.637 217.134Z" fill="#454FE4"/>
<path d="M105.253 129.971C106.405 131.966 107.248 133.872 107.159 134.803C106.893 137.508 104.765 137.508 104.765 137.508L104.942 150.986L104.721 147.572H102.681V138.439H100.908C100.819 129.173 92.9717 121.769 92.9717 121.769C93.2377 121.503 93.415 121.37 93.415 121.37L93.7697 119.862L93.9027 119.907C93.9027 119.818 105.519 134.936 105.253 129.971Z" fill="#201E1E"/>
<path d="M106.449 215.804C106.449 215.804 107.513 216.514 107.513 216.957C107.513 217.046 106.626 217.134 105.252 217.134C100.951 217.223 91.9512 216.957 91.9512 216.957L94.6113 210.528L94.7 208.4L96.5621 210.75L99.2665 208.4L98.7788 210.839L101.882 214.43L106.449 215.804Z" fill="#454FE4"/>
<path d="M104.897 150.986L106.892 182.819L105.651 206.051H103.257L104.986 190.977V156.927L104.897 150.986Z" fill="white"/>
<path d="M100.11 118.754C98.4691 118.355 97.3164 117.602 96.5627 116.892C95.4543 115.873 95.0996 114.897 95.0996 114.897L94.8779 114.853L95.4986 112.015C95.4986 112.015 95.1439 110.641 95.0553 109.355C94.9666 108.069 97.1834 109.355 97.1834 109.355L102.149 103.281C102.903 104.035 103.346 104.744 103.346 104.744L105.873 111.705L104.942 112.281C104.942 112.281 104.277 119.685 100.287 118.754C100.198 118.754 100.154 118.754 100.11 118.754Z" fill="#B7745C"/>
<path d="M105.252 129.971C105.563 134.937 93.9025 119.862 93.9025 119.862L93.7695 119.818L94.8779 114.853L95.0996 114.897C95.0996 114.897 95.4986 115.872 96.5627 116.892L100.11 120.793V122.168C100.11 122.124 103.169 126.291 105.252 129.971Z" fill="#B7745C"/>
<path d="M104.986 156.927V190.976L103.257 206.051H100.907L101.927 194.656L102.548 191.42L103.39 179.494L104.986 156.927Z" fill="white"/>
<path d="M103.257 179.45L101.927 194.657L99.7103 206.051H94.7891L95.5428 187.031L94.124 168.233L95.9861 168.854L96.9172 169.519L97.9812 169.12V168.854L98.1586 168.765L98.0699 167.08L98.8236 164.775L98.7349 164.642H102.636V147.528H104.676L104.898 150.986L104.986 156.927L103.39 179.494L103.257 179.45Z" fill="white"/>
<path d="M103.39 179.494L102.547 191.42L101.927 194.656L103.257 179.449L103.39 179.494Z" fill="white"/>
<path d="M103.257 206.051L102.991 208.401L100.597 210.706L99.2666 208.401L99.71 206.051H100.907H103.257Z" fill="#B7745C"/>
<path d="M102.637 147.528V164.642H98.7353L96.0752 161.051L94.7451 147.528H102.637Z" fill="#FAD973"/>
<path d="M99.3556 138.395H100.863H102.636V147.528H94.7447L96.0748 161.05L98.7349 164.641H98.6906L95.8088 161.006L93.9023 141.454L94.7447 138.395H99.3556Z" fill="#FAD973"/>
<path d="M92.3059 109.222C91.8625 107.537 91.9069 105.054 94.7887 102.838C98.0695 100.311 100.685 101.862 102.104 103.281L97.1384 109.355C97.1384 109.355 94.9217 108.069 95.0103 109.355C95.099 110.641 95.4537 112.015 95.4537 112.015L94.8773 114.853L93.7689 119.818L93.4143 121.326L93.3256 111.394C93.3256 111.394 92.6606 110.508 92.3059 109.222Z" fill="#201E1E"/>
<path d="M99.71 206.05L101.927 194.656L100.907 206.05H99.71Z" fill="white"/>
<path d="M100.863 138.395H99.356C99.223 130.813 93.016 123.587 92.085 122.567C92.3953 122.212 92.7057 121.946 92.9273 121.725C92.9717 121.725 100.775 129.084 100.863 138.395Z" fill="white"/>
<path d="M100.109 118.754V120.749L96.5625 116.848C97.3162 117.601 98.4689 118.355 100.109 118.754Z" fill="black"/>
<path d="M99.7101 206.051L99.2667 208.401L96.5179 210.706L94.7002 208.401L94.7889 206.051H99.7101Z" fill="#B7745C"/>
<path d="M95.2322 136.532L88.2715 134.493C88.3602 133.784 88.4045 133.119 88.4932 132.454C88.6262 131.168 88.8035 129.971 88.9365 128.995L89.6902 125.892C90.2666 124.606 91.2863 123.365 92.1287 122.522C93.0597 123.542 99.2667 130.769 99.3997 138.35H94.7888L95.2322 136.532Z" fill="#201E1E"/>
<path d="M98.7347 164.641L98.8234 164.774L98.0697 167.08L98.1584 168.765L97.981 168.853L97.8924 167.346L98.6904 164.907L95.8086 161.006L98.6904 164.641H98.7347Z" fill="#B7745C"/>
<path d="M95.8087 161.006L98.6462 164.908L97.8925 167.346L97.9368 168.853L97.0944 169.164L96.2077 168.543L93.1042 167.523V167.922L92.7052 167.789L92.1732 162.38C92.1732 162.38 92.1732 162.292 92.1289 162.159C92.1289 162.07 92.0845 161.981 92.0845 161.893C91.3752 158.878 87.6066 142.784 87.252 141.498L87.7396 138.439L88.1387 136.001C88.183 135.513 88.2273 135.025 88.2717 134.582L95.2323 136.621L94.7447 138.484L93.9023 141.543L95.8087 161.006Z" fill="#B7745C"/>
<path d="M97.981 168.853V169.12L96.917 169.519L95.9859 168.853L94.1238 168.233L93.1484 167.922V167.523L96.2519 168.543L97.1386 169.164L97.981 168.853Z" fill="white"/>
<path d="M94.1242 168.232L95.5429 187.03L94.7892 206.05H92.4395L93.1488 167.922L94.1242 168.232Z" fill="white"/>
<path d="M93.3256 111.394L93.4143 121.325C93.4143 121.325 93.237 121.458 92.9709 121.724L91.9956 122.434C91.9956 122.434 92.0399 122.478 92.1286 122.567C91.2862 123.409 90.3108 124.65 89.6901 125.936C88.9807 126.646 88.094 128.02 87.163 129.527C86.631 128.33 86.0546 126.912 85.6999 125.67C84.7689 122.7 87.0743 121.503 88.1827 120.749C89.2911 119.995 88.8921 119.197 88.2714 116.847C87.6063 114.498 91.0202 113.567 91.5079 113.123C91.9512 112.68 92.3502 109.31 92.3502 109.222C92.6606 110.507 93.3256 111.394 93.3256 111.394Z" fill="#201E1E"/>
<path d="M91.9512 122.434L92.9266 121.725C92.7049 121.946 92.3945 122.212 92.0842 122.567C91.9955 122.478 91.9512 122.434 91.9512 122.434Z" fill="white"/>
<path d="M92.1733 162.336L92.3063 164.641H81.5771V138.395H82.3309H84.0599H87.7398L87.2521 141.454L92.0847 161.848L92.129 162.114C92.1733 162.291 92.1733 162.336 92.1733 162.336Z" fill="#FAD973"/>
<path d="M89.6463 125.937C89.4689 126.291 89.3359 126.646 89.2472 127.001C89.1586 127.444 89.0256 128.153 88.8926 129.04L87.8285 131.124C87.6068 130.68 87.3852 130.104 87.1191 129.528C88.0502 128.02 88.9812 126.646 89.6463 125.937Z" fill="white"/>
<path d="M89.6463 125.937L88.8926 129.04C89.0256 128.153 89.1586 127.444 89.2473 127.001C89.3803 126.646 89.5133 126.291 89.6463 125.937Z" fill="white"/>
<path d="M87.8281 131.124L88.8922 129.04C88.7592 130.015 88.5818 131.212 88.4488 132.498C88.4932 132.454 88.2271 131.922 87.8281 131.124Z" fill="black"/>
<path d="M87.8287 131.123L84.0601 138.394H82.3311C82.3311 138.394 84.8138 133.34 87.1193 129.527C87.3853 130.148 87.6513 130.68 87.8287 131.123Z" fill="white"/>
<path d="M92.9709 121.724C93.2369 121.458 93.4143 121.325 93.4143 121.325L93.3256 111.394C93.3256 111.394 92.6606 110.552 92.3059 109.266C91.8625 107.581 91.9069 105.098 94.7887 102.882C98.0695 100.354 100.685 101.906 102.104 103.325C102.858 104.079 103.301 104.788 103.301 104.788L105.828 111.749L104.897 112.325C104.897 112.325 104.232 119.729 100.242 118.798C100.198 118.798 100.153 118.798 100.109 118.754C98.4685 118.355 97.3158 117.601 96.5621 116.892C95.4537 115.872 95.099 114.897 95.099 114.897" stroke="#201E1E" stroke-width="1.33007" stroke-miterlimit="10"/>
<path d="M89.6465 125.936C90.2228 124.65 91.2426 123.409 92.0849 122.566" stroke="#201E1E" stroke-width="1.33007" stroke-miterlimit="10"/>
<path d="M88.4932 132.497C88.6262 131.212 88.8035 130.014 88.9365 129.039" stroke="#201E1E" stroke-width="1.33007" stroke-miterlimit="10"/>
<path d="M87.7402 138.395L88.1393 135.956C88.1836 135.469 88.2279 134.981 88.2723 134.537C88.3609 133.828 88.4053 133.163 88.4939 132.498" stroke="#201E1E" stroke-width="1.33007" stroke-miterlimit="10"/>
<path d="M92.1289 162.113C92.1289 162.025 92.0845 161.936 92.0845 161.847C91.3752 158.833 87.6066 142.739 87.252 141.453" stroke="#201E1E" stroke-width="1.33007" stroke-miterlimit="10"/>
<path d="M93.1482 167.922L92.7492 167.789L92.1729 162.336" stroke="#201E1E" stroke-width="1.33007" stroke-miterlimit="10"/>
<path d="M95.8086 161.006L98.6904 164.907L97.8924 167.346L97.981 168.853" stroke="#201E1E" stroke-width="1.33007" stroke-miterlimit="10"/>
<path d="M96.7402 131.034L95.2328 136.532L94.7451 138.394" stroke="#201E1E" stroke-width="1.33007" stroke-miterlimit="10"/>
<path d="M99.7099 206.05L99.2665 208.355L98.7788 210.794L101.882 214.385L106.449 215.759C106.449 215.759 107.513 216.469 107.513 216.912C107.513 217.001 106.626 217.089 105.252 217.089C100.951 217.178 91.9512 216.912 91.9512 216.912L94.6113 210.483L94.7 208.355L94.7886 206.05" stroke="#201E1E" stroke-width="1.33007" stroke-miterlimit="10"/>
<path d="M100.109 118.665V118.754V120.749V122.123C100.109 122.123 103.169 126.291 105.252 129.926C106.405 131.921 107.247 133.828 107.159 134.759C106.893 137.463 104.765 137.463 104.765 137.463L104.942 150.941" stroke="#201E1E" stroke-width="1.33007" stroke-miterlimit="10"/>
<path d="M103.257 206.05L102.991 208.355L102.681 211.104L106.494 214.163C106.494 214.163 109.597 214.651 110.528 215.272C111.459 215.892 111.681 217.089 111.681 217.089H105.296" stroke="#201E1E" stroke-width="1.33007" stroke-miterlimit="10"/>
<path d="M100.109 120.749L96.5625 116.892" stroke="#201E1E" stroke-width="1.33007" stroke-miterlimit="10"/>
<path d="M102.149 103.28L97.1836 109.354C97.1836 109.354 94.9668 108.069 95.0555 109.354C95.1441 110.64 95.4988 112.014 95.4988 112.014L94.8781 114.852L93.7697 119.817L93.415 121.325" stroke="#201E1E" stroke-width="1.33007" stroke-miterlimit="10"/>
<path d="M87.8281 131.123C88.1828 131.921 88.4488 132.453 88.4932 132.497" stroke="#201E1E" stroke-width="1.33007" stroke-miterlimit="10"/>
<path d="M92.3063 109.222C92.3063 109.31 91.9073 112.68 91.4639 113.123C91.0206 113.567 87.6067 114.542 88.2274 116.847C88.8925 119.197 89.2472 119.995 88.1388 120.749C87.0304 121.503 84.7249 122.7 85.656 125.67C86.055 126.912 86.6314 128.33 87.119 129.527" stroke="#201E1E" stroke-width="1.33007" stroke-miterlimit="10"/>
<path d="M93.9023 119.817C93.9023 119.817 105.563 134.891 105.252 129.926" stroke="#201E1E" stroke-width="1.33007" stroke-miterlimit="10"/>
<path d="M102.991 208.4L100.597 210.706L99.2667 208.4L96.5179 210.706L94.7002 208.4" stroke="#201E1E" stroke-width="1.33007" stroke-miterlimit="10"/>
<path d="M88.2715 134.537L95.2322 136.532" stroke="#201E1E" stroke-width="1.33007" stroke-miterlimit="10"/>
<path d="M102.637 147.527H104.676L104.898 150.986L106.893 182.818L105.651 206.05H103.257H100.908H99.7105H94.7892H92.4395L93.1488 167.922V167.523L96.2523 168.542L97.139 169.163L97.9814 168.853L98.1587 168.764L98.0701 167.079L98.8238 164.774L98.7351 164.641" stroke="#201E1E" stroke-width="1.33007" stroke-miterlimit="10"/>
<path d="M100.907 206.05L101.927 194.656L103.257 179.449V166.547" stroke="#201E1E" stroke-width="1.33007" stroke-miterlimit="10"/>
<path d="M99.3552 138.705C99.3552 138.616 99.3552 138.528 99.3552 138.395C99.2222 130.813 93.0152 123.587 92.0842 122.567C91.9955 122.478 91.9512 122.434 91.9512 122.434L92.9266 121.725C92.9266 121.725 100.774 129.129 100.863 138.395C100.863 138.483 100.863 138.572 100.863 138.705" stroke="#201E1E" stroke-width="1.33007" stroke-miterlimit="10"/>
<path d="M95.8088 161.006L98.6906 164.641H98.7349H102.636V147.528V138.395H100.863H99.3556H94.7447L93.9023 141.454L95.8088 161.006Z" stroke="#201E1E" stroke-width="1.33007" stroke-miterlimit="10"/>
<path d="M92.1733 162.336L92.3063 164.641H81.5771V138.395H82.3309H84.0599H87.7398L87.2521 141.454L92.0847 161.848L92.129 162.114C92.1733 162.291 92.1733 162.336 92.1733 162.336Z" stroke="#201E1E" stroke-width="1.33007" stroke-miterlimit="10"/>
<path d="M84.0601 138.394L87.8287 131.123L88.8927 129.039L89.6464 125.936C88.937 126.645 88.0503 128.019 87.1193 129.527C84.8138 133.34 82.3311 138.394 82.3311 138.394" stroke="#201E1E" stroke-width="1.33007" stroke-miterlimit="10"/>
<path d="M152.248 217.135H145.598C147.016 217.091 147.947 217.047 147.947 216.958C147.947 216.515 146.839 215.761 146.839 215.761L142.051 214.298L143.736 213.81L145.199 212.746L146.839 214.076C146.839 214.076 150.076 214.608 151.051 215.229C152.026 215.894 152.248 217.135 152.248 217.135Z" fill="black"/>
<path d="M146.129 156.661L147.725 182.376L144.267 207.869H143.203L145.287 189.78V156.75L146.129 156.661Z" fill="#454FE4"/>
<path d="M146.839 215.716C146.839 215.716 147.947 216.47 147.947 216.913C147.947 217.002 147.016 217.09 145.597 217.09C141.075 217.179 131.676 216.913 131.676 216.913L133.006 213.677L135.533 214.031L140.676 212.701L142.05 214.253L146.839 215.716Z" fill="black"/>
<path d="M144.844 131.124L147.061 156.573L146.13 156.661L146.085 155.775L145.287 155.73V154.223L145.066 138.218C145.066 138.173 144.578 133.961 144.844 131.124Z" fill="#454FE4"/>
<path d="M143.558 99.6904L146.174 106.961L145.198 107.582C143.913 106.961 138.016 107.671 138.016 107.671L137.307 104.346L138.326 101.464L137.307 100.134L143.558 99.6904Z" fill="#B7745C"/>
<path d="M146.085 155.775L146.129 156.662L145.287 156.75V155.73L146.085 155.775Z" fill="#454FE4"/>
<path d="M145.287 156.75V189.78L143.203 207.869H141.164L142.671 190.489L142.716 190.268L142.804 188.938L143.736 178.652L143.691 176.878L145.11 156.75H145.287Z" fill="#454FE4"/>
<path d="M145.287 155.73V156.75H145.109L145.198 155.73H145.287Z" fill="white"/>
<path d="M145.287 154.223V155.73H145.198L145.287 154.223Z" fill="white"/>
<path d="M145.066 138.173L145.287 154.178L145.199 155.686H145.066L143.381 132.809L144.933 131.124C144.578 133.961 145.066 138.173 145.066 138.173Z" fill="#454FE4"/>
<path d="M145.199 155.73L145.11 156.75L145.021 155.73H145.199Z" fill="white"/>
<path d="M142.848 210.839L145.154 212.702L143.735 213.766L142.05 214.298L140.676 212.702L138.77 210.529L138.858 210.219H142.848H142.937L142.848 210.839Z" fill="white"/>
<path d="M145.11 156.75L143.337 156.927H137.085L136.819 155.109L145.021 155.73L145.11 156.75Z" fill="#454FE4"/>
<path d="M143.691 176.878L142.804 188.938L142.671 190.489L139.302 207.869H134.513L135.4 185.701L133.893 166.016L135.888 166.681L136.819 167.346L136.952 167.302L136.996 167.346L138.149 166.947L138.06 165.085L138.858 162.558L136.198 158.922L137.306 158.701L137.085 156.927H143.336L145.109 156.75L143.691 176.878Z" fill="#454FE4"/>
<path d="M143.337 132.809L145.022 155.73L136.82 155.109L134.913 142.119L143.337 132.809Z" fill="#454FE4"/>
<path d="M140.189 117.823C140.189 117.823 145.154 128.286 144.888 131.124L143.337 132.809L143.071 129.129L141.475 127.178L139.701 119.065L140.189 117.823Z" fill="#FAD973"/>
<path d="M140.189 114.321C138.504 113.878 137.307 113.124 136.464 112.37C136.065 112.015 135.799 111.661 135.533 111.35V106.207C135.533 106.207 134.469 104.7 133.583 104.611C132.696 104.523 133.051 106.607 133.051 106.607C133.051 106.607 129.326 101.774 134.602 97.6951C139.878 93.6162 143.514 99.7345 143.514 99.7345L137.262 100.222L138.282 101.552L137.262 104.434L137.972 107.759C137.972 107.759 143.868 107.05 145.154 107.671C145.154 107.671 144.489 115.385 140.277 114.41C140.277 114.321 140.233 114.321 140.189 114.321Z" fill="#201E1E"/>
<path d="M143.691 176.878L143.736 178.651L142.805 188.937L143.691 176.878Z" fill="#FAD973"/>
<path d="M137.13 127.844L129.726 120.927C131.011 118.755 133.184 116.981 133.184 116.981L140.189 117.824L139.701 119.065L138.859 121.149L135.223 119.42L134.026 117.957L135.578 124.563L143.071 129.129L143.337 132.809L134.913 142.12L134.115 136.755L137.13 127.844Z" fill="#454FE4"/>
<path d="M143.203 207.869L142.937 210.219H142.849H138.858L139.302 207.869H141.164H143.203Z" fill="#B7745C"/>
<path d="M141.474 127.178L143.07 129.129L135.578 124.562L133.981 117.956L135.178 119.419L141.474 127.178Z" fill="#454FE4"/>
<path d="M142.671 190.489L142.804 188.938L142.715 190.268L142.671 190.489Z" fill="white"/>
<path d="M139.302 207.869L142.671 190.489L141.164 207.869H139.302Z" fill="#454FE4"/>
<path d="M141.474 127.178L135.179 119.419L138.814 121.148L139.657 119.064L141.474 127.178Z" fill="#454FE4"/>
<path d="M140.676 212.702L135.533 214.032L133.006 213.677L134.425 210.219H138.858L138.769 210.529L140.676 212.702Z" fill="white"/>
<path d="M135.578 111.351C135.8 111.661 136.11 112.016 136.509 112.37L140.233 116.449V117.868L133.228 117.026L133.139 106.651C133.139 106.651 132.785 104.567 133.671 104.656C134.558 104.745 135.622 106.252 135.622 106.252L135.578 111.351Z" fill="#B7745C"/>
<path d="M140.189 114.321V116.449L136.465 112.37C137.263 113.124 138.46 113.878 140.189 114.321Z" fill="black"/>
<path d="M139.302 207.869L138.858 210.219H134.425L134.513 207.869H139.302Z" fill="#B7745C"/>
<path d="M136.198 158.923L138.859 162.558L138.061 165.085L138.149 166.948L136.996 167.347L136.952 167.302L137.972 166.948L137.883 165.085L138.681 162.558L136.065 158.967L136.198 158.923Z" fill="#B7745C"/>
<path d="M136.065 158.967L138.681 162.558L137.883 165.085L137.972 166.947L136.952 167.302L136.021 166.681L132.607 165.528V165.573L132.43 165.528L131.854 159.854C131.854 159.854 131.854 159.854 131.854 159.809L136.065 158.967Z" fill="#B7745C"/>
<path d="M137.085 156.927L137.307 158.7L136.198 158.922L135.888 158.479L135.533 155.021L136.819 155.109L137.085 156.927Z" fill="#454FE4"/>
<path d="M137.129 127.843L134.115 136.755L133.671 138.04L135.711 158.479L136.065 158.967L131.898 159.853C131.632 158.789 127.154 139.503 126.755 138.085L127.686 132.321L128.883 122.966L129.77 120.927L137.129 127.843Z" fill="#454FE4"/>
<path d="M136.021 166.681L136.952 167.302L136.819 167.346L135.888 166.681L133.893 166.016L132.651 165.617V165.528L136.021 166.681Z" fill="white"/>
<path d="M134.912 142.119L136.819 155.11L135.533 155.021L135.888 158.479L136.198 158.923L136.065 158.967L135.71 158.479L133.671 138.041L134.114 136.755L134.912 142.119Z" fill="#454FE4"/>
<path d="M133.893 166.016L135.4 185.701L134.513 207.869H133.671L132.651 165.617L133.893 166.016Z" fill="#454FE4"/>
<path d="M131.898 159.809L130.124 160.164L126.755 137.996C127.154 139.459 131.676 158.789 131.898 159.809Z" fill="#454FE4"/>
<path d="M129.726 120.927L128.839 122.966C129.061 122.257 129.371 121.592 129.726 120.927Z" fill="#B7745C"/>
<path d="M128.883 122.967L127.686 132.322C128.04 128.331 128.528 124.341 128.883 122.967Z" fill="#B7745C"/>
<path d="M129.726 120.927C131.011 118.754 133.184 116.981 133.184 116.981L133.095 106.607C133.095 106.607 129.371 101.774 134.647 97.6951C139.923 93.6162 143.558 99.7345 143.558 99.7345L146.174 107.006L145.199 107.626C145.199 107.626 144.534 115.341 140.322 114.365C140.277 114.365 140.233 114.321 140.189 114.321C138.504 113.878 137.307 113.124 136.465 112.37C136.066 112.015 135.8 111.661 135.534 111.35C135.09 110.73 134.913 110.286 134.913 110.286" stroke="#201E1E" stroke-width="1.33007" stroke-miterlimit="10"/>
<path d="M128.883 122.966C129.06 122.257 129.371 121.592 129.77 120.927" stroke="#201E1E" stroke-width="1.33007" stroke-miterlimit="10"/>
<path d="M132.651 165.617L132.474 165.573L131.897 159.898C131.897 159.898 131.897 159.898 131.897 159.854" stroke="#201E1E" stroke-width="1.33007" stroke-miterlimit="10"/>
<path d="M136.065 158.967L138.681 162.558L137.883 165.085L137.972 166.947L136.952 167.302" stroke="#201E1E" stroke-width="1.33007" stroke-miterlimit="10"/>
<path d="M137.307 127.399L137.13 127.843" stroke="#201E1E" stroke-width="1.33007" stroke-miterlimit="10"/>
<path d="M139.302 207.869L138.859 210.219L138.814 210.574L140.721 212.746L142.095 214.298L146.883 215.761C146.883 215.761 147.992 216.515 147.992 216.958C147.992 217.047 147.061 217.135 145.642 217.135C141.12 217.224 131.721 216.958 131.721 216.958L133.051 213.721L134.469 210.219L134.558 207.869" stroke="#201E1E" stroke-width="1.33007" stroke-miterlimit="10"/>
<path d="M140.188 114.188V114.276V116.404V117.823C140.188 117.823 145.154 128.286 144.888 131.124" stroke="#201E1E" stroke-width="1.33007" stroke-miterlimit="10"/>
<path d="M143.203 207.869L142.937 210.219L142.849 210.84L145.154 212.702L146.794 214.032C146.794 214.032 150.031 214.564 151.006 215.184C151.982 215.85 152.203 217.091 152.203 217.091H145.553" stroke="#201E1E" stroke-width="1.33007" stroke-miterlimit="10"/>
<path d="M140.189 116.405L136.465 112.326" stroke="#201E1E" stroke-width="1.33007" stroke-miterlimit="10"/>
<path d="M143.558 99.6904L137.307 100.178L138.326 101.508L137.307 104.39L138.016 107.715C138.016 107.715 143.913 107.006 145.198 107.626" stroke="#201E1E" stroke-width="1.33007" stroke-miterlimit="10"/>
<path d="M133.094 106.606C133.094 106.606 132.74 104.522 133.626 104.611C134.513 104.7 135.577 106.207 135.577 106.207V111.306" stroke="#201E1E" stroke-width="1.33007" stroke-miterlimit="10"/>
<path d="M133.006 213.677L135.533 214.031L140.676 212.701" stroke="#201E1E" stroke-width="1.33007" stroke-miterlimit="10"/>
<path d="M142.051 214.297L143.736 213.765L145.154 212.701" stroke="#201E1E" stroke-width="1.33007" stroke-miterlimit="10"/>
<path d="M134.425 210.219H138.858H142.849" stroke="#201E1E" stroke-width="1.33007" stroke-miterlimit="10"/>
<path d="M143.07 129.129L135.578 124.562L133.981 117.956L135.178 119.419L141.474 127.178L143.07 129.129Z" stroke="#201E1E" stroke-width="1.33007" stroke-miterlimit="10"/>
<path d="M139.657 119.065L140.189 117.824L133.184 116.981" stroke="#201E1E" stroke-width="1.33007" stroke-miterlimit="10"/>
<path d="M135.179 119.419L138.814 121.148L139.657 119.064" stroke="#201E1E" stroke-width="1.33007" stroke-miterlimit="10"/>
<path d="M139.656 119.064L141.474 127.178" stroke="#201E1E" stroke-width="1.33007" stroke-miterlimit="10"/>
<path d="M146.129 156.661L147.725 182.376L144.267 207.869H143.203H141.164H139.302H134.513H133.671L132.651 165.617V165.528L136.021 166.681L136.952 167.302L136.996 167.346L138.149 166.947L138.06 165.085L138.858 162.558L136.198 158.922" stroke="#201E1E" stroke-width="1.33007" stroke-miterlimit="10"/>
<path d="M141.164 207.869L142.671 190.489L142.804 188.938L143.736 178.652L143.691 176.878L143.381 164.952" stroke="#201E1E" stroke-width="1.33007" stroke-miterlimit="10"/>
<path d="M134.913 142.119L134.115 136.755L137.129 127.843L129.725 120.927L128.883 122.966L127.642 132.321L126.755 138.04L130.124 160.208L131.898 159.809L136.065 158.967L136.198 158.922L137.307 158.701L137.085 156.927" stroke="#201E1E" stroke-width="1.33007" stroke-miterlimit="10"/>
<path d="M134.913 142.119L136.82 155.11L137.086 156.927H143.337L145.11 156.75H145.288L146.13 156.661L147.061 156.573L144.844 131.124" stroke="#201E1E" stroke-width="1.33007" stroke-miterlimit="10"/>
<path d="M143.07 129.129L143.336 132.809L145.021 155.73L145.11 156.75" stroke="#201E1E" stroke-width="1.33007" stroke-miterlimit="10"/>
</g>
<g clip-path="url(#clip1_490_33697)">
<path d="M309.049 179.771H87.8613V213.364H309.049V179.771Z" fill="#201E1E"/>
<path d="M309.049 179.771H87.8613V213.364H309.049V179.771Z" stroke="#201E1E" stroke-width="0.612651" stroke-miterlimit="10"/>
<path d="M237.552 195.066C227.484 195.066 219.336 203.235 219.336 213.283C219.336 223.35 227.505 231.499 237.552 231.499C247.6 231.499 255.768 223.33 255.768 213.283C255.789 203.235 247.62 195.066 237.552 195.066ZM224.891 213.303C224.891 206.319 230.568 200.642 237.552 200.642C244.536 200.642 250.214 206.319 250.214 213.303C250.214 220.287 244.536 225.964 237.552 225.964C230.568 225.964 224.891 220.287 224.891 213.303Z" fill="#201E1E"/>
<path d="M237.552 200.642C230.568 200.642 224.891 206.319 224.891 213.303C224.891 220.287 230.568 225.964 237.552 225.964C244.536 225.964 250.214 220.287 250.214 213.303C250.214 206.298 244.557 200.642 237.552 200.642ZM226.872 213.303C226.872 207.401 231.671 202.602 237.572 202.602C243.474 202.602 248.273 207.381 248.273 213.303C248.273 219.205 243.495 224.004 237.572 224.004C231.65 223.984 226.872 219.205 226.872 213.303Z" fill="white"/>
<path d="M237.553 202.602C231.651 202.602 226.852 207.38 226.852 213.303C226.852 219.204 231.651 224.003 237.553 224.003C243.454 224.003 248.253 219.225 248.253 213.303C248.253 207.38 243.475 202.602 237.553 202.602Z" fill="white"/>
<path d="M241.126 195.066H237.572C247.64 195.066 255.788 203.235 255.788 213.283C255.788 223.35 247.62 231.499 237.572 231.499H241.126C251.194 231.499 259.342 223.33 259.342 213.283C259.342 203.235 251.194 195.066 241.126 195.066Z" fill="white"/>
<path d="M237.552 195.066C227.484 195.066 219.336 203.235 219.336 213.283C219.336 223.35 227.505 231.499 237.552 231.499C247.6 231.499 255.768 223.33 255.768 213.283C255.789 203.235 247.62 195.066 237.552 195.066Z" stroke="#201E1E" stroke-width="0.612651" stroke-miterlimit="10"/>
<path d="M224.891 213.303C224.891 220.287 230.568 225.964 237.552 225.964C244.536 225.964 250.214 220.287 250.214 213.303C250.214 206.319 244.536 200.642 237.552 200.642C230.568 200.642 224.891 206.298 224.891 213.303Z" stroke="#201E1E" stroke-width="0.612651" stroke-miterlimit="10"/>
<path d="M226.871 213.303C226.871 219.204 231.67 224.003 237.572 224.003C243.474 224.003 248.273 219.225 248.273 213.303C248.273 207.401 243.494 202.602 237.572 202.602C231.65 202.602 226.871 207.38 226.871 213.303Z" stroke="#201E1E" stroke-width="0.612651" stroke-miterlimit="10"/>
<path d="M237.552 195.066H241.105C251.173 195.066 259.321 203.235 259.321 213.283C259.321 223.35 251.153 231.499 241.105 231.499H237.552H237.368" stroke="#201E1E" stroke-width="0.612651" stroke-miterlimit="10"/>
<path d="M108.303 195.066C98.2352 195.066 90.0869 203.235 90.0869 213.283C90.0869 223.35 98.2556 231.499 108.303 231.499C118.351 231.499 126.519 223.33 126.519 213.283C126.519 203.235 118.351 195.066 108.303 195.066ZM95.6212 213.303C95.6212 206.319 101.298 200.642 108.283 200.642C115.267 200.642 120.944 206.319 120.944 213.303C120.944 220.287 115.267 225.964 108.283 225.964C101.298 225.964 95.6212 220.287 95.6212 213.303Z" fill="white"/>
<path d="M108.303 200.642C101.319 200.642 95.6416 206.319 95.6416 213.303C95.6416 220.287 101.319 225.964 108.303 225.964C115.287 225.964 120.964 220.287 120.964 213.303C120.944 206.298 115.287 200.642 108.303 200.642ZM97.6021 213.303C97.6021 207.401 102.401 202.602 108.303 202.602C114.205 202.602 119.004 207.381 119.004 213.303C119.004 219.205 114.225 224.004 108.303 224.004C102.381 224.004 97.6021 219.205 97.6021 213.303Z" fill="white"/>
<path d="M108.304 202.602C102.402 202.602 97.6025 207.38 97.6025 213.303C97.6025 219.204 102.402 224.003 108.304 224.003C114.205 224.003 119.004 219.225 119.004 213.303C118.984 207.38 114.205 202.602 108.304 202.602Z" fill="white"/>
<path d="M111.856 195.066H108.303C118.371 195.066 126.519 203.235 126.519 213.283C126.519 223.35 118.35 231.499 108.303 231.499H111.856C121.924 231.499 130.072 223.33 130.072 213.283C130.072 203.235 121.924 195.066 111.856 195.066Z" fill="white"/>
<path d="M108.303 195.066C98.2352 195.066 90.0869 203.235 90.0869 213.283C90.0869 223.35 98.2556 231.499 108.303 231.499C118.351 231.499 126.519 223.33 126.519 213.283C126.519 203.235 118.351 195.066 108.303 195.066Z" stroke="#201E1E" stroke-width="0.612651" stroke-miterlimit="10"/>
<path d="M95.6211 213.303C95.6211 220.287 101.298 225.964 108.283 225.964C115.267 225.964 120.944 220.287 120.944 213.303C120.944 206.319 115.267 200.642 108.283 200.642C101.298 200.642 95.6211 206.298 95.6211 213.303Z" stroke="#201E1E" stroke-width="0.612651" stroke-miterlimit="10"/>
<path d="M97.6025 213.303C97.6025 219.204 102.402 224.003 108.304 224.003C114.205 224.003 119.004 219.225 119.004 213.303C119.004 207.401 114.226 202.602 108.304 202.602C102.381 202.602 97.6025 207.38 97.6025 213.303Z" stroke="#201E1E" stroke-width="0.612651" stroke-miterlimit="10"/>
<path d="M108.303 195.066H111.856C121.924 195.066 130.072 203.235 130.072 213.283C130.072 223.35 121.904 231.499 111.856 231.499H108.303H108.119" stroke="#201E1E" stroke-width="0.612651" stroke-miterlimit="10"/>
<path d="M304.453 195.066C294.386 195.066 286.237 203.235 286.237 213.283C286.237 223.35 294.406 231.499 304.453 231.499C314.521 231.499 322.67 223.33 322.67 213.283C322.67 203.235 314.521 195.066 304.453 195.066ZM291.792 213.303C291.792 206.319 297.469 200.642 304.453 200.642C311.438 200.642 317.115 206.319 317.115 213.303C317.115 220.287 311.438 225.964 304.453 225.964C297.469 225.964 291.792 220.287 291.792 213.303Z" fill="black"/>
<path d="M304.453 200.642C297.469 200.642 291.792 206.319 291.792 213.303C291.792 220.287 297.469 225.964 304.453 225.964C311.438 225.964 317.115 220.287 317.115 213.303C317.115 206.298 311.438 200.642 304.453 200.642ZM293.752 213.303C293.752 207.401 298.552 202.602 304.453 202.602C310.355 202.602 315.154 207.381 315.154 213.303C315.154 219.205 310.376 224.004 304.453 224.004C298.552 223.984 293.752 219.205 293.752 213.303Z" fill="black"/>
<path d="M304.454 202.602C298.552 202.602 293.753 207.38 293.753 213.303C293.753 219.204 298.552 224.003 304.454 224.003C310.356 224.003 315.155 219.225 315.155 213.303C315.155 207.38 310.356 202.602 304.454 202.602Z" fill="black"/>
<path d="M308.006 195.066H304.453C314.521 195.066 322.669 203.235 322.669 213.283C322.669 223.35 314.501 231.499 304.453 231.499H308.006C318.074 231.499 326.223 223.33 326.223 213.283C326.243 203.235 318.074 195.066 308.006 195.066Z" fill="black"/>
<path d="M304.453 195.066C294.386 195.066 286.237 203.235 286.237 213.283C286.237 223.35 294.406 231.499 304.453 231.499C314.521 231.499 322.67 223.33 322.67 213.283C322.67 203.235 314.521 195.066 304.453 195.066Z" stroke="#201E1E" stroke-width="0.612651" stroke-miterlimit="10"/>
<path d="M291.792 213.303C291.792 220.287 297.469 225.964 304.453 225.964C311.438 225.964 317.115 220.287 317.115 213.303C317.115 206.319 311.438 200.642 304.453 200.642C297.469 200.642 291.792 206.298 291.792 213.303Z" stroke="#201E1E" stroke-width="0.612651" stroke-miterlimit="10"/>
<path d="M293.753 213.303C293.753 219.204 298.552 224.003 304.454 224.003C310.356 224.003 315.155 219.225 315.155 213.303C315.155 207.401 310.376 202.602 304.454 202.602C298.552 202.602 293.753 207.38 293.753 213.303Z" stroke="#201E1E" stroke-width="0.612651" stroke-miterlimit="10"/>
<path d="M304.453 195.066H308.007C318.075 195.066 326.223 203.235 326.223 213.283C326.223 223.35 318.054 231.499 308.007 231.499H304.453H304.27" stroke="#201E1E" stroke-width="0.612651" stroke-miterlimit="10"/>
<path d="M175.185 195.066C165.117 195.066 156.969 203.235 156.969 213.283C156.969 223.35 165.137 231.499 175.185 231.499C185.232 231.499 193.401 223.33 193.401 213.283C193.401 203.235 185.253 195.066 175.185 195.066ZM162.523 213.303C162.523 206.319 168.201 200.642 175.185 200.642C182.169 200.642 187.846 206.319 187.846 213.303C187.846 220.287 182.169 225.964 175.185 225.964C168.201 225.964 162.523 220.287 162.523 213.303Z" fill="#201E1E"/>
<path d="M175.185 200.642C168.201 200.642 162.523 206.319 162.523 213.303C162.523 220.287 168.201 225.964 175.185 225.964C182.169 225.964 187.846 220.287 187.846 213.303C187.846 206.298 182.169 200.642 175.185 200.642ZM164.484 213.303C164.484 207.401 169.283 202.602 175.185 202.602C181.087 202.602 185.886 207.381 185.886 213.303C185.886 219.205 181.107 224.004 175.185 224.004C169.263 224.004 164.484 219.205 164.484 213.303Z" fill="#201E1E"/>
<path d="M175.185 202.602C169.283 202.602 164.484 207.38 164.484 213.303C164.484 219.204 169.283 224.003 175.185 224.003C181.087 224.003 185.886 219.225 185.886 213.303C185.886 207.38 181.087 202.602 175.185 202.602Z" fill="#201E1E"/>
<path d="M178.738 195.066H175.185C185.252 195.066 193.401 203.235 193.401 213.283C193.401 223.35 185.232 231.499 175.185 231.499H178.738C188.806 231.499 196.954 223.33 196.954 213.283C196.975 203.235 188.806 195.066 178.738 195.066Z" fill="#201E1E"/>
<path d="M175.185 195.066C165.117 195.066 156.969 203.235 156.969 213.283C156.969 223.35 165.137 231.499 175.185 231.499C185.232 231.499 193.401 223.33 193.401 213.283C193.401 203.235 185.253 195.066 175.185 195.066Z" stroke="#201E1E" stroke-width="0.612651" stroke-miterlimit="10"/>
<path d="M162.523 213.303C162.523 220.287 168.201 225.964 175.185 225.964C182.169 225.964 187.846 220.287 187.846 213.303C187.846 206.319 182.169 200.642 175.185 200.642C168.201 200.642 162.523 206.298 162.523 213.303Z" stroke="#201E1E" stroke-width="0.612651" stroke-miterlimit="10"/>
<path d="M164.484 213.303C164.484 219.204 169.283 224.003 175.185 224.003C181.087 224.003 185.886 219.225 185.886 213.303C185.886 207.401 181.108 202.602 175.185 202.602C169.263 202.602 164.484 207.38 164.484 213.303Z" stroke="#201E1E" stroke-width="0.612651" stroke-miterlimit="10"/>
<path d="M175.185 195.066H178.738C188.806 195.066 196.954 203.235 196.954 213.283C196.954 223.35 188.786 231.499 178.738 231.499H175.185H175.001" stroke="#201E1E" stroke-width="0.612651" stroke-miterlimit="10"/>
<path d="M82.3066 193.106V207.994L82.4292 209.975C82.5517 212.037 84.2671 213.651 86.3501 213.651H88.9845V207.442C88.9845 202.623 92.1295 198.702 96.0096 198.702H111.162C113.123 198.702 114.879 199.682 116.145 201.296L116.227 201.234H146.063V196.884L147.799 193.229L147.697 193.127H82.4904H82.3066V193.106ZM84.1446 210.24V208.137H87.2487V210.261H84.1446V210.24Z" fill="white"/>
<path d="M82.3066 101.78V193.106H82.4904H147.697L145.716 191.125V163.208H87.0853L86.8811 115.748C86.8811 113.808 88.4331 112.236 90.3732 112.236H250.091C256.708 114.523 259.914 141.868 261.405 163.188C262.385 177.197 262.63 188.613 262.63 188.613L267.981 190.328C268.777 183.467 268.491 174.44 267.613 164.781C266.02 147.259 262.467 127.573 259.853 114.462C258.995 110.194 258.239 106.62 257.688 104.067C257.586 103.577 257.484 103.107 257.382 102.678C256.994 100.902 255.401 99.6152 253.583 99.6152H82.6742C82.4292 100.289 82.3066 101.024 82.3066 101.78Z" fill="white"/>
<path d="M82.6738 99.6156H253.603C255.421 99.6156 257.014 100.882 257.402 102.679C257.504 103.108 257.586 103.557 257.708 104.068L257.933 104.027H345.542L345.603 104.006C345.419 103.189 345.276 102.475 345.133 101.882C344.827 100.514 343.724 99.4522 342.336 99.2276C333.697 97.7368 301.451 96.0214 259.076 95.3066H88.7595C85.9617 95.3066 83.552 97.1037 82.6738 99.6156Z" fill="white"/>
<path d="M87.2486 208.137H84.1445V210.261H87.2486V208.137Z" fill="white"/>
<path d="M192.951 163.209H223.318H261.221L261.425 163.188C259.934 141.868 256.728 114.524 250.112 112.236H90.3732C88.4331 112.236 86.8606 113.809 86.8811 115.749L87.0853 163.209H145.736H192.951ZM89.5155 160.779V114.646H114.818V160.779H89.5155ZM117.064 160.779V114.646H161.543V160.779H117.064ZM163.646 160.779V114.646H190.93V160.779H163.646ZM193.217 160.779V114.646H220.5V160.779H193.217ZM222.869 161.105V114.421H249.315C256.258 118.975 259.118 161.105 259.118 161.105H222.869Z" fill="white"/>
<path d="M114.818 114.646H89.5156V160.778H114.818V114.646Z" fill="#201E1E"/>
<path d="M116.248 201.214L116.166 201.275C117.432 202.848 118.208 205.033 118.208 207.442V213.651H147.105L146.084 211.118V201.214H116.248ZM133.974 210.24V208.137H138.078V210.261H133.974V210.24Z" fill="white"/>
<path d="M161.543 114.646H117.064V160.778H161.543V114.646Z" fill="#201E1E"/>
<path d="M138.078 208.137H133.974V210.261H138.078V208.137Z" fill="#F7941D"/>
<path d="M145.736 163.209V191.125L147.717 193.106H194.932L192.951 191.125V163.209H145.736Z" fill="white"/>
<path d="M146.084 201.214V211.118L147.085 213.651H194.3L193.299 211.118V201.214H146.084Z" fill="white"/>
<path d="M146.084 196.864V201.214H193.299V196.864L195.035 193.209L194.933 193.106H147.718L147.82 193.209L146.084 196.864Z" fill="white"/>
<path d="M190.93 114.646H163.646V160.778H190.93V114.646Z" fill="#201E1E"/>
<path d="M267.98 190.329L262.65 188.614L246.497 186.388L223.298 163.209H192.951V191.125L194.932 193.106H268.123H268.205L268.123 190.37L267.98 190.329Z" fill="white"/>
<path d="M220.5 114.646H193.217V160.778H220.5V114.646Z" fill="#201E1E"/>
<path d="M193.299 201.214V211.118L194.32 213.651H218.785V207.442C218.785 205.012 219.582 202.807 220.889 201.214H193.299ZM201.222 210.24V208.137H205.327V210.261H201.222V210.24Z" fill="white"/>
<path d="M193.299 196.864V201.214H220.868C222.134 199.662 223.891 198.702 225.81 198.702H240.963C242.903 198.702 244.659 199.682 245.946 201.255L245.987 201.214H267.532L268.144 198.906L268.267 195.373L268.206 193.106H268.124H194.933L195.035 193.209L193.299 196.864Z" fill="white"/>
<path d="M205.326 208.137H201.222V210.261H205.326V208.137Z" fill="#F7941D"/>
<path d="M222.869 114.421V161.105H259.118C259.118 161.105 256.259 118.975 249.315 114.421H222.869Z" fill="#201E1E"/>
<path d="M223.298 163.209L246.497 186.408L262.63 188.634C262.63 188.634 262.385 177.218 261.405 163.209L261.2 163.229H223.298V163.209ZM230.813 167.477L230.976 165.292H258.832L260.077 185.673L248.09 184.427L230.813 167.477Z" fill="white"/>
<path d="M230.977 165.292L230.813 167.477L248.09 184.448L260.057 185.693L258.812 165.292H230.977Z" fill="#201E1E"/>
<path d="M245.986 201.214L245.945 201.255C247.211 202.827 248.008 205.033 248.008 207.442V213.651L250.867 213.692H266.02H267.531V204.155V201.214H245.986Z" fill="white"/>
<path d="M338.864 110.031L338.721 110.072H271.758L271.717 110.092L271.105 107.642H338.292L338.864 110.031ZM257.933 104.007L257.708 104.048C258.259 106.621 259.015 110.174 259.873 114.442H260.057H347.788C346.93 110.154 346.175 106.559 345.623 103.986L345.562 104.007H257.933Z" fill="white"/>
<path d="M339.62 164.393L340.008 164.373L340.049 164.393L346.788 168.927L353.323 168.906C354.609 168.743 355.406 164.434 355.406 164.434H355.508C353.894 146.994 350.382 127.471 347.788 114.462H260.057H259.873C262.487 127.573 266.04 147.259 267.633 164.781H267.695C267.695 164.781 268.491 169.09 269.778 169.253L272.392 169.233V166.537H275.761V154.979H272.902H270.737V141.214H272.902H279.233C280.499 141.214 281.54 142.235 281.54 143.522V152.262C281.54 153.774 280.315 154.999 278.804 154.999H276.925V166.558H279.641V169.233L311.662 169.11L305.413 164.475L305.863 164.434L306.251 164.413L306.292 164.434L313.235 169.11L345.236 168.988L339.17 164.475L339.62 164.393Z" fill="#201E1E"/>
<path d="M354.344 195.904L354.916 195.72C355.283 194.331 355.569 192.779 355.794 191.084L350.361 193.637H274.25L268.123 190.39L268.185 193.106L268.246 195.373L269.43 195.72H282.276L287.136 197.251V203.092L285.421 204.807H283.235H270.186L267.674 204.154H267.511V213.691H287.401V213.589L289.26 211.812L294.365 206.931H316.216V205.767H329.552V207.074H342.172L344.01 212.016L344.603 213.609V213.711H348.319C353.302 212.159 353.915 204.828 353.915 204.828H353.364H351.73L348.707 203.766L348.809 197.701L354.344 195.904ZM342.029 204.542H294.733V204.338V197.415V197.374H342.029V197.415V204.338V204.542Z" fill="white"/>
<path d="M267.531 201.214V204.154H267.695L270.206 204.808H283.256H285.441L287.156 203.092V197.252L282.296 195.72H269.451L268.266 195.373L268.144 198.906L267.531 201.214Z" fill="#F7941D"/>
<path d="M267.695 164.782H267.634C268.512 174.462 268.798 183.467 268.001 190.329L268.144 190.37L274.271 193.617H350.382L355.815 191.064C356.734 184.019 356.448 174.584 355.508 164.414H355.406C355.406 164.414 354.61 168.723 353.323 168.886L346.788 168.907L348.361 169.969L346.666 169.989L345.236 168.927L313.235 169.05L314.604 169.969L312.909 169.989L311.663 169.05L279.642 169.172V181.711H272.392V169.193L269.778 169.213C268.491 169.091 267.695 164.782 267.695 164.782Z" fill="white"/>
<path d="M272.882 141.194H270.717V154.959H272.882V141.194Z" fill="white"/>
<path d="M271.105 107.642L271.698 110.072H271.759H338.722L338.865 110.031L338.293 107.642H271.105Z" fill="#201E1E"/>
<path d="M272.392 169.233V181.752H279.621V169.213L272.392 169.233Z" fill="white"/>
<path d="M272.392 166.537V169.233L279.621 169.212V166.537H276.905V166.782H275.741V166.537H272.392Z" fill="white"/>
<path d="M272.882 141.194V154.958H275.741V153.427H276.905V154.958H278.784C280.295 154.958 281.52 153.733 281.52 152.222V143.481C281.52 142.215 280.499 141.174 279.213 141.174H272.882V141.194Z" fill="white"/>
<path d="M276.905 166.537H275.741V166.782H276.905V166.537Z" fill="white"/>
<path d="M276.905 154.958H275.741V166.517H276.905V154.958Z" fill="white"/>
<path d="M276.905 153.427H275.741V154.958H276.905V153.427Z" fill="white"/>
<path d="M287.422 213.589V213.691H344.643V213.589L344.051 211.996L343.908 212.057H329.593V210.362H316.319V211.833H289.321L289.28 211.812L287.422 213.589Z" fill="white"/>
<path d="M294.406 206.911L289.28 211.812L289.321 211.833H316.319V210.362H329.593V212.057H343.908L344.051 211.996L342.213 207.054H329.593V205.747H316.257V206.911H294.406Z" fill="#201E1E"/>
<path d="M294.733 204.338V204.542H342.03V204.338V197.415V197.374H294.733V197.415V204.338Z" fill="#201E1E"/>
<path d="M305.394 164.434L311.643 169.07H313.235L306.272 164.394H305.863L305.394 164.434Z" fill="#58595B"/>
<path d="M311.643 169.069L312.909 170.009L314.604 169.988L313.235 169.069H311.643Z" fill="#58595B"/>
<path d="M339.171 164.434L345.236 168.948L346.788 168.927L340.049 164.394H339.62L339.171 164.434Z" fill="#58595B"/>
<path d="M345.236 168.947L346.666 170.009L348.361 169.989L346.788 168.927L345.236 168.947Z" fill="#58595B"/>
<path d="M348.85 197.681L348.748 203.746L351.77 204.808H353.425V204.645L354.303 202.684L354.834 197.027L354.344 195.904L348.85 197.681Z" fill="#F7941D"/>
<path d="M116.166 201.275C114.9 199.682 113.123 198.681 111.183 198.681H96.0096C92.1295 198.681 88.9845 202.602 88.9845 207.422V213.65H86.3501C84.2875 213.65 82.5721 212.037 82.4292 209.974L82.3066 207.993V193.106V101.78C82.3066 101.025 82.4292 100.31 82.6742 99.636C83.5524 97.1037 85.9621 95.3066 88.7803 95.3066H259.097C301.472 96.0214 333.718 97.7368 342.377 99.2072C343.765 99.4522 344.868 100.494 345.175 101.862C345.297 102.454 345.46 103.169 345.644 103.986C346.196 106.559 346.951 110.153 347.809 114.442C350.402 127.45 353.935 146.973 355.528 164.414C356.468 174.563 356.754 184.018 355.835 191.064C355.61 192.759 355.324 194.311 354.957 195.7L354.385 195.883L348.891 197.66L348.789 203.725L351.812 204.787H353.445H353.997C353.997 204.787 353.364 212.119 348.401 213.671H344.684H287.463H267.572H266.061H250.908L248.049 213.63V207.422C248.049 205.012 247.253 202.827 245.986 201.234C244.72 199.641 242.964 198.681 241.004 198.681H225.851C223.931 198.681 222.175 199.641 220.909 201.193C219.622 202.786 218.805 204.992 218.805 207.422V213.65H194.299H147.084H118.208V207.442C118.208 205.032 117.412 202.868 116.166 201.275Z" stroke="#201E1E" stroke-width="0.612651" stroke-miterlimit="10"/>
<path d="M267.695 204.154L270.206 204.808H283.256H285.441L287.156 203.092V197.252L282.296 195.72H269.451L268.266 195.373L268.144 198.906L267.531 201.214V204.154V213.691V213.814" stroke="#201E1E" stroke-width="0.612651" stroke-miterlimit="10"/>
<path d="M267.98 190.349V190.328C268.777 183.467 268.491 174.44 267.613 164.781C266.02 147.259 262.467 127.573 259.853 114.462C258.995 110.194 258.239 106.62 257.688 104.067C257.586 103.577 257.484 103.107 257.382 102.678C256.994 100.902 255.401 99.6152 253.583 99.6152H82.6741H82.5107" stroke="#201E1E" stroke-width="0.612651" stroke-miterlimit="10"/>
<path d="M345.543 104.006H257.934" stroke="#201E1E" stroke-width="0.612651" stroke-miterlimit="10"/>
<path d="M347.809 114.462H347.788H260.057" stroke="#201E1E" stroke-width="0.612651" stroke-miterlimit="10"/>
<path d="M272.024 111.42L271.698 110.072L271.105 107.642H338.293L338.865 110.031L339.191 111.42" stroke="#201E1E" stroke-width="0.612651" stroke-miterlimit="10"/>
<path d="M338.721 110.071H271.759" stroke="#201E1E" stroke-width="0.612651" stroke-miterlimit="10"/>
<path d="M272.391 169.233L269.777 169.254C268.491 169.09 267.694 164.781 267.694 164.781" stroke="#201E1E" stroke-width="0.612651" stroke-miterlimit="10"/>
<path d="M311.642 169.069L279.621 169.212" stroke="#201E1E" stroke-width="0.612651" stroke-miterlimit="10"/>
<path d="M345.236 168.947L313.235 169.07" stroke="#201E1E" stroke-width="0.612651" stroke-miterlimit="10"/>
<path d="M355.406 164.434C355.406 164.434 354.61 168.743 353.323 168.906L346.788 168.926" stroke="#201E1E" stroke-width="0.612651" stroke-miterlimit="10"/>
<path d="M355.814 191.063L350.361 193.616H274.25L268.123 190.369L268.205 193.106L268.266 195.372" stroke="#201E1E" stroke-width="0.612651" stroke-miterlimit="10"/>
<path d="M354.303 195.802L354.344 195.904L354.834 197.027L354.303 202.684L353.425 204.644" stroke="#201E1E" stroke-width="0.612651" stroke-miterlimit="10"/>
<path d="M343.867 197.374H342.029H294.733H292.507" stroke="#201E1E" stroke-width="0.612651" stroke-miterlimit="10"/>
<path d="M343.867 204.542H342.029H294.733H292.507" stroke="#201E1E" stroke-width="0.612651" stroke-miterlimit="10"/>
<path d="M342.029 204.338V197.415" stroke="#201E1E" stroke-width="0.612651" stroke-miterlimit="10"/>
<path d="M294.733 204.338V197.415" stroke="#201E1E" stroke-width="0.612651" stroke-miterlimit="10"/>
<path d="M344.643 213.589L344.051 211.996L342.213 207.054H329.593V205.747H316.257V206.911H294.406L289.28 211.812L287.422 213.589" stroke="#201E1E" stroke-width="0.612651" stroke-miterlimit="10"/>
<path d="M343.908 212.057H329.593V210.362H316.319V211.833H289.321" stroke="#201E1E" stroke-width="0.612651" stroke-miterlimit="10"/>
<path d="M342.785 100.902H261.486" stroke="#201E1E" stroke-width="0.612651" stroke-miterlimit="10"/>
<path d="M262.65 188.613C262.65 188.613 262.405 177.198 261.425 163.188C259.934 141.868 256.728 114.524 250.112 112.236H90.3732C88.4331 112.236 86.8606 113.809 86.8811 115.749L87.0853 163.209H145.736H192.951H223.318L246.517 186.408L262.65 188.613ZM262.65 188.613L268.001 190.329L268.144 190.37" stroke="#201E1E" stroke-width="0.612651" stroke-miterlimit="10"/>
<path d="M249.336 114.421H222.869V161.105H259.118C259.138 161.105 256.279 118.955 249.336 114.421Z" stroke="#201E1E" stroke-width="0.612651" stroke-miterlimit="10"/>
<path d="M258.812 165.292H230.977L230.813 167.477L248.09 184.448L260.057 185.693L258.812 165.292Z" stroke="#201E1E" stroke-width="0.612651" stroke-miterlimit="10"/>
<path d="M223.298 163.209H261.2" stroke="#201E1E" stroke-width="0.612651" stroke-miterlimit="10"/>
<path d="M220.5 114.646H193.217V160.778H220.5V114.646Z" stroke="#201E1E" stroke-width="0.612651" stroke-miterlimit="10"/>
<path d="M190.93 114.646H163.646V160.778H190.93V114.646Z" stroke="#201E1E" stroke-width="0.612651" stroke-miterlimit="10"/>
<path d="M114.818 114.646H89.5156V160.778H114.818V114.646Z" stroke="#201E1E" stroke-width="0.612651" stroke-miterlimit="10"/>
<path d="M161.543 114.646H117.064V160.778H161.543V114.646Z" stroke="#201E1E" stroke-width="0.612651" stroke-miterlimit="10"/>
<path d="M192.951 163.127V163.209V191.125L194.932 193.106L195.034 193.208L193.298 196.864V201.213V211.118L194.299 213.65L194.34 213.732" stroke="#201E1E" stroke-width="0.612651" stroke-miterlimit="10"/>
<path d="M145.736 163.127V163.209V191.125L147.717 193.106L147.819 193.208L146.083 196.864V201.213V211.118L147.084 213.65L147.125 213.732" stroke="#201E1E" stroke-width="0.612651" stroke-miterlimit="10"/>
<path d="M220.929 201.214H220.867H193.298H146.083H116.247" stroke="#201E1E" stroke-width="0.612651" stroke-miterlimit="10"/>
<path d="M267.531 201.214H245.986" stroke="#201E1E" stroke-width="0.612651" stroke-miterlimit="10"/>
<path d="M268.123 193.106H194.932H147.717H82.4902" stroke="#201E1E" stroke-width="0.612651" stroke-miterlimit="10"/>
<path d="M253.665 105.17H85.8604" stroke="#201E1E" stroke-width="0.612651" stroke-miterlimit="10"/>
<path d="M205.326 208.137H201.222V210.261H205.326V208.137Z" stroke="#201E1E" stroke-width="0.612651" stroke-miterlimit="10"/>
<path d="M138.078 208.137H133.974V210.261H138.078V208.137Z" stroke="#201E1E" stroke-width="0.612651" stroke-miterlimit="10"/>
<path d="M87.2486 208.137H84.1445V210.261H87.2486V208.137Z" stroke="#201E1E" stroke-width="0.612651" stroke-miterlimit="10"/>
<path d="M345.236 168.948L346.666 170.009L348.361 169.989L346.788 168.927L340.049 164.393L339.988 164.373L339.62 164.393L339.171 164.434L345.236 168.948Z" stroke="#201E1E" stroke-width="0.612651" stroke-miterlimit="10"/>
<path d="M344.113 164.394H340.049H339.62H319.647" stroke="#201E1E" stroke-width="0.612651" stroke-miterlimit="10"/>
<path d="M311.643 169.07L312.909 170.009L314.604 169.989L313.235 169.07L306.272 164.393L306.231 164.373L305.863 164.393L305.394 164.434L311.643 169.07Z" stroke="#201E1E" stroke-width="0.612651" stroke-miterlimit="10"/>
<path d="M310.335 164.394H306.271H305.863H285.891" stroke="#201E1E" stroke-width="0.612651" stroke-miterlimit="10"/>
<path d="M275.741 154.958V166.537" stroke="#201E1E" stroke-width="0.612651" stroke-miterlimit="10"/>
<path d="M276.905 166.537V154.958" stroke="#201E1E" stroke-width="0.612651" stroke-miterlimit="10"/>
<path d="M272.882 154.958H275.741H276.905H278.784C280.295 154.958 281.52 153.733 281.52 152.222V143.481C281.52 142.215 280.499 141.174 279.213 141.174H272.882" stroke="#201E1E" stroke-width="0.612651" stroke-miterlimit="10"/>
<path d="M272.882 141.194H270.717V154.959H272.882V141.194Z" stroke="#201E1E" stroke-width="0.612651" stroke-miterlimit="10"/>
<path d="M272.392 169.233V181.751H279.621V169.212V166.537H276.905H275.741H272.392V169.233Z" stroke="#201E1E" stroke-width="0.612651" stroke-miterlimit="10"/>
<path d="M155.988 179.097C155.661 178.709 155.233 178.403 154.681 178.178C154.13 177.953 153.517 177.79 152.864 177.667C152.455 177.606 152.128 177.504 151.904 177.422C151.679 177.32 151.495 177.218 151.373 177.075C151.25 176.932 151.209 176.789 151.209 176.646C151.209 176.463 151.25 176.299 151.373 176.156C151.475 176.013 151.597 175.911 151.781 175.829C151.965 175.727 152.169 175.707 152.435 175.707C152.904 175.707 153.252 175.809 153.456 176.034C153.66 176.238 153.762 176.524 153.762 176.891H156.478C156.478 176.299 156.315 175.768 155.988 175.298C155.661 174.829 155.212 174.482 154.599 174.216C154.007 173.971 153.292 173.828 152.455 173.828C151.638 173.828 150.964 173.971 150.393 174.237C149.821 174.522 149.371 174.89 149.086 175.319C148.779 175.789 148.616 176.258 148.616 176.789C148.616 177.341 148.759 177.81 149.045 178.178C149.351 178.566 149.739 178.872 150.25 179.097C150.76 179.322 151.332 179.526 151.965 179.669C152.476 179.791 152.864 179.873 153.15 179.995C153.435 180.118 153.619 180.22 153.701 180.343C153.803 180.465 153.864 180.629 153.864 180.771C153.864 180.955 153.823 181.119 153.701 181.262C153.599 181.405 153.456 181.486 153.272 181.588C153.088 181.65 152.843 181.711 152.537 181.711C152.231 181.711 151.985 181.67 151.72 181.568C151.495 181.466 151.291 181.343 151.148 181.16C151.005 180.976 150.924 180.731 150.903 180.424H148.31C148.31 180.935 148.473 181.445 148.8 181.915C149.126 182.405 149.576 182.814 150.209 183.14C150.842 183.467 151.577 183.631 152.476 183.631C153.313 183.631 154.028 183.508 154.62 183.263C155.212 183.018 155.702 182.671 156.029 182.221C156.356 181.793 156.54 181.282 156.54 180.731C156.478 180.016 156.315 179.485 155.988 179.097Z" fill="#201E1E"/>
<path d="M157.867 172.726V183.406H160.338V172.726H157.867ZM165.076 176.075C164.851 175.585 164.504 175.217 164.055 175.013C163.647 174.788 163.136 174.686 162.585 174.686C161.931 174.686 161.359 174.87 160.869 175.237C160.685 175.38 160.502 175.564 160.338 175.748C160.114 176.034 159.909 176.34 159.746 176.708C159.46 177.341 159.358 178.076 159.358 178.873L160.011 178.852C160.011 178.525 160.032 178.26 160.073 177.974C160.114 177.729 160.216 177.484 160.318 177.3C160.318 177.3 160.318 177.3 160.318 177.28C160.461 177.096 160.624 176.932 160.828 176.851C161.033 176.728 161.298 176.687 161.604 176.687C161.89 176.687 162.115 176.728 162.299 176.81C162.482 176.912 162.646 177.014 162.728 177.218C162.83 177.402 162.891 177.688 162.891 178.056V183.427H165.382V178.056C165.423 177.218 165.301 176.585 165.076 176.075Z" fill="#201E1E"/>
<path d="M172.326 179.567C172.326 179.935 172.285 180.282 172.163 180.588C172.142 180.69 172.102 180.751 172.04 180.833C171.918 181.017 171.795 181.18 171.632 181.303C171.387 181.487 171.04 181.548 170.59 181.548C170.366 181.548 170.182 181.507 169.998 181.425C169.835 181.364 169.692 181.221 169.61 181.058C169.508 180.894 169.467 180.67 169.467 180.384V174.85H166.996V180.384C166.996 181.507 167.241 182.324 167.772 182.834C168.303 183.325 168.997 183.57 169.835 183.57C170.529 183.57 171.121 183.386 171.591 183.039C171.795 182.875 171.979 182.712 172.122 182.508C172.326 182.263 172.51 181.956 172.632 181.609C172.857 181.017 172.98 180.323 172.98 179.547H172.326V179.567ZM172.061 174.85V181.344L172.163 182.549L172.224 183.427H174.552V174.85H172.061Z" fill="#201E1E"/>
<path d="M175.409 174.85V176.647H180.515V174.85H175.409ZM180.331 181.527C180.208 181.527 180.106 181.548 179.963 181.548C179.759 181.548 179.596 181.527 179.473 181.487C179.33 181.446 179.248 181.344 179.187 181.242C179.146 181.119 179.085 180.935 179.085 180.711V172.746H176.594V180.976C176.594 181.609 176.716 182.079 176.92 182.467C177.125 182.855 177.431 183.141 177.799 183.304C178.187 183.488 178.636 183.549 179.167 183.549C179.453 183.549 179.718 183.529 179.943 183.508C180.167 183.467 180.412 183.406 180.617 183.345V181.466C180.515 181.507 180.412 181.527 180.331 181.527Z" fill="#201E1E"/>
<path d="M181.25 174.85V176.647H186.355V174.85H181.25ZM186.151 181.527C186.029 181.527 185.927 181.548 185.784 181.548C185.579 181.548 185.416 181.527 185.273 181.487C185.13 181.446 185.048 181.344 184.987 181.242C184.946 181.119 184.885 180.935 184.885 180.711V172.746H182.394V180.976C182.394 181.609 182.516 182.079 182.72 182.467C182.925 182.855 183.231 183.141 183.598 183.304C183.987 183.488 184.436 183.549 184.967 183.549C185.253 183.549 185.518 183.529 185.743 183.508C185.967 183.467 186.212 183.406 186.396 183.345V181.466C186.355 181.507 186.274 181.527 186.151 181.527Z" fill="#201E1E"/>
<path d="M187.642 172.726V183.406H190.113V172.726H187.642Z" fill="#201E1E"/>
<path d="M199.527 178.914C199.527 178.056 199.384 177.321 199.098 176.667C198.792 176.034 198.384 175.544 197.812 175.197C197.24 174.85 196.546 174.666 195.708 174.666C194.851 174.666 194.136 174.85 193.523 175.238C192.931 175.626 192.461 176.136 192.135 176.81C191.808 177.484 191.645 178.24 191.645 179.098V179.424C191.645 180.18 191.808 180.874 192.155 181.507C192.502 182.14 192.992 182.63 193.625 182.998C194.279 183.366 195.055 183.57 195.954 183.57C196.791 183.57 197.506 183.406 198.057 183.08C198.629 182.753 199.058 182.406 199.303 182.018L198.118 180.629C197.873 180.956 197.567 181.181 197.22 181.323C196.872 181.466 196.505 181.528 196.096 181.528C195.688 181.528 195.32 181.426 195.014 181.242C194.708 181.058 194.483 180.813 194.32 180.486C194.218 180.302 194.156 180.119 194.136 179.894H199.486V178.893L199.527 178.914ZM197.097 178.281H194.156C194.177 178.138 194.197 177.995 194.259 177.872C194.361 177.505 194.504 177.198 194.749 176.994C194.973 176.769 195.28 176.667 195.668 176.667C195.994 176.667 196.26 176.729 196.484 176.851C196.689 176.974 196.852 177.137 196.954 177.362C197.056 177.566 197.118 177.831 197.118 178.097V178.281H197.097Z" fill="#201E1E"/>
<path d="M203.142 175.871L203.081 174.85H200.753V183.407H203.244V176.851L203.142 175.871ZM205.409 174.707C205.266 174.687 205.123 174.687 205.021 174.687C204.511 174.687 204.061 174.85 203.673 175.177C203.469 175.36 203.285 175.585 203.122 175.871C202.999 176.075 202.918 176.279 202.816 176.545C202.632 177.117 202.53 177.791 202.53 178.546L203.02 178.791C203.02 178.444 203.081 178.138 203.204 177.913C203.204 177.893 203.224 177.872 203.224 177.872C203.346 177.627 203.551 177.443 203.816 177.321C204.061 177.198 204.408 177.137 204.837 177.137C204.98 177.137 205.123 177.137 205.266 177.158C205.429 177.178 205.572 177.178 205.675 177.198L205.695 174.829C205.654 174.768 205.552 174.707 205.409 174.707Z" fill="#201E1E"/>
<path d="M213.271 179.485C212.965 179.138 212.577 178.852 212.087 178.648C211.597 178.444 211.045 178.301 210.453 178.178C210.085 178.117 209.779 178.036 209.575 177.954C209.371 177.852 209.207 177.77 209.085 177.647C208.983 177.525 208.942 177.402 208.942 177.239C208.942 177.076 208.983 176.912 209.085 176.81C209.187 176.688 209.289 176.586 209.473 176.504C209.636 176.443 209.82 176.381 210.045 176.381C210.453 176.381 210.78 176.483 210.964 176.667C211.147 176.851 211.249 177.096 211.249 177.423H213.721C213.721 176.871 213.578 176.402 213.292 175.993C212.985 175.585 212.577 175.258 212.026 174.993C211.474 174.768 210.821 174.646 210.065 174.646C209.33 174.646 208.697 174.768 208.186 175.013C207.676 175.258 207.267 175.585 206.981 176.014C206.695 176.422 206.573 176.871 206.573 177.362C206.573 177.872 206.716 178.281 206.961 178.628C207.247 178.975 207.594 179.261 208.043 179.485C208.513 179.71 209.003 179.873 209.595 179.996C210.065 180.098 210.412 180.18 210.657 180.302C210.902 180.404 211.066 180.507 211.168 180.609C211.27 180.731 211.311 180.833 211.311 180.997C211.311 181.16 211.27 181.303 211.168 181.426C211.066 181.548 210.943 181.65 210.759 181.711C210.576 181.773 210.371 181.814 210.085 181.814C209.8 181.814 209.575 181.773 209.35 181.691C209.146 181.63 208.962 181.487 208.819 181.303C208.676 181.119 208.615 180.915 208.595 180.629H206.267C206.267 181.099 206.41 181.548 206.695 181.997C207.002 182.426 207.41 182.814 207.962 183.1C208.513 183.386 209.207 183.529 210.024 183.529C210.759 183.529 211.413 183.406 211.964 183.182C212.516 182.957 212.924 182.651 213.23 182.242C213.537 181.854 213.7 181.385 213.7 180.874C213.721 180.323 213.578 179.853 213.271 179.485Z" fill="#201E1E"/>
<path d="M142.469 185.489C138.732 188.369 133.382 187.715 130.461 183.998C127.582 180.261 128.235 174.911 131.952 171.991C135.689 169.111 141.04 169.765 143.96 173.481C146.88 177.218 146.186 182.61 142.469 185.489Z" fill="#20E682"/>
<path d="M141.959 179.588C141.836 180.262 141.468 180.874 140.856 181.323L135.812 184.856V182.079L139.018 179.833C139.14 179.833 139.242 179.812 139.365 179.731C139.59 179.567 139.651 179.261 139.508 179.036V179.016C139.508 179.016 139.508 179.016 139.508 178.995C139.508 178.995 139.508 178.995 139.487 178.975C139.487 178.975 139.487 178.975 139.467 178.955C139.304 178.75 138.997 178.71 138.773 178.852C138.773 178.852 138.773 178.852 138.752 178.852C138.65 178.914 138.589 179.016 138.569 179.138L136.628 180.507C136.588 180.527 136.567 180.547 136.506 180.568C136.261 180.731 135.995 180.813 135.73 180.895C134.688 181.14 133.565 180.752 132.912 179.833C132.503 179.24 132.36 178.526 132.483 177.852C132.605 177.178 132.973 176.565 133.586 176.116L138.65 172.583V175.36L135.444 177.607C135.321 177.607 135.219 177.627 135.097 177.709C134.872 177.872 134.811 178.179 134.954 178.403C134.954 178.403 134.954 178.403 134.954 178.424C134.954 178.424 134.954 178.424 134.954 178.444C134.954 178.444 134.954 178.444 134.974 178.464C134.974 178.464 134.974 178.464 134.995 178.485C135.158 178.689 135.464 178.73 135.689 178.587C135.689 178.587 135.689 178.587 135.709 178.587C135.812 178.526 135.873 178.424 135.893 178.301L137.833 176.933C137.874 176.912 137.895 176.892 137.956 176.872C138.201 176.708 138.466 176.627 138.732 176.545C139.773 176.3 140.897 176.688 141.55 177.607C141.938 178.199 142.061 178.914 141.959 179.588Z" fill="#201E1E"/>
</g>
<g filter="url(#filter0_f_490_33697)">
<ellipse cx="196" cy="239.5" rx="124" ry="1.5" fill="#C5C5C5" fill-opacity="0.26"/>
</g>
<mask id="mask0_490_33697" style="mask-type:alpha" maskUnits="userSpaceOnUse" x="22" y="0" width="304" height="274">
<path fill-rule="evenodd" clip-rule="evenodd" d="M126.019 263.549C64.8515 244.755 22.7559 188.287 22.007 124.104C21.3382 66.7893 68.9678 24.6836 123.015 6.12347C170.611 -10.2211 219.901 7.37266 254.082 44.4085C299.093 93.1804 348.482 156.777 314.973 214.118C278.573 276.405 194.827 284.69 126.019 263.549Z" fill="#202024"/>
</mask>
<g mask="url(#mask0_490_33697)">
<path d="M381.023 231.547C405.046 255.484 314.019 267.44 314.019 267.44L-18.8569 324.253L-24.289 279.437C25.3795 252.215 47.1283 256.246 56.3786 264.982C65.6288 273.718 64.3872 254.309 84.4551 248.064C104.523 241.819 116.939 231.416 130.727 240.167C144.516 248.917 110.373 227.555 156.379 219.381C202.385 211.208 214.306 223.111 216.357 234.873C218.408 246.634 223.457 216.655 247.044 212.483C270.616 208.314 282.729 208.102 293.162 220.347C303.594 232.592 303.808 242.987 313.178 225.083C322.533 207.167 356.986 207.613 381.023 231.547Z" fill="#20E682"/>
<path d="M-24.289 279.437C25.3795 252.215 47.1283 256.246 56.3786 264.982C65.6288 273.718 64.3872 254.309 84.4551 248.064C104.523 241.819 116.939 231.416 130.727 240.167C144.516 248.917 110.373 227.555 156.379 219.381C202.385 211.208 214.306 223.111 216.357 234.873C218.408 246.635 223.457 216.655 247.044 212.483C270.616 208.314 282.729 208.102 293.162 220.347C303.594 232.592 303.808 242.987 313.178 225.083C322.535 207.182 357.002 207.625 381.025 231.561C405.048 255.498 314.022 267.454 314.022 267.454L-18.8545 324.268L-24.289 279.437Z" stroke="#201E1E" stroke-width="3" stroke-miterlimit="10"/>
</g>
<defs>
<filter id="filter0_f_490_33697" x="67" y="233" width="258" height="13" filterUnits="userSpaceOnUse" color-interpolation-filters="sRGB">
<feFlood flood-opacity="0" result="BackgroundImageFix"/>
<feBlend mode="normal" in="SourceGraphic" in2="BackgroundImageFix" result="shape"/>
<feGaussianBlur stdDeviation="2.5" result="effect1_foregroundBlur_490_33697"/>
</filter>
<clipPath id="clip0_490_33697">
<rect width="257.767" height="162.8" fill="white" transform="translate(0 55)"/>
</clipPath>
<clipPath id="clip1_490_33697">
<rect width="274.672" height="136.825" fill="white" transform="translate(82 95)"/>
</clipPath>
</defs>
</svg>
