<svg width="325" height="274" viewBox="0 0 325 274" fill="none" xmlns="http://www.w3.org/2000/svg">
<path fill-rule="evenodd" clip-rule="evenodd" d="M104.019 263.549C42.8515 244.755 0.755872 188.287 0.00695911 124.104C-0.66181 66.7893 46.9678 24.6836 101.015 6.12347C148.611 -10.2211 197.901 7.37266 232.082 44.4085C277.093 93.1804 326.482 156.777 292.973 214.118C256.573 276.405 172.827 284.69 104.019 263.549Z" fill="#202024"/>
<g clip-path="url(#clip0_490_33362)">
<path d="M277.049 163.771H55.8613V197.364H277.049V163.771Z" fill="#201E1E"/>
<path d="M277.049 163.771H55.8613V197.364H277.049V163.771Z" stroke="#201E1E" stroke-width="0.612651" stroke-miterlimit="10"/>
<path d="M205.552 179.066C195.484 179.066 187.336 187.235 187.336 197.283C187.336 207.35 195.505 215.499 205.552 215.499C215.6 215.499 223.768 207.33 223.768 197.283C223.789 187.235 215.62 179.066 205.552 179.066ZM192.891 197.303C192.891 190.319 198.568 184.642 205.552 184.642C212.536 184.642 218.214 190.319 218.214 197.303C218.214 204.287 212.536 209.964 205.552 209.964C198.568 209.964 192.891 204.287 192.891 197.303Z" fill="#201E1E"/>
<path d="M205.552 184.642C198.568 184.642 192.891 190.319 192.891 197.303C192.891 204.287 198.568 209.964 205.552 209.964C212.536 209.964 218.214 204.287 218.214 197.303C218.214 190.298 212.557 184.642 205.552 184.642ZM194.872 197.303C194.872 191.401 199.671 186.602 205.572 186.602C211.474 186.602 216.273 191.381 216.273 197.303C216.273 203.205 211.495 208.004 205.572 208.004C199.65 207.984 194.872 203.205 194.872 197.303Z" fill="white"/>
<path d="M205.553 186.602C199.651 186.602 194.852 191.38 194.852 197.303C194.852 203.204 199.651 208.003 205.553 208.003C211.454 208.003 216.253 203.225 216.253 197.303C216.253 191.38 211.475 186.602 205.553 186.602Z" fill="white"/>
<path d="M209.126 179.066H205.572C215.64 179.066 223.788 187.235 223.788 197.283C223.788 207.35 215.62 215.499 205.572 215.499H209.126C219.194 215.499 227.342 207.33 227.342 197.283C227.342 187.235 219.194 179.066 209.126 179.066Z" fill="white"/>
<path d="M205.552 179.066C195.484 179.066 187.336 187.235 187.336 197.283C187.336 207.35 195.505 215.499 205.552 215.499C215.6 215.499 223.768 207.33 223.768 197.283C223.789 187.235 215.62 179.066 205.552 179.066Z" stroke="#201E1E" stroke-width="0.612651" stroke-miterlimit="10"/>
<path d="M192.891 197.303C192.891 204.287 198.568 209.964 205.552 209.964C212.536 209.964 218.214 204.287 218.214 197.303C218.214 190.319 212.536 184.642 205.552 184.642C198.568 184.642 192.891 190.298 192.891 197.303Z" stroke="#201E1E" stroke-width="0.612651" stroke-miterlimit="10"/>
<path d="M194.871 197.303C194.871 203.204 199.67 208.003 205.572 208.003C211.474 208.003 216.273 203.225 216.273 197.303C216.273 191.401 211.494 186.602 205.572 186.602C199.65 186.602 194.871 191.38 194.871 197.303Z" stroke="#201E1E" stroke-width="0.612651" stroke-miterlimit="10"/>
<path d="M205.552 179.066H209.105C219.173 179.066 227.321 187.235 227.321 197.283C227.321 207.35 219.153 215.499 209.105 215.499H205.552H205.368" stroke="#201E1E" stroke-width="0.612651" stroke-miterlimit="10"/>
<path d="M76.3031 179.066C66.2352 179.066 58.0869 187.235 58.0869 197.283C58.0869 207.35 66.2556 215.499 76.3031 215.499C86.3505 215.499 94.5192 207.33 94.5192 197.283C94.5192 187.235 86.3505 179.066 76.3031 179.066ZM63.6212 197.303C63.6212 190.319 69.2984 184.642 76.2826 184.642C83.2669 184.642 88.9441 190.319 88.9441 197.303C88.9441 204.287 83.2669 209.964 76.2826 209.964C69.2984 209.964 63.6212 204.287 63.6212 197.303Z" fill="white"/>
<path d="M76.303 184.642C69.3188 184.642 63.6416 190.319 63.6416 197.303C63.6416 204.287 69.3188 209.964 76.303 209.964C83.2873 209.964 88.9645 204.287 88.9645 197.303C88.9441 190.298 83.2873 184.642 76.303 184.642ZM65.6021 197.303C65.6021 191.401 70.4012 186.602 76.303 186.602C82.2049 186.602 87.004 191.381 87.004 197.303C87.004 203.205 82.2253 208.004 76.303 208.004C70.3808 208.004 65.6021 203.205 65.6021 197.303Z" fill="white"/>
<path d="M76.3035 186.602C70.4016 186.602 65.6025 191.38 65.6025 197.303C65.6025 203.204 70.4016 208.003 76.3035 208.003C82.2054 208.003 87.0045 203.225 87.0045 197.303C86.984 191.38 82.2054 186.602 76.3035 186.602Z" fill="white"/>
<path d="M79.8561 179.066H76.3027C86.3706 179.066 94.5189 187.235 94.5189 197.283C94.5189 207.35 86.3502 215.499 76.3027 215.499H79.8561C89.924 215.499 98.0722 207.33 98.0722 197.283C98.0722 187.235 89.924 179.066 79.8561 179.066Z" fill="white"/>
<path d="M76.3031 179.066C66.2352 179.066 58.0869 187.235 58.0869 197.283C58.0869 207.35 66.2556 215.499 76.3031 215.499C86.3505 215.499 94.5192 207.33 94.5192 197.283C94.5192 187.235 86.3505 179.066 76.3031 179.066Z" stroke="#201E1E" stroke-width="0.612651" stroke-miterlimit="10"/>
<path d="M63.6211 197.303C63.6211 204.287 69.2983 209.964 76.2825 209.964C83.2668 209.964 88.944 204.287 88.944 197.303C88.944 190.319 83.2668 184.642 76.2825 184.642C69.2983 184.642 63.6211 190.298 63.6211 197.303Z" stroke="#201E1E" stroke-width="0.612651" stroke-miterlimit="10"/>
<path d="M65.6025 197.303C65.6025 203.204 70.4016 208.003 76.3035 208.003C82.2054 208.003 87.0045 203.225 87.0045 197.303C87.0045 191.401 82.2258 186.602 76.3035 186.602C70.3812 186.602 65.6025 191.38 65.6025 197.303Z" stroke="#201E1E" stroke-width="0.612651" stroke-miterlimit="10"/>
<path d="M76.3029 179.066H79.8563C89.9242 179.066 98.0725 187.235 98.0725 197.283C98.0725 207.35 89.9038 215.499 79.8563 215.499H76.3029H76.1191" stroke="#201E1E" stroke-width="0.612651" stroke-miterlimit="10"/>
<path d="M272.453 179.066C262.386 179.066 254.237 187.235 254.237 197.283C254.237 207.35 262.406 215.499 272.453 215.499C282.521 215.499 290.67 207.33 290.67 197.283C290.67 187.235 282.521 179.066 272.453 179.066ZM259.792 197.303C259.792 190.319 265.469 184.642 272.453 184.642C279.438 184.642 285.115 190.319 285.115 197.303C285.115 204.287 279.438 209.964 272.453 209.964C265.469 209.964 259.792 204.287 259.792 197.303Z" fill="black"/>
<path d="M272.453 184.642C265.469 184.642 259.792 190.319 259.792 197.303C259.792 204.287 265.469 209.964 272.453 209.964C279.438 209.964 285.115 204.287 285.115 197.303C285.115 190.298 279.438 184.642 272.453 184.642ZM261.752 197.303C261.752 191.401 266.552 186.602 272.453 186.602C278.355 186.602 283.154 191.381 283.154 197.303C283.154 203.205 278.376 208.004 272.453 208.004C266.552 207.984 261.752 203.205 261.752 197.303Z" fill="black"/>
<path d="M272.454 186.602C266.552 186.602 261.753 191.38 261.753 197.303C261.753 203.204 266.552 208.003 272.454 208.003C278.356 208.003 283.155 203.225 283.155 197.303C283.155 191.38 278.356 186.602 272.454 186.602Z" fill="black"/>
<path d="M276.006 179.066H272.453C282.521 179.066 290.669 187.235 290.669 197.283C290.669 207.35 282.501 215.499 272.453 215.499H276.006C286.074 215.499 294.223 207.33 294.223 197.283C294.243 187.235 286.074 179.066 276.006 179.066Z" fill="black"/>
<path d="M272.453 179.066C262.386 179.066 254.237 187.235 254.237 197.283C254.237 207.35 262.406 215.499 272.453 215.499C282.521 215.499 290.67 207.33 290.67 197.283C290.67 187.235 282.521 179.066 272.453 179.066Z" stroke="#201E1E" stroke-width="0.612651" stroke-miterlimit="10"/>
<path d="M259.792 197.303C259.792 204.287 265.469 209.964 272.453 209.964C279.438 209.964 285.115 204.287 285.115 197.303C285.115 190.319 279.438 184.642 272.453 184.642C265.469 184.642 259.792 190.298 259.792 197.303Z" stroke="#201E1E" stroke-width="0.612651" stroke-miterlimit="10"/>
<path d="M261.753 197.303C261.753 203.204 266.552 208.003 272.454 208.003C278.356 208.003 283.155 203.225 283.155 197.303C283.155 191.401 278.376 186.602 272.454 186.602C266.552 186.602 261.753 191.38 261.753 197.303Z" stroke="#201E1E" stroke-width="0.612651" stroke-miterlimit="10"/>
<path d="M272.453 179.066H276.007C286.075 179.066 294.223 187.235 294.223 197.283C294.223 207.35 286.054 215.499 276.007 215.499H272.453H272.27" stroke="#201E1E" stroke-width="0.612651" stroke-miterlimit="10"/>
<path d="M143.185 179.066C133.117 179.066 124.969 187.235 124.969 197.283C124.969 207.35 133.137 215.499 143.185 215.499C153.232 215.499 161.401 207.33 161.401 197.283C161.401 187.235 153.253 179.066 143.185 179.066ZM130.523 197.303C130.523 190.319 136.201 184.642 143.185 184.642C150.169 184.642 155.846 190.319 155.846 197.303C155.846 204.287 150.169 209.964 143.185 209.964C136.201 209.964 130.523 204.287 130.523 197.303Z" fill="#201E1E"/>
<path d="M143.185 184.642C136.201 184.642 130.523 190.319 130.523 197.303C130.523 204.287 136.201 209.964 143.185 209.964C150.169 209.964 155.846 204.287 155.846 197.303C155.846 190.298 150.169 184.642 143.185 184.642ZM132.484 197.303C132.484 191.401 137.283 186.602 143.185 186.602C149.087 186.602 153.886 191.381 153.886 197.303C153.886 203.205 149.107 208.004 143.185 208.004C137.263 208.004 132.484 203.205 132.484 197.303Z" fill="#201E1E"/>
<path d="M143.185 186.602C137.283 186.602 132.484 191.38 132.484 197.303C132.484 203.204 137.283 208.003 143.185 208.003C149.087 208.003 153.886 203.225 153.886 197.303C153.886 191.38 149.087 186.602 143.185 186.602Z" fill="#201E1E"/>
<path d="M146.738 179.066H143.185C153.252 179.066 161.401 187.235 161.401 197.283C161.401 207.35 153.232 215.499 143.185 215.499H146.738C156.806 215.499 164.954 207.33 164.954 197.283C164.975 187.235 156.806 179.066 146.738 179.066Z" fill="#201E1E"/>
<path d="M143.185 179.066C133.117 179.066 124.969 187.235 124.969 197.283C124.969 207.35 133.137 215.499 143.185 215.499C153.232 215.499 161.401 207.33 161.401 197.283C161.401 187.235 153.253 179.066 143.185 179.066Z" stroke="#201E1E" stroke-width="0.612651" stroke-miterlimit="10"/>
<path d="M130.523 197.303C130.523 204.287 136.201 209.964 143.185 209.964C150.169 209.964 155.846 204.287 155.846 197.303C155.846 190.319 150.169 184.642 143.185 184.642C136.201 184.642 130.523 190.298 130.523 197.303Z" stroke="#201E1E" stroke-width="0.612651" stroke-miterlimit="10"/>
<path d="M132.484 197.303C132.484 203.204 137.283 208.003 143.185 208.003C149.087 208.003 153.886 203.225 153.886 197.303C153.886 191.401 149.108 186.602 143.185 186.602C137.263 186.602 132.484 191.38 132.484 197.303Z" stroke="#201E1E" stroke-width="0.612651" stroke-miterlimit="10"/>
<path d="M143.185 179.066H146.738C156.806 179.066 164.954 187.235 164.954 197.283C164.954 207.35 156.786 215.499 146.738 215.499H143.185H143.001" stroke="#201E1E" stroke-width="0.612651" stroke-miterlimit="10"/>
<path d="M50.3066 177.106V191.994L50.4292 193.975C50.5517 196.037 52.2671 197.651 54.3501 197.651H56.9845V191.442C56.9845 186.623 60.1295 182.702 64.0096 182.702H79.1625C81.123 182.702 82.8792 183.682 84.1454 185.296L84.2271 185.234H114.063V180.884L115.799 177.229L115.697 177.127H50.4904H50.3066V177.106ZM52.1446 194.24V192.137H55.2487V194.261H52.1446V194.24Z" fill="white"/>
<path d="M50.3066 85.7799V177.106H50.4904H115.697L113.716 175.125V147.208H55.0853L54.8811 99.7484C54.8811 97.8083 56.4331 96.2358 58.3732 96.2358H218.091C224.708 98.5231 227.914 125.868 229.405 147.188C230.385 161.197 230.63 172.613 230.63 172.613L235.981 174.328C236.777 167.467 236.491 158.44 235.613 148.781C234.02 131.259 230.467 111.573 227.853 98.4618C226.995 94.1937 226.239 90.6199 225.688 88.0672C225.586 87.577 225.484 87.1073 225.382 86.6785C224.994 84.9018 223.401 83.6152 221.583 83.6152H50.6742C50.4292 84.2891 50.3066 85.0243 50.3066 85.7799Z" fill="white"/>
<path d="M50.6738 83.6156H221.603C223.421 83.6156 225.014 84.8818 225.402 86.6789C225.504 87.1077 225.586 87.557 225.708 88.0675L225.933 88.0267H313.542L313.603 88.0063C313.419 87.1894 313.276 86.4747 313.133 85.8824C312.827 84.5142 311.724 83.4522 310.336 83.2276C301.697 81.7368 269.451 80.0214 227.076 79.3066H56.7595C53.9617 79.3066 51.552 81.1037 50.6738 83.6156Z" fill="white"/>
<path d="M55.2486 192.137H52.1445V194.261H55.2486V192.137Z" fill="white"/>
<path d="M160.951 147.209H191.318H229.221L229.425 147.188C227.934 125.868 224.728 98.5236 218.112 96.2363H58.3732C56.4331 96.2363 54.8606 97.8088 54.8811 99.7489L55.0853 147.209H113.736H160.951ZM57.5155 144.779V98.6461H82.8179V144.779H57.5155ZM85.0643 144.779V98.6461H129.543V144.779H85.0643ZM131.646 144.779V98.6461H158.93V144.779H131.646ZM161.217 144.779V98.6461H188.5V144.779H161.217ZM190.869 145.105V98.4214H217.315C224.258 102.975 227.118 145.105 227.118 145.105H190.869Z" fill="white"/>
<path d="M82.8181 98.6455H57.5156V144.778H82.8181V98.6455Z" fill="#201E1E"/>
<path d="M84.2477 185.214L84.166 185.275C85.4322 186.848 86.2082 189.033 86.2082 191.442V197.651H115.105L114.084 195.118V185.214H84.2477ZM101.974 194.24V192.137H106.078V194.261H101.974V194.24Z" fill="white"/>
<path d="M129.543 98.6455H85.0645V144.778H129.543V98.6455Z" fill="#201E1E"/>
<path d="M106.078 192.137H101.974V194.261H106.078V192.137Z" fill="#F7941D"/>
<path d="M113.736 147.209V175.125L115.717 177.106H162.932L160.951 175.125V147.209H113.736Z" fill="white"/>
<path d="M114.084 185.214V195.118L115.085 197.651H162.3L161.299 195.118V185.214H114.084Z" fill="white"/>
<path d="M114.084 180.864V185.214H161.299V180.864L163.035 177.209L162.933 177.106H115.718L115.82 177.209L114.084 180.864Z" fill="white"/>
<path d="M158.93 98.6455H131.646V144.778H158.93V98.6455Z" fill="#201E1E"/>
<path d="M235.98 174.329L230.65 172.614L214.497 170.388L191.298 147.209H160.951V175.125L162.932 177.106H236.123H236.205L236.123 174.37L235.98 174.329Z" fill="white"/>
<path d="M188.5 98.6455H161.217V144.778H188.5V98.6455Z" fill="#201E1E"/>
<path d="M161.299 185.214V195.118L162.32 197.651H186.785V191.442C186.785 189.012 187.582 186.807 188.889 185.214H161.299ZM169.222 194.24V192.137H173.327V194.261H169.222V194.24Z" fill="white"/>
<path d="M161.299 180.864V185.214H188.868C190.134 183.662 191.891 182.702 193.81 182.702H208.963C210.903 182.702 212.659 183.682 213.946 185.255L213.987 185.214H235.532L236.144 182.906L236.267 179.373L236.206 177.106H236.124H162.933L163.035 177.209L161.299 180.864Z" fill="white"/>
<path d="M173.326 192.137H169.222V194.261H173.326V192.137Z" fill="#F7941D"/>
<path d="M190.869 98.4209V145.105H227.118C227.118 145.105 224.259 102.975 217.315 98.4209H190.869Z" fill="#201E1E"/>
<path d="M191.298 147.209L214.497 170.408L230.63 172.634C230.63 172.634 230.385 161.218 229.405 147.209L229.2 147.229H191.298V147.209ZM198.813 151.477L198.976 149.292H226.832L228.077 169.673L216.09 168.427L198.813 151.477Z" fill="white"/>
<path d="M198.977 149.292L198.813 151.477L216.09 168.448L228.057 169.693L226.812 149.292H198.977Z" fill="#201E1E"/>
<path d="M213.986 185.214L213.945 185.255C215.211 186.827 216.008 189.033 216.008 191.442V197.651L218.867 197.692H234.02H235.531V188.155V185.214H213.986Z" fill="white"/>
<path d="M306.864 94.0311L306.721 94.072H239.758L239.717 94.0924L239.105 91.6418H306.292L306.864 94.0311ZM225.933 88.0067L225.708 88.0476C226.259 90.6207 227.015 94.1741 227.873 98.4422H228.057H315.788C314.93 94.1537 314.175 90.5595 313.623 87.9863L313.562 88.0067H225.933Z" fill="white"/>
<path d="M307.62 148.393L308.008 148.373L308.049 148.393L314.788 152.927L321.323 152.906C322.609 152.743 323.406 148.434 323.406 148.434H323.508C321.894 130.994 318.382 111.471 315.788 98.4619H228.057H227.873C230.487 111.573 234.04 131.259 235.633 148.781H235.695C235.695 148.781 236.491 153.09 237.778 153.253L240.392 153.233V150.537H243.761V138.979H240.902H238.737V125.214H240.902H247.233C248.499 125.214 249.54 126.235 249.54 127.522V136.262C249.54 137.774 248.315 138.999 246.804 138.999H244.925V150.558H247.641V153.233L279.662 153.11L273.413 148.475L273.863 148.434L274.251 148.413L274.292 148.434L281.235 153.11L313.236 152.988L307.17 148.475L307.62 148.393Z" fill="#201E1E"/>
<path d="M322.344 179.904L322.916 179.72C323.283 178.331 323.569 176.779 323.794 175.084L318.361 177.637H242.25L236.123 174.39L236.185 177.106L236.246 179.373L237.43 179.72H250.276L255.136 181.251V187.092L253.421 188.807H251.235H238.186L235.674 188.154H235.511V197.691H255.401V197.589L257.26 195.812L262.365 190.931H284.216V189.767H297.552V191.074H310.172L312.01 196.016L312.603 197.609V197.711H316.319C321.302 196.159 321.915 188.828 321.915 188.828H321.364H319.73L316.707 187.766L316.809 181.701L322.344 179.904ZM310.029 188.542H262.733V188.338V181.415V181.374H310.029V181.415V188.338V188.542Z" fill="white"/>
<path d="M235.531 185.214V188.154H235.695L238.206 188.808H251.256H253.441L255.156 187.092V181.252L250.296 179.72H237.451L236.266 179.373L236.144 182.906L235.531 185.214Z" fill="#F7941D"/>
<path d="M235.695 148.782H235.634C236.512 158.462 236.798 167.467 236.001 174.329L236.144 174.37L242.271 177.617H318.382L323.815 175.064C324.734 168.019 324.448 158.584 323.508 148.414H323.406C323.406 148.414 322.61 152.723 321.323 152.886L314.788 152.907L316.361 153.969L314.666 153.989L313.236 152.927L281.235 153.05L282.604 153.969L280.909 153.989L279.663 153.05L247.642 153.172V165.711H240.392V153.193L237.778 153.213C236.491 153.091 235.695 148.782 235.695 148.782Z" fill="white"/>
<path d="M240.882 125.194H238.717V138.959H240.882V125.194Z" fill="white"/>
<path d="M239.105 91.6416L239.698 94.0718H239.759H306.722L306.865 94.0309L306.293 91.6416H239.105Z" fill="#201E1E"/>
<path d="M240.392 153.233V165.752H247.621V153.213L240.392 153.233Z" fill="white"/>
<path d="M240.392 150.537V153.233L247.621 153.212V150.537H244.905V150.782H243.741V150.537H240.392Z" fill="white"/>
<path d="M240.882 125.194V138.958H243.741V137.427H244.905V138.958H246.784C248.295 138.958 249.52 137.733 249.52 136.222V127.481C249.52 126.215 248.499 125.174 247.213 125.174H240.882V125.194Z" fill="white"/>
<path d="M244.905 150.537H243.741V150.782H244.905V150.537Z" fill="white"/>
<path d="M244.905 138.958H243.741V150.517H244.905V138.958Z" fill="white"/>
<path d="M244.905 137.427H243.741V138.958H244.905V137.427Z" fill="white"/>
<path d="M255.422 197.589V197.691H312.643V197.589L312.051 195.996L311.908 196.057H297.593V194.362H284.319V195.833H257.321L257.28 195.812L255.422 197.589Z" fill="white"/>
<path d="M262.406 190.911L257.28 195.812L257.321 195.833H284.319V194.362H297.593V196.057H311.908L312.051 195.996L310.213 191.054H297.593V189.747H284.257V190.911H262.406Z" fill="#201E1E"/>
<path d="M262.733 188.338V188.542H310.03V188.338V181.415V181.374H262.733V181.415V188.338Z" fill="#201E1E"/>
<path d="M273.394 148.434L279.643 153.07H281.235L274.272 148.394H273.863L273.394 148.434Z" fill="#58595B"/>
<path d="M279.643 153.069L280.909 154.009L282.604 153.988L281.235 153.069H279.643Z" fill="#58595B"/>
<path d="M307.171 148.434L313.236 152.948L314.788 152.927L308.049 148.394H307.62L307.171 148.434Z" fill="#58595B"/>
<path d="M313.236 152.947L314.666 154.009L316.361 153.989L314.788 152.927L313.236 152.947Z" fill="#58595B"/>
<path d="M316.85 181.681L316.748 187.746L319.77 188.808H321.425V188.645L322.303 186.684L322.834 181.027L322.344 179.904L316.85 181.681Z" fill="#F7941D"/>
<path d="M84.1658 185.275C82.8996 183.682 81.123 182.681 79.1829 182.681H64.0096C60.1295 182.681 56.9845 186.602 56.9845 191.422V197.65H54.3501C52.2875 197.65 50.5721 196.037 50.4292 193.974L50.3066 191.993V177.106V85.7803C50.3066 85.0247 50.4292 84.31 50.6742 83.636C51.5524 81.1037 53.9621 79.3066 56.7803 79.3066H227.097C269.472 80.0214 301.718 81.7368 310.377 83.2072C311.765 83.4522 312.868 84.4937 313.175 85.862C313.297 86.4542 313.46 87.169 313.644 87.9859C314.196 90.559 314.951 94.1532 315.809 98.4418C318.402 111.45 321.935 130.973 323.528 148.414C324.468 158.563 324.754 168.018 323.835 175.064C323.61 176.759 323.324 178.311 322.957 179.7L322.385 179.883L316.891 181.66L316.789 187.725L319.812 188.787H321.445H321.997C321.997 188.787 321.364 196.119 316.401 197.671H312.684H255.463H235.572H234.061H218.908L216.049 197.63V191.422C216.049 189.012 215.253 186.827 213.986 185.234C212.72 183.641 210.964 182.681 209.004 182.681H193.851C191.931 182.681 190.175 183.641 188.909 185.193C187.622 186.786 186.805 188.992 186.805 191.422V197.65H162.299H115.084H86.208V191.442C86.208 189.032 85.4115 186.868 84.1658 185.275Z" stroke="#201E1E" stroke-width="0.612651" stroke-miterlimit="10"/>
<path d="M235.695 188.154L238.206 188.808H251.256H253.441L255.156 187.092V181.252L250.296 179.72H237.451L236.266 179.373L236.144 182.906L235.531 185.214V188.154V197.691V197.814" stroke="#201E1E" stroke-width="0.612651" stroke-miterlimit="10"/>
<path d="M235.98 174.349V174.328C236.777 167.467 236.491 158.44 235.613 148.781C234.02 131.259 230.467 111.573 227.853 98.4618C226.995 94.1937 226.239 90.6199 225.688 88.0672C225.586 87.577 225.484 87.1073 225.382 86.6785C224.994 84.9018 223.401 83.6152 221.583 83.6152H50.6741H50.5107" stroke="#201E1E" stroke-width="0.612651" stroke-miterlimit="10"/>
<path d="M313.543 88.0059H225.934" stroke="#201E1E" stroke-width="0.612651" stroke-miterlimit="10"/>
<path d="M315.809 98.4619H315.788H228.057" stroke="#201E1E" stroke-width="0.612651" stroke-miterlimit="10"/>
<path d="M240.024 95.4196L239.698 94.0718L239.105 91.6416H306.293L306.865 94.0309L307.191 95.4196" stroke="#201E1E" stroke-width="0.612651" stroke-miterlimit="10"/>
<path d="M306.721 94.0713H239.759" stroke="#201E1E" stroke-width="0.612651" stroke-miterlimit="10"/>
<path d="M240.391 153.233L237.777 153.254C236.491 153.09 235.694 148.781 235.694 148.781" stroke="#201E1E" stroke-width="0.612651" stroke-miterlimit="10"/>
<path d="M279.642 153.069L247.621 153.212" stroke="#201E1E" stroke-width="0.612651" stroke-miterlimit="10"/>
<path d="M313.236 152.947L281.235 153.07" stroke="#201E1E" stroke-width="0.612651" stroke-miterlimit="10"/>
<path d="M323.406 148.434C323.406 148.434 322.61 152.743 321.323 152.906L314.788 152.926" stroke="#201E1E" stroke-width="0.612651" stroke-miterlimit="10"/>
<path d="M323.814 175.063L318.361 177.616H242.25L236.123 174.369L236.205 177.106L236.266 179.372" stroke="#201E1E" stroke-width="0.612651" stroke-miterlimit="10"/>
<path d="M322.303 179.802L322.344 179.904L322.834 181.027L322.303 186.684L321.425 188.644" stroke="#201E1E" stroke-width="0.612651" stroke-miterlimit="10"/>
<path d="M311.867 181.374H310.029H262.733H260.507" stroke="#201E1E" stroke-width="0.612651" stroke-miterlimit="10"/>
<path d="M311.867 188.542H310.029H262.733H260.507" stroke="#201E1E" stroke-width="0.612651" stroke-miterlimit="10"/>
<path d="M310.029 188.338V181.415" stroke="#201E1E" stroke-width="0.612651" stroke-miterlimit="10"/>
<path d="M262.733 188.338V181.415" stroke="#201E1E" stroke-width="0.612651" stroke-miterlimit="10"/>
<path d="M312.643 197.589L312.051 195.996L310.213 191.054H297.593V189.747H284.257V190.911H262.406L257.28 195.812L255.422 197.589" stroke="#201E1E" stroke-width="0.612651" stroke-miterlimit="10"/>
<path d="M311.908 196.057H297.593V194.362H284.319V195.833H257.321" stroke="#201E1E" stroke-width="0.612651" stroke-miterlimit="10"/>
<path d="M310.785 84.9023H229.486" stroke="#201E1E" stroke-width="0.612651" stroke-miterlimit="10"/>
<path d="M230.65 172.613C230.65 172.613 230.405 161.198 229.425 147.188C227.934 125.868 224.728 98.5236 218.112 96.2363H58.3732C56.4331 96.2363 54.8606 97.8088 54.8811 99.7489L55.0853 147.209H113.736H160.951H191.318L214.517 170.408L230.65 172.613ZM230.65 172.613L236.001 174.329L236.144 174.37" stroke="#201E1E" stroke-width="0.612651" stroke-miterlimit="10"/>
<path d="M217.336 98.4209H190.869V145.105H227.118C227.138 145.105 224.279 102.955 217.336 98.4209Z" stroke="#201E1E" stroke-width="0.612651" stroke-miterlimit="10"/>
<path d="M226.812 149.292H198.977L198.813 151.477L216.09 168.448L228.057 169.693L226.812 149.292Z" stroke="#201E1E" stroke-width="0.612651" stroke-miterlimit="10"/>
<path d="M191.298 147.209H229.2" stroke="#201E1E" stroke-width="0.612651" stroke-miterlimit="10"/>
<path d="M188.5 98.6455H161.217V144.778H188.5V98.6455Z" stroke="#201E1E" stroke-width="0.612651" stroke-miterlimit="10"/>
<path d="M158.93 98.6455H131.646V144.778H158.93V98.6455Z" stroke="#201E1E" stroke-width="0.612651" stroke-miterlimit="10"/>
<path d="M82.8181 98.6455H57.5156V144.778H82.8181V98.6455Z" stroke="#201E1E" stroke-width="0.612651" stroke-miterlimit="10"/>
<path d="M129.543 98.6455H85.0645V144.778H129.543V98.6455Z" stroke="#201E1E" stroke-width="0.612651" stroke-miterlimit="10"/>
<path d="M160.951 147.127V147.209V175.125L162.932 177.106L163.034 177.208L161.298 180.864V185.213V195.118L162.299 197.65L162.34 197.732" stroke="#201E1E" stroke-width="0.612651" stroke-miterlimit="10"/>
<path d="M113.736 147.127V147.209V175.125L115.717 177.106L115.819 177.208L114.083 180.864V185.213V195.118L115.084 197.65L115.125 197.732" stroke="#201E1E" stroke-width="0.612651" stroke-miterlimit="10"/>
<path d="M188.929 185.214H188.867H161.298H114.083H84.2471" stroke="#201E1E" stroke-width="0.612651" stroke-miterlimit="10"/>
<path d="M235.531 185.214H213.986" stroke="#201E1E" stroke-width="0.612651" stroke-miterlimit="10"/>
<path d="M236.123 177.106H162.932H115.717H50.4902" stroke="#201E1E" stroke-width="0.612651" stroke-miterlimit="10"/>
<path d="M221.665 89.1699H53.8604" stroke="#201E1E" stroke-width="0.612651" stroke-miterlimit="10"/>
<path d="M173.326 192.137H169.222V194.261H173.326V192.137Z" stroke="#201E1E" stroke-width="0.612651" stroke-miterlimit="10"/>
<path d="M106.078 192.137H101.974V194.261H106.078V192.137Z" stroke="#201E1E" stroke-width="0.612651" stroke-miterlimit="10"/>
<path d="M55.2486 192.137H52.1445V194.261H55.2486V192.137Z" stroke="#201E1E" stroke-width="0.612651" stroke-miterlimit="10"/>
<path d="M313.236 152.948L314.666 154.009L316.361 153.989L314.788 152.927L308.049 148.393L307.988 148.373L307.62 148.393L307.171 148.434L313.236 152.948Z" stroke="#201E1E" stroke-width="0.612651" stroke-miterlimit="10"/>
<path d="M312.113 148.394H308.049H307.62H287.647" stroke="#201E1E" stroke-width="0.612651" stroke-miterlimit="10"/>
<path d="M279.643 153.07L280.909 154.009L282.604 153.989L281.235 153.07L274.272 148.393L274.231 148.373L273.863 148.393L273.394 148.434L279.643 153.07Z" stroke="#201E1E" stroke-width="0.612651" stroke-miterlimit="10"/>
<path d="M278.335 148.394H274.271H273.863H253.891" stroke="#201E1E" stroke-width="0.612651" stroke-miterlimit="10"/>
<path d="M243.741 138.958V150.537" stroke="#201E1E" stroke-width="0.612651" stroke-miterlimit="10"/>
<path d="M244.905 150.537V138.958" stroke="#201E1E" stroke-width="0.612651" stroke-miterlimit="10"/>
<path d="M240.882 138.958H243.741H244.905H246.784C248.295 138.958 249.52 137.733 249.52 136.222V127.481C249.52 126.215 248.499 125.174 247.213 125.174H240.882" stroke="#201E1E" stroke-width="0.612651" stroke-miterlimit="10"/>
<path d="M240.882 125.194H238.717V138.959H240.882V125.194Z" stroke="#201E1E" stroke-width="0.612651" stroke-miterlimit="10"/>
<path d="M240.392 153.233V165.751H247.621V153.212V150.537H244.905H243.741H240.392V153.233Z" stroke="#201E1E" stroke-width="0.612651" stroke-miterlimit="10"/>
<path d="M123.988 163.097C123.661 162.709 123.233 162.403 122.681 162.178C122.13 161.953 121.517 161.79 120.864 161.667C120.455 161.606 120.128 161.504 119.904 161.422C119.679 161.32 119.495 161.218 119.373 161.075C119.25 160.932 119.209 160.789 119.209 160.646C119.209 160.463 119.25 160.299 119.373 160.156C119.475 160.013 119.597 159.911 119.781 159.829C119.965 159.727 120.169 159.707 120.435 159.707C120.904 159.707 121.252 159.809 121.456 160.034C121.66 160.238 121.762 160.524 121.762 160.891H124.478C124.478 160.299 124.315 159.768 123.988 159.298C123.661 158.829 123.212 158.482 122.599 158.216C122.007 157.971 121.292 157.828 120.455 157.828C119.638 157.828 118.964 157.971 118.393 158.237C117.821 158.522 117.371 158.89 117.086 159.319C116.779 159.789 116.616 160.258 116.616 160.789C116.616 161.341 116.759 161.81 117.045 162.178C117.351 162.566 117.739 162.872 118.25 163.097C118.76 163.322 119.332 163.526 119.965 163.669C120.476 163.791 120.864 163.873 121.15 163.995C121.435 164.118 121.619 164.22 121.701 164.343C121.803 164.465 121.864 164.629 121.864 164.771C121.864 164.955 121.823 165.119 121.701 165.262C121.599 165.405 121.456 165.486 121.272 165.588C121.088 165.65 120.843 165.711 120.537 165.711C120.231 165.711 119.985 165.67 119.72 165.568C119.495 165.466 119.291 165.343 119.148 165.16C119.005 164.976 118.924 164.731 118.903 164.424H116.31C116.31 164.935 116.473 165.445 116.8 165.915C117.126 166.405 117.576 166.814 118.209 167.14C118.842 167.467 119.577 167.631 120.476 167.631C121.313 167.631 122.028 167.508 122.62 167.263C123.212 167.018 123.702 166.671 124.029 166.221C124.356 165.793 124.54 165.282 124.54 164.731C124.478 164.016 124.315 163.485 123.988 163.097Z" fill="#201E1E"/>
<path d="M125.867 156.726V167.406H128.338V156.726H125.867ZM133.076 160.075C132.851 159.585 132.504 159.217 132.055 159.013C131.647 158.788 131.136 158.686 130.585 158.686C129.931 158.686 129.359 158.87 128.869 159.237C128.685 159.38 128.502 159.564 128.338 159.748C128.114 160.034 127.909 160.34 127.746 160.708C127.46 161.341 127.358 162.076 127.358 162.873L128.011 162.852C128.011 162.525 128.032 162.26 128.073 161.974C128.114 161.729 128.216 161.484 128.318 161.3C128.318 161.3 128.318 161.3 128.318 161.28C128.461 161.096 128.624 160.932 128.828 160.851C129.033 160.728 129.298 160.687 129.604 160.687C129.89 160.687 130.115 160.728 130.299 160.81C130.482 160.912 130.646 161.014 130.728 161.218C130.83 161.402 130.891 161.688 130.891 162.056V167.427H133.382V162.056C133.423 161.218 133.301 160.585 133.076 160.075Z" fill="#201E1E"/>
<path d="M140.326 163.567C140.326 163.935 140.285 164.282 140.163 164.588C140.142 164.69 140.102 164.751 140.04 164.833C139.918 165.017 139.795 165.18 139.632 165.303C139.387 165.487 139.04 165.548 138.59 165.548C138.366 165.548 138.182 165.507 137.998 165.425C137.835 165.364 137.692 165.221 137.61 165.058C137.508 164.894 137.467 164.67 137.467 164.384V158.85H134.996V164.384C134.996 165.507 135.241 166.324 135.772 166.834C136.303 167.325 136.997 167.57 137.835 167.57C138.529 167.57 139.121 167.386 139.591 167.039C139.795 166.875 139.979 166.712 140.122 166.508C140.326 166.263 140.51 165.956 140.632 165.609C140.857 165.017 140.98 164.323 140.98 163.547H140.326V163.567ZM140.061 158.85V165.344L140.163 166.549L140.224 167.427H142.552V158.85H140.061Z" fill="#201E1E"/>
<path d="M143.409 158.85V160.647H148.515V158.85H143.409ZM148.331 165.527C148.208 165.527 148.106 165.548 147.963 165.548C147.759 165.548 147.596 165.527 147.473 165.487C147.33 165.446 147.248 165.344 147.187 165.242C147.146 165.119 147.085 164.935 147.085 164.711V156.746H144.594V164.976C144.594 165.609 144.716 166.079 144.92 166.467C145.125 166.855 145.431 167.141 145.799 167.304C146.187 167.488 146.636 167.549 147.167 167.549C147.453 167.549 147.718 167.529 147.943 167.508C148.167 167.467 148.412 167.406 148.617 167.345V165.466C148.515 165.507 148.412 165.527 148.331 165.527Z" fill="#201E1E"/>
<path d="M149.25 158.85V160.647H154.355V158.85H149.25ZM154.151 165.527C154.029 165.527 153.927 165.548 153.784 165.548C153.579 165.548 153.416 165.527 153.273 165.487C153.13 165.446 153.048 165.344 152.987 165.242C152.946 165.119 152.885 164.935 152.885 164.711V156.746H150.394V164.976C150.394 165.609 150.516 166.079 150.72 166.467C150.925 166.855 151.231 167.141 151.598 167.304C151.987 167.488 152.436 167.549 152.967 167.549C153.253 167.549 153.518 167.529 153.743 167.508C153.967 167.467 154.212 167.406 154.396 167.345V165.466C154.355 165.507 154.274 165.527 154.151 165.527Z" fill="#201E1E"/>
<path d="M155.642 156.726V167.406H158.113V156.726H155.642Z" fill="#201E1E"/>
<path d="M167.527 162.914C167.527 162.056 167.384 161.321 167.098 160.667C166.792 160.034 166.384 159.544 165.812 159.197C165.24 158.85 164.546 158.666 163.708 158.666C162.851 158.666 162.136 158.85 161.523 159.238C160.931 159.626 160.461 160.136 160.135 160.81C159.808 161.484 159.645 162.24 159.645 163.098V163.424C159.645 164.18 159.808 164.874 160.155 165.507C160.502 166.14 160.992 166.63 161.625 166.998C162.279 167.366 163.055 167.57 163.954 167.57C164.791 167.57 165.506 167.406 166.057 167.08C166.629 166.753 167.058 166.406 167.303 166.018L166.118 164.629C165.873 164.956 165.567 165.181 165.22 165.323C164.872 165.466 164.505 165.528 164.096 165.528C163.688 165.528 163.32 165.426 163.014 165.242C162.708 165.058 162.483 164.813 162.32 164.486C162.218 164.302 162.156 164.119 162.136 163.894H167.486V162.893L167.527 162.914ZM165.097 162.281H162.156C162.177 162.138 162.197 161.995 162.259 161.872C162.361 161.505 162.504 161.198 162.749 160.994C162.973 160.769 163.28 160.667 163.668 160.667C163.994 160.667 164.26 160.729 164.484 160.851C164.689 160.974 164.852 161.137 164.954 161.362C165.056 161.566 165.118 161.831 165.118 162.097V162.281H165.097Z" fill="#201E1E"/>
<path d="M171.142 159.871L171.081 158.85H168.753V167.407H171.244V160.851L171.142 159.871ZM173.409 158.707C173.266 158.687 173.123 158.687 173.021 158.687C172.511 158.687 172.061 158.85 171.673 159.177C171.469 159.36 171.285 159.585 171.122 159.871C170.999 160.075 170.918 160.279 170.816 160.545C170.632 161.117 170.53 161.791 170.53 162.546L171.02 162.791C171.02 162.444 171.081 162.138 171.204 161.913C171.204 161.893 171.224 161.872 171.224 161.872C171.346 161.627 171.551 161.443 171.816 161.321C172.061 161.198 172.408 161.137 172.837 161.137C172.98 161.137 173.123 161.137 173.266 161.158C173.429 161.178 173.572 161.178 173.675 161.198L173.695 158.829C173.654 158.768 173.552 158.707 173.409 158.707Z" fill="#201E1E"/>
<path d="M181.271 163.485C180.965 163.138 180.577 162.852 180.087 162.648C179.597 162.444 179.045 162.301 178.453 162.178C178.085 162.117 177.779 162.036 177.575 161.954C177.371 161.852 177.207 161.77 177.085 161.647C176.983 161.525 176.942 161.402 176.942 161.239C176.942 161.076 176.983 160.912 177.085 160.81C177.187 160.688 177.289 160.586 177.473 160.504C177.636 160.443 177.82 160.381 178.045 160.381C178.453 160.381 178.78 160.483 178.964 160.667C179.147 160.851 179.249 161.096 179.249 161.423H181.721C181.721 160.871 181.578 160.402 181.292 159.993C180.985 159.585 180.577 159.258 180.026 158.993C179.474 158.768 178.821 158.646 178.065 158.646C177.33 158.646 176.697 158.768 176.186 159.013C175.676 159.258 175.267 159.585 174.981 160.014C174.695 160.422 174.573 160.871 174.573 161.362C174.573 161.872 174.716 162.281 174.961 162.628C175.247 162.975 175.594 163.261 176.043 163.485C176.513 163.71 177.003 163.873 177.595 163.996C178.065 164.098 178.412 164.18 178.657 164.302C178.902 164.404 179.066 164.507 179.168 164.609C179.27 164.731 179.311 164.833 179.311 164.997C179.311 165.16 179.27 165.303 179.168 165.426C179.066 165.548 178.943 165.65 178.759 165.711C178.576 165.773 178.371 165.814 178.085 165.814C177.8 165.814 177.575 165.773 177.35 165.691C177.146 165.63 176.962 165.487 176.819 165.303C176.676 165.119 176.615 164.915 176.595 164.629H174.267C174.267 165.099 174.41 165.548 174.695 165.997C175.002 166.426 175.41 166.814 175.962 167.1C176.513 167.386 177.207 167.529 178.024 167.529C178.759 167.529 179.413 167.406 179.964 167.182C180.516 166.957 180.924 166.651 181.23 166.242C181.537 165.854 181.7 165.385 181.7 164.874C181.721 164.323 181.578 163.853 181.271 163.485Z" fill="#201E1E"/>
<path d="M110.469 169.489C106.732 172.369 101.382 171.715 98.4613 167.998C95.5818 164.261 96.2353 158.911 99.952 155.991C103.689 153.111 109.04 153.765 111.96 157.481C114.88 161.218 114.186 166.61 110.469 169.489Z" fill="#20E682"/>
<path d="M109.959 163.588C109.836 164.262 109.468 164.874 108.856 165.323L103.812 168.856V166.079L107.018 163.833C107.14 163.833 107.242 163.812 107.365 163.731C107.59 163.567 107.651 163.261 107.508 163.036V163.016C107.508 163.016 107.508 163.016 107.508 162.995C107.508 162.995 107.508 162.995 107.487 162.975C107.487 162.975 107.487 162.975 107.467 162.955C107.304 162.75 106.997 162.71 106.773 162.852C106.773 162.852 106.773 162.852 106.752 162.852C106.65 162.914 106.589 163.016 106.569 163.138L104.628 164.507C104.588 164.527 104.567 164.547 104.506 164.568C104.261 164.731 103.995 164.813 103.73 164.895C102.688 165.14 101.565 164.752 100.912 163.833C100.503 163.24 100.36 162.526 100.483 161.852C100.605 161.178 100.973 160.565 101.586 160.116L106.65 156.583V159.36L103.444 161.607C103.321 161.607 103.219 161.627 103.097 161.709C102.872 161.872 102.811 162.179 102.954 162.403C102.954 162.403 102.954 162.403 102.954 162.424C102.954 162.424 102.954 162.424 102.954 162.444C102.954 162.444 102.954 162.444 102.974 162.464C102.974 162.464 102.974 162.464 102.995 162.485C103.158 162.689 103.464 162.73 103.689 162.587C103.689 162.587 103.689 162.587 103.709 162.587C103.812 162.526 103.873 162.424 103.893 162.301L105.833 160.933C105.874 160.912 105.895 160.892 105.956 160.872C106.201 160.708 106.466 160.627 106.732 160.545C107.773 160.3 108.897 160.688 109.55 161.607C109.938 162.199 110.061 162.914 109.959 163.588Z" fill="#201E1E"/>
</g>
<g clip-path="url(#clip1_490_33362)">
<path d="M35.1165 218.857H188.925V242.182H35.1165V218.857Z" fill="#201E1E"/>
<path d="M35.1165 218.857H188.925V242.182H35.1165V218.857Z" stroke="#201E1E" stroke-width="0.612651" stroke-miterlimit="10"/>
<path d="M84.8329 229.478C91.8339 229.478 97.5 235.149 97.5 242.125C97.5 249.116 91.8197 254.773 84.8329 254.773C77.8462 254.773 72.1659 249.101 72.1659 242.125C72.1517 235.149 77.832 229.478 84.8329 229.478ZM93.6374 242.139C93.6374 237.29 89.6896 233.348 84.8329 233.348C79.9763 233.348 76.0285 237.29 76.0285 242.139C76.0285 246.989 79.9763 250.931 84.8329 250.931C89.6896 250.931 93.6374 246.989 93.6374 242.139Z" fill="#201E1E"/>
<path d="M84.8332 233.349C89.6899 233.349 93.6377 237.29 93.6377 242.14C93.6377 246.989 89.6899 250.931 84.8332 250.931C79.9766 250.931 76.0288 246.989 76.0288 242.14C76.0288 237.276 79.9624 233.349 84.8332 233.349ZM92.2602 242.14C92.2602 238.042 88.9231 234.71 84.819 234.71C80.715 234.71 77.3778 238.028 77.3778 242.14C77.3778 246.237 80.7008 249.57 84.819 249.57C88.9373 249.555 92.2602 246.237 92.2602 242.14Z" fill="white"/>
<path d="M84.8332 234.71C88.9372 234.71 92.2744 238.028 92.2744 242.14C92.2744 246.238 88.9372 249.57 84.8332 249.57C80.7292 249.57 77.392 246.252 77.392 242.14C77.392 238.028 80.715 234.71 84.8332 234.71Z" fill="white"/>
<path d="M82.3474 229.478H84.8184C77.8174 229.478 72.1513 235.149 72.1513 242.125C72.1513 249.116 77.8316 254.773 84.8184 254.773H82.3474C75.3465 254.773 69.6804 249.101 69.6804 242.125C69.6804 235.149 75.3465 229.478 82.3474 229.478Z" fill="white"/>
<path d="M84.8329 229.478C91.8339 229.478 97.5 235.149 97.5 242.125C97.5 249.116 91.8197 254.773 84.8329 254.773C77.8462 254.773 72.1659 249.101 72.1659 242.125C72.1517 235.149 77.832 229.478 84.8329 229.478Z" stroke="#201E1E" stroke-width="0.612651" stroke-miterlimit="10"/>
<path d="M93.6377 242.14C93.6377 246.989 89.6899 250.931 84.8332 250.931C79.9766 250.931 76.0288 246.989 76.0288 242.14C76.0288 237.29 79.9766 233.349 84.8332 233.349C89.6899 233.349 93.6377 237.276 93.6377 242.14Z" stroke="#201E1E" stroke-width="0.612651" stroke-miterlimit="10"/>
<path d="M92.2598 242.14C92.2598 246.238 88.9226 249.57 84.8186 249.57C80.7146 249.57 77.3774 246.252 77.3774 242.14C77.3774 238.042 80.7004 234.71 84.8186 234.71C88.9368 234.71 92.2598 238.028 92.2598 242.14Z" stroke="#201E1E" stroke-width="0.612651" stroke-miterlimit="10"/>
<path d="M84.8331 229.478H82.3622C75.3612 229.478 69.6951 235.149 69.6951 242.125C69.6951 249.116 75.3754 254.773 82.3622 254.773H84.8331H84.9609" stroke="#201E1E" stroke-width="0.612651" stroke-miterlimit="10"/>
<path d="M174.71 229.478C181.711 229.478 187.377 235.149 187.377 242.125C187.377 249.116 181.697 254.773 174.71 254.773C167.723 254.773 162.043 249.101 162.043 242.125C162.043 235.149 167.723 229.478 174.71 229.478ZM183.529 242.139C183.529 237.29 179.581 233.348 174.724 233.348C169.867 233.348 165.92 237.29 165.92 242.139C165.92 246.989 169.867 250.931 174.724 250.931C179.581 250.931 183.529 246.989 183.529 242.139Z" fill="white"/>
<path d="M174.71 233.349C179.567 233.349 183.515 237.29 183.515 242.14C183.515 246.989 179.567 250.931 174.71 250.931C169.854 250.931 165.906 246.989 165.906 242.14C165.92 237.276 169.854 233.349 174.71 233.349ZM182.151 242.14C182.151 238.042 178.814 234.71 174.71 234.71C170.606 234.71 167.269 238.028 167.269 242.14C167.269 246.237 170.592 249.57 174.71 249.57C178.828 249.57 182.151 246.237 182.151 242.14Z" fill="white"/>
<path d="M174.71 234.71C178.814 234.71 182.151 238.028 182.151 242.14C182.151 246.238 178.814 249.57 174.71 249.57C170.606 249.57 167.269 246.252 167.269 242.14C167.283 238.028 170.606 234.71 174.71 234.71Z" fill="white"/>
<path d="M172.239 229.478H174.71C167.709 229.478 162.043 235.149 162.043 242.125C162.043 249.116 167.723 254.773 174.71 254.773H172.239C165.238 254.773 159.572 249.101 159.572 242.125C159.572 235.149 165.238 229.478 172.239 229.478Z" fill="white"/>
<path d="M174.71 229.478C181.711 229.478 187.377 235.149 187.377 242.125C187.377 249.116 181.697 254.773 174.71 254.773C167.723 254.773 162.043 249.101 162.043 242.125C162.043 235.149 167.723 229.478 174.71 229.478Z" stroke="#201E1E" stroke-width="0.612651" stroke-miterlimit="10"/>
<path d="M183.528 242.14C183.528 246.989 179.581 250.931 174.724 250.931C169.867 250.931 165.919 246.989 165.919 242.14C165.919 237.29 169.867 233.349 174.724 233.349C179.581 233.349 183.528 237.276 183.528 242.14Z" stroke="#201E1E" stroke-width="0.612651" stroke-miterlimit="10"/>
<path d="M182.151 242.14C182.151 246.238 178.814 249.57 174.71 249.57C170.606 249.57 167.269 246.252 167.269 242.14C167.269 238.042 170.592 234.71 174.71 234.71C178.828 234.71 182.151 238.028 182.151 242.14Z" stroke="#201E1E" stroke-width="0.612651" stroke-miterlimit="10"/>
<path d="M174.71 229.478H172.239C165.238 229.478 159.572 235.149 159.572 242.125C159.572 249.116 165.252 254.773 172.239 254.773H174.71H174.838" stroke="#201E1E" stroke-width="0.612651" stroke-miterlimit="10"/>
<path d="M38.3114 229.478C45.3124 229.478 50.9785 235.149 50.9785 242.125C50.9785 249.116 45.2982 254.773 38.3114 254.773C31.3105 254.773 25.6444 249.101 25.6444 242.125C25.6444 235.149 31.3105 229.478 38.3114 229.478ZM47.1159 242.139C47.1159 237.29 43.1681 233.348 38.3114 233.348C33.4548 233.348 29.507 237.29 29.507 242.139C29.507 246.989 33.4548 250.931 38.3114 250.931C43.1681 250.931 47.1159 246.989 47.1159 242.139Z" fill="black"/>
<path d="M38.3118 233.349C43.1684 233.349 47.1162 237.29 47.1162 242.14C47.1162 246.989 43.1684 250.931 38.3118 250.931C33.4551 250.931 29.5073 246.989 29.5073 242.14C29.5073 237.276 33.4551 233.349 38.3118 233.349ZM45.7529 242.14C45.7529 238.042 42.4158 234.71 38.3118 234.71C34.2077 234.71 30.8706 238.028 30.8706 242.14C30.8706 246.237 34.1935 249.57 38.3118 249.57C42.4158 249.555 45.7529 246.237 45.7529 242.14Z" fill="black"/>
<path d="M38.3117 234.71C42.4158 234.71 45.7529 238.028 45.7529 242.14C45.7529 246.238 42.4158 249.57 38.3117 249.57C34.2077 249.57 30.8706 246.252 30.8706 242.14C30.8706 238.028 34.2077 234.71 38.3117 234.71Z" fill="black"/>
<path d="M35.8406 229.478H38.3115C31.3106 229.478 25.6445 235.149 25.6445 242.125C25.6445 249.116 31.3248 254.773 38.3115 254.773H35.8406C28.8396 254.773 23.1735 249.101 23.1735 242.125C23.1593 235.149 28.8396 229.478 35.8406 229.478Z" fill="black"/>
<path d="M38.3114 229.478C45.3124 229.478 50.9785 235.149 50.9785 242.125C50.9785 249.116 45.2982 254.773 38.3114 254.773C31.3105 254.773 25.6444 249.101 25.6444 242.125C25.6444 235.149 31.3105 229.478 38.3114 229.478Z" stroke="#201E1E" stroke-width="0.612651" stroke-miterlimit="10"/>
<path d="M47.1162 242.14C47.1162 246.989 43.1684 250.931 38.3118 250.931C33.4551 250.931 29.5073 246.989 29.5073 242.14C29.5073 237.29 33.4551 233.349 38.3118 233.349C43.1684 233.349 47.1162 237.276 47.1162 242.14Z" stroke="#201E1E" stroke-width="0.612651" stroke-miterlimit="10"/>
<path d="M45.7529 242.14C45.7529 246.238 42.4158 249.57 38.3117 249.57C34.2077 249.57 30.8706 246.252 30.8706 242.14C30.8706 238.042 34.1935 234.71 38.3117 234.71C42.4158 234.71 45.7529 238.028 45.7529 242.14Z" stroke="#201E1E" stroke-width="0.612651" stroke-miterlimit="10"/>
<path d="M38.3116 229.478H35.8407C28.8398 229.478 23.1737 235.149 23.1737 242.125C23.1737 249.116 28.854 254.773 35.8407 254.773H38.3116H38.4395" stroke="#201E1E" stroke-width="0.612651" stroke-miterlimit="10"/>
<path d="M128.202 229.478C135.203 229.478 140.869 235.149 140.869 242.125C140.869 249.116 135.189 254.773 128.202 254.773C121.215 254.773 115.535 249.101 115.535 242.125C115.535 235.149 121.201 229.478 128.202 229.478ZM137.007 242.139C137.007 237.29 133.059 233.348 128.202 233.348C123.345 233.348 119.398 237.29 119.398 242.139C119.398 246.989 123.345 250.931 128.202 250.931C133.059 250.931 137.007 246.989 137.007 242.139Z" fill="#201E1E"/>
<path d="M128.202 233.349C133.059 233.349 137.007 237.29 137.007 242.14C137.007 246.989 133.059 250.931 128.202 250.931C123.346 250.931 119.398 246.989 119.398 242.14C119.398 237.276 123.346 233.349 128.202 233.349ZM135.644 242.14C135.644 238.042 132.306 234.71 128.202 234.71C124.098 234.71 120.761 238.028 120.761 242.14C120.761 246.237 124.084 249.57 128.202 249.57C132.321 249.57 135.644 246.237 135.644 242.14Z" fill="#201E1E"/>
<path d="M128.202 234.71C132.306 234.71 135.644 238.028 135.644 242.14C135.644 246.238 132.306 249.57 128.202 249.57C124.098 249.57 120.761 246.252 120.761 242.14C120.761 238.028 124.098 234.71 128.202 234.71Z" fill="#201E1E"/>
<path d="M125.731 229.478H128.202C121.201 229.478 115.535 235.149 115.535 242.125C115.535 249.116 121.215 254.773 128.202 254.773H125.731C118.73 254.773 113.064 249.101 113.064 242.125C113.05 235.149 118.73 229.478 125.731 229.478Z" fill="#201E1E"/>
<path d="M128.202 229.478C135.203 229.478 140.869 235.149 140.869 242.125C140.869 249.116 135.189 254.773 128.202 254.773C121.215 254.773 115.535 249.101 115.535 242.125C115.535 235.149 121.201 229.478 128.202 229.478Z" stroke="#201E1E" stroke-width="0.612651" stroke-miterlimit="10"/>
<path d="M137.007 242.14C137.007 246.989 133.059 250.931 128.202 250.931C123.346 250.931 119.398 246.989 119.398 242.14C119.398 237.29 123.346 233.349 128.202 233.349C133.059 233.349 137.007 237.276 137.007 242.14Z" stroke="#201E1E" stroke-width="0.612651" stroke-miterlimit="10"/>
<path d="M135.644 242.14C135.644 246.238 132.306 249.57 128.202 249.57C124.098 249.57 120.761 246.252 120.761 242.14C120.761 238.042 124.084 234.71 128.202 234.71C132.321 234.71 135.644 238.028 135.644 242.14Z" stroke="#201E1E" stroke-width="0.612651" stroke-miterlimit="10"/>
<path d="M128.202 229.478H125.731C118.73 229.478 113.064 235.149 113.064 242.125C113.064 249.116 118.745 254.773 125.731 254.773H128.202H128.33" stroke="#201E1E" stroke-width="0.612651" stroke-miterlimit="10"/>
<path d="M192.787 228.116V238.453L192.702 239.828C192.617 241.26 191.424 242.38 189.975 242.38H188.143V238.07C188.143 234.724 185.957 232.001 183.258 232.001H172.721C171.358 232.001 170.137 232.682 169.256 233.802L169.2 233.759H148.452V230.739L147.245 228.201L147.316 228.13H192.659H192.787V228.116ZM191.509 240.012V238.552H189.351V240.027H191.509V240.012Z" fill="white"/>
<path d="M192.787 164.708V228.117H192.659H147.316L148.694 226.742V207.359H189.464L189.606 174.407C189.606 173.06 188.527 171.968 187.178 171.968H76.1138C71.5128 173.556 69.2832 192.542 68.2466 207.345C67.5649 217.071 67.3945 224.998 67.3945 224.998L63.674 226.189C63.1201 221.424 63.3189 215.157 63.9296 208.451C65.0372 196.285 67.5081 182.616 69.3258 173.513C69.9223 170.55 70.4477 168.069 70.8311 166.296C70.9021 165.956 70.9731 165.63 71.0441 165.332C71.3139 164.098 72.4216 163.205 73.6855 163.205H192.531C192.702 163.673 192.787 164.183 192.787 164.708Z" fill="white"/>
<path d="M192.531 163.205H73.6711C72.4072 163.205 71.2995 164.084 71.0297 165.332C70.9587 165.629 70.9019 165.941 70.8167 166.296L70.6605 166.267H9.73932L9.69672 166.253C9.82451 165.686 9.92393 165.19 10.0233 164.779C10.2363 163.829 11.0032 163.091 11.9688 162.935C17.9757 161.9 40.3987 160.709 69.8652 160.213H188.299C190.245 160.213 191.921 161.461 192.531 163.205Z" fill="white"/>
<path d="M189.35 238.553H191.509V240.027H189.35V238.553Z" fill="white"/>
<path d="M115.848 207.359H94.7312H68.3746L68.2326 207.345C69.2692 192.542 71.4987 173.556 76.0998 171.968H187.178C188.527 171.968 189.621 173.06 189.606 174.407L189.464 207.359H148.68H115.848ZM187.774 205.672V173.641H170.18V205.672H187.774ZM168.618 205.672V173.641H137.688V205.672H168.618ZM136.226 205.672V173.641H117.254V205.672H136.226ZM115.663 205.672V173.641H96.6909V205.672H115.663ZM95.0436 205.898V173.485H76.6536C71.8254 176.647 69.8373 205.898 69.8373 205.898H95.0436Z" fill="white"/>
<path d="M170.18 173.641H187.774V205.671H170.18V173.641Z" fill="#201E1E"/>
<path d="M169.185 233.746L169.242 233.789C168.362 234.88 167.822 236.398 167.822 238.071V242.381H147.728L148.438 240.623V233.746H169.185ZM156.859 240.013V238.553H154.005V240.027H156.859V240.013Z" fill="white"/>
<path d="M137.688 173.641H168.617V205.671H137.688V173.641Z" fill="#201E1E"/>
<path d="M154.005 238.553H156.859V240.027H154.005V238.553Z" fill="#F7941D"/>
<path d="M148.68 207.358V226.741L147.302 228.117H114.47L115.848 226.741V207.358H148.68Z" fill="white"/>
<path d="M148.438 233.746V240.623L147.743 242.381H114.911L115.606 240.623V233.746H148.438Z" fill="white"/>
<path d="M148.438 230.725V233.745H115.606V230.725L114.399 228.187L114.47 228.116H147.302L147.231 228.187L148.438 230.725Z" fill="white"/>
<path d="M117.253 173.641H136.226V205.671H117.253V173.641Z" fill="#201E1E"/>
<path d="M63.6741 226.188L67.3805 224.997L78.6133 223.452L94.7453 207.358H115.848V226.741L114.47 228.117H63.5747H63.5179L63.5747 226.217L63.6741 226.188Z" fill="white"/>
<path d="M96.6909 173.641H115.663V205.671H96.6909V173.641Z" fill="#201E1E"/>
<path d="M115.606 233.746V240.623L114.896 242.381H97.8839V238.071C97.8839 236.383 97.3301 234.852 96.4212 233.746H115.606ZM110.097 240.013V238.553H107.242V240.027H110.097V240.013Z" fill="white"/>
<path d="M115.606 230.725V233.745H96.4354C95.555 232.668 94.3337 232.001 92.9989 232.001H82.4619C81.1128 232.001 79.8916 232.682 78.9969 233.774L78.9685 233.745H63.9867L63.5607 232.143L63.4755 229.69L63.5181 228.116H63.5749H114.47L114.399 228.187L115.606 230.725Z" fill="white"/>
<path d="M107.241 238.553H110.096V240.027H107.241V238.553Z" fill="#F7941D"/>
<path d="M95.043 173.484V205.898H69.8367C69.8367 205.898 71.8248 176.646 76.653 173.484H95.043Z" fill="#201E1E"/>
<path d="M94.7451 207.358L78.6131 223.466L67.3945 225.011C67.3945 225.011 67.5649 217.085 68.2465 207.358L68.3885 207.373H94.7451V207.358ZM89.5192 210.322L89.4056 208.805H70.0358L69.1696 222.955L77.5054 222.09L89.5192 210.322Z" fill="white"/>
<path d="M89.4059 208.805L89.5195 210.322L77.5057 222.105L69.1841 222.97L70.0503 208.805H89.4059Z" fill="#201E1E"/>
<path d="M78.9677 233.746L78.9961 233.774C78.1156 234.866 77.5618 236.398 77.5618 238.071V242.381L75.5737 242.41H65.0368H63.9859V235.788V233.746H78.9677Z" fill="white"/>
<path d="M14.3836 170.436L14.483 170.465H61.0473L61.0757 170.479L61.5017 168.777H14.7813L14.3836 170.436ZM70.6612 166.253L70.8174 166.282C70.434 168.068 69.9085 170.536 69.3121 173.499H69.1843H8.17791C8.77434 170.521 9.29977 168.026 9.68319 166.239L9.7258 166.253H70.6612Z" fill="white"/>
<path d="M13.8576 208.181L13.5878 208.166L13.5594 208.181L8.87316 211.328L4.32892 211.314C3.43427 211.201 2.88043 208.209 2.88043 208.209H2.80943C3.93129 196.1 6.37383 182.545 8.17732 173.513H69.1837H69.3115C67.4938 182.616 65.0229 196.284 63.9152 208.45H63.8726C63.8726 208.45 63.3188 211.442 62.4242 211.555L60.6065 211.541V209.669H58.2633V201.644H60.2515H61.7567V192.087H60.2515H55.8492C54.9688 192.087 54.2445 192.796 54.2445 193.69V199.758C54.2445 200.807 55.0966 201.658 56.1474 201.658H57.4539V209.684H55.5652V211.541L33.2984 211.456L37.6439 208.237L37.3315 208.209L37.0616 208.195L37.0332 208.209L32.205 211.456L9.95241 211.371L14.17 208.237L13.8576 208.181Z" fill="#201E1E"/>
<path d="M3.61943 230.059L3.2218 229.931C2.96619 228.967 2.76738 227.889 2.61118 226.713L6.38857 228.485H59.3147L63.575 226.23L63.5324 228.116L63.4898 229.69L62.6661 229.931H53.7338L50.3541 230.995V235.05L51.5469 236.241H53.0664H62.1407L63.8874 235.787H64.001V242.409H50.1695V242.338L48.8772 241.104L45.327 237.716H30.1322V236.907H20.8591V237.815H12.0831L10.805 241.246L10.3932 242.352V242.423H7.80865C4.34366 241.345 3.91764 236.255 3.91764 236.255H4.30105H5.43711L7.53883 235.518L7.46782 231.307L3.61943 230.059ZM12.1825 236.057H45.0714V235.915V231.108V231.08H12.1825V231.108V235.915V236.057Z" fill="white"/>
<path d="M63.9863 233.746V235.787H63.8727L62.126 236.241H53.0518H51.5323L50.3394 235.05V230.995L53.7192 229.931H62.6515L63.4751 229.69L63.5603 232.143L63.9863 233.746Z" fill="#F7941D"/>
<path d="M63.8724 208.451H63.915C63.3044 215.171 63.1056 221.424 63.6594 226.189L63.56 226.217L59.2998 228.471H6.37363L2.59622 226.699C1.95719 221.807 2.156 215.257 2.80923 208.195H2.88023C2.88023 208.195 3.43407 211.187 4.32872 211.301L8.87296 211.315L7.77949 212.052L8.95816 212.066L9.95221 211.329L32.2048 211.414L31.2533 212.052L32.432 212.066L33.2982 211.414L55.565 211.499V220.205H60.6063V211.513L62.424 211.527C63.3186 211.442 63.8724 208.451 63.8724 208.451Z" fill="white"/>
<path d="M60.2662 192.073H61.7715V201.63H60.2662V192.073Z" fill="white"/>
<path d="M61.501 168.777L61.0892 170.465H61.0466H14.4823L14.3829 170.436L14.7805 168.777H61.501Z" fill="#201E1E"/>
<path d="M60.6064 211.542V220.233H55.5794V211.527L60.6064 211.542Z" fill="white"/>
<path d="M60.6064 209.67V211.542L55.5794 211.527V209.67H57.4681V209.84H58.2775V209.67H60.6064Z" fill="white"/>
<path d="M60.2656 192.074V201.63H58.2775V200.567H57.4681V201.63H56.1616C55.1108 201.63 54.2587 200.78 54.2587 199.73V193.662C54.2587 192.783 54.9687 192.06 55.8634 192.06H60.2656V192.074Z" fill="white"/>
<path d="M57.4679 209.67H58.2773V209.84H57.4679V209.67Z" fill="white"/>
<path d="M57.4679 201.63H58.2773V209.655H57.4679V201.63Z" fill="white"/>
<path d="M57.4679 200.566H58.2773V201.63H57.4679V200.566Z" fill="white"/>
<path d="M50.1553 242.338V242.409H10.3648V242.338L10.7766 241.232L10.876 241.275H20.8307V240.098H30.0612V241.119H48.8346L48.863 241.104L50.1553 242.338Z" fill="white"/>
<path d="M45.2979 237.702L48.8623 241.105L48.8339 241.119H30.0605V240.098H20.83V241.275H10.8753L10.7759 241.232L12.054 237.801H20.83V236.894H30.1031V237.702H45.2979Z" fill="#201E1E"/>
<path d="M45.0713 235.915V236.057H12.1824V235.915V231.108V231.08H45.0713V231.108V235.915Z" fill="#201E1E"/>
<path d="M37.6582 208.209L33.3128 211.428H32.2051L37.0476 208.181H37.3316L37.6582 208.209Z" fill="#58595B"/>
<path d="M33.3125 211.428L32.4321 212.08L31.2534 212.066L32.2048 211.428H33.3125Z" fill="#58595B"/>
<path d="M14.1699 208.209L9.95231 211.343L8.87305 211.328L13.5593 208.181H13.8575L14.1699 208.209Z" fill="#58595B"/>
<path d="M9.95215 211.342L8.9581 212.08L7.77943 212.065L8.8729 211.328L9.95215 211.342Z" fill="#58595B"/>
<path d="M7.43876 231.293L7.50977 235.504L5.40805 236.242H4.25779V236.128L3.64715 234.767L3.27794 230.839L3.61876 230.06L7.43876 231.293Z" fill="#F7941D"/>
<path d="M169.242 233.788C170.123 232.682 171.358 231.988 172.707 231.988H183.258C185.957 231.988 188.143 234.71 188.143 238.056V242.381H189.975C191.41 242.381 192.602 241.261 192.702 239.829L192.787 238.453V228.117V164.708C192.787 164.183 192.702 163.687 192.531 163.219C191.921 161.461 190.245 160.213 188.285 160.213H69.8513C40.3847 160.709 17.9618 161.9 11.9407 162.921C10.975 163.091 10.2082 163.814 9.99516 164.764C9.90995 165.176 9.79634 165.672 9.66853 166.239C9.28511 168.026 8.75969 170.521 8.16326 173.499C6.35976 182.531 3.90303 196.086 2.79537 208.195C2.14214 215.242 1.94333 221.807 2.58236 226.699C2.73857 227.876 2.93739 228.953 3.193 229.917L3.59061 230.045L7.41061 231.279L7.48162 235.49L5.37992 236.227H4.24386H3.86043C3.86043 236.227 4.30065 241.317 7.75143 242.395H10.336H50.1265H63.958H65.0088H75.5458L77.5339 242.367V238.056C77.5339 236.383 78.0877 234.866 78.9682 233.76C79.8486 232.654 81.0699 231.988 82.4331 231.988H92.9701C94.305 231.988 95.5262 232.654 96.4067 233.732C97.3013 234.838 97.8693 236.369 97.8693 238.056V242.381H114.91H147.742H167.822V238.07C167.822 236.397 168.376 234.894 169.242 233.788Z" stroke="#201E1E" stroke-width="0.612651" stroke-miterlimit="10"/>
<path d="M63.8727 235.787L62.126 236.241H53.0518H51.5323L50.3394 235.05V230.995L53.7192 229.931H62.6515L63.4751 229.69L63.5603 232.143L63.9863 233.746V235.787V242.409V242.494" stroke="#201E1E" stroke-width="0.612651" stroke-miterlimit="10"/>
<path d="M63.6743 226.203V226.189C63.1205 221.424 63.3193 215.157 63.93 208.451C65.0376 196.285 67.5085 182.616 69.3262 173.513C69.9227 170.55 70.4481 168.069 70.8315 166.296C70.9025 165.956 70.9735 165.63 71.0445 165.332C71.3144 164.098 72.422 163.205 73.6859 163.205H192.532H192.646" stroke="#201E1E" stroke-width="0.612651" stroke-miterlimit="10"/>
<path d="M9.73995 166.253H70.6611" stroke="#201E1E" stroke-width="0.612651" stroke-miterlimit="10"/>
<path d="M8.163 173.513H8.1772H69.1836" stroke="#201E1E" stroke-width="0.612651" stroke-miterlimit="10"/>
<path d="M60.8619 171.4L61.0892 170.465L61.501 168.777H14.7805L14.3829 170.436L14.1557 171.4" stroke="#201E1E" stroke-width="0.612651" stroke-miterlimit="10"/>
<path d="M14.4826 170.465H61.0469" stroke="#201E1E" stroke-width="0.612651" stroke-miterlimit="10"/>
<path d="M60.6069 211.541L62.4246 211.555C63.3192 211.442 63.873 208.45 63.873 208.45" stroke="#201E1E" stroke-width="0.612651" stroke-miterlimit="10"/>
<path d="M33.3123 211.428L55.5791 211.527" stroke="#201E1E" stroke-width="0.612651" stroke-miterlimit="10"/>
<path d="M9.95252 211.343L32.2051 211.428" stroke="#201E1E" stroke-width="0.612651" stroke-miterlimit="10"/>
<path d="M2.88032 208.209C2.88032 208.209 3.43416 211.201 4.32881 211.314L8.87305 211.328" stroke="#201E1E" stroke-width="0.612651" stroke-miterlimit="10"/>
<path d="M2.59622 226.699L6.38783 228.471H59.314L63.5742 226.217L63.5174 228.117L63.4748 229.691" stroke="#201E1E" stroke-width="0.612651" stroke-miterlimit="10"/>
<path d="M3.64717 229.988L3.61878 230.059L3.27796 230.839L3.64717 234.767L4.25781 236.128" stroke="#201E1E" stroke-width="0.612651" stroke-miterlimit="10"/>
<path d="M10.9043 231.08H12.1823H45.0713H46.6191" stroke="#201E1E" stroke-width="0.612651" stroke-miterlimit="10"/>
<path d="M10.9043 236.057H12.1823H45.0713H46.6191" stroke="#201E1E" stroke-width="0.612651" stroke-miterlimit="10"/>
<path d="M12.1816 235.915V231.108" stroke="#201E1E" stroke-width="0.612651" stroke-miterlimit="10"/>
<path d="M45.0713 235.915V231.108" stroke="#201E1E" stroke-width="0.612651" stroke-miterlimit="10"/>
<path d="M10.3648 242.338L10.7766 241.232L12.0547 237.801H20.8307V236.894H30.1038V237.702H45.2986L48.863 241.105L50.1553 242.338" stroke="#201E1E" stroke-width="0.612651" stroke-miterlimit="10"/>
<path d="M10.8754 241.275H20.8301V240.098H30.0606V241.119H48.834" stroke="#201E1E" stroke-width="0.612651" stroke-miterlimit="10"/>
<path d="M11.6563 164.098H68.1895" stroke="#201E1E" stroke-width="0.612651" stroke-miterlimit="10"/>
<path d="M67.3805 224.998C67.3805 224.998 67.5509 217.072 68.2326 207.345C69.2692 192.542 71.4987 173.556 76.0998 171.968H187.178C188.527 171.968 189.621 173.06 189.606 174.407L189.464 207.359H148.68H115.848H94.7311L78.5991 223.466L67.3805 224.998ZM67.3805 224.998L63.6599 226.189L63.5605 226.217" stroke="#201E1E" stroke-width="0.612651" stroke-miterlimit="10"/>
<path d="M76.6388 173.484H95.043V205.898H69.8366C69.8224 205.898 71.8105 176.632 76.6388 173.484Z" stroke="#201E1E" stroke-width="0.612651" stroke-miterlimit="10"/>
<path d="M70.0503 208.805H89.4059L89.5195 210.322L77.5057 222.105L69.1841 222.97L70.0503 208.805Z" stroke="#201E1E" stroke-width="0.612651" stroke-miterlimit="10"/>
<path d="M94.7451 207.358H68.3885" stroke="#201E1E" stroke-width="0.612651" stroke-miterlimit="10"/>
<path d="M96.6909 173.641H115.663V205.671H96.6909V173.641Z" stroke="#201E1E" stroke-width="0.612651" stroke-miterlimit="10"/>
<path d="M117.253 173.641H136.226V205.671H117.253V173.641Z" stroke="#201E1E" stroke-width="0.612651" stroke-miterlimit="10"/>
<path d="M170.18 173.641H187.774V205.671H170.18V173.641Z" stroke="#201E1E" stroke-width="0.612651" stroke-miterlimit="10"/>
<path d="M137.688 173.641H168.617V205.671H137.688V173.641Z" stroke="#201E1E" stroke-width="0.612651" stroke-miterlimit="10"/>
<path d="M115.848 207.302V207.358V226.741L114.47 228.117L114.399 228.188L115.606 230.726V233.746V240.623L114.91 242.381L114.882 242.438" stroke="#201E1E" stroke-width="0.612651" stroke-miterlimit="10"/>
<path d="M148.68 207.302V207.358V226.741L147.302 228.117L147.231 228.188L148.438 230.726V233.746V240.623L147.742 242.381L147.714 242.438" stroke="#201E1E" stroke-width="0.612651" stroke-miterlimit="10"/>
<path d="M96.3925 233.746H96.4351H115.606H148.438H169.186" stroke="#201E1E" stroke-width="0.612651" stroke-miterlimit="10"/>
<path d="M63.986 233.746H78.9678" stroke="#201E1E" stroke-width="0.612651" stroke-miterlimit="10"/>
<path d="M63.5744 228.116H114.47H147.302H192.659" stroke="#201E1E" stroke-width="0.612651" stroke-miterlimit="10"/>
<path d="M73.6289 167.062H190.316" stroke="#201E1E" stroke-width="0.612651" stroke-miterlimit="10"/>
<path d="M107.241 238.553H110.096V240.027H107.241V238.553Z" stroke="#201E1E" stroke-width="0.612651" stroke-miterlimit="10"/>
<path d="M154.005 238.553H156.859V240.027H154.005V238.553Z" stroke="#201E1E" stroke-width="0.612651" stroke-miterlimit="10"/>
<path d="M189.35 238.553H191.509V240.027H189.35V238.553Z" stroke="#201E1E" stroke-width="0.612651" stroke-miterlimit="10"/>
<path d="M9.95231 211.343L8.95826 212.08L7.77959 212.066L8.87305 211.329L13.5593 208.181L13.6019 208.167L13.8575 208.181L14.1699 208.21L9.95231 211.343Z" stroke="#201E1E" stroke-width="0.612651" stroke-miterlimit="10"/>
<path d="M10.7336 208.181H13.5595H13.8578H27.7461" stroke="#201E1E" stroke-width="0.612651" stroke-miterlimit="10"/>
<path d="M33.3128 211.428L32.4323 212.08L31.2537 212.066L32.2051 211.428L37.0476 208.181L37.076 208.167L37.3316 208.181L37.6582 208.21L33.3128 211.428Z" stroke="#201E1E" stroke-width="0.612651" stroke-miterlimit="10"/>
<path d="M34.2214 208.181H37.0474H37.3314H51.2197" stroke="#201E1E" stroke-width="0.612651" stroke-miterlimit="10"/>
<path d="M58.2773 201.63V209.669" stroke="#201E1E" stroke-width="0.612651" stroke-miterlimit="10"/>
<path d="M57.4678 209.669V201.63" stroke="#201E1E" stroke-width="0.612651" stroke-miterlimit="10"/>
<path d="M60.2656 201.63H58.2775H57.4681H56.1616C55.1108 201.63 54.2587 200.78 54.2587 199.73V193.662C54.2587 192.783 54.9687 192.06 55.8634 192.06H60.2656" stroke="#201E1E" stroke-width="0.612651" stroke-miterlimit="10"/>
<path d="M60.2662 192.073H61.7715V201.63H60.2662V192.073Z" stroke="#201E1E" stroke-width="0.612651" stroke-miterlimit="10"/>
<path d="M60.6064 211.542V220.233H55.5794V211.527V209.67H57.4681H58.2775H60.6064V211.542Z" stroke="#201E1E" stroke-width="0.612651" stroke-miterlimit="10"/>
<path d="M141.551 218.39C141.778 218.12 142.077 217.908 142.46 217.752C142.843 217.596 143.269 217.482 143.724 217.397C144.008 217.355 144.235 217.284 144.391 217.227C144.548 217.156 144.675 217.085 144.761 216.986C144.846 216.887 144.874 216.787 144.874 216.688C144.874 216.561 144.846 216.447 144.761 216.348C144.69 216.249 144.604 216.178 144.476 216.121C144.349 216.05 144.207 216.036 144.022 216.036C143.695 216.036 143.454 216.107 143.312 216.263C143.17 216.405 143.099 216.603 143.099 216.858H141.21C141.21 216.447 141.324 216.078 141.551 215.752C141.778 215.426 142.091 215.185 142.517 215.001C142.929 214.831 143.426 214.731 144.008 214.731C144.576 214.731 145.045 214.831 145.442 215.015C145.84 215.214 146.152 215.469 146.351 215.767C146.564 216.093 146.678 216.419 146.678 216.787C146.678 217.17 146.578 217.496 146.379 217.752C146.166 218.021 145.897 218.234 145.542 218.39C145.187 218.546 144.789 218.687 144.349 218.787C143.994 218.872 143.724 218.928 143.525 219.014C143.326 219.099 143.198 219.17 143.142 219.255C143.071 219.34 143.028 219.453 143.028 219.552C143.028 219.68 143.056 219.793 143.142 219.893C143.213 219.992 143.312 220.049 143.44 220.12C143.568 220.162 143.738 220.205 143.951 220.205C144.164 220.205 144.334 220.176 144.519 220.105C144.675 220.034 144.817 219.949 144.917 219.822C145.016 219.694 145.073 219.524 145.087 219.311H146.891C146.891 219.666 146.777 220.02 146.55 220.346C146.323 220.687 146.01 220.97 145.57 221.197C145.13 221.424 144.619 221.537 143.994 221.537C143.411 221.537 142.914 221.452 142.503 221.282C142.091 221.112 141.75 220.871 141.523 220.559C141.296 220.261 141.168 219.907 141.168 219.524C141.21 219.028 141.324 218.659 141.551 218.39Z" fill="#201E1E"/>
<path d="M140.244 213.966V221.381H138.526V213.966H140.244ZM135.231 216.291C135.387 215.951 135.629 215.696 135.941 215.554C136.225 215.398 136.58 215.327 136.964 215.327C137.418 215.327 137.816 215.455 138.157 215.71C138.284 215.809 138.412 215.937 138.526 216.064C138.682 216.263 138.824 216.476 138.938 216.731C139.136 217.17 139.207 217.681 139.207 218.234L138.753 218.22C138.753 217.993 138.739 217.808 138.71 217.61C138.682 217.44 138.611 217.27 138.54 217.142C138.54 217.142 138.54 217.142 138.54 217.128C138.441 217 138.327 216.887 138.185 216.83C138.043 216.745 137.858 216.717 137.645 216.717C137.447 216.717 137.29 216.745 137.163 216.802C137.035 216.873 136.921 216.943 136.864 217.085C136.793 217.213 136.751 217.411 136.751 217.667V221.396H135.018V217.667C134.99 217.085 135.075 216.646 135.231 216.291Z" fill="#201E1E"/>
<path d="M130.19 218.716C130.19 218.971 130.218 219.212 130.304 219.425C130.318 219.496 130.346 219.538 130.389 219.595C130.474 219.723 130.559 219.836 130.673 219.921C130.843 220.049 131.085 220.091 131.397 220.091C131.553 220.091 131.681 220.063 131.809 220.006C131.923 219.964 132.022 219.864 132.079 219.751C132.15 219.637 132.178 219.481 132.178 219.283V215.44H133.896V219.283C133.896 220.063 133.726 220.63 133.357 220.984C132.988 221.325 132.505 221.495 131.923 221.495C131.44 221.495 131.028 221.367 130.701 221.126C130.559 221.013 130.432 220.899 130.332 220.758C130.19 220.587 130.062 220.375 129.977 220.134C129.821 219.723 129.736 219.24 129.736 218.702H130.19V218.716ZM130.375 215.44V219.949L130.304 220.786L130.261 221.396H128.642V215.44H130.375Z" fill="#201E1E"/>
<path d="M128.046 215.44V216.688H124.496V215.44H128.046ZM124.624 220.077C124.709 220.077 124.78 220.091 124.879 220.091C125.021 220.091 125.135 220.077 125.22 220.048C125.319 220.02 125.376 219.949 125.419 219.878C125.447 219.793 125.49 219.665 125.49 219.509V213.979H127.222V219.694C127.222 220.133 127.137 220.459 126.995 220.729C126.853 220.998 126.64 221.197 126.384 221.31C126.115 221.438 125.802 221.48 125.433 221.48C125.234 221.48 125.05 221.466 124.893 221.452C124.737 221.424 124.567 221.381 124.425 221.338V220.034C124.496 220.062 124.567 220.077 124.624 220.077Z" fill="#201E1E"/>
<path d="M123.984 215.44V216.688H120.434V215.44H123.984ZM120.576 220.077C120.661 220.077 120.732 220.091 120.832 220.091C120.974 220.091 121.087 220.077 121.187 220.048C121.286 220.02 121.343 219.949 121.386 219.878C121.414 219.793 121.457 219.665 121.457 219.509V213.979H123.189V219.694C123.189 220.133 123.104 220.459 122.962 220.729C122.82 220.998 122.607 221.197 122.351 221.31C122.081 221.438 121.769 221.48 121.4 221.48C121.201 221.48 121.016 221.466 120.86 221.452C120.704 221.424 120.534 221.381 120.406 221.338V220.034C120.434 220.062 120.491 220.077 120.576 220.077Z" fill="#201E1E"/>
<path d="M119.54 213.966V221.381H117.822V213.966H119.54Z" fill="#201E1E"/>
<path d="M111.275 218.262C111.275 217.666 111.375 217.156 111.574 216.702C111.787 216.262 112.071 215.922 112.468 215.681C112.866 215.44 113.349 215.312 113.931 215.312C114.527 215.312 115.024 215.44 115.45 215.71C115.862 215.979 116.189 216.333 116.416 216.801C116.643 217.269 116.757 217.794 116.757 218.389V218.616C116.757 219.141 116.643 219.623 116.402 220.062C116.16 220.502 115.82 220.842 115.379 221.098C114.925 221.353 114.385 221.495 113.76 221.495C113.178 221.495 112.681 221.381 112.298 221.154C111.9 220.927 111.602 220.686 111.432 220.417L112.255 219.453C112.426 219.68 112.639 219.836 112.88 219.935C113.121 220.034 113.377 220.077 113.661 220.077C113.945 220.077 114.201 220.006 114.414 219.878C114.627 219.751 114.783 219.58 114.897 219.354C114.968 219.226 115.01 219.098 115.024 218.942H111.304V218.248L111.275 218.262ZM112.965 217.822H115.01C114.996 217.723 114.982 217.624 114.939 217.539C114.868 217.283 114.769 217.071 114.598 216.929C114.442 216.773 114.229 216.702 113.959 216.702C113.732 216.702 113.547 216.745 113.391 216.83C113.249 216.915 113.136 217.028 113.065 217.184C112.994 217.326 112.951 217.51 112.951 217.695V217.822H112.965Z" fill="#201E1E"/>
<path d="M108.761 216.15L108.804 215.441H110.423V221.382H108.69V216.83L108.761 216.15ZM107.185 215.341C107.284 215.327 107.384 215.327 107.455 215.327C107.81 215.327 108.122 215.441 108.392 215.667C108.534 215.795 108.662 215.951 108.776 216.15C108.861 216.291 108.918 216.433 108.989 216.617C109.116 217.014 109.187 217.482 109.187 218.007L108.847 218.177C108.847 217.936 108.804 217.723 108.719 217.567C108.719 217.553 108.705 217.539 108.705 217.539C108.619 217.369 108.477 217.241 108.293 217.156C108.122 217.071 107.881 217.029 107.583 217.029C107.483 217.029 107.384 217.029 107.284 217.043C107.171 217.057 107.071 217.057 107 217.071L106.986 215.426C107.015 215.384 107.086 215.341 107.185 215.341Z" fill="#201E1E"/>
<path d="M101.718 218.659C101.931 218.418 102.201 218.22 102.542 218.078C102.882 217.936 103.266 217.837 103.678 217.752C103.933 217.709 104.146 217.653 104.288 217.596C104.43 217.525 104.544 217.468 104.629 217.383C104.7 217.298 104.729 217.213 104.729 217.1C104.729 216.986 104.7 216.873 104.629 216.802C104.558 216.717 104.487 216.646 104.359 216.589C104.246 216.547 104.118 216.504 103.962 216.504C103.678 216.504 103.451 216.575 103.323 216.703C103.195 216.83 103.124 217 103.124 217.227H101.406C101.406 216.844 101.505 216.518 101.704 216.235C101.917 215.951 102.201 215.724 102.584 215.54C102.968 215.384 103.422 215.299 103.948 215.299C104.459 215.299 104.899 215.384 105.254 215.554C105.609 215.724 105.893 215.951 106.092 216.249C106.291 216.532 106.376 216.844 106.376 217.185C106.376 217.539 106.276 217.823 106.106 218.064C105.907 218.305 105.666 218.503 105.353 218.659C105.027 218.815 104.686 218.929 104.274 219.014C103.948 219.085 103.706 219.141 103.536 219.226C103.365 219.297 103.252 219.368 103.181 219.439C103.11 219.524 103.081 219.595 103.081 219.709C103.081 219.822 103.11 219.921 103.181 220.006C103.252 220.091 103.337 220.162 103.465 220.205C103.593 220.247 103.735 220.276 103.933 220.276C104.132 220.276 104.288 220.247 104.445 220.191C104.587 220.148 104.714 220.049 104.814 219.921C104.913 219.794 104.956 219.652 104.97 219.453H106.589C106.589 219.779 106.489 220.091 106.291 220.403C106.078 220.701 105.794 220.97 105.41 221.169C105.027 221.367 104.544 221.467 103.976 221.467C103.465 221.467 103.01 221.382 102.627 221.226C102.243 221.07 101.959 220.857 101.746 220.573C101.533 220.304 101.42 219.978 101.42 219.623C101.406 219.241 101.505 218.915 101.718 218.659Z" fill="#201E1E"/>
<path d="M150.952 222.827C153.551 224.827 157.271 224.373 159.302 221.792C161.304 219.198 160.85 215.483 158.265 213.455C155.666 211.456 151.946 211.91 149.915 214.49C147.884 217.085 148.367 220.828 150.952 222.827Z" fill="#20E682"/>
<path d="M151.307 218.73C151.392 219.198 151.648 219.623 152.074 219.935L155.582 222.388V220.459L153.352 218.9C153.267 218.9 153.196 218.886 153.111 218.829C152.954 218.715 152.912 218.503 153.011 218.347V218.333C153.011 218.333 153.011 218.333 153.011 218.318C153.011 218.318 153.011 218.318 153.025 218.304C153.025 218.304 153.025 218.304 153.04 218.29C153.153 218.148 153.366 218.12 153.522 218.219C153.522 218.219 153.522 218.219 153.537 218.219C153.608 218.262 153.65 218.333 153.664 218.418L155.014 219.368C155.042 219.382 155.056 219.396 155.099 219.41C155.269 219.524 155.454 219.58 155.638 219.637C156.363 219.807 157.144 219.538 157.598 218.9C157.882 218.489 157.981 217.992 157.896 217.524C157.811 217.057 157.555 216.631 157.129 216.319L153.608 213.866V215.795L155.837 217.354C155.922 217.354 155.993 217.368 156.079 217.425C156.235 217.539 156.277 217.751 156.178 217.907C156.178 217.907 156.178 217.907 156.178 217.921C156.178 217.921 156.178 217.921 156.178 217.936C156.178 217.936 156.178 217.936 156.164 217.95C156.164 217.95 156.164 217.95 156.15 217.964C156.036 218.106 155.823 218.134 155.667 218.035C155.667 218.035 155.667 218.035 155.653 218.035C155.582 217.992 155.539 217.921 155.525 217.836L154.176 216.886C154.147 216.872 154.133 216.858 154.09 216.844C153.92 216.73 153.735 216.674 153.551 216.617C152.827 216.447 152.046 216.716 151.591 217.354C151.321 217.765 151.236 218.262 151.307 218.73Z" fill="#201E1E"/>
</g>
<g filter="url(#filter0_f_490_33362)">
<ellipse cx="141" cy="226.5" rx="124" ry="1.5" fill="#C5C5C5" fill-opacity="0.26"/>
</g>
<g filter="url(#filter1_f_490_33362)">
<ellipse cx="39" cy="258.5" rx="22" ry="1.5" fill="#C5C5C5" fill-opacity="0.26"/>
</g>
<mask id="mask0_490_33362" style="mask-type:alpha" maskUnits="userSpaceOnUse" x="0" y="0" width="304" height="274">
<path fill-rule="evenodd" clip-rule="evenodd" d="M104.019 263.549C42.8515 244.755 0.755872 188.287 0.00695911 124.104C-0.66181 66.7893 46.9678 24.6836 101.015 6.12347C148.611 -10.2211 197.901 7.37266 232.082 44.4085C277.093 93.1804 326.482 156.777 292.973 214.118C256.573 276.405 172.827 284.69 104.019 263.549Z" fill="#202024"/>
</mask>
<g mask="url(#mask0_490_33362)">
<path d="M359.023 231.547C383.046 255.484 292.019 267.44 292.019 267.44L-40.8569 324.253L-46.289 279.437C3.37953 252.215 25.1283 256.246 34.3786 264.982C43.6288 273.718 42.3872 254.309 62.4551 248.064C82.5229 241.819 94.9386 231.416 108.727 240.167C122.516 248.917 88.3727 227.555 134.379 219.381C180.385 211.208 192.306 223.111 194.357 234.873C196.408 246.634 201.457 216.655 225.044 212.483C248.616 208.314 260.729 208.102 271.162 220.347C281.594 232.592 281.808 242.987 291.178 225.083C300.533 207.167 334.986 207.613 359.023 231.547Z" fill="#20E682"/>
<path d="M-46.289 279.437C3.37953 252.215 25.1283 256.246 34.3786 264.982C43.6288 273.718 42.3872 254.309 62.4551 248.064C82.5229 241.819 94.9387 231.416 108.727 240.167C122.516 248.917 88.3727 227.555 134.379 219.381C180.385 211.208 192.306 223.111 194.357 234.873C196.408 246.635 201.457 216.655 225.044 212.483C248.616 208.314 260.729 208.102 271.162 220.347C281.594 232.592 281.808 242.987 291.178 225.083C300.535 207.182 335.002 207.625 359.025 231.561C383.048 255.498 292.022 267.454 292.022 267.454L-40.8545 324.268L-46.289 279.437Z" stroke="#201E1E" stroke-width="3" stroke-miterlimit="10"/>
</g>
<defs>
<filter id="filter0_f_490_33362" x="12" y="220" width="258" height="13" filterUnits="userSpaceOnUse" color-interpolation-filters="sRGB">
<feFlood flood-opacity="0" result="BackgroundImageFix"/>
<feBlend mode="normal" in="SourceGraphic" in2="BackgroundImageFix" result="shape"/>
<feGaussianBlur stdDeviation="2.5" result="effect1_foregroundBlur_490_33362"/>
</filter>
<filter id="filter1_f_490_33362" x="12" y="252" width="54" height="13" filterUnits="userSpaceOnUse" color-interpolation-filters="sRGB">
<feFlood flood-opacity="0" result="BackgroundImageFix"/>
<feBlend mode="normal" in="SourceGraphic" in2="BackgroundImageFix" result="shape"/>
<feGaussianBlur stdDeviation="2.5" result="effect1_foregroundBlur_490_33362"/>
</filter>
<clipPath id="clip0_490_33362">
<rect width="274.672" height="136.825" fill="white" transform="translate(50 79)"/>
</clipPath>
<clipPath id="clip1_490_33362">
<rect width="191" height="95" fill="white" transform="matrix(-1 0 0 1 193 160)"/>
</clipPath>
</defs>
</svg>
