<svg width="128" height="128" viewBox="0 0 128 128" fill="none" xmlns="http://www.w3.org/2000/svg">
<path d="M72.3575 107.382C86.0535 107.382 99.1885 101.941 108.873 92.2568C118.558 82.5723 123.998 69.4373 123.998 55.7413C123.998 42.0453 118.558 28.9103 108.873 19.2258C99.1885 9.54129 86.0535 4.10059 72.3575 4.10059C58.6616 4.10059 45.5265 9.54129 35.842 19.2258C26.1575 28.9103 20.7168 42.0453 20.7168 55.7413C20.7168 69.4373 26.1575 82.5723 35.842 92.2568C45.5265 101.941 58.6616 107.382 72.3575 107.382Z" fill="#E6FFF2"/>
<path d="M55.6407 20.7178C62.4223 20.7178 69.1375 22.0535 75.4028 24.6487C81.6681 27.2439 87.361 31.0477 92.1563 35.843C96.9515 40.6383 100.755 46.3311 103.351 52.5965C105.946 58.8618 107.281 65.577 107.281 72.3585C107.281 86.0545 101.841 99.1895 92.1562 108.874C82.4717 118.559 69.3367 123.999 55.6407 123.999C41.9448 123.999 28.8097 118.559 19.1252 108.874C9.44071 99.1895 4 86.0545 4 72.3585C4 58.6625 9.4407 45.5275 19.1252 35.843C28.8097 26.1585 41.9448 20.7178 55.6407 20.7178Z" fill="#0DAC5C"/>
<path d="M78.0011 49.5002L48.0011 74.4998L34 64C25.952 59.8846 20.2423 64.9132 24.9308 73.0335L39.2818 94.4927C43.209 99.9963 52.6093 100.307 57.056 94.4927L86.0071 58.434C91.7458 50.6636 85.3489 43.9458 78.0011 49.5002Z" fill="white"/>
</svg>
