<svg width="273" height="148" viewBox="0 0 273 148" fill="none" xmlns="http://www.w3.org/2000/svg">
<g clip-path="url(#clip0_3215_56989)">
<path d="M70 52.5H204C213.665 52.5 221.5 60.335 221.5 70V141.5H52.5V70C52.5 60.335 60.335 52.5 70 52.5Z" fill="url(#paint0_linear_3215_56989)" stroke="url(#paint1_linear_3215_56989)"/>
<g filter="url(#filter0_d_3215_56989)">
<path d="M201 2H73V142H201V2Z" fill="white"/>
<path d="M91.6797 21.7385C89.0631 23.7702 85.2941 23.2966 83.2609 20.68C81.2292 18.0633 81.7028 14.2943 84.3209 12.2611C86.9375 10.2293 90.7064 10.7029 92.7396 13.3196C94.7714 15.9376 94.2963 19.7067 91.6797 21.7385Z" fill="#20E682"/>
<path d="M91.0346 16.1924C90.5769 15.5397 89.7798 15.2653 89.0491 15.4444C88.8599 15.4906 88.6751 15.5671 88.5018 15.6754C88.4729 15.6928 88.444 15.7115 88.4166 15.7318L87.0476 16.6906L87.0462 16.6949C87.026 16.77 86.9812 16.8393 86.9148 16.8899C86.9119 16.8928 86.909 16.8942 86.9047 16.8971C86.7487 17.0069 86.535 16.9765 86.4152 16.8307C86.4123 16.8264 86.4094 16.8235 86.4065 16.8191C86.4036 16.8148 86.4007 16.8119 86.3978 16.8076C86.3949 16.8032 86.3921 16.8004 86.3892 16.796C86.3863 16.7917 86.3848 16.7874 86.3819 16.783C86.2866 16.6213 86.33 16.4105 86.4874 16.3007C86.5596 16.2502 86.6448 16.23 86.7256 16.2357L89.0303 14.6213L88.987 12.6992L85.4274 15.1917C85.0029 15.4892 84.7386 15.931 84.6549 16.4047C84.5711 16.8783 84.6679 17.3838 84.9668 17.8098C85.4245 18.4625 86.2217 18.7369 86.9523 18.5578C87.1415 18.5116 87.3263 18.435 87.4996 18.3267C87.5285 18.3094 87.5574 18.2906 87.5848 18.2704L88.9538 17.3116L88.9552 17.3072C88.9754 17.2321 89.0202 17.1628 89.0866 17.1137C89.0895 17.1108 89.0939 17.1079 89.0967 17.1065C89.2527 16.9968 89.4664 17.0271 89.5863 17.1729C89.5892 17.1773 89.592 17.1801 89.5949 17.1845C89.5978 17.1888 89.6007 17.1917 89.6036 17.196C89.6065 17.2004 89.6094 17.2033 89.6123 17.2076C89.6152 17.2119 89.6166 17.2163 89.6195 17.2206C89.7148 17.3823 89.6715 17.5932 89.5155 17.7029C89.4433 17.7534 89.3596 17.7751 89.2772 17.7679L86.9711 19.3809L87.0144 21.303L90.574 18.8105C90.9985 18.513 91.2628 18.0711 91.3466 17.5975C91.4303 17.1238 91.3336 16.617 91.0346 16.1924Z" fill="#141615"/>
<path d="M191 33H83C82.4477 33 82 33.4477 82 34V38C82 38.5523 82.4477 39 83 39H191C191.552 39 192 38.5523 192 38V34C192 33.4477 191.552 33 191 33Z" fill="#F4F4F4"/>
<path d="M191.5 43H86.5C86.2239 43 86 43.2239 86 43.5C86 43.7761 86.2239 44 86.5 44H191.5C191.776 44 192 43.7761 192 43.5C192 43.2239 191.776 43 191.5 43Z" fill="#F4F4F4"/>
<path d="M184.5 46H82.5C82.2239 46 82 46.2239 82 46.5C82 46.7761 82.2239 47 82.5 47H184.5C184.776 47 185 46.7761 185 46.5C185 46.2239 184.776 46 184.5 46Z" fill="#F4F4F4"/>
<path d="M187.5 49H82.5C82.2239 49 82 49.2239 82 49.5C82 49.7761 82.2239 50 82.5 50H187.5C187.776 50 188 49.7761 188 49.5C188 49.2239 187.776 49 187.5 49Z" fill="#F4F4F4"/>
<path d="M182.5 52H82.5C82.2239 52 82 52.2239 82 52.5C82 52.7761 82.2239 53 82.5 53H182.5C182.776 53 183 52.7761 183 52.5C183 52.2239 182.776 52 182.5 52Z" fill="#F4F4F4"/>
<path d="M191.5 55H82.5C82.2239 55 82 55.2239 82 55.5C82 55.7761 82.2239 56 82.5 56H191.5C191.776 56 192 55.7761 192 55.5C192 55.2239 191.776 55 191.5 55Z" fill="#F4F4F4"/>
<path d="M164.5 58H82.5C82.2239 58 82 58.2239 82 58.5C82 58.7761 82.2239 59 82.5 59H164.5C164.776 59 165 58.7761 165 58.5C165 58.2239 164.776 58 164.5 58Z" fill="#F4F4F4"/>
<path d="M200.5 2.5H73.5V141.5H200.5V2.5Z" stroke="black" stroke-opacity="0.1"/>
</g>
<path d="M231 52H52V85H231V52Z" fill="url(#paint2_linear_3215_56989)"/>
<path d="M1 99C1 87.9543 9.95431 79 21 79H253C264.046 79 273 87.9543 273 99V142H1V99Z" fill="white"/>
<mask id="mask0_3215_56989" style="mask-type:luminance" maskUnits="userSpaceOnUse" x="1" y="79" width="272" height="63">
<path d="M1 99C1 87.9543 9.95431 79 21 79H253C264.046 79 273 87.9543 273 99V142H1V99Z" fill="#EDEDED"/>
</mask>
<g mask="url(#mask0_3215_56989)">
<path d="M0 99C0 87.402 9.40202 78 21 78H253C264.598 78 274 87.402 274 99H272C272 88.5066 263.493 80 253 80H21C10.5066 80 2 88.5066 2 99H0ZM0 142V99C0 87.402 9.40202 78 21 78V80C10.5066 80 2 88.5066 2 99V142H0ZM253 78C264.598 78 274 87.402 274 99V142H272V99C272 88.5066 263.493 80 253 80V78Z" fill="#EDEDED"/>
</g>
<path d="M273 88H0V147H273V88Z" fill="url(#paint3_linear_3215_56989)"/>
</g>
<defs>
<filter id="filter0_d_3215_56989" x="69" y="0" width="136" height="148" filterUnits="userSpaceOnUse" color-interpolation-filters="sRGB">
<feFlood flood-opacity="0" result="BackgroundImageFix"/>
<feColorMatrix in="SourceAlpha" type="matrix" values="0 0 0 0 0 0 0 0 0 0 0 0 0 0 0 0 0 0 127 0" result="hardAlpha"/>
<feOffset dy="2"/>
<feGaussianBlur stdDeviation="2"/>
<feComposite in2="hardAlpha" operator="out"/>
<feColorMatrix type="matrix" values="0 0 0 0 0 0 0 0 0 0 0 0 0 0 0 0 0 0 0.1 0"/>
<feBlend mode="normal" in2="BackgroundImageFix" result="effect1_dropShadow_3215_56989"/>
<feBlend mode="normal" in="SourceGraphic" in2="effect1_dropShadow_3215_56989" result="shape"/>
</filter>
<linearGradient id="paint0_linear_3215_56989" x1="137" y1="52" x2="137" y2="142" gradientUnits="userSpaceOnUse">
<stop stop-color="white" stop-opacity="0"/>
<stop offset="1" stop-color="white"/>
</linearGradient>
<linearGradient id="paint1_linear_3215_56989" x1="137" y1="52" x2="137" y2="142" gradientUnits="userSpaceOnUse">
<stop stop-color="#EAEAEA"/>
<stop offset="1" stop-color="#EAEAEA" stop-opacity="0"/>
</linearGradient>
<linearGradient id="paint2_linear_3215_56989" x1="141.5" y1="52" x2="141.5" y2="85" gradientUnits="userSpaceOnUse">
<stop stop-color="white" stop-opacity="0"/>
<stop offset="1" stop-color="white"/>
</linearGradient>
<linearGradient id="paint3_linear_3215_56989" x1="136.5" y1="88" x2="136.5" y2="147" gradientUnits="userSpaceOnUse">
<stop stop-color="white" stop-opacity="0"/>
<stop offset="0.396492" stop-color="white"/>
</linearGradient>
<clipPath id="clip0_3215_56989">
<rect width="273" height="148" fill="white"/>
</clipPath>
</defs>
</svg>
