<svg width="18" height="18" viewBox="0 0 18 18" fill="none" xmlns="http://www.w3.org/2000/svg">
<path fill-rule="evenodd" clip-rule="evenodd" d="M0.875 9C0.875 4.5125 4.5125 0.875 9 0.875C13.4875 0.875 17.125 4.5125 17.125 9C17.125 13.4875 13.4875 17.125 9 17.125C4.5125 17.125 0.875 13.4875 0.875 9ZM10.3567 5.73583C9.615 5.08833 8.385 5.08833 7.64417 5.73583C7.5194 5.84501 7.35638 5.90016 7.19096 5.88914C7.02553 5.87813 6.87126 5.80185 6.76208 5.67708C6.6529 5.55232 6.59775 5.3893 6.60877 5.22387C6.61979 5.05845 6.69607 4.90418 6.82083 4.795C8.0325 3.735 9.9675 3.735 11.1792 4.795C12.44 5.89833 12.44 7.72667 11.1792 8.83C10.9683 9.01386 10.7337 9.16858 10.4817 9.29C9.91833 9.56333 9.625 9.935 9.625 10.25V10.875C9.625 11.0408 9.55915 11.1997 9.44194 11.3169C9.32473 11.4342 9.16576 11.5 9 11.5C8.83424 11.5 8.67527 11.4342 8.55806 11.3169C8.44085 11.1997 8.375 11.0408 8.375 10.875V10.25C8.375 9.18417 9.25833 8.49417 9.9375 8.165C10.0892 8.09167 10.23 7.99917 10.3567 7.88917C11.0483 7.28333 11.0483 6.34167 10.3567 5.73583ZM9 14C9.16576 14 9.32473 13.9342 9.44194 13.8169C9.55915 13.6997 9.625 13.5408 9.625 13.375C9.625 13.2092 9.55915 13.0503 9.44194 12.9331C9.32473 12.8158 9.16576 12.75 9 12.75C8.83424 12.75 8.67527 12.8158 8.55806 12.9331C8.44085 13.0503 8.375 13.2092 8.375 13.375C8.375 13.5408 8.44085 13.6997 8.55806 13.8169C8.67527 13.9342 8.83424 14 9 14Z" fill="#0DAC5C"/>
</svg>
